<svg height="496pt" viewBox="0 0 496 496" width="496pt" xmlns="http://www.w3.org/2000/svg"><path d="m488 48h-208v-16c0-17.648438-14.351562-32-32-32s-32 14.351562-32 32v16h-208c-4.425781 0-8 3.574219-8 8v288c0 4.425781 3.574219 8 8 8h216v36.6875l-93.65625 93.65625c-2.289062 2.289062-2.976562 5.726562-1.734375 8.71875 1.230469 2.992188 4.160156 4.9375 7.390625 4.9375h48c2.128906 0 4.160156-.839844 5.65625-2.34375l34.34375-34.34375v28.6875c0 4.425781 3.574219 8 8 8h32c4.425781 0 8-3.574219 8-8v-28.6875l34.34375 34.34375c1.496094 1.503906 3.527344 2.34375 5.65625 2.34375h48c3.230469 0 6.160156-1.945312 7.390625-4.9375 1.242187-2.992188.554687-6.429688-1.734375-8.71875l-93.65625-93.65625v-36.6875h72v8c0 13.230469 10.769531 24 24 24s24-10.769531 24-24v-8h96c4.425781 0 8-3.574219 8-8v-288c0-4.425781-3.574219-8-8-8zm-264 388.6875-43.3125 43.3125h-25.375l68.6875-68.6875zm8-404.6875c0-8.824219 7.175781-16 16-16s16 7.175781 16 16v16h-32zm-200 304h-16v-272h16zm224 144h-16v-96h16zm0-112h-16v-16h16zm84.6875 112h-25.375l-43.3125-43.3125v-25.375zm43.3125-216c-4.425781 0-8 3.574219-8 8v88c0 4.414062-3.585938 8-8 8s-8-3.585938-8-8v-88c0-4.425781-3.574219-8-8-8h-24c-4.414062 0-8-3.585938-8-8v-24h96v24c0 4.414062-3.585938 8-8 8zm-64-48v-16h96v16zm128 120h-56v-56h16c13.230469 0 24-10.769531 24-24v-64c0-4.425781-3.574219-8-8-8h-112c-4.425781 0-8 3.574219-8 8v64c0 13.230469 10.769531 24 24 24h16v56h-296v-272h304v72c0 4.414062-3.585938 8-8 8s-8-3.585938-8-8v-16c0-13.230469-10.769531-24-24-24s-24 10.769531-24 24v16c0 4.414062-3.585938 8-8 8s-8-3.585938-8-8v-16c0-13.230469-10.769531-24-24-24s-24 10.769531-24 24v64c0 4.414062-3.585938 8-8 8s-8-3.585938-8-8v-16c0-13.230469-10.769531-24-24-24s-24 10.769531-24 24v48c0 4.414062-3.585938 8-8 8s-8-3.585938-8-8v-48c0-13.230469-10.769531-24-24-24s-24 10.769531-24 24v16c0 4.414062-3.585938 8-8 8s-8-3.585938-8-8v-88h-16v88c0 13.230469 10.769531 24 24 24s24-10.769531 24-24v-16c0-4.414062 3.585938-8 8-8s8 3.585938 8 8v48c0 13.230469 10.769531 24 24 24s24-10.769531 24-24v-48c0-4.414062 3.585938-8 8-8s8 3.585938 8 8v16c0 13.230469 10.769531 24 24 24s24-10.769531 24-24v-64c0-4.414062 3.585938-8 8-8s8 3.585938 8 8v16c0 13.230469 10.769531 24 24 24s24-10.769531 24-24v-16c0-4.414062 3.585938-8 8-8s8 3.585938 8 8v16c0 13.230469 10.769531 24 24 24s24-10.769531 24-24v-72h80zm32 0h-16v-272h16zm0 0"/><path d="m152 256c-13.230469 0-24 10.769531-24 24v16c0 13.230469 10.769531 24 24 24s24-10.769531 24-24v-16c0-13.230469-10.769531-24-24-24zm8 40c0 4.414062-3.585938 8-8 8s-8-3.585938-8-8v-16c0-4.414062 3.585938-8 8-8s8 3.585938 8 8zm0 0"/></svg>