<svg height="496pt" viewBox="0 0 496 496" width="496pt" xmlns="http://www.w3.org/2000/svg"><path d="m472 224h-24v-8c0-13.230469-10.769531-24-24-24v-16c0-97.046875-78.953125-176-176-176s-176 78.953125-176 176v16c-13.230469 0-24 10.769531-24 24v8h-24c-13.230469 0-24 10.769531-24 24v64c0 13.230469 10.769531 24 24 24h24v8c0 13.230469 10.769531 24 24 24h48c13.230469 0 24-10.769531 24-24v-128c0-13.230469-10.769531-24-24-24v-16c0-70.574219 57.425781-128 128-128s128 57.425781 128 128v16c-13.230469 0-24 10.769531-24 24v128c0 13.230469 10.769531 24 24 24h48c13.230469 0 24-10.769531 24-24v-8h24c13.230469 0 24-10.769531 24-24v-64c0-13.230469-10.769531-24-24-24zm-448 96c-4.414062 0-8-3.585938-8-8v-64c0-4.414062 3.585938-8 8-8h24v80zm104-104v128c0 4.414062-3.585938 8-8 8h-48c-4.414062 0-8-3.585938-8-8v-128c0-4.414062 3.585938-8 8-8h48c4.414062 0 8 3.585938 8 8zm120-184c-79.398438 0-144 64.601562-144 144v16h-16v-16c0-88.222656 71.777344-160 160-160s160 71.777344 160 160v16h-16v-16c0-79.398438-64.601562-144-144-144zm184 312c0 4.414062-3.585938 8-8 8h-48c-4.414062 0-8-3.585938-8-8v-128c0-4.414062 3.585938-8 8-8h48c4.414062 0 8 3.585938 8 8zm48-32c0 4.414062-3.585938 8-8 8h-24v-80h24c4.414062 0 8 3.585938 8 8zm0 0"/><path d="m232 176h-64c-4.425781 0-8 3.574219-8 8v304c0 4.425781 3.574219 8 8 8h64c4.425781 0 8-3.574219 8-8v-304c0-4.425781-3.574219-8-8-8zm-8 16v32h-48v-32zm-48 64v-16h48v16zm48 16v176h-48v-176zm-48 208v-16h48v16zm0 0"/><path d="m328 264h-64c-4.425781 0-8 3.574219-8 8v216c0 4.425781 3.574219 8 8 8h64c4.425781 0 8-3.574219 8-8v-216c0-4.425781-3.574219-8-8-8zm-8 16v32h-48v-32zm-48 64v-16h48v16zm48 16v88h-48v-88zm-48 120v-16h48v16zm0 0"/></svg>