<svg height="496pt" viewBox="0 0 496 496" width="496pt" xmlns="http://www.w3.org/2000/svg"><path d="m424 432h-56v-392c0-22.054688-17.945312-40-40-40h-288c-22.054688 0-40 17.945312-40 40v16c0 4.425781 3.574219 8 8 8h56v392c0 22.054688 17.945312 40 40 40h288c22.054688 0 40-17.945312 40-40v-16c0-4.425781-3.574219-8-8-8zm-408-392c0-13.230469 10.769531-24 24-24h256.015625c-5.03125 6.6875-8.015625 15-8.015625 24v8h-272zm112 400v16c0 13.230469-10.769531 24-24 24s-24-10.769531-24-24v-392h216c4.425781 0 8-3.574219 8-8v-16c0-13.230469 10.769531-24 24-24s24 10.769531 24 24v392h-216c-4.425781 0-8 3.574219-8 8zm288 16c0 13.230469-10.769531 24-24 24h-256.015625c5.03125-6.6875 8.015625-15 8.015625-24v-8h272zm0 0"/><path d="m488 32h-24v-8c0-13.230469-10.769531-24-24-24h-32c-13.230469 0-24 10.769531-24 24v88c0 4.425781 3.574219 8 8 8h8v16h-8c-4.425781 0-8 3.574219-8 8v208c0 4.425781 3.574219 8 8 8h8v24c0 2.128906.839844 4.160156 2.34375 5.65625l32 32c1.527344 1.527344 3.578125 2.34375 5.65625 2.34375 1.03125 0 2.070312-.191406 3.0625-.609375 2.992188-1.230469 4.9375-4.160156 4.9375-7.390625v-56h8c4.425781 0 8-3.574219 8-8v-208c0-4.425781-3.574219-8-8-8h-8v-16h8c4.425781 0 8-3.574219 8-8v-32h16v88h16v-128c0-4.425781-3.574219-8-8-8zm-80-16h32c4.414062 0 8 3.585938 8 8v24h-48v-24c0-4.414062 3.585938-8 8-8zm40 136v16h-48v-16zm0 32v128h-48v-128zm-16 212.6875-16-16v-20.6875h16zm-32-52.6875v-16h48v16zm32-208h-16v-16h16zm-32-32v-40h48v40zm64-40v-16h16v16zm0 0"/><path d="m96 80h128v16h-128zm0 0"/><path d="m96 112h128v16h-128zm0 0"/><path d="m96 144h128v16h-128zm0 0"/><path d="m96 176h128v16h-128zm0 0"/><path d="m208 208h128v16h-128zm0 0"/><path d="m208 240h128v16h-128zm0 0"/><path d="m208 272h128v16h-128zm0 0"/><path d="m208 304h128v16h-128zm0 0"/><path d="m336 408v-64c0-4.425781-3.574219-8-8-8h-224c-4.425781 0-8 3.574219-8 8v64c0 4.425781 3.574219 8 8 8h224c4.425781 0 8-3.574219 8-8zm-16-8h-208v-48h208zm0 0"/><path d="m168 272h-32c-4.425781 0-8 3.574219-8 8v32c0 4.425781 3.574219 8 8 8h32c4.425781 0 8-3.574219 8-8v-32c0-4.425781-3.574219-8-8-8zm-8 32h-16v-16h16zm0 0"/><path d="m176 216c0-4.425781-3.574219-8-8-8h-32c-4.425781 0-8 3.574219-8 8v32c0 4.425781 3.574219 8 8 8h32c4.425781 0 8-3.574219 8-8zm-16 24h-16v-16h16zm0 0"/><path d="m264 192h32c4.425781 0 8-3.574219 8-8v-32c0-4.425781-3.574219-8-8-8h-32c-4.425781 0-8 3.574219-8 8v32c0 4.425781 3.574219 8 8 8zm8-32h16v16h-16zm0 0"/><path d="m264 128h32c4.425781 0 8-3.574219 8-8v-32c0-4.425781-3.574219-8-8-8h-32c-4.425781 0-8 3.574219-8 8v32c0 4.425781 3.574219 8 8 8zm8-32h16v16h-16zm0 0"/></svg>