<svg height="496pt" viewBox="-48 0 496 496" width="496pt" xmlns="http://www.w3.org/2000/svg"><path d="m392 272h-40v-128c0-35.289062-28.710938-64-64-64h-32v-40c0-2.121094-.839844-4.160156-2.34375-5.65625l-31.992188-31.992188c-1.449218-1.457031-3.449218-2.351562-5.664062-2.351562h-32c-2.214844 0-4.214844.894531-5.664062 2.351562l-31.992188 31.992188c-1.503906 1.496094-2.34375 3.535156-2.34375 5.65625v40h-32c-35.289062 0-64 28.710938-64 64v128h-40c-4.425781 0-8 3.585938-8 8v128c0 13.230469 10.769531 24 24 24h24c0 35.289062 28.710938 64 64 64h176c35.289062 0 64-28.710938 64-64h24c13.230469 0 24-10.769531 24-24v-128c0-4.414062-3.574219-8-8-8zm-8 16v16h-32v-16zm-120-112h-32c-4.425781 0-8 3.585938-8 8v24h-48v-24c0-4.414062-3.574219-8-8-8h-32c-4.425781 0-8 3.585938-8 8v24h-8c-13.230469 0-24-10.769531-24-24v-56h208v56c0 13.230469-10.769531 24-24 24h-8v-24c0-4.414062-3.574219-8-8-8zm24 200v-32h16v80c0 13.230469-10.769531 24-24 24h-160c-13.230469 0-24-10.769531-24-24v-80h16v32c0 4.414062 3.574219 8 8 8h160c4.425781 0 8-3.585938 8-8zm-16-8h-144v-48h144zm-112-64v-48h8c4.425781 0 8-3.585938 8-8v-24h48v24c0 4.414062 3.574219 8 8 8h8v48zm-16-64v-48h16v48zm96 0v-48h16v48zm0-160h-16v-52.6875l16 16zm-48-32h16v32h-16zm16-32v16h-16v-16zm-48 27.3125 16-16v52.6875h-16zm128 52.6875c5.617188 0 10.984375 1.023438 16 2.800781v13.199219h-208v-13.199219c5.015625-1.785156 10.382812-2.800781 16-2.800781zm-240 192v16h-32v-16zm-24 128c-4.414062 0-8-3.59375-8-8v-88h32v96zm312 16c0 26.472656-21.527344 48-48 48h-176c-26.472656 0-48-21.527344-48-48v-288c0-14.167969 6.207031-26.878906 16-35.679688v75.679688c0 22.054688 17.945312 40 40 40h8v24c0 4.414062 3.574219 8 8 8h8v48h-24c-4.425781 0-8 3.585938-8 8v16h-24c-4.425781 0-8 3.585938-8 8v88c0 22.054688 17.945312 40 40 40h160c22.054688 0 40-17.945312 40-40v-88c0-4.414062-3.574219-8-8-8h-24v-16c0-4.414062-3.574219-8-8-8h-24v-48h8c4.425781 0 8-3.585938 8-8v-24h8c22.054688 0 40-17.945312 40-40v-75.679688c9.792969 8.792969 16 21.503907 16 35.679688zm40-16h-24v-96h32v88c0 4.40625-3.585938 8-8 8zm0 0"/></svg>