<svg height="496pt" viewBox="-64 0 496 496" width="496pt" xmlns="http://www.w3.org/2000/svg"><path d="m360 112h-110.863281c-23.503907 0-45.601563 9.152344-62.226563 25.777344l-2.910156 2.910156-2.910156-2.910156c-16.625-16.625-38.722656-25.777344-62.226563-25.777344h-110.863281c-4.414062 0-8 3.585938-8 8v208c0 4.414062 3.585938 8 8 8h352c4.414062 0 8-3.585938 8-8v-208c0-4.414062-3.585938-8-8-8zm-344 16h102.863281c19.234375 0 37.3125 7.488281 50.914063 21.089844l6.222656 6.222656v164.6875h-160zm336 192h-160v-164.6875l6.222656-6.222656c13.601563-13.601563 31.679688-21.089844 50.914063-21.089844h102.863281zm0 0"/><path d="m296 416v-48h24v-16h-272c-22.054688 0-40 17.945312-40 40s17.945312 40 40 40h.207031c-5.078125 6.703125-8.207031 14.960938-8.207031 24 0 22.054688 17.945312 40 40 40h272v-16h-16v-48h16v-16zm-16 0h-208v-48h208zm-256-24c0-13.230469 10.769531-24 24-24h8v48h-8c-13.230469 0-24-10.769531-24-24zm32 64c0-13.230469 10.769531-24 24-24h8v48h-8c-13.230469 0-24-10.769531-24-24zm264 24h-216v-48h216zm0 0"/><path d="m32 144h96v16h-96zm0 0"/><path d="m32 176h96v16h-96zm0 0"/><path d="m32 208h96v16h-96zm0 0"/><path d="m32 240h128v16h-128zm0 0"/><path d="m32 272h128v16h-128zm0 0"/><path d="m240 144h96v16h-96zm0 0"/><path d="m240 176h96v16h-96zm0 0"/><path d="m248 208h88v16h-88zm0 0"/><path d="m208 240h128v16h-128zm0 0"/><path d="m208 272h128v16h-128zm0 0"/><path d="m40 80c9.71875 0 18.070312-5.832031 21.839844-14.160156l107.144531 28.566406c2.816406 10.113281 12.015625 17.59375 23.015625 17.59375 11.753906 0 21.511719-8.503906 23.558594-19.671875l59.738281-44.800781c1.527344.304687 3.09375.472656 4.703125.472656.414062 0 .800781-.105469 1.199219-.121094l6.90625 41.441406 15.78125-2.632812-7.535157-45.214844c2.328126-2.183594 4.234376-4.792968 5.542969-7.746094l56.160157 14.042969 3.882812-15.523437-58.953125-14.734375c-2.847656-10.070313-12.015625-17.511719-22.984375-17.511719-7.121094 0-13.457031 3.175781-17.855469 8.121094l-95.777343 7.367187c-3.445313-9.03125-12.144532-15.488281-22.367188-15.488281-11.128906 0-20.425781 7.648438-23.128906 17.945312l-63.773438 21.253907c-4.355468-4.429688-10.402344-7.199219-17.097656-7.199219-13.230469 0-24 10.769531-24 24s10.769531 24 24 24zm104-32c3.222656 0 6.289062-.65625 9.105469-1.816406l20.894531 26.113281c-1.535156 1.757813-2.855469 3.710937-3.832031 5.863281l-99.648438-26.566406 51.886719-17.296875c3.875 8.070313 12.058594 13.703125 21.59375 13.703125zm48 16c-1.320312 0-2.585938.183594-3.847656.390625l-23.175782-28.964844c.679688-1.25 1.246094-2.546875 1.703126-3.914062l89.382812-6.871094c.136719 5.152344 1.914062 9.855469 4.808594 13.710937l-48.792969 36.59375c-4.277344-6.578124-11.664063-10.945312-20.078125-10.945312zm0 32c-4.40625 0-8-3.59375-8-8s3.59375-8 8-8 8 3.59375 8 8-3.59375 8-8 8zm88-80c4.40625 0 8 3.59375 8 8s-3.59375 8-8 8-8-3.59375-8-8 3.59375-8 8-8zm-136 0c4.40625 0 8 3.59375 8 8s-3.59375 8-8 8-8-3.59375-8-8 3.59375-8 8-8zm-104 32c4.40625 0 8 3.59375 8 8s-3.59375 8-8 8-8-3.59375-8-8 3.59375-8 8-8zm0 0"/></svg>