<svg height="496pt" viewBox="0 0 496 496.00388" width="496pt" xmlns="http://www.w3.org/2000/svg"><path d="m408 240.003906h-107.046875c25.914063-17.207031 43.046875-46.632812 43.046875-80 0-18.015625-4.980469-35.335937-14.390625-50.488281 3.640625-5.671875 5.808594-12.3125 6.175781-19.449219l31.640625-79.09375c1.128907-2.824218.558594-6.03125-1.464843-8.296875-2.023438-2.273437-5.152344-3.191406-8.070313-2.390625l-86.960937 23.71875h-45.855469l-86.96875-23.71875c-2.925781-.800781-6.054688.125-8.070313 2.390625-2.023437 2.265625-2.585937 5.480469-1.464844 8.296875l31.640626 79.09375c.375 7.136719 2.535156 13.777344 6.175781 19.449219-9.402344 15.160156-14.386719 32.480469-14.386719 50.488281 0 33.367188 17.136719 62.792969 43.050781 80h-91.050781c-13.230469 0-24 10.769532-24 24v48c0 2.816406.578125 5.488282 1.472656 8h-25.472656c-13.230469 0-24 10.769532-24 24v48c0 13.230469 10.769531 24 24 24h25.472656c-.894531 2.511719-1.472656 5.183594-1.472656 8v48c0 13.230469 10.769531 24 24 24h304c4.425781 0 8-3.574218 8-8v-80c0-4.425781-3.574219-8-8-8h-40v-64h40c4.425781 0 8-3.574218 8-8v-80c0-4.417968-3.574219-8-8-8zm-200-40c0-12.910156 6.105469-24.625 16.21875-32.089844l16.917969 28.210938c1.449219 2.40625 4.050781 3.878906 6.863281 3.878906 2.816406 0 5.417969-1.472656 6.859375-3.878906l16.917969-28.210938c10.121094 7.464844 16.222656 19.179688 16.222656 32.089844 0 22.054688-17.941406 40-40 40-22.054688 0-40-17.945312-40-40zm24.128906-50.007812c.992188-7.878906 7.730469-13.992188 15.871094-13.992188 8.144531 0 14.882812 6.113282 15.875 13.992188l-15.875 26.457031zm63.871094-37.992188c-13.230469 0-24-10.769531-24-24 0-13.230468 10.769531-24 24-24 13.234375 0 24 10.769532 24 24 0 13.230469-10.765625 24-24 24zm-74.101562-72.28125c.679687.183594 1.390624.28125 2.101562.28125h48c.714844 0 1.425781-.097656 2.105469-.28125l72.503906-19.773437-18.015625 45.023437c-7.246094-10.234375-19.128906-16.96875-32.59375-16.96875-13.628906 0-25.660156 6.878906-32.886719 17.320313-9.992187-1.585938-20.253906-1.578125-30.230469 0-7.226562-10.441407-19.25-17.320313-32.882812-17.320313-13.460938 0-25.34375 6.734375-32.589844 16.96875l-18.015625-45.023437zm-45.898438 48.28125c0-13.230468 10.769531-24 24-24 13.234375 0 24 10.769532 24 24 0 13.230469-10.765625 24-24 24-13.230469 0-24-10.769531-24-24zm-8 72c0-13.671875 3.472656-26.863281 10-38.648437 6.320312 4.175781 13.875 6.648437 22 6.648437 22.058594 0 40-17.945312 40-40 0-2.566406-.292969-5.0625-.757812-7.503906 5.800781-.625 11.703124-.601562 17.511718.023438-.457031 2.433593-.753906 4.921874-.753906 7.480468 0 22.054688 17.945312 40 40 40 8.128906 0 15.683594-2.472656 22-6.648437 6.53125 11.785156 10 24.96875 10 38.648437 0 24.265625-10.894531 45.992188-28 60.671875 2.554688-6.398437 4-13.367187 4-20.671875 0-18.753906-9.117188-35.777344-24.253906-46.128906.152344-.613281.253906-1.238281.253906-1.871094 0-17.648437-14.351562-32-32-32-17.644531 0-32 14.351563-32 32 0 .632813.105469 1.257813.257812 1.871094-15.136718 10.351562-24.257812 27.375-24.257812 46.128906 0 7.304688 1.449219 14.273438 4 20.671875-17.101562-14.679687-28-36.40625-28-60.671875zm-72 152v-48c0-4.417968 3.585938-8 8-8h24v64h-24c-4.414062 0-8-3.585937-8-8zm-48 80v-48c0-4.417968 3.585938-8 8-8h24v64h-24c-4.414062 0-8-3.585937-8-8zm48 80v-48c0-4.417968 3.585938-8 8-8h24v64h-24c-4.414062 0-8-3.585937-8-8zm304-24h-48v16h48v16h-256v-32h192v-16h-192v-16h256zm-48-80h-48v16h48v16h-256v-32h192v-16h-192v-16h256zm8-48h-216v-32h192v-16h-192v-16h256v32h-48v16h48v16zm0 0"/><path d="m196 96.003906c6.617188 0 12-5.382812 12-12 0-6.617187-5.382812-12-12-12-6.613281 0-12 5.382813-12 12 0 6.617188 5.386719 12 12 12zm0-16c2.203125 0 4 1.792969 4 4 0 2.207032-1.796875 4-4 4-2.199219 0-4-1.792968-4-4 0-2.207031 1.800781-4 4-4zm0 0"/><path d="m292 72.003906c-6.613281 0-12 5.382813-12 12 0 6.617188 5.386719 12 12 12 6.617188 0 12-5.382812 12-12 0-6.617187-5.382812-12-12-12zm0 16c-2.199219 0-4-1.792968-4-4 0-2.207031 1.800781-4 4-4 2.203125 0 4 1.792969 4 4 0 2.207032-1.796875 4-4 4zm0 0"/><path d="m400 80.003906c-13.230469 0-24 10.769532-24 24 0 13.230469 10.769531 24 24 24 13.234375 0 24-10.769531 24-24 0-13.230468-10.765625-24-24-24zm0 32c-4.414062 0-8-3.59375-8-8s3.585938-8 8-8c4.417969 0 8 3.59375 8 8s-3.582031 8-8 8zm0 0"/><path d="m456 .00390625c-22.054688 0-40 17.94531275-40 39.99999975 0 22.054688 17.945312 40 40 40 22.058594 0 40-17.945312 40-40 0-22.054687-17.941406-39.99999975-40-39.99999975zm0 63.99999975c-13.230469 0-24-10.769531-24-24 0-13.230468 10.769531-24 24-24 13.234375 0 24 10.769532 24 24 0 13.230469-10.765625 24-24 24zm0 0"/><path d="m72 104.003906c0 13.230469 10.769531 24 24 24 13.234375 0 24-10.769531 24-24 0-13.230468-10.765625-24-24-24-13.230469 0-24 10.769532-24 24zm24-8c4.417969 0 8 3.59375 8 8s-3.582031 8-8 8c-4.414062 0-8-3.59375-8-8s3.585938-8 8-8zm0 0"/><path d="m80 40.003906c0-22.054687-17.941406-39.99999975-40-39.99999975-22.054688 0-40 17.94531275-40 39.99999975 0 22.054688 17.945312 40 40 40 22.058594 0 40-17.945312 40-40zm-64 0c0-13.230468 10.769531-24 24-24 13.234375 0 24 10.769532 24 24 0 13.230469-10.765625 24-24 24-13.230469 0-24-10.769531-24-24zm0 0"/></svg>