<svg height="496pt" viewBox="-48 0 496 496" width="496pt" xmlns="http://www.w3.org/2000/svg"><path d="m72 256h-32c-4.414062 0-8 3.585938-8 8v32c0 4.414062 3.585938 8 8 8h32c4.414062 0 8-3.585938 8-8v-32c0-4.414062-3.585938-8-8-8zm-8 32h-16v-16h16zm0 0"/><path d="m136 256h-32c-4.414062 0-8 3.585938-8 8v32c0 4.414062 3.585938 8 8 8h32c4.414062 0 8-3.585938 8-8v-32c0-4.414062-3.585938-8-8-8zm-8 32h-16v-16h16zm0 0"/><path d="m200 256h-32c-4.414062 0-8 3.585938-8 8v32c0 4.414062 3.585938 8 8 8h32c4.414062 0 8-3.585938 8-8v-32c0-4.414062-3.585938-8-8-8zm-8 32h-16v-16h16zm0 0"/><path d="m264 256h-32c-4.414062 0-8 3.585938-8 8v32c0 4.414062 3.585938 8 8 8h32c4.414062 0 8-3.585938 8-8v-32c0-4.414062-3.585938-8-8-8zm-8 32h-16v-16h16zm0 0"/><path d="m296 304h32c4.414062 0 8-3.585938 8-8v-32c0-4.414062-3.585938-8-8-8h-32c-4.414062 0-8 3.585938-8 8v32c0 4.414062 3.585938 8 8 8zm8-32h16v16h-16zm0 0"/><path d="m264 192h-32c-4.414062 0-8 3.585938-8 8v32c0 4.414062 3.585938 8 8 8h32c4.414062 0 8-3.585938 8-8v-32c0-4.414062-3.585938-8-8-8zm-8 32h-16v-16h16zm0 0"/><path d="m296 240h32c4.414062 0 8-3.585938 8-8v-32c0-4.414062-3.585938-8-8-8h-32c-4.414062 0-8 3.585938-8 8v32c0 4.414062 3.585938 8 8 8zm8-32h16v16h-16zm0 0"/><path d="m72 320h-32c-4.414062 0-8 3.585938-8 8v32c0 4.414062 3.585938 8 8 8h32c4.414062 0 8-3.585938 8-8v-32c0-4.414062-3.585938-8-8-8zm-8 32h-16v-16h16zm0 0"/><path d="m136 320h-32c-4.414062 0-8 3.585938-8 8v32c0 4.414062 3.585938 8 8 8h32c4.414062 0 8-3.585938 8-8v-32c0-4.414062-3.585938-8-8-8zm-8 32h-16v-16h16zm0 0"/><path d="m72 384h-32c-4.414062 0-8 3.585938-8 8v32c0 4.414062 3.585938 8 8 8h32c4.414062 0 8-3.585938 8-8v-32c0-4.414062-3.585938-8-8-8zm-8 32h-16v-16h16zm0 0"/><path d="m136 384h-32c-4.414062 0-8 3.585938-8 8v32c0 4.414062 3.585938 8 8 8h32c4.414062 0 8-3.585938 8-8v-32c0-4.414062-3.585938-8-8-8zm-8 32h-16v-16h16zm0 0"/><path d="m200 320h-32c-4.414062 0-8 3.585938-8 8v32c0 4.414062 3.585938 8 8 8h32c4.414062 0 8-3.585938 8-8v-32c0-4.414062-3.585938-8-8-8zm-8 32h-16v-16h16zm0 0"/><path d="m264 320h-32c-4.414062 0-8 3.585938-8 8v32c0 4.414062 3.585938 8 8 8h32c4.414062 0 8-3.585938 8-8v-32c0-4.414062-3.585938-8-8-8zm-8 32h-16v-16h16zm0 0"/><path d="m296 368h32c4.414062 0 8-3.585938 8-8v-32c0-4.414062-3.585938-8-8-8h-32c-4.414062 0-8 3.585938-8 8v32c0 4.414062 3.585938 8 8 8zm8-32h16v16h-16zm0 0"/><path d="m392 192h-24v-24c0-4.414062-3.585938-8-8-8h-8v-40c0-4.414062-3.585938-8-8-8h-56v-24c0-4.414062-3.585938-8-8-8h-32c-4.414062 0-8 3.585938-8 8v24h-32v-24c0-4.414062-3.585938-8-8-8h-32c-4.414062 0-8 3.585938-8 8v24h-32v-24c0-4.414062-3.585938-8-8-8h-32c-4.414062 0-8 3.585938-8 8v24h-56c-4.414062 0-8 3.585938-8 8v40h-8c-4.414062 0-8 3.585938-8 8v288c0 4.414062 3.585938 8 8 8h24v24c0 4.414062 3.585938 8 8 8h352c4.414062 0 8-3.585938 8-8v-288c0-4.414062-3.585938-8-8-8zm-136-96h16v32h-16zm-80 0h16v32h-16zm-80 0h16v32h-16zm-64 32h48v8c0 4.414062 3.585938 8 8 8h32c4.414062 0 8-3.585938 8-8v-8h32v8c0 4.414062 3.585938 8 8 8h32c4.414062 0 8-3.585938 8-8v-8h32v8c0 4.414062 3.585938 8 8 8h32c4.414062 0 8-3.585938 8-8v-8h48v32h-304zm-16 48h336v208h-56c-4.414062 0-8 3.585938-8 8v56h-272zm324.6875 224-36.6875 36.6875v-36.6875zm43.3125 80h-336v-16h248c2.207031 0 4.207031-.894531 5.65625-2.34375l63.992188-63.992188c1.457031-1.457031 2.351562-3.457031 2.351562-5.664062v-184h16zm0 0"/><path d="m4.425781 39.160156 48 24c1.101563.550782 2.335938.839844 3.574219.839844h312c17.648438 0 32-14.351562 32-32s-14.351562-32-32-32h-312c-1.238281 0-2.472656.289062-3.574219.839844l-48 24c-2.714843 1.359375-4.425781 4.128906-4.425781 7.160156s1.710938 5.800781 4.425781 7.160156zm299.574219 8.839844h-232v-32h232zm16-32h16v32h-16zm64 16c0 8.824219-7.175781 16-16 16h-16v-32h16c8.824219 0 16 7.175781 16 16zm-328-15.054688v30.109376l-30.113281-15.054688zm0 0"/></svg>