<svg height="495pt" viewBox="-55 0 495 495.99091" width="495pt" xmlns="http://www.w3.org/2000/svg"><path d="m384.496094 399.992188c0-16.984376-10.6875-31.441407-25.664063-37.234376.976563-3.445312 1.664063-7.007812 1.664063-10.765624 0-20.394532-15.394532-37.074219-35.136719-39.503907-6.070313-14.378906-20.304687-24.496093-36.863281-24.496093-22.054688 0-40 17.941406-40 40v40h-16v-16h-16v80h16v-16h32v48c0 17.648437 14.351562 32 32 32 15.183594 0 27.871094-10.65625 31.136718-24.867188 14.207032-3.261719 24.863282-15.949219 24.863282-31.132812 0-.273438-.074219-.527344-.082032-.800782 18.273438-3.6875 32.082032-19.855468 32.082032-39.199218zm-36.640625 23.664062c-5.59375-9.335938-15.703125-15.664062-27.359375-15.664062v16c8.824218 0 16 7.175781 16 16 0 6.527343-3.945313 12.144531-9.5625 14.621093-4.039063-13.046875-16.078125-22.621093-30.4375-22.621093v16c8.824218 0 16 7.175781 16 16 0 8.824218-7.175782 16-16 16-8.824219 0-16-7.175782-16-16v-56c0-4.417969-3.585938-8-8-8h-40v-16h24c4.414062 0 8-3.585938 8-8v-48c0-13.234376 10.765625-24 24-24 13.230468 0 24 10.765624 24 24v16h16v-14.527344c9.289062 3.308594 16 12.109375 16 22.527344 0 13.230468-10.769532 24-24 24-13.234375 0-24-10.769532-24-24h-16c0 22.054687 17.945312 40 40 40 12.496094 0 23.527344-5.882813 30.871094-14.882813 9.871093 2.976563 17.128906 12.050781 17.128906 22.882813 0 12.078124-9 22.007812-20.640625 23.664062zm0 0"/><path d="m216.496094 279.992188v-8h8c4.414062 0 8-3.585938 8-8v-24h16v-16h-16v-16h16v-16h-15.320313c1.390625-6.074219 5.054688-11.425782 10.496094-14.855469 32.222656-20.328125 49.054687-56.53125 43.925781-94.472657-5.757812-42.648437-41.023437-77.152343-83.847656-82.03125-27.398438-3.136718-54.773438 5.519532-75.152344 23.710938-20.40625 18.207031-32.101562 44.320312-32.101562 71.648438 0 33.015624 16.6875 63.3125 44.648437 81.03125 5.527344 3.503906 9.246094 8.886718 10.664063 14.96875h-15.3125v16h16v16h-16v16h16v24c0 4.414062 3.582031 8 8 8h8v8c0 10.414062 6.710937 19.214843 16 22.527343v129.472657h16v-129.472657c9.289062-3.3125 16-12.113281 16-22.527343zm-66.785156-116.488282c-21.015626-13.320312-34.289063-35.183594-36.710938-59.511718h15.496094v-16h-15.578125c2-19.808594 11.328125-38.320313 26.328125-51.707032 12.855468-11.476562 28.496094-18.292968 45.25-19.917968v15.625h16v-15.554688c.480468.050781.953125.042969 1.4375.089844 35.65625 4.0625 65.011718 32.785156 69.808594 68.28125.144531 1.070312.105468 2.117187.210937 3.183594h-15.457031v16h15.421875c-2.390625 24.277343-15.445313 46.152343-36.789063 59.613281-10.136718 6.394531-16.707031 16.753906-18.265625 28.386719h-16.367187v-56.808594c18.230468-3.71875 32-19.871094 32-39.191406 0-22.058594-17.945313-40-40-40-22.054688 0-40 17.941406-40 40 0 19.3125 13.765625 35.472656 32 39.191406v56.808594h-16.375c-1.578125-11.617188-8.203125-22.007813-18.410156-28.488282zm42.785156-43.511718c-13.234375 0-24-10.769532-24-24 0-13.234376 10.765625-24 24-24 13.230468 0 24 10.765624 24 24 0 13.230468-10.769532 24-24 24zm-24 88h48v16h-48zm48 32v16h-48v-16zm-24 48c-4.410156 0-8-3.59375-8-8v-8h16v8c0 4.40625-3.59375 8-8 8zm0 0"/><path d="m152.496094 367.992188h-32v-48c0-17.648438-14.351563-32-32-32-15.183594 0-27.871094 10.65625-31.136719 24.863281-14.207031 3.261719-24.863281 15.953125-24.863281 31.136719 0 .269531.070312.527343.078125.796874-18.269531 3.691407-32.078125 19.859376-32.078125 39.203126 0 16.984374 10.6875 31.4375 25.664062 37.230468-.976562 3.449219-1.664062 7.007813-1.664062 10.769532 0 20.390624 15.390625 37.070312 35.136718 39.503906 6.070313 14.375 20.300782 24.496094 36.863282 24.496094 22.054687 0 40-17.945313 40-40v-40h16v16h16v-80h-16zm-24 32c-4.417969 0-8 3.582031-8 8v48c0 13.230468-10.769532 24-24 24-13.234375 0-24-10.769532-24-24v-16h-16v14.527343c-9.289063-3.3125-16-12.113281-16-22.527343 0-13.234376 10.765625-24 24-24 13.230468 0 24 10.765624 24 24h16c0-22.058594-17.945313-40-40-40-12.496094 0-23.527344 5.878906-30.871094 14.878906-9.875-2.976563-17.128906-12.046875-17.128906-22.878906 0-12.082032 9-22.007813 20.640625-23.664063 5.589843 9.335937 15.703125 15.664063 27.359375 15.664063v-16c-8.824219 0-16-7.175782-16-16 0-6.527344 3.945312-12.144532 9.558594-14.625 4.039062 13.046874 16.082031 22.625 30.441406 22.625v-16c-8.824219 0-16-7.175782-16-16 0-8.824219 7.175781-16 16-16 8.824218 0 16 7.175781 16 16v56c0 4.414062 3.582031 8 8 8h40v16zm0 0"/></svg>