<svg height="496pt" viewBox="0 0 496 496" width="496pt" xmlns="http://www.w3.org/2000/svg"><path d="m488 448h-112v-40c0-4.414062-3.574219-8-8-8h-88v-18.464844c99.558594-15.4375 176-101.726562 176-205.535156 0-66.039062-30.320312-126.695312-83.191406-166.40625l-9.609375 12.796875c5.175781 3.890625 10.066406 8.042969 14.769531 12.34375l-11.359375 11.363281c-31.3125-28.617187-72.960937-46.097656-118.609375-46.097656-97.046875 0-176 78.953125-176 176 0 45.648438 17.480469 87.296875 46.089844 118.601562l-11.363282 11.359376c-4.300781-4.695313-8.445312-9.578126-12.328124-14.753907l-12.796876 9.609375c33.191407 44.183594 81.03125 72.535156 134.398438 80.679688v18.503906h-88c-4.425781 0-8 3.585938-8 8v40h-112c-4.425781 0-8 3.585938-8 8v32c0 4.414062 3.574219 8 8 8h480c4.425781 0 8-3.585938 8-8v-32c0-4.414062-3.574219-8-8-8zm-240-80c-49.0625 0-94.878906-18.160156-130.015625-50.671875l11.414063-11.417969c31.304687 28.609375 72.953124 46.089844 118.601562 46.089844 97.046875 0 176-78.953125 176-176 0-45.648438-17.480469-87.296875-46.089844-118.601562l11.410156-11.40625c32.519532 35.128906 50.679688 80.953124 50.679688 130.007812 0 105.871094-86.136719 192-192 192zm-45.65625-98.34375 16 16c1.496094 1.503906 3.527344 2.34375 5.65625 2.34375h36.6875l11.3125 11.3125v12.6875c0 2.121094.839844 4.160156 2.34375 5.65625l13.199219 13.199219c-12.679688 3.242187-25.878907 5.144531-39.542969 5.144531-71.503906 0-132.183594-47.160156-152.625-112h29.3125l13.65625 13.65625c1.496094 1.503906 3.527344 2.34375 5.65625 2.34375h44.6875l11.3125 11.3125v12.6875c0 2.121094.839844 4.160156 2.34375 5.65625zm205.65625-93.65625c0 1.503906-.183594 2.96875-.222656 4.464844l-10.121094-10.121094c-1.496094-1.503906-3.527344-2.34375-5.65625-2.34375h-20.6875l-13.65625-13.65625c-1.496094-1.503906-3.527344-2.34375-5.65625-2.34375h-20.6875l-11.3125-11.3125v-20.6875c0-2.121094-.839844-4.160156-2.34375-5.65625l-16-16c-1.496094-1.503906-3.527344-2.34375-5.65625-2.34375h-20.6875l-11.3125-11.3125v-9.375l13.65625-13.65625c1.503906-1.496094 2.34375-3.535156 2.34375-5.65625v-12.6875l18.878906-18.878906c63.328125 21.320312 109.121094 81.140625 109.121094 151.566406zm-126.816406-156.496094-14.839844 14.839844c-1.503906 1.496094-2.34375 3.535156-2.34375 5.65625v12.6875l-13.65625 13.65625c-1.503906 1.496094-2.34375 3.535156-2.34375 5.65625v16c0 2.121094.839844 4.160156 2.34375 5.65625l16 16c1.496094 1.503906 3.527344 2.34375 5.65625 2.34375h20.6875l11.3125 11.3125v20.6875c0 2.121094.839844 4.160156 2.34375 5.65625l16 16c1.496094 1.503906 3.527344 2.34375 5.65625 2.34375h20.6875l13.65625 13.65625c1.496094 1.503906 3.527344 2.34375 5.65625 2.34375h20.6875l17.136719 17.136719c-9.082031 57.144531-48.398438 104.199219-101.097657 124.277343l-16.726562-16.726562v-12.6875c0-2.121094-.839844-4.160156-2.34375-5.65625l-16-16c-1.496094-1.503906-3.527344-2.34375-5.65625-2.34375h-36.6875l-11.3125-11.3125v-12.6875c0-2.121094-.839844-4.160156-2.34375-5.65625l-16-16c-1.496094-1.503906-3.527344-2.34375-5.65625-2.34375h-44.6875l-13.65625-13.65625c-1.496094-1.503906-3.527344-2.34375-5.65625-2.34375h-36.777344c-2.101562-10.34375-3.222656-21.039062-3.222656-32h3.054688l5.792968 11.574219c1.351563 2.714843 4.121094 4.425781 7.152344 4.425781h24c2.128906 0 4.160156-.839844 5.65625-2.34375l24-24c1.503906-1.496094 2.34375-3.535156 2.34375-5.65625v-24c0-2.121094-.839844-4.160156-2.34375-5.65625l-16-16c-1.496094-1.503906-3.527344-2.34375-5.65625-2.34375h-34.542969c5.445313-12.414062 12.453125-23.96875 20.726563-34.503906l16.160156 16.160156c1.496094 1.503906 3.527344 2.34375 5.65625 2.34375h24c2.128906 0 4.160156-.839844 5.65625-2.34375l16-16c1.503906-1.496094 2.34375-3.535156 2.34375-5.65625v-12.6875l13.65625-13.65625c1.503906-1.496094 2.34375-3.535156 2.34375-5.65625v-18.734375c12.808594-3.3125 26.167969-5.265625 40-5.265625 11.375 0 22.464844 1.238281 33.183594 3.503906zm-192.375 140.496094c1.101562-11.03125 3.335937-21.734375 6.566406-32h37.3125l11.3125 11.3125v17.375l-19.3125 19.3125h-15.742188l-5.792968-11.574219c-1.351563-2.714843-4.121094-4.425781-7.152344-4.425781zm103.191406-133.6875v10.375l-13.65625 13.65625c-1.503906 1.496094-2.34375 3.535156-2.34375 5.65625v12.6875l-11.3125 11.3125h-17.375l-14.632812-14.632812c16.457031-17.144532 36.671874-30.550782 59.320312-39.054688zm40 357.015625c5.296875.398437 10.625.671875 16 .671875 5.390625 0 10.710938-.273438 16-.679688v16.679688h-32zm-96 32.671875h224v32h-224zm344 64h-464v-16h464zm0 0"/><path d="m202.34375 106.34375-16 16c-1.503906 1.496094-2.34375 3.535156-2.34375 5.65625v16c0 2.121094.839844 4.160156 2.34375 5.65625l13.65625 13.65625v12.6875c0 2.121094.839844 4.160156 2.34375 5.65625l16 16c1.496094 1.503906 3.527344 2.34375 5.65625 2.34375h24c4.425781 0 8-3.585938 8-8v-20.6875l13.65625-13.65625c1.503906-1.496094 2.34375-3.535156 2.34375-5.65625v-16c0-2.121094-.839844-4.160156-2.34375-5.65625l-16-16c-1.496094-1.503906-3.527344-2.34375-5.65625-2.34375h-22.113281l-14.3125-7.160156c-3.078125-1.527344-6.789063-.945313-9.230469 1.503906zm18.082031 20.816406c1.101563.550782 2.335938.839844 3.574219.839844h20.6875l11.3125 11.3125v9.375l-13.65625 13.65625c-1.503906 1.496094-2.34375 3.535156-2.34375 5.65625v16h-12.6875l-11.3125-11.3125v-12.6875c0-2.121094-.839844-4.160156-2.34375-5.65625l-13.65625-13.65625v-9.375l9.574219-9.578125zm0 0"/><path d="m240 304h16v16h-16zm0 0"/><path d="m160 256h16v16h-16zm0 0"/></svg>