<svg height="496pt" viewBox="0 0 496 496" width="496pt" xmlns="http://www.w3.org/2000/svg"><path d="m488 432h-24v-40c0-4.425781-3.585938-8-8-8h-24.40625c-2.707031-56.992188-33.824219-106.535156-79.59375-134.832031v-49.167969c0-4.414062-3.585938-8-8-8h-8v-24c0-4.414062-3.585938-8-8-8h-8v-24c0-4.414062-3.585938-8-8-8h-8.28125c-1.40625-35.28125-12.304688-69.296875-31.957031-98.792969l-17.097657-25.648437c-2.96875-4.453125-10.34375-4.453125-13.3125 0l-17.09375 25.648437c-19.664062 29.496094-30.5625 63.519531-31.960937 98.792969h-8.296875c-4.414062 0-8 3.585938-8 8v24h-8c-4.414062 0-8 3.585938-8 8v24h-8c-4.414062 0-8 3.585938-8 8v49.167969c-45.769531 28.296875-76.886719 77.839843-79.59375 134.832031h-24.40625c-4.414062 0-8 3.574219-8 8v40h-24c-4.414062 0-8 3.574219-8 8v48c0 4.425781 3.585938 8 8 8h480c4.414062 0 8-3.574219 8-8v-48c0-4.425781-3.585938-8-8-8zm-250.441406-393.921875 10.441406-15.652344 10.441406 15.664063c17.863282 26.796875 27.832032 57.664062 29.261719 89.917968h-79.421875c1.398438-32.113281 11.375-63.0625 29.277344-89.929687zm-45.558594 105.921875h112v16h-112zm-16 32h144v16h-144zm-16 32h176v32.441406c-21.855469-10.425781-46.207031-16.441406-72-16.441406h-32c-25.792969 0-50.144531 6.015625-72 16.441406zm72 32h32c81.128906 0 147.617188 63.886719 151.792969 144h-335.585938c4.175781-80.113281 70.664063-144 151.792969-144zm-184 160h400v32h-400zm432 80h-464v-32h464zm0 0"/><path d="m360 112h104c17.648438 0 32-14.351562 32-32s-14.351562-32-32-32c0-26.472656-21.527344-48-48-48-21.382812 0-39.449219 13.792969-45.574219 33.441406-3.417969-.953125-6.921875-1.441406-10.425781-1.441406-22.054688 0-40 17.945312-40 40s17.945312 40 40 40zm0-64c4.246094 0 8.359375 1.175781 12.230469 3.488281 2.371093 1.421875 5.296875 1.503907 7.761719.253907 2.457031-1.253907 4.085937-3.695313 4.328124-6.4375 1.40625-16.703126 15.03125-29.304688 31.679688-29.304688 17.648438 0 32 14.351562 32 32 0 2.375-.359375 4.894531-1.136719 7.929688-.75 2.949218.226563 6.070312 2.535157 8.054687 2.3125 1.984375 5.554687 2.480469 8.34375 1.296875 1.984374-.847656 4.089843-1.28125 6.257812-1.28125 8.824219 0 16 7.175781 16 16s-7.175781 16-16 16h-104c-13.230469 0-24-10.769531-24-24s10.769531-24 24-24zm0 0"/><path d="m40 112h104c17.648438 0 32-14.351562 32-32s-14.351562-32-32-32c0-26.472656-21.527344-48-48-48-21.382812 0-39.449219 13.792969-45.574219 33.441406-3.417969-.953125-6.921875-1.441406-10.425781-1.441406-22.054688 0-40 17.945312-40 40s17.945312 40 40 40zm0-64c4.246094 0 8.359375 1.175781 12.230469 3.488281 2.363281 1.421875 5.296875 1.503907 7.761719.253907 2.449218-1.253907 4.085937-3.695313 4.320312-6.4375 1.414062-16.703126 15.039062-29.304688 31.6875-29.304688 17.648438 0 32 14.351562 32 32 0 2.375-.359375 4.894531-1.136719 7.929688-.75 2.949218.226563 6.070312 2.535157 8.054687 2.3125 1.984375 5.546874 2.480469 8.34375 1.296875 1.984374-.847656 4.089843-1.28125 6.257812-1.28125 8.824219 0 16 7.175781 16 16s-7.175781 16-16 16h-104c-13.230469 0-24-10.769531-24-24s10.769531-24 24-24zm0 0"/></svg>