<svg height="496pt" viewBox="-64 0 496 496" width="496pt" xmlns="http://www.w3.org/2000/svg"><path d="m124.71875 211.28125c9.34375 55.488281 31.753906 92.71875 59.28125 92.71875 18.039062 0 33.871094-16.023438 45.289062-42.65625 12.941407 5.175781 24.871094 7.921875 35.183594 7.921875 11.128906 0 20.382813-3.167969 27.007813-9.785156 12.777343-12.785157 12.625-35.359375 1.816406-62.320313 14.085937-5.992187 25.238281-13.222656 32.582031-21.375.714844.0625 1.394532.214844 2.121094.214844 13.230469 0 24-10.769531 24-24s-10.769531-24-24-24c-.726562 0-1.40625.152344-2.121094.214844-14.695312-16.320313-44.789062-28.910156-82.574218-35.375-9.34375-55.558594-31.761719-92.839844-59.304688-92.839844-18.070312 0-33.921875 16.0625-45.34375 42.769531-11.039062-4.457031-21.351562-7.113281-30.558594-7.808593-4.28125-6.585938-11.671875-10.960938-20.097656-10.960938-13.230469 0-24 10.769531-24 24 0 4.816406 1.457031 9.296875 3.910156 13.054688-2.679687 12.25-.078125 27.976562 6.984375 45.546874-26.78125 11.421876-42.894531 27.300782-42.894531 45.398438 0 27.527344 37.230469 49.9375 92.71875 59.28125zm-28.007812-95.472656c7.777343-2.417969 16.402343-4.511719 25.679687-6.273438-1.519531 13.320313-2.375 27.433594-2.390625 42.21875-9.671875-12.625-17.425781-24.746094-23.289062-35.945312zm39.289062 36.191406c0-16.128906 1.0625-31.207031 2.886719-45.113281 13.90625-1.824219 28.984375-2.886719 45.113281-2.886719 6.769531 0 13.296875.230469 19.679688.574219 4.800781 4.304687 9.578124 8.792969 14.265624 13.480469 4.773438 4.777343 9.199219 9.546874 13.480469 14.296874.335938 6.390626.574219 12.894532.574219 19.648438 0 16.121094-1.0625 31.199219-2.878906 45.097656-13.847656 1.832032-28.929688 2.902344-45.121094 2.902344-6.753906 0-13.257812-.238281-19.640625-.585938-4.757813-4.269531-9.527344-8.703124-14.296875-13.476562-4.78125-4.785156-9.214844-9.546875-13.46875-14.28125-.355469-6.390625-.59375-12.902344-.59375-19.65625zm5.535156-61.609375c1.769532-9.3125 3.871094-17.957031 6.296875-25.75 11.496094 6.078125 23.640625 13.992187 35.871094 23.367187-14.765625.007813-28.855469.863282-42.167969 2.382813zm129.761719 97.722656c-7.761719 2.421875-16.386719 4.542969-25.6875 6.328125 1.519531-13.3125 2.375-27.410156 2.382813-42.183594 9.601562 12.519532 17.398437 24.628907 23.304687 35.855469zm-44.816406 25.421875c-1.769531 9.328125-3.878907 17.992188-6.304688 25.808594-11.238281-5.910156-23.375-13.726562-35.917969-23.34375 14.628907-.015625 28.773438-.894531 42.222657-2.464844zm-42.480469 74.464844c-16.257812 0-33.785156-28.71875-42.464844-74.390625 5.296875.605469 10.730469 1.078125 16.273438 1.453125 19.398437 16.96875 38.792968 30.378906 56.785156 39.585938-8.890625 21.085937-20.007812 33.351562-30.59375 33.351562zm96.167969-39.832031c-7.503907 7.496093-24.0625 6.679687-45.289063-1.976563 3.425782-10.582031 6.28125-22.289062 8.425782-35.023437 12.566406-2.152344 24.238281-5.007813 34.832031-8.425781 8.703125 21.296874 9.542969 37.914062 2.03125 45.425781zm55.832031-96.167969c0 4.40625-3.59375 8-8 8s-8-3.59375-8-8 3.59375-8 8-8 8 3.59375 8 8zm-25.414062-16.414062c-4.058594 4.300781-6.585938 10.054687-6.585938 16.414062s2.527344 12.121094 6.585938 16.414062c-5.648438 4.976563-13.722657 9.824219-24.035157 14.171876-9.199219-17.976563-22.542969-37.3125-39.488281-56.707032-.375-5.558594-.855469-11.007812-1.453125-16.320312 30.542969 5.855468 53.183594 15.640625 64.976563 26.027344zm-126.585938-119.585938c16.265625 0 33.800781 28.753906 42.480469 74.464844-5.359375-.625-10.808594-1.167969-16.382813-1.554688-19.066406-16.574218-38.546875-30.039062-56.761718-39.382812 8.894531-21.199219 20.046874-33.527344 30.664062-33.527344zm-96 24c4.40625 0 8 3.59375 8 8s-3.59375 8-8 8-8-3.59375-8-8 3.59375-8 8-8zm-5.238281 31.382812c1.695312.386719 3.4375.617188 5.238281.617188 12.046875 0 21.953125-8.953125 23.648438-20.535156 6.558593 1.015625 13.777343 3.121094 21.496093 6.269531-3.425781 10.578125-6.28125 22.265625-8.425781 34.984375-12.671875 2.136719-24.320312 4.984375-34.863281 8.394531-4.703125-11.609375-7.078125-21.753906-7.09375-29.730469zm-1.167969 49.921876c9.292969 18.191406 22.664062 37.679687 39.34375 56.855468.375 5.550782.855469 11 1.453125 16.296875-45.671875-8.671875-74.390625-26.199219-74.390625-42.457031 0-10.625 12.351562-21.792969 33.59375-30.695312zm0 0"/><path d="m296 288h-48c-4.414062 0-8 3.574219-8 8v80c0 30.871094-25.121094 56-56 56s-56-25.128906-56-56v-80c0-4.425781-3.585938-8-8-8h-48c-4.414062 0-8 3.574219-8 8v80c0 66.167969 53.832031 120 120 120s120-53.832031 120-120v-80c0-4.425781-3.585938-8-8-8zm-8 16v16h-32v-16zm-176 0v16h-32v-16zm72 176c-57.34375 0-104-46.65625-104-104v-40h32v40c0 39.703125 32.304688 72 72 72s72-32.296875 72-72v-40h32v40c0 57.34375-46.65625 104-104 104zm0 0"/><path d="m320 256h48v16h-48zm0 0"/><path d="m32 240h-16v16h-16v16h16v16h16v-16h16v-16h-16zm0 0"/></svg>