<svg height="496pt" viewBox="-43 0 495 496" width="496pt" xmlns="http://www.w3.org/2000/svg"><path d="m408.5 432v-16h-48v-48h16v-16h-16v-344c0-4.425781-3.585938-8-8-8h-288c-4.414062 0-8 3.574219-8 8v48h-16v16h16v64h-16v16h16v64h-16v16h16v64h-16v16h16v40h-16c-22.054688 0-40 17.945312-40 40s17.945312 40 40 40h.207031c-5.078125 6.703125-8.207031 14.960938-8.207031 24 0 22.054688 17.945312 40 40 40h336v-16h-16v-48zm-312-16v-48h248v48zm-32 0v-48h16v48zm48 16v48h-16v-48zm-40-120h17.136719c3.574219 13.769531 16 24 30.863281 24 17.648438 0 32-14.351562 32-32s-14.351562-32-32-32c-14.863281 0-27.289062 10.230469-30.863281 24h-17.136719v-64h17.136719c3.574219 13.769531 16 24 30.863281 24 17.648438 0 32-14.351562 32-32s-14.351562-32-32-32c-14.863281 0-27.289062 10.230469-30.863281 24h-17.136719v-64h17.136719c3.574219 13.769531 16 24 30.863281 24 17.648438 0 32-14.351562 32-32s-14.351562-32-32-32c-14.863281 0-27.289062 10.230469-30.863281 24h-17.136719v-64h17.136719c3.574219 13.769531 16 24 30.863281 24 17.648438 0 32-14.351562 32-32s-14.351562-32-32-32c-14.863281 0-27.289062 10.230469-30.863281 24h-17.136719v-40h272v336h-272zm34.222656-16c2.777344-4.761719 7.882813-8 13.777344-8 8.824219 0 16 7.175781 16 16s-7.175781 16-16 16c-5.894531 0-11-3.238281-13.777344-8h13.777344v-16zm0-80c2.777344-4.761719 7.882813-8 13.777344-8 8.824219 0 16 7.175781 16 16s-7.175781 16-16 16c-5.894531 0-11-3.238281-13.777344-8h13.777344v-16zm0-80c2.777344-4.761719 7.882813-8 13.777344-8 8.824219 0 16 7.175781 16 16s-7.175781 16-16 16c-5.894531 0-11-3.238281-13.777344-8h13.777344v-16zm0-80c2.777344-4.761719 7.882813-8 13.777344-8 8.824219 0 16 7.175781 16 16s-7.175781 16-16 16c-5.894531 0-11-3.238281-13.777344-8h13.777344v-16zm-90.222656 336c0-13.230469 10.769531-24 24-24h8v48h-8c-13.230469 0-24-10.769531-24-24zm32 64c0-13.230469 10.769531-24 24-24h8v48h-8c-13.230469 0-24-10.769531-24-24zm328 24h-248v-48h248zm0 0"/><path d="m280.5 176h48v16h-48zm0 0"/><path d="m248.5 288h80v16h-80zm0 0"/><path d="m184.5 160v16h-16v16h16v16h16v-16h16v-16h-16v-16zm0 0"/><path d="m210.84375 266.34375-18.34375 18.34375-18.34375-18.34375-11.3125 11.3125 18.34375 18.34375-18.34375 18.34375 11.3125 11.3125 18.34375-18.34375 18.34375 18.34375 11.3125-11.3125-18.34375-18.34375 18.34375-18.34375zm0 0"/><path d="m280.5 256h16v16h-16zm0 0"/><path d="m280.5 320h16v16h-16zm0 0"/><path d="m168.5 224h160v16h-160zm0 0"/><path d="m200.628906 38.566406c-1.847656 10.160156-8.746094 48.289063-12.898437 73.929688l-12.367188-20.617188-13.71875 8.234375 24 40c1.464844 2.4375 4.070313 3.832031 6.816407 3.832031.703124 0 1.414062-.097656 2.109374-.28125 3.449219-.921874 5.875-4.078124 5.9375-7.648437.097657-5.511719 8.609376-54.367187 14.679688-88.015625h113.3125v-16h-120c-3.863281 0-7.175781 2.769531-7.871094 6.566406zm0 0"/><path d="m254.15625 149.65625 26.34375-26.34375 26.34375 26.34375 11.3125-11.3125-26.34375-26.34375 26.34375-26.34375-11.3125-11.3125-26.34375 26.34375-26.34375-26.34375-11.3125 11.3125 26.34375 26.34375-26.34375 26.34375zm0 0"/></svg>