<svg height="496pt" viewBox="0 0 496 496" width="496pt" xmlns="http://www.w3.org/2000/svg"><path d="m248 192h-94.0625c-8.433594 0-16.671875 3.414062-22.625 9.375l-3.3125 3.3125-3.3125-3.3125c-5.953125-5.960938-14.191406-9.375-22.625-9.375h-94.0625c-4.425781 0-8 3.585938-8 8v144c0 4.414062 3.574219 8 8 8h112v32.886719c-10.175781-10.40625-24.335938-16.886719-40-16.886719h-16c-4.425781 0-8 3.585938-8 8 0 30.878906 25.128906 56 56 56h8v16h-56c-4.425781 0-8 3.585938-8 8v32c0 4.414062 3.574219 8 8 8h128c4.425781 0 8-3.585938 8-8v-32c0-4.414062-3.574219-8-8-8h-56v-16h8c30.871094 0 56-25.121094 56-56 0-4.414062-3.574219-8-8-8h-16c-15.664062 0-29.824219 6.480469-40 16.886719v-32.886719h112c4.425781 0 8-3.585938 8-8v-144c0-4.414062-3.574219-8-8-8zm-136 224c-19.320312 0-35.480469-13.769531-39.191406-32h7.191406c19.320312 0 35.480469 13.769531 39.191406 32zm72 64h-112v-16h112zm-8-96h7.191406c-3.71875 18.230469-19.871094 32-39.191406 32h-7.191406c3.710937-18.230469 19.871094-32 39.191406-32zm-160-176h86.0625c4.210938 0 8.335938 1.703125 11.3125 4.6875l6.625 6.625v116.6875h-104zm224 128h-104v-116.6875l6.625-6.625c2.976562-2.984375 7.101562-4.6875 11.3125-4.6875h86.0625zm0 0"/><path d="m32 224h72v16h-72zm0 0"/><path d="m152 224h72v16h-72zm0 0"/><path d="m32 256h72v16h-72zm0 0"/><path d="m32 288h72v16h-72zm0 0"/><path d="m152 256h72v16h-72zm0 0"/><path d="m152 288h72v16h-72zm0 0"/><path d="m488 0h-94.0625c-8.433594 0-16.671875 3.414062-22.625 9.375l-3.3125 3.3125-3.3125-3.3125c-5.953125-5.960938-14.191406-9.375-22.625-9.375h-94.0625c-4.425781 0-8 3.585938-8 8v144c0 4.414062 3.574219 8 8 8h112v80.886719c-10.175781-10.40625-24.335938-16.886719-40-16.886719h-32c-4.425781 0-8 3.585938-8 8 0 30.878906 25.128906 56 56 56h24v32.886719c-10.175781-10.40625-24.335938-16.886719-40-16.886719h-16c-4.425781 0-8 3.585938-8 8 0 30.878906 25.128906 56 56 56h8v16h-56c-4.425781 0-8 3.585938-8 8v24h-8c-4.425781 0-8 3.585938-8 8v32c0 4.414062 3.574219 8 8 8h8v24c0 4.414062 3.574219 8 8 8h128c4.425781 0 8-3.585938 8-8v-32c0-4.414062-3.574219-8-8-8h-8v-16h8c4.425781 0 8-3.585938 8-8v-32c0-4.414062-3.574219-8-8-8h-56v-16h8c30.871094 0 56-25.121094 56-56 0-4.414062-3.574219-8-8-8h-16c-15.664062 0-29.824219 6.480469-40 16.886719v-32.886719h24c48.519531 0 88-39.480469 88-88 0-4.414062-3.574219-8-8-8h-32c-29.761719 0-56.0625 14.886719-72 37.558594v-69.558594h112c4.425781 0 8-3.585938 8-8v-144c0-4.414062-3.574219-8-8-8zm-152 272c-19.320312 0-35.480469-13.769531-39.191406-32h23.191406c19.320312 0 35.480469 13.769531 39.191406 32zm16 80c-19.320312 0-35.480469-13.769531-39.191406-32h7.191406c19.320312 0 35.480469 13.769531 39.191406 32zm72 128h-112v-16h112zm-16-32h-112v-16h112zm16-32h-112v-16h112zm-8-96h7.191406c-3.71875 18.230469-19.871094 32-39.191406 32h-7.191406c3.710937-18.230469 19.871094-32 39.191406-32zm32-112h23.550781c-3.992187 35.953125-34.550781 64-71.550781 64h-23.550781c3.992187-35.953125 34.550781-64 71.550781-64zm-192-192h86.0625c4.210938 0 8.335938 1.703125 11.3125 4.6875l6.625 6.625v116.6875h-104zm224 128h-104v-116.6875l6.625-6.625c2.976562-2.984375 7.101562-4.6875 11.3125-4.6875h86.0625zm0 0"/><path d="m272 32h72v16h-72zm0 0"/><path d="m392 32h72v16h-72zm0 0"/><path d="m272 64h72v16h-72zm0 0"/><path d="m272 96h72v16h-72zm0 0"/><path d="m392 64h72v16h-72zm0 0"/><path d="m392 96h72v16h-72zm0 0"/><path d="m40 80c3.710938 0 7.230469-.671875 10.640625-1.617188l26.566406 39.847657c-7.96875 5.824219-13.207031 15.167969-13.207031 25.769531 0 17.648438 14.351562 32 32 32s32-14.351562 32-32c0-5.921875-1.71875-11.390625-4.535156-16.152344l44.382812-44.382812c4.761719 2.816406 10.230469 4.535156 16.152344 4.535156 17.648438 0 32-14.351562 32-32s-14.351562-32-32-32c-14.390625 0-26.449219 9.609375-30.457031 22.695312l-74.230469-13.496093c-3.25-18.816407-19.585938-33.199219-39.3125-33.199219-22.054688 0-40 17.945312-40 40s17.945312 40 40 40zm56 80c-8.824219 0-16-7.175781-16-16s7.175781-16 16-16 16 7.175781 16 16-7.175781 16-16 16zm88-120c8.824219 0 16 7.175781 16 16s-7.175781 16-16 16-16-7.175781-16-16 7.175781-16 16-16zm-105.222656 9.359375 73.992187 13.457031c.734375 3.359375 2.070313 6.464844 3.765625 9.335938l-44.382812 44.382812c-4.761719-2.816406-10.230469-4.535156-16.152344-4.535156-1.191406 0-2.328125.222656-3.480469.351562l-27.566406-41.34375c6.757813-5.449218 11.71875-12.953124 13.824219-21.648437zm-38.777344-33.359375c13.230469 0 24 10.769531 24 24s-10.769531 24-24 24-24-10.769531-24-24 10.769531-24 24-24zm0 0"/></svg>