<svg height="496pt" viewBox="0 0 496.00421 496" width="496pt" xmlns="http://www.w3.org/2000/svg"><path d="m455.539062 373.3125c-.398437-1.109375-1.039062-2.125-1.878906-2.964844l-122.34375-122.34375 147.429688-147.433594c11.128906-11.128906 17.257812-25.921874 17.257812-41.65625 0-32.488281-26.425781-58.91015575-58.914062-58.91015575-15.734375 0-30.527344 6.12499975-41.65625 17.25390575l-147.429688 147.433594-147.433594-147.433594c-11.128906-11.128906-25.917968-17.25390575-41.65625-17.25390575-32.488281 0-58.91015575 26.42187475-58.91015575 58.91015575 0 15.734376 6.12890575 30.527344 17.25390575 41.65625l147.433594 147.433594-122.34375 122.34375c-.839844.832032-1.480468 1.847656-1.878906 2.964844l-40 112c-1.042969 2.914062-.3125 6.167969 1.878906 8.34375 1.527344 1.53125 3.566406 2.347656 5.65625 2.347656.902344 0 1.816406-.152344 2.6875-.464844l112-40c1.113282-.402343 2.128906-1.039062 2.96875-1.882812l122.34375-122.34375 122.34375 122.34375c.832032.84375 1.847656 1.480469 2.96875 1.882812l112 40c.871094.3125 1.78125.464844 2.6875.464844 2.085938 0 4.128906-.816406 5.65625-2.347656 2.183594-2.183594 2.917969-5.429688 1.878906-8.34375zm-402.144531 11.394531 57.914063 57.910157-18.699219 6.679687-45.886719-45.886719zm9.921875-12.703125 12.6875-12.691406 60.679688 60.679688-12.679688 12.699218zm-3.3125-251.3125-12.6875-12.6875 60.6875-60.691406 12.6875 12.691406zm48-25.378906 104.6875 104.691406-12.6875 12.6875-104.6875-104.6875zm256-24 12.6875 12.691406-276.6875 276.6875-12.6875-12.6875zm-252.6875 300.691406 276.6875-276.691406 12.6875 12.691406-276.6875 276.6875zm264-312 12.6875-12.691406 60.6875 60.691406-12.6875 12.6875zm-240 336 276.6875-276.691406 12.6875 12.691406-276.6875 276.6875zm160.6875-112.691406 88.6875 88.691406-12.6875 12.6875-88.6875-88.6875zm124 76 12.6875 12.691406-60.6875 60.6875-12.6875-12.6875zm22.605469 25.394531 6.679687 18.695313-45.886718 45.886718-18.695313-6.679687zm-33.917969-36.703125-12.6875 12.6875-88.6875-88.6875 12.6875-12.691406zm28.398438-332c23.664062 0 42.914062 19.246094 42.914062 42.910156 0 11.464844-4.464844 22.238282-12.570312 30.34375l-7.429688 7.433594-60.6875-60.6875 7.429688-7.433594c8.105468-8.105468 18.878906-12.566406 30.34375-12.566406zm-213.085938 172.6875-104.6875-104.6875 12.6875-12.691406 104.6875 104.691406zm-208-129.777344c0-23.664062 19.246094-42.910156 42.910156-42.910156 11.464844 0 22.242188 4.460938 30.34375 12.566406l7.433594 7.433594-60.6875 60.6875-7.433594-7.433594c-8.101562-8.105468-12.566406-18.878906-12.566406-30.34375zm55.3125 73.089844 12.6875-12.691406 104.6875 104.691406-12.6875 12.6875zm-30.554687 288.070313 35.175781 35.175781-54.710938 19.542969zm231.242187-112.761719 88.6875 88.691406-12.6875 12.6875-88.6875-88.6875zm148.070313 147.929688 35.175781-35.175782 19.542969 54.710938zm0 0"/></svg>