<svg height="496pt" viewBox="-64 0 496 496" width="496pt" xmlns="http://www.w3.org/2000/svg"><path d="m360 0h-320c-4.414062 0-8 3.585938-8 8v24h-24c-4.414062 0-8 3.585938-8 8v448c0 4.414062 3.585938 8 8 8h320c4.414062 0 8-3.585938 8-8v-24h24c4.414062 0 8-3.585938 8-8v-448c0-4.414062-3.585938-8-8-8zm-40 480h-304v-432h240v56c0 4.414062 3.585938 8 8 8h56zm-11.3125-384h-36.6875v-36.6875zm43.3125 352h-16v-344c0-2.207031-.894531-4.207031-2.34375-5.65625l-63.992188-63.992188c-1.457031-1.457031-3.457031-2.351562-5.664062-2.351562h-216v-16h304zm0 0"/><path d="m192 275.40625v-24.886719c18.886719-9.007812 32-28.238281 32-50.519531v-32c0-4.414062-3.585938-8-8-8h-96c-4.414062 0-8 3.585938-8 8v8h-80v16h80v8c0 2.71875.265625 5.375.640625 8h-80.640625v16h85.480469c5.535156 11.601562 14.917969 20.984375 26.519531 26.519531v24.886719c-36.878906 10.480469-64 44.394531-64 84.59375v16c0 4.414062 3.585938 8 8 8h42.585938l29.988281 74.976562c1.21875 3.03125 4.152343 5.023438 7.425781 5.023438s6.207031-1.992188 7.433594-5.023438l29.980468-74.976562h42.585938c4.414062 0 8-3.585938 8-8v-8h48v-16h-48.40625c-.496094-5.503906-1.539062-10.839844-3.007812-16h51.414062v-16h-57.710938c-2.929687-5.710938-6.402343-11.097656-10.457031-16h68.167969v-16h-85.558594c-7.953125-5.59375-16.867187-9.863281-26.441406-12.59375zm-64-75.40625v-24h80v24c0 22.054688-17.945312 40-40 40s-40-17.945312-40-40zm32 55.359375c2.625.375 5.28125.640625 8 .640625s5.375-.265625 8-.640625v17.039063c-2.640625-.230469-5.296875-.398438-8-.398438s-5.359375.167969-8 .40625zm8 179.105469-20.183594-50.464844h40.359375zm72-66.464844h-112v-8c0-22.054688 17.945312-40 40-40v-16c-30.878906 0-56 25.121094-56 56v8h-16v-8c0-39.695312 32.304688-72 72-72s72 32.304688 72 72zm0 0"/><path d="m40 128h192c4.414062 0 8-3.585938 8-8v-48c0-4.414062-3.585938-8-8-8h-192c-4.414062 0-8 3.585938-8 8v48c0 4.414062 3.585938 8 8 8zm8-48h176v32h-176zm0 0"/></svg>