<svg height="496pt" viewBox="0 0 496.002 496" width="496pt" xmlns="http://www.w3.org/2000/svg"><path d="m469.65625 290.34375c-3.128906-3.125-8.183594-3.125-11.3125 0l-6.34375 6.34375-12.6875-12.6875 6.34375-6.34375c3.128906-3.128906 3.128906-8.183594 0-11.3125l-98.34375-98.34375 10.34375-10.34375c3.128906-3.128906 3.128906-8.183594 0-11.3125l-24-24c-3.128906-3.125-8.183594-3.125-11.3125 0l-88 88c-3.128906 3.128906-3.128906 8.183594 0 11.3125l24 24c1.558594 1.5625 3.609375 2.34375 5.65625 2.34375s4.097656-.78125 5.65625-2.34375l10.34375-10.34375 40 40v68.898438c-9.65625 7.308593-16 18.78125-16 31.789062 0 12.226562 5.632812 23.050781 14.296875 30.394531l-75.953125 75.949219c-2.289062 2.289062-2.976562 5.730469-1.734375 8.722656 1.238281 2.992188 4.160156 4.933594 7.390625 4.933594h48c2.121094 0 4.160156-.839844 5.65625-2.34375l18.34375-18.34375v12.6875c0 4.425781 3.585938 8 8 8h32c4.414062 0 8-3.574219 8-8v-12.6875l18.34375 18.34375c1.496094 1.503906 3.535156 2.34375 5.65625 2.34375h48c3.230469 0 6.152344-1.941406 7.390625-4.933594 1.242187-2.992187.554687-6.433594-1.734375-8.722656l-75.953125-75.949219c8.664063-7.34375 14.296875-18.167969 14.296875-30.394531 0-13.015625-6.34375-24.488281-16-31.789062v-20.898438l10.34375 10.34375c1.558594 1.5625 3.609375 2.34375 5.65625 2.34375s4.097656-.78125 5.65625-2.34375l6.34375-6.34375 12.6875 12.6875-6.34375 6.34375c-3.128906 3.128906-3.128906 8.183594 0 11.3125l24 24c1.558594 1.5625 3.609375 2.34375 5.65625 2.34375s4.097656-.78125 5.65625-2.34375l56-56c3.128906-3.128906 3.128906-8.183594 0-11.3125zm-205.65625-61.65625-12.6875-12.6875 76.6875-76.6875 12.6875 12.6875zm80 123.3125c13.230469 0 24 10.769531 24 24 0 13.234375-10.769531 24-24 24s-24-10.765625-24-24c0-13.230469 10.769531-24 24-24zm-51.3125 128h-25.375l52.6875-52.6875v25.375zm43.3125 0v-64.808594c2.585938.53125 5.265625.808594 8 .808594s5.414062-.277344 8-.808594v64.808594zm59.3125 0-27.3125-27.3125v-25.375l52.6875 52.6875zm-43.3125-143.191406c-2.585938-.527344-5.265625-.808594-8-.808594s-5.414062.28125-8 .808594v-45.496094l16 16zm19.3125-32.808594 18.34375-18.34375-11.3125-11.3125-18.34375 18.34375-44.6875-44.6875 18.34375-18.34375-11.3125-11.3125-18.34375 18.34375-12.6875-12.6875 44.6875-44.6875 92.6875 92.6875-44.6875 44.6875zm36 12 20.6875-20.6875 12.6875 12.6875-20.6875 20.6875zm24.6875 48.6875-12.6875-12.6875 44.6875-44.6875 12.6875 12.6875zm0 0"/><path d="m128 88c13.230469 0 24-10.765625 24-24 0-13.230469-10.769531-24-24-24s-24 10.769531-24 24c0 13.234375 10.769531 24 24 24zm0-32c4.40625 0 8 3.585938 8 8 0 4.417969-3.59375 8-8 8s-8-3.582031-8-8c0-4.414062 3.59375-8 8-8zm0 0"/><path d="m64.824219 135.960938c15.199219 33.015624 48.511719 56.039062 87.175781 56.039062 38.671875 0 71.992188-23.03125 87.183594-56.054688 35.992187-7.433593 64.816406-20.359374 64.816406-39.945312 0-21.816406-34.113281-33.710938-64.847656-40.007812-15.207032-32.992188-48.503906-55.992188-87.152344-55.992188s-71.945312 23-87.152344 55.992188c-30.511718 6.257812-64.847656 18.144531-64.847656 40.007812 0 19.160156 27.59375 32.320312 64.824219 39.960938zm87.175781 40.039062c-28.105469 0-52.816406-14.597656-67.089844-36.574219 17.722656 2.535157 36.683594 3.992188 55.449219 4.40625 5.527344 9.609375 15.785156 16.167969 27.640625 16.167969 12.585938 0 23.390625-7.367188 28.609375-17.949219 7.519531-.671875 15.046875-1.539062 22.46875-2.609375-14.269531 21.96875-38.980469 36.558594-67.078125 36.558594zm0-48c0-8.824219 7.175781-16 16-16s16 7.175781 16 16-7.175781 16-16 16-16-7.175781-16-16zm136-32c0 5.386719-13.078125 14.9375-42.703125 22.242188 1.703125-7.152344 2.703125-14.578126 2.703125-22.242188s-1-15.085938-2.703125-22.238281c30.832031 7.574219 42.703125 17.296875 42.703125 22.238281zm-136-80c44.113281 0 80 35.890625 80 80 0 9.082031-1.59375 17.785156-4.398438 25.929688-8.328124 1.464843-17.59375 2.734374-27.839843 3.75-1.210938-16.550782-14.914063-29.679688-31.761719-29.679688-17.542969 0-31.808594 14.199219-31.96875 31.703125-23.128906-.703125-43.070312-2.8125-59.625-5.757813-2.804688-8.152343-4.40625-16.855468-4.40625-25.945312 0-44.109375 35.886719-80 80-80zm-93.296875 57.777344c-1.703125 7.144531-2.703125 14.558594-2.703125 22.222656 0 7.65625 1 15.074219 2.695312 22.210938-28.183593-6.984376-42.695312-16.171876-42.695312-22.210938 0-4.917969 11.871094-14.648438 42.703125-22.222656zm0 0"/><path d="m128 256c0-35.285156-28.710938-64-64-64s-64 28.714844-64 64c0 35.289062 28.710938 64 64 64s64-28.710938 64-64zm-16 0h-12l-20-26.664062v-18.535157c18.617188 6.609375 32 24.34375 32 45.199219zm-80-35.679688v25.457032l-14.097656 23.488281c-1.214844-4.214844-1.902344-8.65625-1.902344-13.265625 0-14.167969 6.207031-26.878906 16-35.679688zm-5.449219 65.640626 20.304688-33.839844c.753906-1.25 1.144531-2.664063 1.144531-4.121094v-37.199219c5.015625-1.777343 10.382812-2.800781 16-2.800781v24c0 1.738281.558594 3.417969 1.601562 4.800781l24 32c1.503907 2.015625 3.878907 3.199219 6.398438 3.199219h13.199219c-6.605469 18.617188-24.34375 32-45.199219 32-15.136719 0-28.640625-7.0625-37.449219-18.039062zm0 0"/><path d="m56 272h16v16h-16zm0 0"/><path d="m268.902344 346.199219c20.425781-5.125 35.097656-13.734375 35.097656-26.199219 0-17.375-27.320312-25.199219-45.617188-28.488281-10.277343-11.917969-25.445312-19.511719-42.382812-19.511719s-32.113281 7.59375-42.382812 19.511719c-18.296876 3.289062-45.617188 11.113281-45.617188 28.488281 0 12.464844 14.671875 21.074219 35.097656 26.199219 7.574219 21.960937 28.398438 37.800781 52.902344 37.800781s45.328125-15.839844 52.902344-37.800781zm19.105468-26.316407c-.558593 2.03125-5.945312 5.574219-16.046874 8.820313.007812-.230469.039062-.460937.039062-.703125 0-6.167969-1.039062-12.09375-2.894531-17.65625 14.0625 4.042969 18.574219 8.519531 18.902343 9.539062zm-72.007812-31.882812c22.054688 0 40 17.945312 40 40 0 1.617188-.289062 3.152344-.480469 4.722656-10.597656 1.933594-23.726562 3.277344-39.519531 3.277344s-28.921875-1.34375-39.519531-3.261719c-.191407-1.578125-.480469-3.113281-.480469-4.738281 0-22.054688 17.945312-40 40-40zm-72.007812 32.128906c.328124-1.199218 4.847656-5.726562 18.902343-9.777344-1.855469 5.554688-2.894531 11.480469-2.894531 17.648438 0 .257812.03125.496094.039062.753906-10.101562-3.226562-15.496093-6.703125-16.046874-8.625zm72.007812 47.871094c-13.992188 0-26.289062-7.253906-33.441406-18.167969 10.777344 1.441407 22.210937 2.167969 33.441406 2.167969s22.664062-.726562 33.441406-2.167969c-7.152344 10.914063-19.449218 18.167969-33.441406 18.167969zm0 0"/><path d="m424 168c13.230469 0 24 10.769531 24 24 0 4.425781 3.585938 8 8 8s8-3.574219 8-8c0-13.230469 10.769531-24 24-24 4.414062 0 8-3.574219 8-8 0-4.421875-3.585938-8-8-8-13.230469 0-24-10.765625-24-24 0-4.421875-3.585938-8-8-8s-8 3.578125-8 8c0 13.234375-10.769531 24-24 24-4.414062 0-8 3.578125-8 8 0 4.425781 3.585938 8 8 8zm32-16.023438c2.28125 3.039063 4.992188 5.746094 8.023438 8.023438-3.03125 2.28125-5.742188 4.984375-8.023438 8.023438-2.28125-3.039063-4.992188-5.742188-8.023438-8.023438 3.03125-2.277344 5.742188-4.984375 8.023438-8.023438zm0 0"/><path d="m344 72c13.230469 0 24 10.769531 24 24 0 4.425781 3.585938 8 8 8s8-3.574219 8-8c0-13.230469 10.769531-24 24-24 4.414062 0 8-3.574219 8-8 0-4.421875-3.585938-8-8-8-13.230469 0-24-10.765625-24-24 0-4.421875-3.585938-8-8-8s-8 3.578125-8 8c0 13.234375-10.769531 24-24 24-4.414062 0-8 3.578125-8 8 0 4.425781 3.585938 8 8 8zm32-16.023438c2.28125 3.039063 4.992188 5.746094 8.023438 8.023438-3.03125 2.28125-5.742188 4.984375-8.023438 8.023438-2.28125-3.039063-4.992188-5.742188-8.023438-8.023438 3.03125-2.277344 5.742188-4.984375 8.023438-8.023438zm0 0"/><path d="m136 384c-13.230469 0-24-10.765625-24-24 0-4.421875-3.585938-8-8-8s-8 3.578125-8 8c0 13.234375-10.769531 24-24 24-4.414062 0-8 3.578125-8 8 0 4.425781 3.585938 8 8 8 13.230469 0 24 10.769531 24 24 0 4.425781 3.585938 8 8 8s8-3.574219 8-8c0-13.230469 10.769531-24 24-24 4.414062 0 8-3.574219 8-8 0-4.421875-3.585938-8-8-8zm-32 16.023438c-2.28125-3.039063-4.992188-5.742188-8.023438-8.023438 3.03125-2.277344 5.742188-4.984375 8.023438-8.023438 2.28125 3.039063 4.992188 5.746094 8.023438 8.023438-3.03125 2.28125-5.742188 4.984375-8.023438 8.023438zm0 0"/></svg>