<svg height="496pt" viewBox="0 0 496 496" width="496pt" xmlns="http://www.w3.org/2000/svg"><path d="m376 432h-56v-392c0-22.054688-17.945312-40-40-40h-240c-22.054688 0-40 17.945312-40 40v16c0 4.425781 3.574219 8 8 8h56v392c0 22.054688 17.945312 40 40 40h240c22.054688 0 40-17.945312 40-40v-16c0-4.425781-3.574219-8-8-8zm-360-392c0-13.230469 10.769531-24 24-24h208.015625c-5.03125 6.6875-8.015625 15-8.015625 24v8h-224zm112 400v16c0 13.230469-10.769531 24-24 24s-24-10.769531-24-24v-392h168c4.425781 0 8-3.574219 8-8v-16c0-13.230469 10.769531-24 24-24s24 10.769531 24 24v392h-168c-4.425781 0-8 3.574219-8 8zm240 16c0 13.230469-10.769531 24-24 24h-208.015625c5.03125-6.6875 8.015625-15 8.015625-24v-8h224zm0 0"/><path d="m496 200c0-22.28125-13.113281-41.503906-32-50.519531v-29.480469c0-13.230469-10.769531-24-24-24s-24 10.769531-24 24v29.480469c-18.886719 9.007812-32 28.238281-32 50.519531 0 15.214844 6.121094 29.007812 16 39.113281v184.886719c0 2.128906.839844 4.160156 2.34375 5.65625l29.65625 29.65625v36.6875h16v-60.6875l29.65625-29.65625c1.503906-1.496094 2.34375-3.527344 2.34375-5.65625v-160.886719c9.878906-10.105469 16-23.898437 16-39.113281zm-64-80c0-4.414062 3.585938-8 8-8s8 3.585938 8 8v24.640625c-2.625-.375-5.28125-.640625-8-.640625s-5.375.265625-8 .640625zm8 40c22.054688 0 40 17.945312 40 40s-17.945312 40-40 40-40-17.945312-40-40 17.945312-40 40-40zm-24 90.519531c4.976562 2.375 10.351562 4.023438 16 4.839844v181.328125l-16-16zm32 162.167969v-157.328125c5.648438-.816406 11.023438-2.464844 16-4.839844v146.167969zm0 0"/><path d="m440 224c13.230469 0 24-10.769531 24-24s-10.769531-24-24-24-24 10.769531-24 24 10.769531 24 24 24zm0-32c4.414062 0 8 3.585938 8 8s-3.585938 8-8 8-8-3.585938-8-8 3.585938-8 8-8zm0 0"/><path d="m104 288h176c4.425781 0 8-3.574219 8-8v-192c0-4.425781-3.574219-8-8-8h-176c-4.425781 0-8 3.574219-8 8v192c0 4.425781 3.574219 8 8 8zm136-16h-16v-16h16zm32-128h-16v-16h16zm-96-48v32h16v-32h80v16h-24c-4.425781 0-8 3.574219-8 8v32c0 4.425781 3.574219 8 8 8h24v48h-64v16h64v48h-16v-24c0-4.425781-3.574219-8-8-8h-32c-4.425781 0-8 3.574219-8 8v24h-16v-64h-16v64h-64v-96h64v16h16v-48h-16v16h-64v-64zm0 0"/><path d="m336 0h64v16h-64zm0 0"/><path d="m336 32h112v16h-112zm0 0"/><path d="m336 64h112v16h-112zm0 0"/><path d="m96 304h96v16h-96zm0 0"/><path d="m96 336h96v16h-96zm0 0"/><path d="m96 368h192v16h-192zm0 0"/><path d="m96 400h192v16h-192zm0 0"/></svg>