<svg height="496pt" viewBox="0 0 496 496" width="496pt" xmlns="http://www.w3.org/2000/svg"><path d="m472 112h-56v-88c0-4.414062-3.574219-8-8-8h-24v-8c0-4.414062-3.574219-8-8-8h-92.121094c-13.253906 0-25.816406 4.585938-35.878906 13-10.054688-8.414062-22.617188-13-35.878906-13h-92.121094c-4.425781 0-8 3.585938-8 8v8h-24c-4.425781 0-8 3.585938-8 8v88h-56c-13.230469 0-24 10.769531-24 24v240c0 13.230469 10.769531 24 24 24h160v32h-8c-30.871094 0-56 25.128906-56 56 0 4.425781 3.574219 8 8 8h240c4.425781 0 8-3.574219 8-8 0-30.871094-25.128906-56-56-56h-8v-32h160c13.230469 0 24-10.769531 24-24v-240c0-13.230469-10.769531-24-24-24zm-72-80v224h-128v-16h104c4.425781 0 8-3.585938 8-8v-200zm-272 176h84.121094c10.679687 0 20.726562 4.160156 28.277344 11.710938l1.9375 1.945312c1.496093 1.503906 3.535156 2.34375 5.664062 2.34375s4.167969-.839844 5.664062-2.34375l1.929688-1.9375c7.566406-7.558594 17.605469-11.71875 28.285156-11.71875h84.121094v16h-240zm112 32h16v24c0 4.414062-3.585938 8-8 8s-8-3.585938-8-8zm128-224v176h-84.121094c-9.933594 0-19.488281 2.574219-27.878906 7.40625v-76.023438c7.519531-7.320312 17.382812-11.382812 27.878906-11.382812h68.121094v-16h-68.121094c-9.933594 0-19.488281 2.574219-27.878906 7.40625v-76.023438c7.519531-7.320312 17.382812-11.382812 27.878906-11.382812zm-240 0h84.121094c10.503906 0 20.367187 4.0625 27.878906 11.382812v76.023438c-8.390625-4.832031-17.9375-7.40625-27.878906-7.40625h-68.121094v16h68.121094c10.503906 0 20.367187 4.0625 27.878906 11.382812v76.023438c-8.390625-4.832031-17.9375-7.40625-27.878906-7.40625h-84.121094zm-32 16h16v200c0 4.414062 3.574219 8 8 8h104v16h-128zm263.191406 448h-222.382812c3.71875-18.230469 19.871094-32 39.191406-32h144c19.320312 0 35.480469 13.769531 39.191406 32zm-63.191406-48h-96v-32h96zm184-56c0 4.414062-3.585938 8-8 8h-448c-4.414062 0-8-3.585938-8-8v-240c0-4.40625 3.585938-8 8-8h56v136c0 4.425781 3.574219 8 8 8h137.472656c3.3125 9.289062 12.113282 16 22.527344 16s19.214844-6.710938 22.527344-16h137.472656c4.425781 0 8-3.574219 8-8v-136h56c4.414062 0 8 3.59375 8 8zm0 0"/><path d="m152 80h32c4.425781 0 8-3.585938 8-8v-32c0-4.414062-3.574219-8-8-8h-32c-4.425781 0-8 3.585938-8 8v32c0 4.414062 3.574219 8 8 8zm8-32h16v16h-16zm0 0"/><path d="m344 128h-32c-4.425781 0-8 3.585938-8 8v32c0 4.414062 3.574219 8 8 8h32c4.425781 0 8-3.585938 8-8v-32c0-4.414062-3.574219-8-8-8zm-8 32h-16v-16h16zm0 0"/><path d="m144 128h64v16h-64zm0 0"/><path d="m144 160h64v16h-64zm0 0"/><path d="m288 64h64v16h-64zm0 0"/><path d="m288 32h64v16h-64zm0 0"/><path d="m376 288c-19.3125 0-35.472656 13.769531-39.191406 32h-177.617188c-3.71875-18.230469-19.871094-32-39.191406-32-22.054688 0-40 17.945312-40 40s17.945312 40 40 40c19.3125 0 35.472656-13.769531 39.191406-32h177.617188c3.71875 18.230469 19.871094 32 39.191406 32 22.054688 0 40-17.945312 40-40s-17.945312-40-40-40zm-256 64c-13.230469 0-24-10.769531-24-24s10.769531-24 24-24 24 10.769531 24 24-10.769531 24-24 24zm256 0c-13.230469 0-24-10.769531-24-24s10.769531-24 24-24 24 10.769531 24 24-10.769531 24-24 24zm0 0"/></svg>