<svg height="496pt" viewBox="-64 0 496 496" width="496pt" xmlns="http://www.w3.org/2000/svg"><path d="m360.003906 400h-24v-72c0-4.425781-3.585937-8-8-8h-72.914062c57.152344-26.839844 96.914062-84.792969 96.914062-152 0-22.648438-4.5625-44.230469-12.722656-63.96875l26.375-26.375c3.128906-3.128906 3.128906-8.183594 0-11.3125l-40-40c-3.125-3.128906-8.183594-3.128906-11.308594 0l-17.53125 17.527344c-29.855468-27.152344-69.375-43.871094-112.8125-43.871094-43.441406 0-82.960937 16.71875-112.816406 43.871094l-17.53125-17.527344c-3.125-3.128906-8.183594-3.128906-11.308594 0l-40 40c-3.128906 3.128906-3.128906 8.183594 0 11.3125l26.375 26.375c-8.160156 19.738281-12.71875 41.320312-12.71875 63.96875 0 67.207031 39.757813 125.160156 96.910156 152h-88.910156c-13.234375 0-23.99999975 10.769531-23.99999975 24v48c0 13.230469 10.76562475 24 23.99999975 24h9.46875c-.894531 2.511719-1.46875 5.183594-1.46875 8v48c0 13.230469 10.765625 24 24 24h304c4.414063 0 8-3.574219 8-8v-80c0-4.425781-3.585937-8-8-8zm-40-356.6875 28.6875 28.6875-16.664062 16.664062c-6.554688-12.167968-14.664063-23.335937-23.898438-33.480468zm-300.691406 28.6875 28.691406-28.6875 11.871094 11.871094c-9.234375 10.144531-17.34375 21.3125-23.898438 33.480468zm12.691406 96c0-83.816406 68.183594-152 152-152 83.8125 0 152 68.183594 152 152s-68.1875 152-152 152c-83.816406 0-152-68.183594-152-152zm288 168v32h-64v16h64v16h-256v-32h176v-16h-176v-16zm-304 56v-48c0-4.414062 3.589844-8 8-8h24v64h-24c-4.410156 0-8-3.585938-8-8zm32 80v-48c0-4.414062 3.589844-8 8-8h24v64h-24c-4.410156 0-8-3.585938-8-8zm48 8v-32h176v-16h-176v-16h256v32h-64v16h64v16zm0 0"/><path d="m184.003906 32c-74.992187 0-136 61.007812-136 136s61.007813 136 136 136c74.988282 0 136-61.007812 136-136s-61.011718-136-136-136zm90.199219 214.886719-12.546875-12.542969-11.308594 11.3125 12.542969 12.542969c-19.234375 16.839843-43.824219 27.601562-70.886719 29.394531v-15.59375h-16v15.59375c-27.066406-1.800781-51.65625-12.554688-70.890625-29.394531l12.542969-12.542969-11.308594-11.3125-12.546875 12.542969c-16.839843-19.230469-27.597656-43.824219-29.390625-70.886719h15.59375v-16h-15.59375c1.800782-27.0625 12.550782-51.65625 29.390625-70.886719l12.546875 12.542969 11.308594-11.3125-12.542969-12.542969c19.234375-16.839843 43.824219-27.601562 70.890625-29.394531v15.59375h16v-15.59375c27.0625 1.800781 51.652344 12.554688 70.886719 29.394531l-12.542969 12.542969 11.308594 11.3125 12.546875-12.542969c16.839844 19.230469 27.597656 43.824219 29.390625 70.886719h-15.589844v16h15.589844c-1.792969 27.0625-12.550781 51.65625-29.390625 70.886719zm0 0"/><path d="m192.003906 128.808594v-48.808594h-16v48.808594c-18.234375 3.71875-32 19.871094-32 39.191406 0 8.136719 2.46875 15.695312 6.660156 22.023438l-28.316406 28.320312 11.308594 11.3125 28.320312-28.320312c6.328126 4.191406 13.890626 6.664062 22.027344 6.664062 22.054688 0 40-17.945312 40-40 0-19.3125-13.769531-35.472656-32-39.191406zm-8 63.191406c-13.234375 0-24-10.769531-24-24s10.765625-24 24-24c13.230469 0 24 10.769531 24 24s-10.769531 24-24 24zm0 0"/></svg>