<svg height="496pt" viewBox="0 0 496 496" width="496pt" xmlns="http://www.w3.org/2000/svg"><path d="m451.511719 160.175781c7.734375-8.519531 12.488281-19.792969 12.488281-32.175781v-16c0-26.472656-21.527344-48-48-48s-48 21.527344-48 48v16c0 12.304688 4.6875 23.496094 12.320312 32h-116.320312c-4.414062 0-8 3.574219-8 8v8h-128v16h128v8c0 4.425781 3.585938 8 8 8h104v144h-320v-304h400v16h16v-17.472656c9.289062-3.3125 16-12.113282 16-22.527344 0-13.230469-10.769531-24-24-24h-416c-13.230469 0-24 10.769531-24 24 0 10.414062 6.710938 19.214844 16 22.527344v305.472656h-24c-4.414062 0-8 3.574219-8 8v32c0 4.425781 3.585938 8 8 8h232v40c0 4.425781 3.585938 8 8 8 8.824219 0 16 7.175781 16 16s-7.175781 16-16 16-16-7.175781-16-16h-16c0 17.648438 14.351562 32 32 32s32-14.351562 32-32c0-14.878906-10.214844-27.433594-24-30.984375v-33.015625h112v88c0 4.425781 3.585938 8 8 8h80c4.414062 0 8-3.574219 8-8v-168h24c4.414062 0 8-3.574219 8-8v-104c0-25.28125-19.65625-46.007812-44.488281-47.824219zm-67.511719-32.175781v-16c0-17.648438 14.351562-32 32-32s32 14.351562 32 32v16c0 17.648438-14.351562 32-32 32s-32-14.351562-32-32zm-344-112h416c4.40625 0 8 3.585938 8 8s-3.59375 8-8 8h-416c-4.40625 0-8-3.585938-8-8s3.59375-8 8-8zm-24 368v-16h352v16zm464-80h-16v-80h-16v256h-24v-176h-16v176h-24v-280c0-4.425781-3.585938-8-8-8h-104v-16h176c17.648438 0 32 14.351562 32 32zm0 0"/><path d="m64 128h16v32h-16zm0 0"/><path d="m64 96h16v16h-16zm0 0"/><path d="m96 112h16v48h-16zm0 0"/><path d="m96 80h16v16h-16zm0 0"/><path d="m128 96h16v64h-16zm0 0"/><path d="m128 64h16v16h-16zm0 0"/><path d="m160 96h16v64h-16zm0 0"/><path d="m160 64h16v16h-16zm0 0"/><path d="m176 272c0-26.472656-21.527344-48-48-48v16c17.648438 0 32 14.351562 32 32zm0 0"/><path d="m112 336c26.472656 0 48-21.527344 48-48 0-4.425781-3.585938-8-8-8h-32v-32c0-4.425781-3.585938-8-8-8-26.472656 0-48 21.527344-48 48s21.527344 48 48 48zm-8-78.984375v30.984375c0 4.425781 3.585938 8 8 8h30.992188c-3.558594 13.792969-16.105469 24-30.992188 24-17.648438 0-32-14.351562-32-32 0-14.878906 10.214844-27.433594 24-30.984375zm0 0"/><path d="m192 320h112v16h-112zm0 0"/><path d="m192 288h112v16h-112zm0 0"/><path d="m192 256h112v16h-112zm0 0"/></svg>