<?xml version="1.0" encoding="iso-8859-1"?>
<!-- Generator: Adobe Illustrator 19.0.0, SVG Export Plug-In . SVG Version: 6.00 Build 0)  -->
<svg version="1.1" id="Capa_1" xmlns="http://www.w3.org/2000/svg" xmlns:xlink="http://www.w3.org/1999/xlink" x="0px" y="0px"
	 viewBox="0 0 480 480" style="enable-background:new 0 0 480 480;" xml:space="preserve">
<ellipse style="fill:#CADBFC;" cx="238.83" cy="240" rx="216" ry="240"/>
<g>
	<path style="fill:#17AFDC;" d="M62.011,136h97.639c26.057,0,47.18,23.236,47.18,51.899V206.4c0,58.321-42.981,105.6-96,105.6
		s-96-47.279-96-105.6v-18.501C14.83,159.236,35.953,136,62.011,136z"/>
	<path style="fill:#17AFDC;" d="M318.011,136h97.639c26.057,0,47.18,23.236,47.18,51.899V206.4c0,58.321-42.981,105.6-96,105.6
		c-53.019,0-96-47.279-96-105.6v-18.501C270.83,159.236,291.953,136,318.011,136z"/>
</g>
<circle style="fill:#FFD700;" cx="366.83" cy="224" r="56"/>
<g>
	<path style="fill:#F4393D;" d="M60.486,213.656l-11.312-11.312l40-40c2.809-2.826,7.273-3.143,10.453-0.742l28.406,21.305
		l35.828-14.336l5.937,14.859l-40,16c-2.591,1.035-5.535,0.644-7.766-1.031L95.58,178.563L60.486,213.656z"/>
	<path style="fill:#F4393D;" d="M54.83,224h16v40h-16V224z"/>
	<path style="fill:#F4393D;" d="M86.83,200h16v64h-16V200z"/>
	<path style="fill:#F4393D;" d="M118.83,216h16v48h-16V216z"/>
	<path style="fill:#F4393D;" d="M150.83,208h16v56h-16V208z"/>
</g>
<path style="fill:#6B5CFF;" d="M415.65,128H318.01c-30.43,0-55.18,26.867-55.18,59.898V192h-48v-4.102
	c0-33.031-24.75-59.898-55.18-59.898H62.01c-30.43,0-55.18,26.867-55.18,59.898v18.5C6.83,269.039,53.486,320,110.83,320
	c56.849,0,103.13-50.103,103.926-112h48.148c0.796,61.897,47.077,112,103.926,112c57.344,0,104-50.961,104-113.602v-18.5
	C470.83,154.867,446.08,128,415.65,128L415.65,128z M198.83,206.398c0,53.82-39.477,97.602-88,97.602s-88-43.781-88-97.602v-18.5
	C22.83,163.695,40.408,144,62.01,144h97.641c21.602,0,39.18,19.695,39.18,43.898V206.398z M454.83,206.398
	c0,53.82-39.477,97.602-88,97.602s-88-43.781-88-97.602v-18.5c0-24.203,17.578-43.898,39.18-43.898h97.641
	c21.602,0,39.18,19.695,39.18,43.898V206.398z"/>
<path style="fill:#4F4F4F;" d="M238.83,440c-39.703,0-72-25.125-72-56h16c0,22.055,25.125,40,56,40s56-17.945,56-40h16
	C310.83,414.875,278.533,440,238.83,440z"/>
<g>
	<path style="fill:#FFD700;" d="M446.83,432h16v16h-16V432z"/>
	<path style="fill:#FFD700;" d="M446.83,464h16v16h-16V464z"/>
	<path style="fill:#FFD700;" d="M462.83,448h16v16h-16V448z"/>
	<path style="fill:#FFD700;" d="M430.83,448h16v16h-16V448z"/>
	<path style="fill:#FFD700;" d="M23.8,13.658L35.113,2.345l11.313,11.313L35.113,24.97L23.8,13.658z"/>
	<path style="fill:#FFD700;" d="M1.176,36.278l11.313-11.313l11.313,11.313L12.489,47.591L1.176,36.278z"/>
	<path style="fill:#FFD700;" d="M23.799,36.28l11.313-11.313L46.424,36.28L35.111,47.593L23.799,36.28z"/>
	<path style="fill:#FFD700;" d="M1.17,13.656L12.483,2.343l11.313,11.313L12.483,24.969L1.17,13.656z"/>
</g>
<path style="fill:#494949;" d="M368.643,216.195c-7.609-1.773-9.812-2.719-9.812-4.195c0-1.414,3.039-4,8-4s8,2.586,8,4h16
	c-0.497-9.304-7.237-17.088-16.375-18.91v-8.082h-16v8.272c-8.804,2.05-15.182,9.691-15.625,18.72
	c0,14.594,13.875,17.844,22.172,19.781c7.625,1.781,9.828,2.727,9.828,4.219c0,1.414-3.039,4-8,4s-8-2.586-8-4h-16
	c0.47,9.166,7.029,16.878,16,18.814V264h16v-9.186c8.971-1.937,15.53-9.648,16-18.814
	C390.83,221.383,376.939,218.141,368.643,216.195z"/>
<g>
</g>
<g>
</g>
<g>
</g>
<g>
</g>
<g>
</g>
<g>
</g>
<g>
</g>
<g>
</g>
<g>
</g>
<g>
</g>
<g>
</g>
<g>
</g>
<g>
</g>
<g>
</g>
<g>
</g>
</svg>
