<?xml version="1.0" encoding="iso-8859-1"?>
<!-- Generator: Adobe Illustrator 19.0.0, SVG Export Plug-In . SVG Version: 6.00 Build 0)  -->
<svg version="1.1" id="Capa_1" xmlns="http://www.w3.org/2000/svg" xmlns:xlink="http://www.w3.org/1999/xlink" x="0px" y="0px"
	 viewBox="0 0 480 480" style="enable-background:new 0 0 480 480;" xml:space="preserve">
<path style="fill:#CCCCCC;" d="M199.48,162.848l-14.96-5.696L136,284.528V136h-16v140.464L79.624,149.576l-15.248,4.848l56,176
	L128,328l7.48,2.848L199.48,162.848z"/>
<ellipse style="fill:#FFD700;" cx="200" cy="120" rx="48" ry="56"/>
<ellipse style="fill:#24DB6A;" cx="80" cy="56" rx="48" ry="56"/>
<ellipse style="fill:#FF7F00;" cx="176" cy="56" rx="48" ry="56"/>
<ellipse style="fill:#17AFDC;" cx="56" cy="120" rx="48" ry="56"/>
<g>
	<path style="fill:#CCCCCC;" d="M0,424h64v16H0V424z"/>
	<path style="fill:#CCCCCC;" d="M16,456h48v16H16V456z"/>
</g>
<g>
	<path style="fill:#FFD700;" d="M464,0h16v16h-16V0z"/>
	<path style="fill:#FFD700;" d="M400,16h16v16h-16V16z"/>
	<path style="fill:#FFD700;" d="M448,40h16v16h-16V40z"/>
	<path style="fill:#FFD700;" d="M408,64h16v16h-16V64z"/>
	<path style="fill:#FFD700;" d="M344,40h16v16h-16V40z"/>
	<path style="fill:#FFD700;" d="M368,88h16v16h-16V88z"/>
	<path style="fill:#FFD700;" d="M456,88h16v16h-16V88z"/>
</g>
<path style="fill:#17AFDC;" d="M480,272c-0.237-22.325-18.526-40.233-40.851-40c-1.59,0.064-3.175,0.22-4.747,0.468
	c-4.78-26.705-30.304-44.48-57.01-39.7c-20.421,3.655-36.344,19.745-39.787,40.202c-2.876-0.632-5.81-0.957-8.754-0.971
	c-22.091-0.466-40.378,17.065-40.843,39.157c-0.466,22.091,17.065,40.378,39.157,40.843c0.562,0.012,1.125,0.012,1.687,0h114.383
	v-0.403C463.856,309.832,479.767,292.696,480,272L480,272z"/>
<g>
	<path style="fill:#F4393D;" d="M376,216h16v48h-16V216z"/>
	<path style="fill:#F4393D;" d="M376,280h16v16h-16V280z"/>
	<ellipse style="fill:#F4393D;" cx="128" cy="96" rx="48" ry="56"/>
	<path style="fill:#F4393D;" d="M150.222,358.386h-9.01c7.444-5.128,10.728-14.474,8.128-23.131
		c-2.232-7.187-8.056-12.687-15.359-14.505c-11.722-3.382-23.966,3.38-27.347,15.102c-0.514,1.782-0.802,3.621-0.856,5.475
		c0.054,6.813,3.414,13.175,9.01,17.06h-9.01c-9.619-0.194-17.575,7.442-17.778,17.06v51.181h17.778V480h44.444v-53.373H168v-51.181
		C167.798,365.828,159.841,358.192,150.222,358.386L150.222,358.386z"/>
</g>
<g>
</g>
<g>
</g>
<g>
</g>
<g>
</g>
<g>
</g>
<g>
</g>
<g>
</g>
<g>
</g>
<g>
</g>
<g>
</g>
<g>
</g>
<g>
</g>
<g>
</g>
<g>
</g>
<g>
</g>
</svg>
