<?xml version="1.0" encoding="iso-8859-1"?>
<!-- Generator: Adobe Illustrator 19.0.0, SVG Export Plug-In . SVG Version: 6.00 Build 0)  -->
<svg version="1.1" id="Capa_1" xmlns="http://www.w3.org/2000/svg" xmlns:xlink="http://www.w3.org/1999/xlink" x="0px" y="0px"
	 viewBox="0 0 480.067 480.067" style="enable-background:new 0 0 480.067 480.067;" xml:space="preserve">
<g>
	<path style="fill:#C4C4C4;" d="M479.899,238.677c-0.016-16.93-9.849-30.644-23.865-30.644h-1.534
		c-13.747,1.165-24.496,12.346-25.118,26.128l-21.348,109.872l0.002,0.557c-6.32-4.121-14.512-3.978-20.684,0.363l-60.362,42.46
		c-4.361,3.068-6.957,8.067-6.957,13.399v79.221h80V465.52l56.208-35.784c15.563-11.702,24.442-30.256,23.792-49.716
		L479.899,238.677z"/>
	<path style="fill:#C4C4C4;" d="M0.168,238.677c0.016-16.93,9.849-30.644,23.865-30.644h1.534
		c13.747,1.165,24.496,12.346,25.118,26.128l21.348,109.872l-0.002,0.557c6.32-4.121,14.512-3.978,20.684,0.363l60.362,42.46
		c4.361,3.068,6.957,8.067,6.957,13.399v79.221h-80V465.52l-56.208-35.784C8.263,418.034-0.616,399.479,0.033,380.019L0.168,238.677
		z"/>
</g>
<circle style="fill:#97C6FF;" cx="240.033" cy="248.033" r="136"/>
<g>
	<circle style="fill:#FCCC38;" cx="360.033" cy="96.033" r="40"/>
	<circle style="fill:#FCCC38;" cx="120.033" cy="96.033" r="40"/>
	<circle style="fill:#FCCC38;" cx="240.033" cy="40.033" r="40"/>
</g>
<path style="fill:#DBE6FD;" d="M155.233,232.033h-19.2c0.061-52.994,43.006-95.939,96-96v19.2
	C189.638,155.282,155.282,189.638,155.233,232.033z"/>
<g>
	<path style="fill:#6D6D6D;" d="M124.409,410.977l-51.802-36.283c-7.149-8.858-7.521-21.394-0.911-30.661
		c-0.957,0.793-1.832,1.679-2.612,2.646c-6.951,9.296-6.707,22.124,0.594,31.147l51.802,36.283"/>
	<path style="fill:#6D6D6D;" d="M355.657,412.901l51.802-36.283c7.149-8.858,7.521-21.394,0.911-30.661
		c0.957,0.793,1.832,1.679,2.612,2.646c6.951,9.296,6.707,22.124-0.594,31.147l-51.802,36.283"/>
</g>
<g>
</g>
<g>
</g>
<g>
</g>
<g>
</g>
<g>
</g>
<g>
</g>
<g>
</g>
<g>
</g>
<g>
</g>
<g>
</g>
<g>
</g>
<g>
</g>
<g>
</g>
<g>
</g>
<g>
</g>
</svg>
