<?xml version="1.0" encoding="iso-8859-1"?>
<!-- Generator: Adobe Illustrator 19.0.0, SVG Export Plug-In . SVG Version: 6.00 Build 0)  -->
<svg version="1.1" id="Capa_1" xmlns="http://www.w3.org/2000/svg" xmlns:xlink="http://www.w3.org/1999/xlink" x="0px" y="0px"
	 viewBox="0 0 480.067 480.067" style="enable-background:new 0 0 480.067 480.067;" xml:space="preserve">
<path style="fill:#B8DAFF;" d="M43.462,56.036c-9.754-0.852-18.395,6.263-19.429,16c1.034,9.737,9.675,16.852,19.429,16h20.571
	c-8.837,0-16,7.163-16,16s7.163,16,16,16h24c-8.837,0-16,7.163-16,16s7.163,16,16,16h59.999v-96H43.462z"/>
<g>
	<path style="fill:#22C6FF;" d="M148.032,56.135H42.263c-9.318-0.334-17.295,6.623-18.23,15.9
		c0.211,5.651,3.491,10.735,8.551,13.257c-0.613-1.652-0.94-3.396-0.967-5.158c0-8.837,7.163-16,16-16h100.415V56.135z"/>
	<path style="fill:#22C6FF;" d="M64.033,88.019h40v8h-32c-8.805-0.031-15.969,7.081-16,15.886c-0.008,2.303,0.483,4.58,1.438,6.675
		c-8.053-3.613-11.651-13.071-8.038-21.123C52.014,91.708,57.732,88.012,64.033,88.019z"/>
	<path style="fill:#22C6FF;" d="M88.033,120.036h40v8h-32c-8.805-0.031-15.969,7.081-16,15.886c-0.008,2.303,0.483,4.58,1.438,6.675
		c-8.053-3.613-11.651-13.071-8.038-21.123C76.014,123.725,81.732,120.028,88.033,120.036z"/>
</g>
<path style="fill:#B8DAFF;" d="M436.157,58.8c9.754-0.852,18.395,6.263,19.429,16c-1.034,9.737-9.675,16.852-19.429,16h-20.571
	c8.837,0,16,7.163,16,16s-7.163,16-16,16h-24c8.837,0,16,7.163,16,16s-7.163,16-16,16h-59.999v-96H436.157z"/>
<g>
	<path style="fill:#22C6FF;" d="M331.587,58.9h105.769c9.318-0.334,17.295,6.623,18.23,15.9c-0.211,5.651-3.491,10.735-8.551,13.257
		c0.613-1.652,0.94-3.396,0.967-5.158c0-8.837-7.163-16-16-16H331.587L331.587,58.9z"/>
	<path style="fill:#22C6FF;" d="M415.586,90.784h-40v8h32c8.805-0.031,15.969,7.081,16,15.886c0.008,2.303-0.483,4.58-1.439,6.675
		c8.053-3.613,11.651-13.071,8.038-21.123C427.605,94.473,421.888,90.776,415.586,90.784z"/>
	<path style="fill:#22C6FF;" d="M391.586,122.8h-40v8h32c8.805-0.031,15.969,7.081,16,15.886c0.008,2.303-0.483,4.58-1.439,6.675
		c8.053-3.613,11.651-13.071,8.038-21.123C403.605,126.489,397.888,122.793,391.586,122.8z"/>
</g>
<path style="fill:#48B5FF;" d="M344.033,104.036c0,2.72-0.08,5.36-0.32,8c-3.928,51.128-44.552,91.752-95.68,95.68
	c-2.64,0.24-5.28,0.32-8,0.32s-5.36-0.08-8-0.32c-51.128-3.928-91.752-44.552-95.68-95.68c-0.24-2.64-0.32-5.28-0.32-8
	c-0.028-2.672,0.105-5.344,0.4-8C140.821,38.797,190.778-4.048,248.017,0.34c51.14,3.92,91.776,44.556,95.696,95.696
	C343.953,98.676,344.033,101.316,344.033,104.036z"/>
<g>
	<path style="fill:#2121F9;" d="M232.033,176.036h16v32h-16V176.036z"/>
	<path style="fill:#2121F9;" d="M344.033,104.036c0,2.72-0.08,5.36-0.32,8h-31.68v-16h31.68
		C343.953,98.676,344.033,101.316,344.033,104.036z"/>
</g>
<path style="fill:#4A4AFF;" d="M248.033,176.036v31.68c-2.64,0.24-5.28,0.32-8,0.32s-5.36-0.08-8-0.32v-31.68H248.033z"/>
<path style="fill:#2121F9;" d="M280.033,112.036h-40c-4.416,0.003-7.997-3.575-8-7.991c0-0.003,0-0.006,0-0.009v-56h16v48h32
	V112.036z"/>
<g>
	<circle style="fill:#FCCC38;" cx="240.033" cy="320.036" r="40"/>
	<circle style="fill:#FCCC38;" cx="360.033" cy="240.036" r="40"/>
	<circle style="fill:#FCCC38;" cx="128.033" cy="240.036" r="40"/>
</g>
<g>
	<path style="fill:#24DB6A;" d="M479.899,238.68c-0.016-16.93-9.849-30.644-23.865-30.644h-1.534
		c-13.747,1.165-24.496,12.346-25.118,26.128l-21.348,109.872l0.002,0.557c-6.32-4.121-14.512-3.978-20.684,0.363l-60.362,42.46
		c-4.361,3.068-6.957,8.067-6.957,13.399v79.221h80v-14.514l56.208-35.784c15.563-11.702,24.442-30.256,23.792-49.716
		L479.899,238.68z"/>
	<path style="fill:#24DB6A;" d="M0.168,238.68c0.016-16.93,9.849-30.644,23.865-30.644h1.534
		c13.747,1.165,24.496,12.346,25.118,26.128l21.348,109.872l-0.002,0.557c6.32-4.121,14.512-3.978,20.684,0.363l60.362,42.46
		c4.361,3.068,6.957,8.067,6.957,13.399v79.221h-80v-14.514l-56.208-35.784C8.263,418.037-0.616,399.482,0.033,380.022L0.168,238.68
		z"/>
</g>
<g>
	<path style="fill:#1D723B;" d="M124.409,410.98l-51.802-36.283c-7.149-8.858-7.521-21.394-0.911-30.661
		c-0.957,0.793-1.832,1.679-2.612,2.646c-6.951,9.296-6.707,22.124,0.594,31.147l51.802,36.283"/>
	<path style="fill:#1D723B;" d="M355.657,412.903l51.802-36.283c7.149-8.858,7.521-21.394,0.911-30.661
		c0.957,0.793,1.832,1.679,2.612,2.646c6.951,9.296,6.707,22.124-0.594,31.147l-51.802,36.283"/>
</g>
<g>
	<path style="fill:#4A4AFF;" d="M168.033,96.036v16h-31.68c-0.24-2.64-0.32-5.28-0.32-8c-0.028-2.672,0.105-5.344,0.4-8H168.033z"/>
	<path style="fill:#4A4AFF;" d="M240.033,0.036l-8,0.4v31.6h16v-31.6L240.033,0.036z"/>
</g>
<g>
</g>
<g>
</g>
<g>
</g>
<g>
</g>
<g>
</g>
<g>
</g>
<g>
</g>
<g>
</g>
<g>
</g>
<g>
</g>
<g>
</g>
<g>
</g>
<g>
</g>
<g>
</g>
<g>
</g>
</svg>
