<?xml version="1.0" encoding="iso-8859-1"?>
<!-- Generator: Adobe Illustrator 19.0.0, SVG Export Plug-In . SVG Version: 6.00 Build 0)  -->
<svg version="1.1" id="Capa_1" xmlns="http://www.w3.org/2000/svg" xmlns:xlink="http://www.w3.org/1999/xlink" x="0px" y="0px"
	 viewBox="0 0 480.001 480.001" style="enable-background:new 0 0 480.001 480.001;" xml:space="preserve">
<path style="fill:#C2DBFF;" d="M100.001,160.001c55.228,0,100,44.772,100,100v44l32,48h-32v64h-112v64h-88v-220
	C0.001,204.772,44.773,160.001,100.001,160.001z"/>
<path style="fill:#F4393D;" d="M175.36,256.579v-17.156l-13.776-7.101c-0.908-2.843-2.06-5.602-3.444-8.246l4.729-14.802
	c-3.486-4.572-7.569-8.656-12.141-12.142l-14.803,4.729c-2.644-1.384-5.402-2.536-8.245-3.444l-7.101-13.775h-17.156l-7.101,13.775
	c-2.843,0.908-5.601,2.06-8.245,3.444l-14.803-4.729c-4.572,3.486-8.656,7.569-12.142,12.141l4.73,14.803
	c-1.385,2.644-2.537,5.403-3.445,8.246l-13.776,7.101v17.156l13.775,7.101c0.908,2.843,2.06,5.602,3.444,8.245l-4.729,14.804
	c3.486,4.572,7.569,8.655,12.141,12.141l14.803-4.73c2.644,1.384,5.403,2.537,8.246,3.445l7.101,13.776h17.156l7.101-13.776
	c2.843-0.908,5.602-2.06,8.246-3.444l14.803,4.73c4.572-3.485,8.656-7.569,12.141-12.141l-4.729-14.804
	c1.384-2.644,2.536-5.402,3.444-8.245L175.36,256.579z M112.001,266.286c-10.099,0-18.286-8.187-18.286-18.286
	c0-10.099,8.187-18.286,18.286-18.286s18.286,8.187,18.286,18.286l0,0C130.287,258.099,122.1,266.286,112.001,266.286z"/>
<path style="fill:#94BBFF;" d="M112.001,160.788C57.484,153.884,7.692,192.482,0.788,246.999c-0.546,4.312-0.809,8.655-0.787,13.001
	v220h24v-220C24.018,209.432,61.796,166.841,112.001,160.788L112.001,160.788z"/>
<path style="fill:#FFD700;" d="M360.001,44.001c-45.134,0.98-80.94,38.343-80,83.478c-0.065,18.428,5.832,36.383,16.811,51.184
	c11.735,14.94,18.311,33.281,18.745,52.273v17.065h88.889v-17.065c0.434-18.993,7.011-37.333,18.745-52.273
	c10.979-14.801,16.876-32.756,16.811-51.184C440.941,82.343,405.136,44.981,360.001,44.001L360.001,44.001z"/>
<path style="fill:#979EDB;" d="M328.001,232.001h64c8.837,0,16,7.163,16,16l0,0c0,8.837-7.163,16-16,16h-64c-8.837,0-16-7.163-16-16
	l0,0C312.001,239.164,319.165,232.001,328.001,232.001z"/>
<path style="fill:#5358A1;" d="M328.001,264.001h64c8.837,0,16,7.163,16,16l0,0c0,8.837-7.163,16-16,16h-64c-8.837,0-16-7.163-16-16
	l0,0C312.001,271.164,319.165,264.001,328.001,264.001z"/>
<path style="fill:#FFEFAE;" d="M320.001,112.001h-16c0.029-26.498,21.502-47.971,48-48v16
	C334.336,80.019,320.02,94.335,320.001,112.001z"/>
<g>
	<path style="fill:#FFD700;" d="M352.001,0.001h16v24h-16V0.001z"/>
	<path style="fill:#FFD700;" d="M456.001,96.001h24v16h-24V96.001z"/>
	<path style="fill:#FFD700;" d="M240.001,96.001h24v16h-24V96.001z"/>
	<path style="fill:#FFD700;" d="M269.493,40.802l11.313-11.313l16.969,16.969l-11.313,11.313L269.493,40.802z"/>
	<path style="fill:#FFD700;" d="M422.229,46.482l16.969-16.969l11.313,11.313l-16.969,16.969L422.229,46.482z"/>
</g>
<g>
	<path style="fill:#F4393D;" d="M232.001,232.001h16v16h-16V232.001z"/>
	<path style="fill:#F4393D;" d="M264.001,232.001h16v16h-16V232.001z"/>
	<path style="fill:#F4393D;" d="M264.001,264.001h16v16h-16V264.001z"/>
	<path style="fill:#F4393D;" d="M264.001,296.001h16v16h-16V296.001z"/>
	<path style="fill:#F4393D;" d="M264.001,328.001h16v16h-16V328.001z"/>
	<path style="fill:#F4393D;" d="M264.001,360.001h16v16h-16V360.001z"/>
	<path style="fill:#F4393D;" d="M264.001,392.001h16v16h-16V392.001z"/>
	<path style="fill:#F4393D;" d="M360.001,328.001h16v16h-16V328.001z"/>
	<path style="fill:#F4393D;" d="M360.001,360.001h16v16h-16V360.001z"/>
	<path style="fill:#F4393D;" d="M360.001,392.001h16v16h-16V392.001z"/>
	<path style="fill:#F4393D;" d="M296.001,392.001h16v16h-16V392.001z"/>
	<path style="fill:#F4393D;" d="M328.001,392.001h16v16h-16V392.001z"/>
</g>
<path style="fill:#F76F76;" d="M112.001,216.001c-17.673,0-32,14.327-32,32c0,17.673,14.327,32,32,32s32-14.327,32-32
	C144.001,230.328,129.674,216.001,112.001,216.001z M112.001,266.286c-10.099,0-18.286-8.187-18.286-18.286
	c0-10.099,8.187-18.286,18.286-18.286s18.286,8.187,18.286,18.286l0,0C130.287,258.099,122.1,266.286,112.001,266.286z"/>
<g>
</g>
<g>
</g>
<g>
</g>
<g>
</g>
<g>
</g>
<g>
</g>
<g>
</g>
<g>
</g>
<g>
</g>
<g>
</g>
<g>
</g>
<g>
</g>
<g>
</g>
<g>
</g>
<g>
</g>
</svg>
