<?xml version="1.0" encoding="iso-8859-1"?>
<!-- Generator: Adobe Illustrator 19.0.0, SVG Export Plug-In . SVG Version: 6.00 Build 0)  -->
<svg version="1.1" id="Capa_1" xmlns="http://www.w3.org/2000/svg" xmlns:xlink="http://www.w3.org/1999/xlink" x="0px" y="0px"
	 viewBox="0 0 480 480" style="enable-background:new 0 0 480 480;" xml:space="preserve">
<path style="fill:#17AFDC;" d="M146.667,211.552L168,112l-32,8l-13.192,65.962c-1.771,8.857-7.533,16.401-15.612,20.44
	c2.211-8.548-0.294-17.626-6.574-23.831c-5.47-6.879-13.867-10.77-22.652-10.498c-15.414,1.111-27.008,14.508-25.897,29.921
	c0.747,10.362,7.174,19.458,16.692,23.623c-18.611,9.306-33.463,24.718-42.073,43.661L0,328l24,16l40-80v216h32l8-120l32,120l32-8
	l-38.318-222.247c-1.054-6.116,0.928-12.363,5.317-16.751C140.874,227.126,144.926,219.677,146.667,211.552z"/>
<circle style="fill:#24DB6A;" cx="400" cy="80" r="80"/>
<circle style="fill:#FFD700;" cx="400" cy="80" r="56"/>
<circle style="fill:#F4393D;" cx="400" cy="80" r="24"/>
<g>
	<path style="fill:#138DAA;" d="M136,120l-13.192,65.962c-1.054,5.027-3.42,9.685-6.856,13.501
		c9.65-8.769,16.236-20.4,18.793-33.186L144,120H136z"/>
	<path style="fill:#138DAA;" d="M60,200c0.026-13.821,10.16-25.543,23.832-27.566c-1.931-0.369-3.901-0.49-5.862-0.361
		c-15.414,1.111-27.009,14.507-25.897,29.921c0.747,10.363,7.174,19.459,16.693,23.623c-18.611,9.306-33.463,24.718-42.073,43.661
		L0,328l34.692-58.722c8.61-18.943,23.462-34.355,42.073-43.661C66.586,221.164,60.007,211.11,60,200L60,200z"/>
	<path style="fill:#138DAA;" d="M64,264v216h8V312.59c0-11.019-1.352-21.996-4.024-32.685L64,264z"/>
	<path style="fill:#138DAA;" d="M117.273,393.094C113.763,381.717,109.324,370.649,104,360l32,120l7.5-1.875L117.273,393.094z"/>
</g>
<path style="fill:#F4393D;" d="M218.664,136L272,93.336L208,72l4.096,24.568l-130.88,23.096l-29.64-14.824l-7.152,14.32
	l20.416,10.208L43.2,145.6l9.6,12.8l30.464-22.848l131.464-23.2L218.664,136z"/>
<g>
	<path style="fill:#FFD700;" d="M448,432h16v16h-16V432z"/>
	<path style="fill:#FFD700;" d="M448,464h16v16h-16V464z"/>
	<path style="fill:#FFD700;" d="M464,448h16v16h-16V448z"/>
	<path style="fill:#FFD700;" d="M432,448h16v16h-16V448z"/>
	<path style="fill:#FFD700;" d="M16,0h16v16H16V0z"/>
	<path style="fill:#FFD700;" d="M16,32h16v16H16V32z"/>
	<path style="fill:#FFD700;" d="M32,16h16v16H32V16z"/>
	<path style="fill:#FFD700;" d="M0,16h16v16H0V16z"/>
	<path style="fill:#FFD700;" d="M280,256h16v16h-16V256z"/>
	<path style="fill:#FFD700;" d="M280,288h16v16h-16V288z"/>
	<path style="fill:#FFD700;" d="M296,272h16v16h-16V272z"/>
	<path style="fill:#FFD700;" d="M264,272h16v16h-16V272z"/>
</g>
<g>
</g>
<g>
</g>
<g>
</g>
<g>
</g>
<g>
</g>
<g>
</g>
<g>
</g>
<g>
</g>
<g>
</g>
<g>
</g>
<g>
</g>
<g>
</g>
<g>
</g>
<g>
</g>
<g>
</g>
</svg>
