<?xml version="1.0" encoding="iso-8859-1"?>
<!-- Generator: Adobe Illustrator 19.0.0, SVG Export Plug-In . SVG Version: 6.00 Build 0)  -->
<svg version="1.1" id="Capa_1" xmlns="http://www.w3.org/2000/svg" xmlns:xlink="http://www.w3.org/1999/xlink" x="0px" y="0px"
	 viewBox="0 0 481.854 481.854" style="enable-background:new 0 0 481.854 481.854;" xml:space="preserve">
<path style="fill:#17AFDC;" d="M24.927,249.854c-5.392,0-10.716,0.275-16,0.694v223.306h214.516c0.972-7.963,1.468-15.978,1.484-24
	C224.918,339.4,135.38,249.862,24.927,249.854z"/>
<path style="fill:#9CB8E2;" d="M12.583,255.734v30.784c3.295,0.102,6.476,0.296,9.887,0.296
	c20.533,0.061,40.791-4.711,59.139-13.928c3.837-1.971,7.507-4.251,10.974-6.818c-22.706-7.03-46.343-10.597-70.113-10.58
	C19.337,255.487,16.059,255.569,12.583,255.734L12.583,255.734z"/>
<g>
	<path style="fill:#91B7F9;" d="M176.927,73.854l15.496,36.4l51.44-19.976L176.927,73.854z"/>
	<path style="fill:#91B7F9;" d="M211.067,161.868c0.039,0.362,0.028,0.735,0.063,1.098l12.057,38.888l35.262-50.77L211.067,161.868z
		"/>
</g>
<path style="fill:#5358A1;" d="M283.159,93.993c-31.137-9.23-64.808-3.125-90.722,16.45c10.201,15.393,16.586,32.995,18.625,51.349
	c33.52,1.232,65.197-15.331,83.314-43.56l10.55-17.844L283.159,93.993z"/>
<path style="fill:#24DB6A;" d="M136.927,449.854c0-73.762-23.297-137.44-56.575-172.076c-17.624,7.243-36.385,11.33-55.425,12.076
	c-5.505,0-10.853-0.181-16-0.507v184.507h127.169C136.624,465.979,136.927,457.982,136.927,449.854L136.927,449.854z"/>
<path style="fill:#F4393D;" d="M424.927,9.854l11.328,36.672h36.672l-29.664,22.656l11.328,36.672L424.927,83.19l-29.664,22.664
	l11.328-36.672l-29.664-22.656h36.672L424.927,9.854z"/>
<g>
	<path style="fill:#FFD700;" d="M425.017,163.707h-0.09c-8.351,0.003-16.667-1.081-24.738-3.223l4.117-15.461
		c6.728,1.786,13.66,2.688,20.621,2.684L425.017,163.707z"/>
	<path style="fill:#FFD700;" d="M449.845,160.438l-4.145-15.453c6.747-1.812,13.227-4.503,19.273-8.004l8.016,13.844
		C465.73,155.031,457.948,158.263,449.845,160.438z"/>
	<path style="fill:#FFD700;" d="M377.024,150.918c-7.263-4.189-13.947-9.309-19.883-15.23l11.297-11.328
		c4.95,4.936,10.523,9.205,16.578,12.699L377.024,150.918z"/>
	<path style="fill:#FFD700;" d="M341.856,115.855c-4.215-7.252-7.455-15.029-9.637-23.129l15.445-4.164
		c1.821,6.744,4.52,13.22,8.027,19.262L341.856,115.855z"/>
	<path style="fill:#FFD700;" d="M330.048,67.875l-1.117-0.004c-0.018-8.372,1.053-16.71,3.188-24.805l15.469,4.102
		c-1.771,6.702-2.666,13.606-2.66,20.539L330.048,67.875z"/>
	<path style="fill:#FFD700;" d="M355.532,27.875l-13.867-7.984c4.184-7.263,9.298-13.95,15.211-19.891l11.344,11.281
		C363.288,16.238,359.023,21.816,355.532,27.875L355.532,27.875z"/>
</g>
<g>
	<path style="fill:#F4393D;" d="M29.701,218.844l-12.774-9.224c3.266-4.608,6.861-8.973,10.757-13.061l11.317,10.997
		C35.632,211.089,32.523,214.862,29.701,218.844z"/>
	<path style="fill:#F4393D;" d="M49.823,197.706l-9.668-12.5c4.407-3.47,9.044-6.638,13.878-9.483l7.905,13.708
		C57.717,191.912,53.669,194.676,49.823,197.706z"/>
	<path style="fill:#F4393D;" d="M75.049,182.898l-5.988-14.66c5.158-2.151,10.456-3.954,15.856-5.394l4.01,15.334
		C84.2,179.439,79.564,181.016,75.049,182.898z"/>
</g>
<path style="fill:#91B7F9;" d="M283.159,93.993c-10.134-2.912-20.654-4.255-31.195-3.98c-1.241,3.825-1.88,7.819-1.895,11.84
	c0.483,16.46,10.253,31.225,25.215,38.104c7.596-6.058,14.06-13.414,19.092-21.726l10.551-17.844L283.159,93.993z"/>
<g>
	<path style="fill:#FFD700;" d="M448.927,433.854h16v16h-16V433.854z"/>
	<path style="fill:#FFD700;" d="M448.927,465.854h16v16h-16V465.854z"/>
	<path style="fill:#FFD700;" d="M464.927,449.854h16v16h-16V449.854z"/>
	<path style="fill:#FFD700;" d="M432.927,449.854h16v16h-16V449.854z"/>
	<path style="fill:#FFD700;" d="M304.927,265.854h16v16h-16V265.854z"/>
	<path style="fill:#FFD700;" d="M304.927,297.854h16v16h-16V297.854z"/>
	<path style="fill:#FFD700;" d="M320.927,281.854h16v16h-16V281.854z"/>
	<path style="fill:#FFD700;" d="M288.927,281.854h16v16h-16V281.854z"/>
	<path style="fill:#FFD700;" d="M16.927,1.854h16v16h-16V1.854z"/>
	<path style="fill:#FFD700;" d="M16.927,33.854h16v16h-16V33.854z"/>
	<path style="fill:#FFD700;" d="M32.927,17.854h16v16h-16V17.854z"/>
	<path style="fill:#FFD700;" d="M0.927,17.854h16v16h-16V17.854z"/>
</g>
<path style="fill:#D6D0D0;" d="M24.927,241.854c-5.062,0-10.504,0.234-16.629,0.719c-4.161,0.33-7.37,3.802-7.371,7.977v223.305
	c0,4.418,3.582,8,8,8h214.516c4.051-0.001,7.463-3.029,7.945-7.051c1.004-8.279,1.518-16.61,1.539-24.949
	C232.797,335.032,139.748,241.983,24.927,241.854z M198.424,367.703c-18.797,10.481-38.743,18.754-59.441,24.652
	c-3.976-19.409-9.881-38.372-17.627-56.607c14.303-4.884,27.775-11.928,39.947-20.886
	C176.559,330.263,189.108,348.128,198.424,367.703z M114.645,321.378c-7.043-14.421-15.565-28.072-25.429-40.732
	c3.469-2.301,6.664-4.99,9.523-8.016c18.389,7.706,35.467,18.226,50.622,31.181C138.691,311.301,126.999,317.217,114.645,321.378
	L114.645,321.378z M75.035,288.569c9.376,11.659,17.475,24.29,24.158,37.675c-26.846,7.196-54.477,11.053-82.267,11.484V298.96
	c2.673,0.078,5.241,0.241,8,0.241C42.191,299.215,59.264,295.592,75.035,288.569z M16.927,353.722
	c30.15-0.475,60.113-4.846,89.143-13.003c7.753,17.946,13.606,36.654,17.465,55.819c-34.922,8.421-70.686,12.852-106.607,13.208
	L16.927,353.722z M24.927,257.854c19.233-0.014,38.358,2.872,56.731,8.561c-2.805,2.077-5.775,3.922-8.879,5.517
	c-14.846,7.458-31.238,11.319-47.852,11.27c-2.76,0-5.334-0.157-8-0.24v-24.908C19.739,257.92,22.392,257.854,24.927,257.854
	L24.927,257.854z M16.927,425.744c36.819-0.368,73.48-4.868,109.295-13.418c1.782,12.43,2.686,24.97,2.705,37.527
	c0,4.995-0.172,10.376-0.424,16H16.927L16.927,425.744z M216.228,465.854h-71.709c0.243-5.596,0.408-10.975,0.408-16
	c-0.031-13.955-1.095-27.888-3.183-41.685c21.895-6.125,43.024-14.721,62.977-25.62c8.085,21.518,12.22,44.318,12.206,67.305
	C216.927,455.107,216.696,460.389,216.228,465.854z"/>
<path style="fill:#FCCC38;" d="M113.689,160.795l25.868-26.83c6.204-6.528,15.996-8.126,23.953-3.909
	c12.37,6.782,16.899,22.307,10.118,34.677c-0.534,0.974-1.131,1.912-1.787,2.809c-5.423,7.19-14.97,9.889-23.355,6.603
	L113.689,160.795z"/>
<g>
</g>
<g>
</g>
<g>
</g>
<g>
</g>
<g>
</g>
<g>
</g>
<g>
</g>
<g>
</g>
<g>
</g>
<g>
</g>
<g>
</g>
<g>
</g>
<g>
</g>
<g>
</g>
<g>
</g>
</svg>
