<?xml version="1.0" encoding="iso-8859-1"?>
<!-- Generator: Adobe Illustrator 19.0.0, SVG Export Plug-In . SVG Version: 6.00 Build 0)  -->
<svg version="1.1" id="Capa_1" xmlns="http://www.w3.org/2000/svg" xmlns:xlink="http://www.w3.org/1999/xlink" x="0px" y="0px"
	 viewBox="0 0 480 480" style="enable-background:new 0 0 480 480;" xml:space="preserve">
<circle style="fill:#FFD700;" cx="424" cy="424" r="56"/>
<path style="fill:#FCCC38;" d="M295.439,199.506v-15.012l-12.054-6.213c-0.794-2.488-1.803-4.901-3.014-7.215l4.139-12.952
	c-3.05-4-6.623-7.573-10.624-10.624l-12.953,4.138c-2.313-1.211-4.727-2.22-7.214-3.014l-6.213-12.054h-15.011l-6.213,12.053
	c-2.487,0.794-4.901,1.802-7.214,3.014l-12.953-4.138c-4.001,3.05-7.574,6.623-10.624,10.624l4.139,12.953
	c-1.211,2.313-2.22,4.727-3.014,7.215l-12.054,6.213v15.011l12.053,6.213c0.794,2.487,1.803,4.901,3.014,7.214l-4.139,12.953
	c3.05,4,6.623,7.573,10.623,10.623l12.953-4.138c2.313,1.211,4.727,2.22,7.215,3.014l6.213,12.054h15.011l6.213-12.054
	c2.488-0.794,4.901-1.803,7.215-3.014l12.953,4.138c4.001-3.05,7.574-6.623,10.624-10.623l-4.138-12.953
	c1.211-2.313,2.219-4.727,3.014-7.214L295.439,199.506z M239.046,207.971c-8.821-0.527-15.545-8.104-15.018-16.925
	s8.104-15.545,16.925-15.018c8.821,0.527,15.545,8.104,15.018,16.925c0,0,0,0,0,0C255.445,201.774,247.867,208.498,239.046,207.971z
	"/>
<path style="fill:#DDB300;" d="M479.798,420c-2.174,30.816-28.919,54.035-59.735,51.861c-27.789-1.961-49.9-24.072-51.861-51.861
	c-0.094,1.327-0.202,2.649-0.202,4c0,30.928,25.072,56,56,56s56-25.072,56-56C480,422.649,479.892,421.327,479.798,420L479.798,420z
	"/>
<path style="fill:#17AFDC;" d="M262.222,350.184h-9.01c7.435-5.078,10.724-14.388,8.128-23.01
	c-2.247-7.163-8.07-12.634-15.359-14.429c-11.706-3.394-23.948,3.344-27.342,15.051c-0.511,1.763-0.8,3.583-0.861,5.418
	c0.059,6.787,3.421,13.12,9.01,16.971h-9.01c-9.593-0.218-17.549,7.377-17.778,16.97v50.912h17.778V480h44.444v-61.934H280v-50.912
	C279.772,357.561,271.815,349.966,262.222,350.184L262.222,350.184z"/>
<path style="fill:#00AF3E;" d="M127.992,352.037c-45.87-0.966-62.388,16.679-63.873,59.696h-0.24
	c-1.485-43.017-18.003-60.661-63.873-59.696c-0.37,46.401,13.504,66.82,55.982,68.141L56,480h16l-0.01-59.821
	C114.483,418.865,128.363,398.445,127.992,352.037L127.992,352.037z"/>
<g>
	<path style="fill:#595959;" d="M424,272H248v-8h-16v8H64c-4.417-0.001-7.999,3.579-8,7.996c0,0.001,0,0.003,0,0.004v32h16v-24h160
		v8h16v-8h168v24h16v-32c0.001-4.417-3.579-7.999-7.996-8C424.003,272,424.001,272,424,272z"/>
	<path style="fill:#595959;" d="M232,0h16v120h-16V0z"/>
</g>
<path style="fill:#F4393D;" d="M232,0h56v48h-56V0z"/>
<path style="fill:#FF454E;" d="M280,8h32v48h-32V8z"/>
<g>
	<path style="fill:#595959;" d="M56,336h16v16H56V336z"/>
	<path style="fill:#595959;" d="M416,336h16v16h-16V336z"/>
</g>
<path style="fill:#FFDA73;" d="M240,160c-17.673,0-32,14.327-32,32s14.327,32,32,32s32-14.327,32-32S257.673,160,240,160z
	 M239.046,207.971c-8.821-0.527-15.545-8.104-15.018-16.925s8.104-15.545,16.925-15.018c8.821,0.527,15.545,8.104,15.018,16.925
	c0,0,0,0,0,0C255.445,201.774,247.867,208.498,239.046,207.971z"/>
<path style="fill:#494949;" d="M426.369,413.037c-7.609-1.773-9.812-2.719-9.812-4.195c0-1.414,3.039-4,8-4s8,2.586,8,4h16
	c-0.497-9.304-7.237-17.088-16.375-18.91v-8.082h-16v8.272c-8.804,2.05-15.182,9.691-15.625,18.72
	c0,14.594,13.875,17.844,22.172,19.781c7.625,1.781,9.828,2.727,9.828,4.219c0,1.414-3.039,4-8,4s-8-2.586-8-4h-16
	c0.47,9.166,7.029,16.878,16,18.814v9.186h16v-9.186c8.971-1.937,15.53-9.648,16-18.814
	C448.557,418.225,434.666,414.983,426.369,413.037L426.369,413.037z"/>
<g>
</g>
<g>
</g>
<g>
</g>
<g>
</g>
<g>
</g>
<g>
</g>
<g>
</g>
<g>
</g>
<g>
</g>
<g>
</g>
<g>
</g>
<g>
</g>
<g>
</g>
<g>
</g>
<g>
</g>
</svg>
