<?xml version="1.0" encoding="iso-8859-1"?>
<!-- Generator: Adobe Illustrator 19.0.0, SVG Export Plug-In . SVG Version: 6.00 Build 0)  -->
<svg version="1.1" id="Capa_1" xmlns="http://www.w3.org/2000/svg" xmlns:xlink="http://www.w3.org/1999/xlink" x="0px" y="0px"
	 viewBox="0 0 480 480" style="enable-background:new 0 0 480 480;" xml:space="preserve">
<path style="fill:#2FCAED;" d="M240,320c-114.875,0-208,71.635-208,160h416C448,391.635,354.875,320,240,320z"/>
<path style="fill:#6BD8F2;" d="M240,344c104.27,0,190.609,59.021,205.664,136H448c0-88.366-93.125-160-208-160S32,391.634,32,480
	h2.336C49.391,403.021,135.73,344,240,344z"/>
<g>
	<path style="fill:#7A7A7A;" d="M160,440c-26.469,0-48-17.945-48-40h16c0,13.234,14.355,24,32,24s32-10.766,32-24h16
		C208,422.055,186.469,440,160,440z"/>
	<path style="fill:#7A7A7A;" d="M320,440c-26.469,0-48-17.945-48-40h16c0,13.234,14.355,24,32,24s32-10.766,32-24h16
		C368,422.055,346.469,440,320,440z"/>
</g>
<path style="fill:#B4D0F9;" d="M392,110.5c0.051-25.049-18.143-46.405-42.881-50.336c-3.965-27.52-29.489-46.615-57.009-42.65
	c-1.578,0.227-3.144,0.53-4.693,0.906C277.837,6.757,263.537-0.002,248.444,0H240c-16.029,0.016-31.096,7.65-40.588,20.566
	c-5.893-2.349-12.179-3.559-18.523-3.566c-25.035,0.08-46.27,18.409-50.007,43.164c-27.828,4.508-46.733,30.722-42.224,58.551
	c1.463,9.032,5.328,17.505,11.188,24.532c-10.111,26.275,2.992,55.771,29.267,65.882c0.477,0.184,0.957,0.36,1.439,0.529
	c2.796,27.698,27.516,47.885,55.214,45.089c2.297-0.232,4.575-0.621,6.818-1.165c9.579,11.663,23.879,18.421,38.972,18.42H240
	c16.029-0.016,31.096-7.65,40.588-20.566c5.893,2.349,12.179,3.56,18.523,3.566c25.035-0.08,46.27-18.409,50.007-43.164
	c27.801-4.476,46.709-30.642,42.233-58.443c-0.986-6.126-3.083-12.021-6.186-17.394C389.645,128.248,392.002,119.453,392,110.5
	L392,110.5z"/>
<g>
	<path style="fill:#88B3FF;" d="M376,113.5c-0.078-22.244-16.372-41.105-38.368-44.415c-3.93-24.653-27.101-41.452-51.754-37.522
		c-1.159,0.185-2.311,0.415-3.453,0.689C273.788,21.931,261.014,15.977,247.556,16H240c-14.289-0.013-27.747,6.712-36.315,18.146
		c-23.284-9.162-49.587,2.287-58.749,25.571c-1.189,3.022-2.05,6.162-2.567,9.368c-21.996,3.31-38.29,22.171-38.368,44.415
		c-0.007,10.583,3.75,20.825,10.598,28.894c-2.002,5.134-3.034,10.596-3.042,16.106c0.051,19.228,12.312,36.3,30.516,42.491
		c2.885,24.814,25.34,42.591,50.154,39.706c1.8-0.209,3.587-0.527,5.349-0.95c8.637,10.322,21.41,16.276,34.869,16.253H240
		c14.289,0.013,27.747-6.712,36.315-18.147c23.284,9.163,49.586-2.285,58.749-25.568c1.189-3.022,2.05-6.164,2.568-9.37
		c21.996-3.31,38.29-22.171,38.368-44.415c-0.001-7.91-2.112-15.677-6.114-22.5C373.888,129.177,375.999,121.41,376,113.5z"/>
	<circle style="fill:#88B3FF;" cx="400" cy="252" r="32"/>
	<circle style="fill:#88B3FF;" cx="424" cy="328" r="16"/>
</g>
<g>
	<path style="fill:#F4393D;" d="M232,224h16v16h-16V224z"/>
	<path style="fill:#F4393D;" d="M248,208h-16v-56c0-4.418,3.582-8,8-8c22.091,0,40-17.909,40-40s-17.909-40-40-40s-40,17.909-40,40
		h-16c0.002-30.928,25.076-55.998,56.004-55.996S296.002,73.08,296,104.008c-0.002,27.836-20.449,51.445-48,55.422V208z"/>
</g>
<g>
</g>
<g>
</g>
<g>
</g>
<g>
</g>
<g>
</g>
<g>
</g>
<g>
</g>
<g>
</g>
<g>
</g>
<g>
</g>
<g>
</g>
<g>
</g>
<g>
</g>
<g>
</g>
<g>
</g>
</svg>
