<?xml version="1.0" encoding="iso-8859-1"?>
<!-- Generator: Adobe Illustrator 19.0.0, SVG Export Plug-In . SVG Version: 6.00 Build 0)  -->
<svg version="1.1" id="Capa_1" xmlns="http://www.w3.org/2000/svg" xmlns:xlink="http://www.w3.org/1999/xlink" x="0px" y="0px"
	 viewBox="0 0 480 480" style="enable-background:new 0 0 480 480;" xml:space="preserve">
<path style="fill:#FF1F2A;" d="M422,8v64l40-32L422,8z"/>
<circle style="fill:#6BDFF2;" cx="222" cy="272" r="200"/>
<circle style="fill:#F4393D;" cx="222" cy="264" r="48"/>
<g>
	<path style="fill:#17AFDC;" d="M226,480c-114.887-0.012-208.012-93.155-208-208.042c0.007-74.305,39.649-142.964,103.996-180.122
		l8.008,13.844c-91.85,53.008-123.338,170.438-70.33,262.288s170.438,123.338,262.288,70.331S445.3,267.86,392.292,176.01
		c-13.766-23.853-32.502-44.466-54.936-60.44l9.289-13.031c93.582,66.639,115.423,196.524,48.784,290.106
		C356.403,447.45,293.28,479.995,226,480z"/>
	<path style="fill:#17AFDC;" d="M94,272c-0.003-21.386,5.06-42.469,14.774-61.522l9.796,24.491l14.859-5.937l-16-40
		c-1.425-3.589-5.216-5.642-9-4.875l-40,8l3.141,15.688l22.935-4.587c-38.029,74.767-8.247,166.206,66.52,204.235
		c3.231,1.644,6.521,3.171,9.861,4.579l6.227-14.734C126.693,376.112,93.93,326.706,94,272z"/>
	<path style="fill:#17AFDC;" d="M374,272c0.154-41.482-16.8-81.194-46.867-109.773l-11.07,11.547
		c54.24,51.929,56.113,137.997,4.184,192.236c-3.247,3.391-6.667,6.612-10.246,9.649V352h-16v40c0.001,3.812,2.691,7.095,6.43,7.844
		l40,8l3.141-15.688l-22.884-4.575C354.535,358.727,374.023,316.478,374,272L374,272z"/>
</g>
<path style="fill:#FCCC38;" d="M206,0l-32,144h72l-24,120l88-160h-56L286,0H206z"/>
<path style="fill:#E01924;" d="M390,8v64l40-32L390,8z"/>
<g>
</g>
<g>
</g>
<g>
</g>
<g>
</g>
<g>
</g>
<g>
</g>
<g>
</g>
<g>
</g>
<g>
</g>
<g>
</g>
<g>
</g>
<g>
</g>
<g>
</g>
<g>
</g>
<g>
</g>
</svg>
