<?xml version="1.0" encoding="iso-8859-1"?>
<!-- Generator: Adobe Illustrator 19.0.0, SVG Export Plug-In . SVG Version: 6.00 Build 0)  -->
<svg version="1.1" id="Capa_1" xmlns="http://www.w3.org/2000/svg" xmlns:xlink="http://www.w3.org/1999/xlink" x="0px" y="0px"
	 viewBox="0 0 480 480" style="enable-background:new 0 0 480 480;" xml:space="preserve">
<path style="fill:#17AFDC;" d="M127.359,72.258V55.101L113.583,48c-0.908-2.843-2.06-5.602-3.444-8.246l4.729-14.802
	c-3.486-4.572-7.569-8.656-12.141-12.142L87.924,17.54c-2.644-1.384-5.402-2.536-8.245-3.444L72.578,0.321H55.422l-7.101,13.775
	c-2.843,0.908-5.601,2.06-8.245,3.444L25.273,12.81c-4.572,3.486-8.656,7.569-12.142,12.141l4.73,14.803
	c-1.385,2.644-2.537,5.403-3.445,8.246L0.641,55.101v17.156l13.775,7.101c0.908,2.843,2.06,5.602,3.444,8.245l-4.729,14.804
	c3.486,4.572,7.569,8.655,12.141,12.141l14.803-4.73c2.644,1.384,5.403,2.537,8.246,3.445l7.101,13.776h17.156l7.101-13.776
	c2.843-0.908,5.602-2.06,8.246-3.444l14.803,4.73c4.572-3.485,8.656-7.569,12.141-12.141l-4.729-14.804
	c1.384-2.644,2.536-5.402,3.444-8.245L127.359,72.258z M64,81.965c-10.099,0-18.286-8.187-18.286-18.286S53.901,45.394,64,45.394
	s18.286,8.187,18.286,18.286C82.286,73.778,74.099,81.965,64,81.965z"/>
<path style="fill:#F4393D;" d="M415.416,247.679h-91.464L256,377.775l42.808-32.36l-2.44,70.16L368,264.487l68.176,151.088
	l0.384-69.72L480,380.143L415.416,247.679z"/>
<path style="fill:#FFD700;" d="M452.086,206.688l-17.069,10.065c-3.515,2.159-4.89,6.586-3.216,10.357l8.153,18.639
	c1.87,3.991,0.15,8.743-3.842,10.613c-1.259,0.59-2.651,0.841-4.037,0.727l-19.462-2.365c-4.058-0.419-7.745,2.384-8.425,6.407
	l-3.854,20.08c-0.637,4.143-4.512,6.986-8.656,6.349c-1.538-0.236-2.966-0.94-4.091-2.015l-14.408-13.882
	c-2.893-2.836-7.523-2.836-10.417,0l-14.408,13.882c-3.031,2.896-7.836,2.787-10.732-0.243c-1.075-1.125-1.778-2.553-2.015-4.091
	l-3.854-20.081c-0.68-4.023-4.367-6.827-8.425-6.407l-19.462,2.364c-4.393,0.36-8.246-2.91-8.605-7.303
	c-0.113-1.386,0.137-2.778,0.727-4.037l8.153-18.637c1.674-3.771,0.299-8.198-3.216-10.357l-17.069-10.065
	c-3.871-2.385-5.075-7.456-2.69-11.327c0.674-1.095,1.596-2.016,2.69-2.69l17.069-10.065c3.515-2.159,4.89-6.586,3.216-10.357
	l-8.153-18.639c-1.87-3.991-0.15-8.743,3.842-10.613c1.259-0.59,2.651-0.841,4.037-0.727l19.462,2.365
	c4.058,0.419,7.745-2.384,8.425-6.407l4.216-20.08c0.486-4.009,4.131-6.864,8.14-6.378c1.602,0.194,3.094,0.913,4.244,2.044
	l14.408,13.882c2.893,2.836,7.523,2.836,10.417,0l14.408-13.882c3.031-2.896,7.836-2.787,10.732,0.243
	c1.075,1.125,1.778,2.553,2.015,4.091l3.854,20.081c0.68,4.023,4.367,6.827,8.425,6.407l19.462-2.365
	c4.393-0.36,8.246,2.91,8.605,7.303c0.113,1.386-0.137,2.778-0.727,4.037l-8.153,18.637c-1.674,3.771-0.299,8.198,3.216,10.357
	l17.069,10.065c3.871,2.384,5.077,7.455,2.693,11.326C454.104,205.092,453.182,206.014,452.086,206.688L452.086,206.688z"/>
<path style="fill:#F4393D;" d="M120.236,200.248c-8.958-10.353-24.612-11.483-34.965-2.525c-0.901,0.78-1.745,1.624-2.525,2.525
	L64,220.934l-18.745-20.686c-8.958-10.353-24.612-11.483-34.965-2.525c-0.901,0.78-1.745,1.624-2.525,2.525
	c-10.353,11.848-10.353,29.524,0,41.372L64,303.679l56.236-62.059C130.588,229.772,130.588,212.096,120.236,200.248L120.236,200.248
	z"/>
<path style="fill:#FC8B91;" d="M22.309,208.876c1.781-1.948,3.907-3.55,6.27-4.725c-5.602-2.517-12.192-1.061-16.211,3.583
	c-5.824,6.664-5.824,16.607,0,23.272l7.86,8.674C13.943,230.105,14.793,217.518,22.309,208.876z"/>
<path style="fill:#5358A1;" d="M55.992,479.679c-1.577,0-3.118-0.468-4.43-1.344l-48-32l8.875-13.312l41.609,27.742l59.484-81.789
	l12.937,9.406l-64,88C60.963,478.456,58.555,479.682,55.992,479.679z"/>
<circle style="fill:#88ACED;" cx="368" cy="199.679" r="32"/>
<path style="fill:#606060;" d="M261.656,234.023l-32-32l-11.312,11.312l18.344,18.344H200v-176h-56v16h40v160h-40v16h40v160h-40v16
	h56v-176h36.688l-18.344,18.344l11.312,11.312l32-32c3.124-3.122,3.125-8.186,0.003-11.309
	C261.658,234.025,261.657,234.024,261.656,234.023L261.656,234.023z"/>
<path style="fill:#38D5F9;" d="M64,31.679c-17.673,0-32,14.327-32,32s14.327,32,32,32s32-14.327,32-32S81.673,31.679,64,31.679z
	 M64,81.965c-10.099,0-18.286-8.187-18.286-18.286S53.901,45.394,64,45.394s18.286,8.187,18.286,18.286
	C82.286,73.778,74.099,81.965,64,81.965z"/>
<g>
</g>
<g>
</g>
<g>
</g>
<g>
</g>
<g>
</g>
<g>
</g>
<g>
</g>
<g>
</g>
<g>
</g>
<g>
</g>
<g>
</g>
<g>
</g>
<g>
</g>
<g>
</g>
<g>
</g>
</svg>
