<?xml version="1.0" encoding="iso-8859-1"?>
<!-- Generator: Adobe Illustrator 19.0.0, SVG Export Plug-In . SVG Version: 6.00 Build 0)  -->
<svg version="1.1" id="Capa_1" xmlns="http://www.w3.org/2000/svg" xmlns:xlink="http://www.w3.org/1999/xlink" x="0px" y="0px"
	 viewBox="0 0 480 480" style="enable-background:new 0 0 480 480;" xml:space="preserve">
<path style="fill:#DBE6FD;" d="M216,8h256v456H216V8z"/>
<path style="fill:#17AFDC;" d="M391.359,240.578v-17.156l-13.776-7.101c-0.908-2.843-2.06-5.602-3.444-8.246l4.729-14.802
	c-3.486-4.572-7.569-8.656-12.141-12.142l-14.803,4.729c-2.644-1.384-5.402-2.536-8.245-3.444l-7.101-13.775h-17.156l-7.101,13.775
	c-2.843,0.908-5.601,2.06-8.245,3.444l-14.803-4.729c-4.572,3.486-8.656,7.569-12.142,12.141l4.73,14.803
	c-1.385,2.644-2.537,5.403-3.445,8.246l-13.776,7.101v17.156l13.775,7.101c0.908,2.843,2.06,5.602,3.444,8.245l-4.729,14.804
	c3.486,4.572,7.569,8.655,12.141,12.141l14.803-4.73c2.644,1.384,5.403,2.537,8.246,3.445l7.101,13.776h17.156l7.101-13.776
	c2.843-0.908,5.602-2.06,8.246-3.444l14.803,4.73c4.572-3.485,8.656-7.569,12.141-12.141l-4.729-14.804
	c1.384-2.644,2.536-5.402,3.444-8.245L391.359,240.578z M328,250.286c-10.099,0-18.286-8.187-18.286-18.286
	s8.187-18.286,18.286-18.286c10.099,0,18.286,8.187,18.286,18.286c0,0,0,0,0,0C346.285,242.099,338.099,250.285,328,250.286z"/>
<path style="fill:#24DB6A;" d="M92.964,169.244c9.173-8.146,13.055-20.717,10.073-32.617c-4.02-17.178-21.204-27.845-38.382-23.825
	c-14.742,3.45-25.037,16.774-24.655,31.909c0.001,9.38,4.019,18.31,11.036,24.533h-6.763C24.019,169.469,7.78,186.069,8,206.324
	v85.587h24V416h80V210.133h88V184L92.964,169.244z"/>
<g>
	<path style="fill:#00964B;" d="M32,201.956h8v89.956h-8V201.956z"/>
	<path style="fill:#00964B;" d="M64,293.333h16V416H64V293.333z"/>
</g>
<path style="fill:#F4393D;" d="M318.07,389.203l-12.141-10.406l48-56c2.737-3.207,7.498-3.731,10.867-1.195l27.047,20.281
	L427,313.75l10,12.5l-40,32c-2.85,2.278-6.88,2.339-9.797,0.148l-26.008-19.5L318.07,389.203z"/>
<g>
	<path style="fill:#FFD700;" d="M352,360h16v88h-16V360z"/>
	<path style="fill:#FFD700;" d="M384,384h16v64h-16V384z"/>
	<path style="fill:#FFD700;" d="M416,376h16v72h-16V376z"/>
</g>
<path style="fill:#F4393D;" d="M384,32v48h48C432,53.49,410.51,32,384,32z"/>
<path style="fill:#FFD700;" d="M368,48c-26.51,0-48,21.49-48,48s21.49,48,48,48s48-21.49,48-48h-48V48z"/>
<g>
	<path style="fill:#17AFDC;" d="M464,40h16v16h-16V40z"/>
	<path style="fill:#17AFDC;" d="M224,152h-16V8c-0.003-4.416,3.575-7.997,7.991-8c0.003,0,0.006,0,0.009,0h256
		c4.416-0.003,7.997,3.575,8,7.991c0,0.003,0,0.006,0,0.009v16h-16v-8H224V152z"/>
	<path style="fill:#17AFDC;" d="M208,232h16v176h-16V232z"/>
	<path style="fill:#17AFDC;" d="M208,424h16v16h-16V424z"/>
	<path style="fill:#17AFDC;" d="M472,480H216c-4.416,0.003-7.997-3.575-8-7.991c0-0.003,0-0.006,0-0.009v-16h16v8h240V72h16v400
		c0.003,4.416-3.575,7.997-7.991,8C472.006,480,472.003,480,472,480z"/>
</g>
<path style="fill:#5358A1;" d="M32,406.4L0,480h144l-32-73.6H32z"/>
<g>
	<path style="fill:#FFD700;" d="M24,12.69L35.313,1.377L46.625,12.69L35.313,24.002L24,12.69z"/>
	<path style="fill:#FFD700;" d="M1.376,35.31l11.313-11.313L24.001,35.31L12.689,46.623L1.376,35.31z"/>
	<path style="fill:#FFD700;" d="M23.999,35.312l11.313-11.313l11.313,11.313L35.311,46.625L23.999,35.312z"/>
	<path style="fill:#FFD700;" d="M1.378,12.688L12.69,1.375l11.313,11.313L12.69,24.001L1.378,12.688z"/>
	<path style="fill:#FFD700;" d="M128.969,59.721l11.313-11.313l11.313,11.313l-11.313,11.313L128.969,59.721z"/>
	<path style="fill:#FFD700;" d="M106.345,82.342l11.313-11.313l11.313,11.313l-11.313,11.313L106.345,82.342z"/>
	<path style="fill:#FFD700;" d="M128.967,82.344l11.313-11.313l11.313,11.313L140.28,93.656L128.967,82.344z"/>
	<path style="fill:#FFD700;" d="M106.347,59.72l11.313-11.313l11.313,11.313l-11.313,11.313L106.347,59.72z"/>
</g>
<path style="fill:#7ADDF4;" d="M328,200c-17.673,0-32,14.327-32,32s14.327,32,32,32s32-14.327,32-32S345.673,200,328,200z
	 M328,250.286c-10.099,0-18.286-8.187-18.286-18.286s8.187-18.286,18.286-18.286c10.099,0,18.286,8.187,18.286,18.286c0,0,0,0,0,0
	C346.285,242.099,338.099,250.285,328,250.286z"/>
<path style="fill:#FFD700;" d="M320,400h16v48h-16V400z"/>
<g>
</g>
<g>
</g>
<g>
</g>
<g>
</g>
<g>
</g>
<g>
</g>
<g>
</g>
<g>
</g>
<g>
</g>
<g>
</g>
<g>
</g>
<g>
</g>
<g>
</g>
<g>
</g>
<g>
</g>
</svg>
