<?xml version="1.0" encoding="iso-8859-1"?>
<!-- Generator: Adobe Illustrator 19.0.0, SVG Export Plug-In . SVG Version: 6.00 Build 0)  -->
<svg version="1.1" id="Capa_1" xmlns="http://www.w3.org/2000/svg" xmlns:xlink="http://www.w3.org/1999/xlink" x="0px" y="0px"
	 viewBox="0 0 480.014 480.014" style="enable-background:new 0 0 480.014 480.014;" xml:space="preserve">
<path style="fill:#E89E1C;" d="M200.007,312.014h80v168h-80V312.014z"/>
<path style="fill:#B57309;" d="M200.007,312.014v168h8V315.152C205.288,314.246,202.617,313.198,200.007,312.014z"/>
<path style="fill:#3CE578;" d="M480.007,164.014c0-17.554-12.079-33.044-30.524-42.46c4.187-6.41,6.451-13.884,6.524-21.54
	c0-22.96-20.629-42.408-49.213-49.298c-6.078-24.275-35.424-42.702-70.787-42.702c-12.667-0.066-25.215,2.451-36.877,7.398
	c-15.018-10.34-32.893-15.724-51.123-15.398c-14.914-0.135-29.633,3.398-42.86,10.288c-6.942-1.529-14.031-2.296-21.14-2.288
	c-23.09-0.861-45.441,8.217-61.392,24.933c-32.916,4.477-57.882,25.111-58.539,50.071c-27.982,7.131-48.069,26.346-48.069,48.996
	c0.865,16.328,10.095,31.054,24.413,38.951c-10.034,8.091-16.03,20.164-16.413,33.049c0,22.819,20.383,42.16,48.693,49.161
	c-0.437,2.254-0.669,4.543-0.693,6.839c0,28.719,32.235,52,72,52c12.045,0.044,23.986-2.24,35.166-6.724
	c8.703,17.81,34.432,30.724,64.834,30.724c27.931,0,51.904-10.906,62.369-26.488c7.093,1.645,14.35,2.48,21.631,2.488
	c38.04,0,69.112-21.321,71.742-48.311c36.121-2.791,64.258-24.861,64.258-51.689c-0.032-4.548-0.868-9.054-2.471-13.311
	C472.691,190.587,479.5,177.799,480.007,164.014L480.007,164.014z"/>
<path style="fill:#FCCC38;" d="M424.007,424.014l40-24v-14.243c-0.024-12.933-9.665-23.829-22.5-25.428
	c9.07-9.665,8.588-24.854-1.077-33.924c-9.665-9.07-24.854-8.588-33.924,1.077c-8.666,9.234-8.666,23.613,0,32.847
	c-12.834,1.599-22.475,12.495-22.5,25.428v14.243L424.007,424.014z"/>
<path style="fill:#DBA100;" d="M428.007,320.417c-13.002-2.266-25.379,6.437-27.645,19.439c-1.292,7.415,0.985,15.006,6.145,20.486
	c-12.834,1.599-22.475,12.495-22.5,25.428v14.243h8v-14.243c0.024-12.933,9.665-23.829,22.5-25.428
	c-9.042-9.593-8.595-24.7,0.998-33.741C418.963,323.341,423.317,321.188,428.007,320.417z"/>
<path style="fill:#E80C22;" d="M424.007,405.35l-56-21.336v74.664l56,21.336l56-21.336v-74.664L424.007,405.35z"/>
<path style="fill:#19AF4B;" d="M80.007,260.014c0.024-2.296,0.256-4.585,0.693-6.839c-28.31-7.001-48.693-26.342-48.693-49.161
	c0.382-12.884,6.378-24.958,16.413-33.049c-14.318-7.897-23.548-22.623-24.413-38.951c0-22.65,20.087-41.865,48.07-48.996
	c0.656-24.96,25.622-45.594,58.539-50.071c13.795-14.703,32.748-23.493,52.883-24.526c-2.478-0.187-4.944-0.407-7.491-0.407
	c-23.09-0.861-45.441,8.217-61.392,24.933c-32.916,4.477-57.882,25.111-58.539,50.071c-27.982,7.131-48.069,26.346-48.069,48.996
	c0.865,16.328,10.095,31.054,24.413,38.951c-10.034,8.091-16.03,20.164-16.413,33.049c0,22.819,20.383,42.16,48.693,49.161
	c-0.437,2.254-0.669,4.543-0.693,6.839c0,28.719,32.235,52,72,52c2.613,0,5.164-0.171,7.7-0.372
	C107.858,308.665,80.007,286.702,80.007,260.014z"/>
<g>
	<path style="fill:#F4393D;" d="M120.007,192.014h-16v-40c-0.001-4.417,3.579-7.999,7.996-8c0.001,0,0.003,0,0.004,0
		c13.255,0,24-10.745,24-24s-10.745-24-24-24s-24,10.745-24,24h-16c0.002-22.091,17.912-39.998,40.003-39.997
		c22.091,0.002,39.998,17.912,39.997,40.003c-0.002,19.006-13.378,35.387-32,39.188V192.014z"/>
	<path style="fill:#F4393D;" d="M104.007,208.014h16v16h-16V208.014z"/>
	<path style="fill:#F4393D;" d="M480.007,384.014l-56,21.336v74.664l56-21.336V384.014z"/>
</g>
<path style="fill:#DBE6FD;" d="M184.007,96.014h32v-56h104v96h-87.522c-10.415,0-20.265-4.734-26.772-12.867L184.007,96.014z"/>
<g>
	<path style="fill:#6274F4;" d="M240.007,64.014h56v16h-56V64.014z"/>
	<path style="fill:#6274F4;" d="M240.007,96.014h16v16h-16V96.014z"/>
	<path style="fill:#6274F4;" d="M272.007,96.014h24v16h-24V96.014z"/>
</g>
<circle style="fill:#40CCED;" cx="387.927" cy="160.014" r="32"/>
<path style="fill:#6C61F7;" d="M416.171,131.729c-15.621-15.619-40.945-15.618-56.565,0.002
	c-13.44,13.441-15.564,34.483-5.082,50.339l-40.174,40.171l11.312,11.312l40.173-40.169c18.429,12.18,43.243,7.114,55.423-11.316
	C431.739,166.211,429.612,145.168,416.171,131.729L416.171,131.729z M404.859,176.987c-9.497,9.063-24.44,9.063-33.938,0
	c-9.374-9.372-9.375-24.568-0.004-33.941c9.372-9.374,24.568-9.375,33.941-0.004c9.374,9.372,9.375,24.568,0.004,33.941
	C404.861,176.984,404.86,176.985,404.859,176.987z"/>
<path style="fill:#FFD700;" d="M190.954,224.014l-14.947-12.067l38.264-48.304c3.245-4.125,9.22-4.839,13.346-1.594
	c0.313,0.247,0.611,0.513,0.891,0.796l32.397,32.719l31.63-23.954l11.472,15.454l-38.264,28.983
	c-3.799,2.887-9.151,2.503-12.499-0.896l-30.706-31.011L190.954,224.014z"/>
<g>
	<path style="fill:#F4393D;" d="M176.007,248.014h16v32h-16V248.014z"/>
	<path style="fill:#F4393D;" d="M208.007,224.014h16v56h-16V224.014z"/>
	<path style="fill:#F4393D;" d="M240.007,240.014h16v40h-16V240.014z"/>
	<path style="fill:#F4393D;" d="M272.007,232.014h16v48h-16V232.014z"/>
	<path style="fill:#F4393D;" d="M64.007,376.014v40h40C104.007,393.923,86.098,376.014,64.007,376.014z"/>
</g>
<path style="fill:#6C61F7;" d="M40.007,400.014c-22.091,0-40,17.909-40,40s17.909,40,40,40s40-17.909,40-40h-40V400.014z"/>
<g>
	<path style="fill:#474796;" d="M24.007,320.014h16v48h-16V320.014z"/>
	<path style="fill:#474796;" d="M24.007,288.014h16v16h-16V288.014z"/>
</g>
<g>
</g>
<g>
</g>
<g>
</g>
<g>
</g>
<g>
</g>
<g>
</g>
<g>
</g>
<g>
</g>
<g>
</g>
<g>
</g>
<g>
</g>
<g>
</g>
<g>
</g>
<g>
</g>
<g>
</g>
</svg>
