<?xml version="1.0" encoding="iso-8859-1"?>
<!-- Generator: Adobe Illustrator 19.0.0, SVG Export Plug-In . SVG Version: 6.00 Build 0)  -->
<svg version="1.1" id="Capa_1" xmlns="http://www.w3.org/2000/svg" xmlns:xlink="http://www.w3.org/1999/xlink" x="0px" y="0px"
	 viewBox="0 0 480 480" style="enable-background:new 0 0 480 480;" xml:space="preserve">
<circle style="fill:#DBE6FD;" cx="240" cy="240" r="232"/>
<g>
	<path style="fill:#6D6D6D;" d="M232,320h16v64h-16V320z"/>
	<path style="fill:#6D6D6D;" d="M232,96h16v64h-16V96z"/>
	<path style="fill:#6D6D6D;" d="M96,232h64v16H96V232z"/>
	<path style="fill:#6D6D6D;" d="M320,232h64v16h-64V232z"/>
</g>
<circle style="fill:#17AFDC;" cx="240" cy="240" r="88"/>
<g>
	<path style="fill:#6D6D6D;" d="M240,424c-2.122,0.002-4.158-0.841-5.656-2.344l-32-32l11.312-11.312L240,404.688l26.344-26.344
		l11.312,11.312l-32,32C244.158,423.159,242.122,424.002,240,424L240,424z"/>
	<path style="fill:#6D6D6D;" d="M266.344,101.656L240,75.312l-26.344,26.344l-11.312-11.312l32-32
		c3.122-3.124,8.186-3.125,11.309-0.003c0.001,0.001,0.002,0.002,0.003,0.003l32,32L266.344,101.656z"/>
	<path style="fill:#6D6D6D;" d="M90.344,277.656l-32-32c-3.124-3.122-3.125-8.186-0.003-11.309c0.001-0.001,0.002-0.002,0.003-0.003
		l32-32l11.312,11.312L75.312,240l26.344,26.344L90.344,277.656z"/>
	<path style="fill:#6D6D6D;" d="M389.656,277.656l-11.312-11.312L404.688,240l-26.344-26.344l11.312-11.312l32,32
		c3.124,3.122,3.125,8.186,0.003,11.309c-0.001,0.001-0.002,0.002-0.003,0.003L389.656,277.656z"/>
</g>
<circle style="fill:#5358A1;" cx="240" cy="240" r="32"/>
<g>
	<path style="fill:#62AEF9;" d="M191.898,475.176c-10.716-2.182-21.269-5.098-31.586-8.727l5.313-15.094
		c9.622,3.386,19.465,6.106,29.461,8.14L191.898,475.176z"/>
	<path style="fill:#62AEF9;" d="M130.219,453.473c-9.716-5.007-19.079-10.672-28.023-16.953l9.203-13.094
		c8.347,5.863,17.083,11.152,26.148,15.828L130.219,453.473z"/>
	<path style="fill:#62AEF9;" d="M76.742,415.926c-7.998-7.437-15.489-15.401-22.422-23.84l12.36-10.156
		c6.479,7.883,13.479,15.323,20.953,22.27L76.742,415.926z"/>
	<path style="fill:#62AEF9;" d="M35.344,365.422c-5.708-9.308-10.777-18.993-15.172-28.988l14.641-6.438
		c4.105,9.328,8.839,18.366,14.172,27.051L35.344,365.422z"/>
	<path style="fill:#62AEF9;" d="M9.086,305.617c-2.977-10.513-5.235-21.216-6.758-32.035l15.844-2.227
		c1.422,10.096,3.529,20.084,6.305,29.895L9.086,305.617z"/>
	<path style="fill:#62AEF9;" d="M455.641,179.168c-2.758-9.814-6.19-19.425-10.273-28.766l14.656-6.406
		c4.38,10.015,8.063,20.321,11.024,30.844L455.641,179.168z"/>
	<path style="fill:#62AEF9;" d="M431.258,123.328c-5.327-8.696-11.234-17.024-17.68-24.926l12.391-10.117
		c6.907,8.458,13.232,17.376,18.93,26.691L431.258,123.328z"/>
	<path style="fill:#62AEF9;" d="M392.688,76.098c-7.468-6.95-15.395-13.39-23.727-19.277l9.219-13.07
		c8.928,6.3,17.418,13.197,25.414,20.645L392.688,76.098z"/>
	<path style="fill:#62AEF9;" d="M342.844,40.953c-9.06-4.69-18.431-8.753-28.047-12.16l5.344-15.086
		c10.306,3.655,20.35,8.01,30.062,13.035L342.844,40.953z"/>
	<path style="fill:#62AEF9;" d="M285.344,20.594c-9.989-2.052-20.106-3.42-30.281-4.094l1.063-15.969
		c10.9,0.724,21.737,2.191,32.437,4.391L285.344,20.594z"/>
	<path style="fill:#62AEF9;" d="M16,240H0C0.15,107.514,107.514,0.15,240,0v16C116.346,16.139,16.139,116.346,16,240z"/>
	<path style="fill:#62AEF9;" d="M240,480v-16c123.654-0.139,223.861-100.346,224-224h16C479.85,372.486,372.486,479.85,240,480z"/>
</g>
<g>
</g>
<g>
</g>
<g>
</g>
<g>
</g>
<g>
</g>
<g>
</g>
<g>
</g>
<g>
</g>
<g>
</g>
<g>
</g>
<g>
</g>
<g>
</g>
<g>
</g>
<g>
</g>
<g>
</g>
</svg>
