<?xml version="1.0" encoding="iso-8859-1"?>
<!-- Generator: Adobe Illustrator 19.0.0, SVG Export Plug-In . SVG Version: 6.00 Build 0)  -->
<svg version="1.1" id="Capa_1" xmlns="http://www.w3.org/2000/svg" xmlns:xlink="http://www.w3.org/1999/xlink" x="0px" y="0px"
	 viewBox="0 0 480.001 480.001" style="enable-background:new 0 0 480.001 480.001;" xml:space="preserve">
<path style="fill:#75A5FC;" d="M307.371,385.165l-6.742-14.508c72.136-33.484,103.47-119.107,69.986-191.243
	s-119.107-103.47-191.243-69.986s-103.47,119.107-69.986,191.243c14.327,30.865,39.121,55.659,69.986,69.986l-6.742,14.508
	c-80.15-37.208-114.961-132.346-77.753-212.496S227.221,57.707,307.371,94.916s114.961,132.346,77.753,212.496
	C369.206,341.701,341.661,369.246,307.371,385.165L307.371,385.165z"/>
<path style="fill:#17AFDC;" d="M240,480.001C107.346,479.895-0.105,372.273,0,239.619c0.017-21.047,2.8-42,8.277-62.322
	l15.445,4.172C-8.552,300.95,62.143,423.972,181.623,456.247c56.003,15.128,115.691,7.949,166.51-20.027l7.734,14.008
	C320.373,469.763,280.515,480.005,240,480.001z"/>
<path style="fill:#FF7F00;" d="M432,361.028h-8.109c6.719-4.734,9.664-13.231,7.315-21.108c-1.976-6.526-7.218-11.546-13.823-13.236
	c-10.587-3.013-21.613,3.128-24.626,13.715c-0.469,1.648-0.723,3.349-0.757,5.061c0.036,6.193,3.055,11.989,8.109,15.568H392
	c-8.716-0.118-15.879,6.851-16,15.568v46.703h16v48.702h40v-48.703h16v-46.703C447.879,367.879,440.717,360.91,432,361.028
	L432,361.028z"/>
<path style="fill:#FCCC38;" d="M64,43.028h-8.109c6.719-4.734,9.664-13.231,7.315-21.108c-1.976-6.526-7.218-11.545-13.823-13.236
	C38.795,5.671,27.77,11.812,24.757,22.399c-0.469,1.647-0.723,3.349-0.757,5.061c0.036,6.193,3.055,11.989,8.109,15.568H24
	C15.284,42.91,8.121,49.879,8,58.595v46.703h16v54.703h40v-54.703h16V58.595C79.879,49.879,72.717,42.91,64,43.028z"/>
<g>
	<path style="fill:#75A5FC;" d="M464,0.001h16v16h-16V0.001z"/>
	<path style="fill:#75A5FC;" d="M440,24.001h16v16h-16V24.001z"/>
	<path style="fill:#75A5FC;" d="M24,440.001h16v16H24V440.001z"/>
	<path style="fill:#75A5FC;" d="M0,464.001h16v16H0V464.001z"/>
</g>
<path style="fill:#17AFDC;" d="M462.129,331.04l-14.805-6.078C494.22,210.453,439.409,79.61,324.9,32.714
	C253.22,3.359,171.461,13.11,108.695,58.501l-9.391-12.953C206.778-32.11,356.857-7.94,434.515,99.534
	C483.086,166.754,493.526,254.281,462.129,331.04L462.129,331.04z"/>
<path style="fill:#FF5C64;" d="M267.727,176.001h-6.763c13.353-11.578,14.791-31.789,3.213-45.141
	c-11.578-13.353-31.789-14.791-45.141-3.213c-13.353,11.578-14.791,31.789-3.213,45.141c0.994,1.146,2.067,2.22,3.213,3.213h-6.763
	c-24.451,0-36.273,19.822-36.273,44.273v75.727h24v120h80v-120h24v-75.727C304,195.823,292.178,176.001,267.727,176.001z"/>
<g>
	<path style="fill:#F4393D;" d="M200,208.001h8v88h-8V208.001z"/>
	<path style="fill:#F4393D;" d="M272,208.001h8v88h-8V208.001z"/>
	<path style="fill:#F4393D;" d="M232,288.001h16v128h-16V288.001z"/>
</g>
<g>
</g>
<g>
</g>
<g>
</g>
<g>
</g>
<g>
</g>
<g>
</g>
<g>
</g>
<g>
</g>
<g>
</g>
<g>
</g>
<g>
</g>
<g>
</g>
<g>
</g>
<g>
</g>
<g>
</g>
</svg>
