<?xml version="1.0" encoding="iso-8859-1"?>
<!-- Generator: Adobe Illustrator 19.0.0, SVG Export Plug-In . SVG Version: 6.00 Build 0)  -->
<svg version="1.1" id="Capa_1" xmlns="http://www.w3.org/2000/svg" xmlns:xlink="http://www.w3.org/1999/xlink" x="0px" y="0px"
	 viewBox="0 0 480.178 480.178" style="enable-background:new 0 0 480.178 480.178;" xml:space="preserve">
<path style="fill:#62E892;" d="M64.089,184.178v124.527l40.745-4.527c19.606-3.079,39.604,2.204,55.132,14.563
	c19.846,17.011,47.319,22.008,71.885,13.075l48.239-17.541V192.178L231.85,209.72c-24.565,8.933-52.038,3.936-71.885-13.075
	c-15.231-13.055-35.194-19.208-55.132-16.993L64.089,184.178z"/>
<g>
	<path style="fill:#17AFDC;" d="M276.246,241.459l3.843-1.281v-48l-48,17.455c0,18.528,15.02,33.548,33.548,33.548
		C269.243,243.181,272.825,242.6,276.246,241.459z"/>
	<path style="fill:#17AFDC;" d="M67.356,228.651c25.394-2.539,44.733-23.908,44.733-49.429c-2.424,0.021-4.846,0.165-7.255,0.429
		l-40.745,4.527v44.8L67.356,228.651z"/>
</g>
<path style="fill:#333333;" d="M172.589,296.17c-2.489,0.001-4.956-0.465-7.273-1.375l-16.148-6.344l5.844-14.891l16.156,6.344
	c1.026,0.413,2.181,0.359,3.164-0.148c0.901-0.445,1.562-1.261,1.813-2.234c0.416-1.687-0.512-3.415-2.148-4l-9.664-3.797
	c-9.984-3.856-14.952-15.076-11.096-25.06c1.724-4.465,5.04-8.133,9.307-10.299c5.072-2.6,11.017-2.893,16.32-0.805l16.148,6.344
	l-5.844,14.891l-16.156-6.344c-1.024-0.424-2.184-0.369-3.164,0.148c-0.901,0.445-1.562,1.261-1.813,2.234
	c-0.416,1.687,0.512,3.415,2.148,4l9.664,3.797c9.984,3.856,14.952,15.076,11.096,25.06c-1.724,4.465-5.04,8.133-9.307,10.299
	C178.836,295.426,175.735,296.173,172.589,296.17z"/>
<g>
	<path style="fill:#17AFDC;" d="M64.089,308.705l40.745-4.527c2.421-0.269,4.839-0.446,7.255-0.53
		c0-19.728-15.993-35.72-35.72-35.72c-1.187,0-2.373,0.059-3.554,0.177l-8.726,0.873V308.705z"/>
	<path style="fill:#17AFDC;" d="M280.089,314.275v-40.497l-6.285,1.886c-24.759,7.428-41.715,30.217-41.715,56.066L280.089,314.275z
		"/>
</g>
<g>
	<path style="fill:#FFD700;" d="M168.089,96.178h16v32h-16V96.178z"/>
	<path style="fill:#FFD700;" d="M250.433,146.524l24-24l11.313,11.313l-24,24L250.433,146.524z"/>
	<path style="fill:#FFD700;" d="M208.929,132.598l16-32l14.313,7.156l-16,32L208.929,132.598z"/>
	<path style="fill:#FFD700;" d="M66.437,133.833l11.313-11.313l24,24l-11.313,11.313L66.437,133.833z"/>
	<path style="fill:#FFD700;" d="M112.935,107.761l14.313-7.156l16,32l-14.313,7.156L112.935,107.761z"/>
</g>
<path style="fill:#FF5C64;" d="M443.815,56.178h-6.763c13.353-11.578,14.791-31.789,3.213-45.141s-31.789-14.791-45.141-3.213
	s-14.791,31.789-3.213,45.141c0.994,1.146,2.067,2.22,3.213,3.213h-6.763c-24.451,0-36.273,19.822-36.273,44.273v75.727h24v120h80
	v-120h24v-75.727C480.089,76,468.267,56.178,443.815,56.178L443.815,56.178z"/>
<g>
	<path style="fill:#F4393D;" d="M376.089,88.178h8v88h-8V88.178z"/>
	<path style="fill:#F4393D;" d="M448.089,88.178h8v88h-8V88.178z"/>
	<path style="fill:#F4393D;" d="M408.089,168.178h16v128h-16V168.178z"/>
</g>
<path style="fill:#D6D6E5;" d="M306.571,360.432l-156.587,26.065l-37.895-26.065h-72v79.746h32l73.556,37.291
	c8.994,4.227,19.539,3.467,27.833-2.008l139.293-91.366c6.024-3.662,7.938-11.514,4.276-17.538
	C314.811,362.881,310.872,360.577,306.571,360.432L306.571,360.432z"/>
<path style="fill:#B9B9C6;" d="M312.771,375.842l-139.293,91.365c-8.294,5.474-18.839,6.235-27.833,2.008l-73.556-34.496h-32v5.459
	h32l73.556,37.291c8.994,4.227,19.539,3.466,27.833-2.008l139.293-91.366c5.107-3.06,7.366-9.283,5.413-14.907
	C317.236,371.984,315.315,374.345,312.771,375.842L312.771,375.842z"/>
<path style="fill:#5358A1;" d="M0.089,352.178h48v96h-48V352.178z"/>
<path style="fill:#BCBCCC;" d="M167.617,398.495l-30.436-20.291l27.365,23.902c6.048,4.135,7.599,12.39,3.465,18.438
	c-0.092,0.134-0.186,0.267-0.282,0.397c-4.085,5.577-11.848,6.925-17.575,3.052l-36.972-22.175v8.385l32.282,21.522
	c9.176,6.118,21.575,3.638,27.692-5.539C179.273,417.011,176.793,404.613,167.617,398.495L167.617,398.495z"/>
<g>
</g>
<g>
</g>
<g>
</g>
<g>
</g>
<g>
</g>
<g>
</g>
<g>
</g>
<g>
</g>
<g>
</g>
<g>
</g>
<g>
</g>
<g>
</g>
<g>
</g>
<g>
</g>
<g>
</g>
</svg>
