<?xml version="1.0" encoding="iso-8859-1"?>
<!-- Generator: Adobe Illustrator 19.0.0, SVG Export Plug-In . SVG Version: 6.00 Build 0)  -->
<svg version="1.1" id="Capa_1" xmlns="http://www.w3.org/2000/svg" xmlns:xlink="http://www.w3.org/1999/xlink" x="0px" y="0px"
	 viewBox="0 0 480.003 480.003" style="enable-background:new 0 0 480.003 480.003;" xml:space="preserve">
<circle style="fill:#17AFDC;" cx="320.002" cy="264.004" r="56"/>
<g>
	<path style="fill:#FFD700;" d="M414.431,321.359l-13.406-8.734c2.871-4.41,5.598-8.996,8.098-13.641l14.086,7.594
		C420.498,311.605,417.545,316.582,414.431,321.359L414.431,321.359z"/>
	<path style="fill:#FFD700;" d="M57.423,307.723c-2.75-5.02-5.312-10.199-7.617-15.398l14.625-6.484
		c2.125,4.789,4.488,9.57,7.023,14.203L57.423,307.723z"/>
	<path style="fill:#FFD700;" d="M430.736,291.109l-14.672-6.383c2.113-4.859,4.043-9.84,5.734-14.805l15.148,5.164
		C435.111,280.461,433.025,285.852,430.736,291.109L430.736,291.109z"/>
	<path style="fill:#FFD700;" d="M43.498,276.359c-1.875-5.391-3.543-10.926-4.965-16.453l15.5-3.977
		c1.309,5.098,2.848,10.203,4.574,15.172L43.498,276.359z"/>
	<path style="fill:#FFD700;" d="M441.802,258.602l-15.523-3.883c1.277-5.109,2.355-10.336,3.207-15.531l15.789,2.578
		C444.357,247.398,443.186,253.062,441.802,258.602z"/>
	<path style="fill:#FFD700;" d="M34.951,243.102c-0.953-5.594-1.684-11.328-2.176-17.043l15.938-1.375
		c0.457,5.277,1.133,10.57,2.012,15.73L34.951,243.102z"/>
	<path style="fill:#FFD700;" d="M447.341,224.711l-15.953-1.266c0.406-5.102,0.613-10.293,0.613-15.441l16-0.43v0.43
		C448.002,213.574,447.779,219.195,447.341,224.711L447.341,224.711z"/>
	<path style="fill:#FFD700;" d="M48.002,208.867h-16v-0.863c0-5.719,0.234-11.492,0.699-17.16l15.945,1.305
		c-0.426,5.234-0.645,10.57-0.645,15.855V208.867z"/>
	<path style="fill:#FFD700;" d="M431.322,191.738c-0.441-5.281-1.109-10.574-1.977-15.738l15.781-2.648
		c0.937,5.594,1.66,11.328,2.141,17.043L431.322,191.738z"/>
	<path style="fill:#FFD700;" d="M50.588,176.41l-15.781-2.617c0.93-5.609,2.105-11.266,3.504-16.816l15.516,3.906
		C52.537,166.008,51.447,171.23,50.588,176.41z"/>
	<path style="fill:#FFD700;" d="M426.08,160.488c-1.309-5.117-2.836-10.227-4.551-15.191l15.125-5.219
		c1.856,5.375,3.512,10.914,4.926,16.457L426.08,160.488z"/>
	<path style="fill:#FFD700;" d="M58.334,145.695L43.201,140.5c1.844-5.375,3.945-10.762,6.246-16.012l14.656,6.414
		C61.978,135.758,60.037,140.734,58.334,145.695z"/>
	<path style="fill:#FFD700;" d="M415.744,130.551c-2.121-4.801-4.477-9.586-7-14.223l14.055-7.648
		c2.73,5.02,5.281,10.207,7.578,15.41L415.744,130.551z"/>
	<path style="fill:#FFD700;" d="M71.076,116.66l-14.063-7.625c2.707-4.992,5.668-9.957,8.801-14.758l13.398,8.75
		C76.314,107.465,73.576,112.051,71.076,116.66z"/>
	<path style="fill:#FFD700;" d="M400.595,102.727c-2.883-4.387-5.992-8.723-9.246-12.883l12.602-9.859
		c3.523,4.508,6.895,9.203,10.02,13.961L400.595,102.727z"/>
	<path style="fill:#FFD700;" d="M88.435,90.125L75.81,80.297c3.488-4.484,7.227-8.895,11.106-13.113L98.689,78.02
		C95.107,81.914,91.658,85.984,88.435,90.125z"/>
	<path style="fill:#FFD700;" d="M381.072,77.758c-3.59-3.887-7.371-7.656-11.234-11.203l10.82-11.789
		c4.188,3.844,8.281,7.926,12.164,12.133L381.072,77.758z"/>
	<path style="fill:#FFD700;" d="M109.908,66.797L99.064,55.031c4.195-3.867,8.602-7.606,13.102-11.113l9.836,12.617
		C117.85,59.773,113.783,63.227,109.908,66.797z"/>
	<path style="fill:#FFD700;" d="M357.713,56.312c-4.164-3.238-8.508-6.336-12.914-9.215l8.742-13.398
		c4.777,3.117,9.484,6.477,13.992,9.98L357.713,56.312z"/>
	<path style="fill:#FFD700;" d="M134.896,47.297l-8.766-13.383c4.77-3.125,9.727-6.09,14.742-8.812l7.633,14.062
		C143.88,41.676,139.298,44.414,134.896,47.297L134.896,47.297z"/>
	<path style="fill:#FFD700;" d="M331.166,38.98c-4.645-2.508-9.438-4.848-14.254-6.953l6.406-14.664
		c5.227,2.285,10.426,4.824,15.457,7.547L331.166,38.98z"/>
	<path style="fill:#FFD700;" d="M162.74,32.18l-6.453-14.641c5.215-2.297,10.598-4.402,16-6.262l5.203,15.133
		C172.506,28.121,167.545,30.062,162.74,32.18z"/>
	<path style="fill:#FFD700;" d="M302.119,26.273c-4.984-1.703-10.098-3.219-15.199-4.5l3.891-15.516
		c5.535,1.387,11.082,3.027,16.488,4.875L302.119,26.273z"/>
	<path style="fill:#FFD700;" d="M192.685,21.875l-3.93-15.508c5.52-1.398,11.18-2.586,16.816-3.527l2.641,15.781
		C203.002,19.492,197.779,20.586,192.685,21.875z"/>
	<path style="fill:#FFD700;" d="M271.388,18.562c-5.184-0.855-10.48-1.504-15.738-1.93l1.281-15.945
		c5.703,0.457,11.441,1.16,17.059,2.086L271.388,18.562z"/>
	<path style="fill:#FFD700;" d="M223.935,16.664l-1.312-15.945c5.68-0.469,11.453-0.711,17.156-0.719l0.023,16
		C234.529,16.008,229.189,16.23,223.935,16.664L223.935,16.664z"/>
</g>
<path style="fill:#F4393D;" d="M206.93,232.73c-12.282-11.634-31.518-11.634-43.8,0l-3.129,3.01l-3.128-3.01
	c-12.282-11.634-31.518-11.634-43.8,0c-11.635,11.004-12.146,29.356-1.141,40.991c0.37,0.391,0.75,0.772,1.141,1.141l46.928,45.142
	l46.929-45.142c11.635-11.004,12.146-29.356,1.141-40.991C207.702,233.48,207.321,233.099,206.93,232.73L206.93,232.73z"/>
<g>
	<path style="fill:#48494F;" d="M296.002,240.004h16v16h-16V240.004z"/>
	<path style="fill:#48494F;" d="M328.002,240.004h16v16h-16V240.004z"/>
	<path style="fill:#48494F;" d="M320.002,292.574c-9.173-0.308-17.723-4.721-23.289-12.02l12.289-10.242
		c3.607,6.075,11.456,8.076,17.531,4.469c1.84-1.092,3.377-2.629,4.469-4.469l12.289,10.242
		C337.725,287.853,329.175,292.266,320.002,292.574z"/>
</g>
<path style="fill:#D6D6E5;" d="M312.002,124.004c-0.314-6.923-6.167-12.288-13.091-12c6.627,0.577,12.468-4.327,13.045-10.955
	c0.577-6.627-4.327-12.468-10.955-13.045c-0.696-0.061-1.395-0.061-2.091,0h-43.636v-20c-0.63-7.23-7.002-12.58-14.232-11.95
	c-6.356,0.554-11.396,5.594-11.95,11.95v20h-61.091v72h130.909c6.627,0.577,12.468-4.327,13.045-10.955
	c0.577-6.627-4.327-12.468-10.955-13.045c-0.696-0.061-1.395-0.061-2.091,0C305.835,136.292,311.688,130.927,312.002,124.004z"/>
<path style="fill:#5358A1;" d="M168.002,88.004h32v72h-32V88.004z"/>
<path style="fill:#D6D6E5;" d="M370.484,360.258L216.002,385.02l-2.105,1.303l-37.895-26.065h-64v79.746h24l73.556,37.291
	c8.994,4.227,19.539,3.466,27.833-2.008l139.293-91.366c6.024-3.662,7.938-11.514,4.276-17.538
	C378.723,362.706,374.785,360.403,370.484,360.258z"/>
<path style="fill:#B9B9C6;" d="M376.684,375.667l-139.293,91.365c-8.294,5.474-18.839,6.235-27.833,2.008l-73.556-34.496h-24v5.459
	h24l73.556,37.291c8.994,4.227,19.539,3.466,27.833-2.008l139.293-91.366c5.107-3.06,7.366-9.283,5.413-14.907
	C381.149,371.81,379.228,374.171,376.684,375.667L376.684,375.667z"/>
<path style="fill:#5358A1;" d="M64.002,352.004h48v96h-48V352.004z"/>
<path style="fill:#BCBCCC;" d="M230.438,396.294l-30.436-20.291l27.365,23.902c6.048,4.135,7.599,12.39,3.465,18.438
	c-0.092,0.134-0.186,0.267-0.282,0.397c-4.085,5.577-11.849,6.925-17.575,3.052l-36.972-22.175v8.385l32.282,21.522
	c9.185,6.105,21.58,3.609,27.685-5.576C242.062,414.782,239.588,402.413,230.438,396.294z"/>
<g>
</g>
<g>
</g>
<g>
</g>
<g>
</g>
<g>
</g>
<g>
</g>
<g>
</g>
<g>
</g>
<g>
</g>
<g>
</g>
<g>
</g>
<g>
</g>
<g>
</g>
<g>
</g>
<g>
</g>
</svg>
