<?xml version="1.0" encoding="iso-8859-1"?>
<!-- Generator: Adobe Illustrator 19.0.0, SVG Export Plug-In . SVG Version: 6.00 Build 0)  -->
<svg version="1.1" id="Capa_1" xmlns="http://www.w3.org/2000/svg" xmlns:xlink="http://www.w3.org/1999/xlink" x="0px" y="0px"
	 viewBox="0 0 480.032 480.032" style="enable-background:new 0 0 480.032 480.032;" xml:space="preserve">
<circle style="fill:#FCCC38;" cx="408.016" cy="416.032" r="64"/>
<path style="fill:#17AFDC;" d="M61.14,9.028c34.791-19.267,78.614-6.682,97.881,28.109s6.682,78.614-28.109,97.881
	s-78.614,6.682-97.881-28.109c-5.911-10.674-9.013-22.675-9.015-34.876C23.941,45.823,38.177,21.662,61.14,9.028"/>
<circle style="fill:#FCCC38;" cx="408.016" cy="64.032" r="64"/>
<path style="fill:#F4393D;" d="M136.241,42.191c-10.636-9.695-26.906-9.695-37.543,0l-2.682,2.508l-2.682-2.508
	c-10.636-9.695-26.906-9.695-37.543,0c-9.695,8.798-10.423,23.79-1.625,33.486c0.515,0.568,1.057,1.11,1.625,1.625l40.225,37.618
	l40.225-37.618c9.695-8.798,10.423-23.79,1.625-33.485C137.351,43.248,136.808,42.706,136.241,42.191z"/>
<g>
	<path style="fill:#4C4C4A;" d="M376.016,40.032h16v16h-16V40.032z"/>
	<path style="fill:#4C4C4A;" d="M424.016,40.032h16v16h-16V40.032z"/>
	<path style="fill:#4C4C4A;" d="M408.016,99.927c-10.306-0.364-19.904-5.337-26.145-13.547l12.289-10.242
		c4.828,7.652,14.946,9.941,22.598,5.113c2.064-1.302,3.811-3.049,5.113-5.113l12.289,10.242
		C427.92,94.59,418.322,99.563,408.016,99.927z"/>
	<path style="fill:#4C4C4A;" d="M440.016,408.032h-24v-24h-16v24h-24v16h24v24h16v-24h24V408.032z"/>
</g>
<path style="fill:#17AFDC;" d="M124.016,368.032h-72c-19.454-0.415-35.566,15.008-36,34.462v8.615
	c0.434,19.453,16.546,34.877,36,34.462l4,34.462l32-34.462h36c19.454,0.415,35.566-15.008,36-34.462v-8.615
	C159.582,383.04,143.47,367.617,124.016,368.032z"/>
<g>
	<path style="fill:#8FE4F9;" d="M128.016,400.032h16v16h-16V400.032z"/>
	<path style="fill:#8FE4F9;" d="M40.016,400.032h64v16h-64V400.032z"/>
</g>
<g>
	<path style="fill:#F4393D;" d="M136.016,240.032l-56-40l0.216,24H8.016v32h72.216v24L136.016,240.032z"/>
	<path style="fill:#F4393D;" d="M456.016,224.032H399.8v-24l-55.784,40l56,40l-0.216-24h72.216v-32H456.016z"/>
	<path style="fill:#F4393D;" d="M464.016,128.032h16v16h-16V128.032z"/>
	<path style="fill:#F4393D;" d="M464.016,160.032h16v16h-16V160.032z"/>
	<path style="fill:#F4393D;" d="M464.016,192.032h16v16h-16V192.032z"/>
	<path style="fill:#F4393D;" d="M464.016,272.032h16v16h-16V272.032z"/>
	<path style="fill:#F4393D;" d="M464.016,304.032h16v16h-16V304.032z"/>
	<path style="fill:#F4393D;" d="M464.016,336.032h16v16h-16V336.032z"/>
	<path style="fill:#F4393D;" d="M0.016,272.032h16v16h-16V272.032z"/>
	<path style="fill:#F4393D;" d="M0.016,304.032h16v16h-16V304.032z"/>
	<path style="fill:#F4393D;" d="M0.016,336.032h16v16h-16V336.032z"/>
	<path style="fill:#F4393D;" d="M0.016,128.032h16v16h-16V128.032z"/>
	<path style="fill:#F4393D;" d="M0.016,160.032h16v16h-16V160.032z"/>
	<path style="fill:#F4393D;" d="M0.016,192.032h16v16h-16V192.032z"/>
</g>
<path style="fill:#24DB6A;" d="M267.743,152.032h-6.763c13.353-11.578,14.791-31.789,3.213-45.141
	c-11.578-13.353-31.789-14.791-45.141-3.213s-14.791,31.789-3.213,45.141c0.994,1.146,2.067,2.22,3.213,3.213h-6.763
	c-24.451,0-36.273,19.822-36.273,44.273v75.727h24v120h80v-120h24v-75.727C304.016,171.854,292.194,152.032,267.743,152.032z"/>
<g>
	<path style="fill:#0E8E35;" d="M272.016,184.032h8v88h-8V184.032z"/>
	<path style="fill:#0E8E35;" d="M200.016,184.032h8v88h-8V184.032z"/>
	<path style="fill:#0E8E35;" d="M232.016,264.032h16v128h-16V264.032z"/>
</g>
<g>
</g>
<g>
</g>
<g>
</g>
<g>
</g>
<g>
</g>
<g>
</g>
<g>
</g>
<g>
</g>
<g>
</g>
<g>
</g>
<g>
</g>
<g>
</g>
<g>
</g>
<g>
</g>
<g>
</g>
</svg>
