<?xml version="1.0" encoding="iso-8859-1"?>
<!-- Generator: Adobe Illustrator 19.0.0, SVG Export Plug-In . SVG Version: 6.00 Build 0)  -->
<svg version="1.1" id="Capa_1" xmlns="http://www.w3.org/2000/svg" xmlns:xlink="http://www.w3.org/1999/xlink" x="0px" y="0px"
	 viewBox="0 0 480 480" style="enable-background:new 0 0 480 480;" xml:space="preserve">
<path style="fill:#F4393D;" d="M8,8h232v464H8V8z"/>
<path style="fill:#24DB6A;" d="M0,240h74.48V104h99.312v120H240v32h-99.312V136h-33.104v136H0V240z"/>
<path style="fill:#17AFDC;" d="M456,88l-52.597,90.166c-1.702,2.918-5.447,3.903-8.364,2.201c-0.175-0.102-0.344-0.212-0.508-0.331
	c-2.715-1.996-3.298-5.816-1.302-8.531c0.05-0.068,0.101-0.134,0.153-0.2c10.737-13.952,8.131-33.967-5.821-44.704
	c-3.575-2.751-7.694-4.713-12.083-5.754c-17.217-4.104-34.501,6.525-38.605,23.742c-0.579,2.428-0.872,4.915-0.874,7.411
	c-0.001,6.98,2.32,13.763,6.597,19.279c2.119,2.633,1.702,6.486-0.932,8.605c-0.066,0.053-0.132,0.104-0.2,0.154
	c-2.733,1.981-6.555,1.372-8.536-1.361c-0.119-0.164-0.229-0.333-0.331-0.508L280,88l-16,8l64,112v216h80V208l64-112L456,88z"/>
<path style="fill:#0066BA;" d="M360,304h16v120h-16V304z"/>
<g>
	<path style="fill:#BF0013;" d="M177.359,432h30.008v16h-30.008V432z"/>
	<path style="fill:#BF0013;" d="M64,400h64v16H64V400z"/>
	<path style="fill:#BF0013;" d="M160,32h47.367v16H160V32z"/>
	<path style="fill:#BF0013;" d="M232,0H8C3.583-0.001,0.001,3.579,0,7.996C0,7.997,0,7.999,0,8v240h16V16h208v48h-80V40
		c0.001-4.417-3.579-7.999-7.996-8c-0.001,0-0.003,0-0.004,0H40c-4.417-0.001-7.999,3.579-8,7.996c0,0.001,0,0.003,0,0.004v200
		c-0.001,4.417,3.579,7.999,7.996,8c0.001,0,0.003,0,0.004,0h32c4.417,0.001,7.999-3.579,8-7.996c0-0.001,0-0.003,0-0.004V80h16v24
		c-0.001,4.417,3.579,7.999,7.996,8c0.001,0,0.003,0,0.004,0h56v112c-0.001,4.417,3.579,7.999,7.996,8c0.001,0,0.003,0,0.004,0h64
		c4.417,0.001,7.999-3.579,8-7.996c0-0.001,0-0.003,0-0.004V8c0.001-4.417-3.579-7.999-7.996-8C232.003,0,232.001,0,232,0z M224,216
		h-16V96h-16v120h-16V104c0.001-4.417-3.579-7.999-7.996-8c-0.001,0-0.003,0-0.004,0h-56V72c0.001-4.417-3.579-7.999-7.996-8
		c-0.001,0-0.003,0-0.004,0H72c-4.417-0.001-7.999,3.579-8,7.996c0,0.001,0,0.003,0,0.004v160H48V48h80v24
		c-0.001,4.417,3.579,7.999,7.996,8c0.001,0,0.003,0,0.004,0h88V216z"/>
	<path style="fill:#BF0013;" d="M144,264h96v-16h-96V136c0.001-4.417-3.579-7.999-7.996-8c-0.001,0-0.003,0-0.004,0h-32
		c-4.417-0.001-7.999,3.579-8,7.996c0,0.001,0,0.003,0,0.004v208c-0.001,4.417,3.579,7.999,7.996,8c0.001,0,0.003,0,0.004,0h32
		c4.417,0.001,7.999-3.579,8-7.996c0-0.001,0-0.003,0-0.004v-48h16v72H80v-96c0.001-4.417-3.579-7.999-7.996-8
		c-0.001,0-0.003,0-0.004,0H40c-4.417-0.001-7.999,3.579-8,7.996c0,0.001,0,0.003,0,0.004v144h16V280h16v96
		c-0.001,4.417,3.579,7.999,7.996,8c0.001,0,0.003,0,0.004,0h96c4.417,0.001,7.999-3.579,8-7.996c0-0.001,0-0.003,0-0.004v-80h16v88
		h16v-88h16v104h-72c-4.417-0.001-7.999,3.579-8,7.996c0,0.001,0,0.003,0,0.004v24H32v16h120c4.417,0.001,7.999-3.579,8-7.996
		c0-0.001,0-0.003,0-0.004v-24h64v48H16V264H0v208c-0.001,4.417,3.579,7.999,7.996,8c0.001,0,0.003,0,0.004,0h224
		c4.417,0.001,7.999-3.579,8-7.996c0-0.001,0-0.003,0-0.004V288c0.001-4.417-3.579-7.999-7.996-8c-0.001,0-0.003,0-0.004,0h-96
		c-4.417-0.001-7.999,3.579-8,7.996c0,0.001,0,0.003,0,0.004v48h-16V144h16v120H144z"/>
</g>
<path style="fill:#24DB6A;" d="M309.321,234.344l-27.429-24l-12.929,11.312L280.786,232H248v16h32.786l-11.821,10.344l12.929,11.312
	l27.429-24c3.124-2.559,3.582-7.165,1.023-10.289C310.038,234.993,309.695,234.65,309.321,234.344L309.321,234.344z"/>
<g>
	<path style="fill:#FFD700;" d="M448,0h16v16h-16V0z"/>
	<path style="fill:#FFD700;" d="M448,32h16v16h-16V32z"/>
	<path style="fill:#FFD700;" d="M464,16h16v16h-16V16z"/>
	<path style="fill:#FFD700;" d="M432,16h16v16h-16V16z"/>
	<path style="fill:#FFD700;" d="M448,432h16v16h-16V432z"/>
	<path style="fill:#FFD700;" d="M448,464h16v16h-16V464z"/>
	<path style="fill:#FFD700;" d="M464,448h16v16h-16V448z"/>
	<path style="fill:#FFD700;" d="M432,448h16v16h-16V448z"/>
</g>
<g>
</g>
<g>
</g>
<g>
</g>
<g>
</g>
<g>
</g>
<g>
</g>
<g>
</g>
<g>
</g>
<g>
</g>
<g>
</g>
<g>
</g>
<g>
</g>
<g>
</g>
<g>
</g>
<g>
</g>
</svg>
