<?xml version="1.0" encoding="iso-8859-1"?>
<!-- Generator: Adobe Illustrator 19.0.0, SVG Export Plug-In . SVG Version: 6.00 Build 0)  -->
<svg version="1.1" id="Capa_1" xmlns="http://www.w3.org/2000/svg" xmlns:xlink="http://www.w3.org/1999/xlink" x="0px" y="0px"
	 viewBox="0 0 480 480" style="enable-background:new 0 0 480 480;" xml:space="preserve">
<circle style="fill:#24DB6A;" cx="232" cy="240" r="120"/>
<path style="fill:#5358A1;" d="M352,240c-0.039-66.258-53.742-119.961-120-120v240C298.258,359.96,351.96,306.258,352,240z"/>
<g>
	<path style="fill:#FFD700;" d="M16,0h16v16H16V0z"/>
	<path style="fill:#FFD700;" d="M16,32h16v16H16V32z"/>
	<path style="fill:#FFD700;" d="M32,16h16v16H32V16z"/>
	<path style="fill:#FFD700;" d="M0,16h16v16H0V16z"/>
	<path style="fill:#FFD700;" d="M448,0h16v16h-16V0z"/>
	<path style="fill:#FFD700;" d="M448,32h16v16h-16V32z"/>
	<path style="fill:#FFD700;" d="M464,16h16v16h-16V16z"/>
	<path style="fill:#FFD700;" d="M432,16h16v16h-16V16z"/>
	<path style="fill:#FFD700;" d="M448,432h16v16h-16V432z"/>
	<path style="fill:#FFD700;" d="M448,464h16v16h-16V464z"/>
	<path style="fill:#FFD700;" d="M464,448h16v16h-16V448z"/>
	<path style="fill:#FFD700;" d="M432,448h16v16h-16V448z"/>
	<path style="fill:#FFD700;" d="M16,432h16v16H16V432z"/>
	<path style="fill:#FFD700;" d="M16,464h16v16H16V464z"/>
	<path style="fill:#FFD700;" d="M32,448h16v16H32V448z"/>
	<path style="fill:#FFD700;" d="M0,448h16v16H0V448z"/>
</g>
<g>
	<path style="fill:#37C2E2;" d="M369.93,373.562l-11.5-11.125c64.656-66.762,66.258-172.291,3.656-240.984l11.828-10.782
		C442.202,185.61,440.458,300.728,369.93,373.562L369.93,373.562z"/>
	<path style="fill:#37C2E2;" d="M94.07,373.562c-72.094-74.449-72.094-192.676,0-267.125l11.5,11.125
		c-66.094,68.246-66.094,176.629,0,244.875L94.07,373.562z"/>
</g>
<path style="fill:#17AFDC;" d="M335.261,392.306L224.242,410.34l-26.867-18.034H144v58.145h25.016l50.496,22.071
	c7.431,3.409,16.088,2.791,22.959-1.639l97.185-62.205c4.185-2.464,5.581-7.854,3.117-12.04
	C341.205,393.974,338.352,392.329,335.261,392.306L335.261,392.306z"/>
<g>
	<path style="fill:#0C9BBC;" d="M219.512,468.798c7.4,3.644,16.197,2.973,22.959-1.75l97.185-66.441
		c1.393-0.899,2.507-2.171,3.215-3.67c2.324,4.384,0.931,9.816-3.215,12.542l-97.185,66.441c-6.762,4.724-15.559,5.394-22.959,1.75
		l-50.497-24.683H144v-8.872h25.016L219.512,468.798z"/>
	<path style="fill:#0C9BBC;" d="M231.705,416.038L210.3,401.222l19.245,17.454c4.381,3.201,5.378,9.329,2.238,13.754
		c-2.757,4.021-8.251,5.046-12.273,2.289c-0.029-0.02-0.058-0.04-0.087-0.061l-26.002-16.193v6.123l22.703,15.715
		c6.194,4.294,14.692,2.783,19.025-3.384c4.819-6.691,3.302-16.023-3.389-20.842C231.742,416.065,231.723,416.052,231.705,416.038
		L231.705,416.038z"/>
</g>
<path style="fill:#17AFDC;" d="M294.984,29.549L244.488,7.478c-7.431-3.409-16.088-2.791-22.959,1.639l-97.185,62.205
	c-4.185,2.464-5.581,7.854-3.117,12.039c1.569,2.665,4.421,4.31,7.513,4.333L239.758,69.66l26.867,18.034H320V29.549L294.984,29.549
	z"/>
<g>
	<path style="fill:#0C9BBC;" d="M244.488,11.202c-7.4-3.644-16.197-2.973-22.959,1.75l-97.186,66.441
		c-1.393,0.899-2.507,2.17-3.215,3.67c-2.324-4.384-0.931-9.816,3.215-12.542l97.185-66.441c6.762-4.724,15.559-5.394,22.959-1.75
		l50.497,24.683H320v8.872h-25.016L244.488,11.202z"/>
	<path style="fill:#0C9BBC;" d="M230.874,63.352l21.405,14.816l-19.245-17.454c-4.382-3.201-5.379-9.329-2.238-13.754
		c2.757-4.021,8.251-5.046,12.273-2.289c0.029,0.02,0.058,0.04,0.087,0.061l26.002,16.193v-6.123l-22.703-15.715
		c-6.194-4.294-14.692-2.783-19.025,3.384c-4.819,6.691-3.302,16.023,3.389,20.842C230.837,63.326,230.855,63.339,230.874,63.352
		L230.874,63.352z"/>
</g>
<g>
	<path style="fill:#5358A1;" d="M312,16h32v80h-32V16z"/>
	<path style="fill:#5358A1;" d="M120,384h32v80h-32V384z"/>
</g>
<path style="fill:#EAEAEA;" d="M231.896,111.44c-70.692,0-128,57.308-128,128s57.308,128,128,128s128-57.308,128-128l0,0
	C359.815,168.781,302.554,111.521,231.896,111.44L231.896,111.44z M120.301,247.44h45.828c0.421,16.176,2.534,32.264,6.304,48
	h-37.383C126.533,280.776,121.488,264.356,120.301,247.44z M239.896,167.44v-38.301c11.179,4.457,22.052,17.956,29.938,38.301
	H239.896z M275.036,183.44c4.02,15.698,6.246,31.801,6.636,48h-41.776v-48H275.036z M223.896,129.139v38.301h-29.938
	C201.843,147.095,212.717,133.596,223.896,129.139L223.896,129.139z M223.896,183.44v48H182.12c0.39-16.199,2.616-32.302,6.636-48
	H223.896z M166.128,231.44h-45.828c1.187-16.916,6.232-33.336,14.749-48h37.383C168.663,199.176,166.55,215.264,166.128,231.44
	L166.128,231.44z M182.119,247.44h41.776v48h-35.14C184.735,279.742,182.509,263.639,182.119,247.44z M223.895,311.44v38.301
	c-11.179-4.457-22.052-17.956-29.938-38.301H223.895z M239.895,349.741V311.44h29.938
	C261.948,331.784,251.074,345.284,239.895,349.741L239.895,349.741z M239.895,295.44v-48h41.776c-0.39,16.199-2.616,32.302-6.636,48
	H239.895z M297.662,247.44h45.828c-1.187,16.916-6.232,33.336-14.749,48h-37.383C295.128,279.704,297.241,263.616,297.662,247.44
	L297.662,247.44z M297.662,231.44c-0.421-16.176-2.534-32.264-6.304-48h37.383c8.516,14.664,13.561,31.084,14.749,48H297.662z
	 M317.563,167.44h-30.805c-3.916-11.874-9.618-23.082-16.911-33.239C288.394,140.9,304.851,152.364,317.563,167.44L317.563,167.44z
	 M193.944,134.201c-7.292,10.156-12.995,21.365-16.911,33.239h-30.805C158.94,152.364,175.397,140.9,193.944,134.201z
	 M146.228,311.44h30.805c3.916,11.874,9.618,23.082,16.911,33.239C175.397,337.98,158.94,326.516,146.228,311.44z M269.847,344.679
	c7.292-10.156,12.995-21.365,16.911-33.239h30.805C304.851,326.516,288.394,337.98,269.847,344.679L269.847,344.679z"/>
<g>
</g>
<g>
</g>
<g>
</g>
<g>
</g>
<g>
</g>
<g>
</g>
<g>
</g>
<g>
</g>
<g>
</g>
<g>
</g>
<g>
</g>
<g>
</g>
<g>
</g>
<g>
</g>
<g>
</g>
</svg>
