<?xml version="1.0" encoding="iso-8859-1"?>
<!-- Generator: Adobe Illustrator 19.0.0, SVG Export Plug-In . SVG Version: 6.00 Build 0)  -->
<svg version="1.1" id="Capa_1" xmlns="http://www.w3.org/2000/svg" xmlns:xlink="http://www.w3.org/1999/xlink" x="0px" y="0px"
	 viewBox="0 0 480 480" style="enable-background:new 0 0 480 480;" xml:space="preserve">
<g>
	<path style="fill:#333333;" d="M233,0h15v55h-15V0z"/>
	<path style="fill:#333333;" d="M31.202,78.394L40.798,65.6l46.547,34.914l-9.597,12.795L31.202,78.394z"/>
	<path style="fill:#333333;" d="M392.823,107.384l42.935-37.429l10.516,12.063l-42.935,37.429L392.823,107.384z"/>
	<path style="fill:#333333;" d="M323.39,70.419l24-48l14.313,7.156l-24,48L323.39,70.419z"/>
	<path style="fill:#333333;" d="M114.388,23.581l14.313-7.156l24,48l-14.313,7.156L114.388,23.581z"/>
</g>
<path style="fill:#A2C3FC;" d="M234.617,48C136.13,48,68.891,94.242,22.544,168c46.347,73.758,121.44,120,219.927,120
	s165.726-46.242,212.073-120C408.197,94.242,333.104,48,234.617,48L234.617,48z"/>
<circle style="fill:#17AFDC;" cx="240" cy="168" r="104"/>
<circle style="fill:#5358A1;" cx="240" cy="312" r="152"/>
<path style="fill:#24DB6A;" d="M88,312c0,83.947,68.053,152,152,152V160C156.053,160,88,228.053,88,312z"/>
<circle style="fill:#546BEF;" cx="288" cy="112" r="24"/>
<g>
	<path style="fill:#FFD700;" d="M16,432h16v16H16V432z"/>
	<path style="fill:#FFD700;" d="M16,464h16v16H16V464z"/>
	<path style="fill:#FFD700;" d="M32,448h16v16H32V448z"/>
	<path style="fill:#FFD700;" d="M0,448h16v16H0V448z"/>
	<path style="fill:#FFD700;" d="M448,432h16v16h-16V432z"/>
	<path style="fill:#FFD700;" d="M448,464h16v16h-16V464z"/>
	<path style="fill:#FFD700;" d="M464,448h16v16h-16V448z"/>
	<path style="fill:#FFD700;" d="M432,448h16v16h-16V448z"/>
</g>
<path style="fill:#EAE5E5;" d="M241,150c-88.366,0-160,71.634-160,160s71.634,160,160,160s160-71.634,160-160
	C400.902,221.675,329.325,150.098,241,150z M233,213.909c-15.034-0.18-29.783-0.864-44.069-2.035
	c11.466-24.274,26.945-40.883,44.069-44.874V213.909z M233,229.908V302h-63.79c0.542-25.408,5.033-50.577,13.312-74.604
	C198.82,228.872,215.746,229.706,233,229.908L233,229.908z M233,318v72.092c-17.254,0.202-34.18,1.037-50.478,2.512
	c-8.279-24.027-12.77-49.196-13.312-74.604L233,318z M233,406.091v46.91c-17.124-3.991-32.603-20.6-44.069-44.874
	C203.217,406.955,217.966,406.272,233,406.091z M249,406.091c15.034,0.18,29.783,0.864,44.069,2.035
	c-11.466,24.274-26.945,40.883-44.069,44.874V406.091z M249,390.092V318h63.79c-0.542,25.408-5.033,50.577-13.312,74.604
	C283.18,391.128,266.254,390.294,249,390.092z M249,302v-72.092c17.254-0.202,34.18-1.037,50.478-2.512
	c8.279,24.027,12.77,49.196,13.312,74.604L249,302z M249,213.909v-46.91c17.124,3.991,32.603,20.6,44.069,44.874
	C278.783,213.045,264.034,213.728,249,213.909z M287.767,173.95c19.597,6.762,37.504,17.675,52.497,31.993
	c-9.642,1.692-19.708,3.107-30.074,4.274C304.679,197.02,297.111,184.779,287.767,173.95z M171.811,210.218
	c-10.366-1.167-20.432-2.582-30.074-4.274c14.993-14.318,32.899-25.231,52.497-31.993
	C184.89,184.779,177.322,197.02,171.811,210.218z M165.939,225.673c-7.979,24.677-12.266,50.397-12.724,76.327h-55.81
	c1.612-30.032,12.64-58.794,31.519-82.206C140.679,222.141,153.038,224.124,165.939,225.673L165.939,225.673z M153.215,318
	c0.458,25.93,4.746,51.651,12.724,76.327c-12.901,1.548-25.26,3.532-37.015,5.878C110.045,376.794,99.017,348.032,97.405,318
	H153.215z M171.811,409.782c5.511,13.198,13.079,25.439,22.422,36.268c-19.597-6.762-37.504-17.675-52.497-31.993
	C151.378,412.364,161.444,410.95,171.811,409.782L171.811,409.782z M310.189,409.782c10.366,1.167,20.432,2.582,30.074,4.274
	c-14.993,14.318-32.899,25.231-52.497,31.993C297.11,435.221,304.678,422.98,310.189,409.782L310.189,409.782z M316.061,394.327
	c7.979-24.677,12.266-50.397,12.724-76.327h55.81c-1.612,30.032-12.64,58.794-31.519,82.206
	C341.32,397.859,328.962,395.876,316.061,394.327L316.061,394.327z M328.785,302c-0.458-25.93-4.746-51.651-12.724-76.327
	c12.901-1.548,25.26-3.532,37.015-5.878c18.879,23.412,29.907,52.174,31.519,82.206H328.785z"/>
<g>
</g>
<g>
</g>
<g>
</g>
<g>
</g>
<g>
</g>
<g>
</g>
<g>
</g>
<g>
</g>
<g>
</g>
<g>
</g>
<g>
</g>
<g>
</g>
<g>
</g>
<g>
</g>
<g>
</g>
</svg>
