<?xml version="1.0" encoding="iso-8859-1"?>
<!-- Generator: Adobe Illustrator 19.0.0, SVG Export Plug-In . SVG Version: 6.00 Build 0)  -->
<svg version="1.1" id="Capa_1" xmlns="http://www.w3.org/2000/svg" xmlns:xlink="http://www.w3.org/1999/xlink" x="0px" y="0px"
	 viewBox="0 0 480 480" style="enable-background:new 0 0 480 480;" xml:space="preserve">
<path style="fill:#8FBAF9;" d="M476,12.8L456.364,0l-42.423,67.405c-0.766-0.468-1.555-0.896-2.365-1.284
	c10.084-8.602,11.285-23.751,2.683-33.835s-23.751-11.285-33.835-2.683s-11.285,23.751-2.683,33.835
	c0.822,0.964,1.719,1.861,2.683,2.683c-0.81,0.387-1.599,0.816-2.365,1.284L335.636,0L316,12.8l48,76.521V248h64l-0.16-158.679
	L476,12.8z"/>
<g>
	<path style="fill:#F4393D;" d="M100,280h16v16h-16V280z"/>
	<path style="fill:#F4393D;" d="M100,312h16v16h-16V312z"/>
	<path style="fill:#F4393D;" d="M116,296h16v16h-16V296z"/>
	<path style="fill:#F4393D;" d="M84,296h16v16H84V296z"/>
	<path style="fill:#F4393D;" d="M204,0h16v16h-16V0z"/>
	<path style="fill:#F4393D;" d="M204,32h16v16h-16V32z"/>
	<path style="fill:#F4393D;" d="M220,16h16v16h-16V16z"/>
	<path style="fill:#F4393D;" d="M188,16h16v16h-16V16z"/>
</g>
<path style="fill:#24DB6A;" d="M44,440h64v40H44V440z"/>
<path style="fill:#FF7F00;" d="M268,384h64v96h-64V384z"/>
<path style="fill:#F4393D;" d="M380,352h64v128h-64V352z"/>
<path style="fill:#FCCC38;" d="M156,416h64v64h-64V416z"/>
<path style="fill:#7F95B5;" d="M388,160h16v88h-16V160z"/>
<path style="fill:#17AFDC;" d="M396,272h-64l12.008,21.014C267.835,329.577,109.061,372,20,372v16
	c91.38,0,254.459-43.626,331.971-81.051L368.571,336L396,272z"/>
<g>
	<path style="fill:#FCCC38;" d="M60,0l13.216,42.784H116L81.392,69.216L94.608,112L60,85.56L25.392,112l13.216-42.784L4,42.784
		h42.784L60,0z"/>
	<path style="fill:#FCCC38;" d="M204,120l13.216,42.784H260l-34.608,26.432L238.608,232L204,205.56L169.392,232l13.216-42.784
		L148,162.784h42.784L204,120z"/>
</g>
<g>
	<path style="fill:#17AFDC;" d="M324,112h16v16h-16V112z"/>
	<path style="fill:#17AFDC;" d="M324,144h16v16h-16V144z"/>
	<path style="fill:#17AFDC;" d="M452,112h16v16h-16V112z"/>
	<path style="fill:#17AFDC;" d="M452,144h16v16h-16V144z"/>
</g>
<g>
</g>
<g>
</g>
<g>
</g>
<g>
</g>
<g>
</g>
<g>
</g>
<g>
</g>
<g>
</g>
<g>
</g>
<g>
</g>
<g>
</g>
<g>
</g>
<g>
</g>
<g>
</g>
<g>
</g>
</svg>
