<?xml version="1.0" encoding="iso-8859-1"?>
<!-- Generator: Adobe Illustrator 19.0.0, SVG Export Plug-In . SVG Version: 6.00 Build 0)  -->
<svg version="1.1" id="Capa_1" xmlns="http://www.w3.org/2000/svg" xmlns:xlink="http://www.w3.org/1999/xlink" x="0px" y="0px"
	 viewBox="0 0 480.178 480.178" style="enable-background:new 0 0 480.178 480.178;" xml:space="preserve">
<path style="fill:#24DB6A;" d="M91.816,56.178h-6.763C98.406,44.6,99.844,24.39,88.266,11.037S56.478-3.754,43.125,7.824
	s-14.791,31.789-3.213,45.141c0.994,1.146,2.067,2.22,3.213,3.213h-6.762C11.911,56.178,0.089,76,0.089,100.452v75.727h24v120h80
	v-120h24v-75.727C128.089,76,116.267,56.178,91.816,56.178z"/>
<g>
	<path style="fill:#0E8E35;" d="M96.089,88.178h8v88h-8V88.178z"/>
	<path style="fill:#0E8E35;" d="M24.089,88.178h8v88h-8V88.178z"/>
	<path style="fill:#0E8E35;" d="M56.089,168.178h16v128h-16V168.178z"/>
</g>
<path style="fill:#FF5C64;" d="M315.816,56.178h-6.763c13.353-11.578,14.791-31.789,3.213-45.141s-31.789-14.791-45.141-3.213
	s-14.791,31.789-3.213,45.141c0.994,1.146,2.067,2.22,3.213,3.213h-6.763c-24.451,0-36.273,19.822-36.273,44.273v75.727h24v120h80
	v-120h24v-75.727C352.089,76,340.267,56.178,315.816,56.178z"/>
<g>
	<path style="fill:#F4393D;" d="M248.089,88.178h8v88h-8V88.178z"/>
	<path style="fill:#F4393D;" d="M320.089,88.178h8v88h-8V88.178z"/>
	<path style="fill:#F4393D;" d="M280.089,168.178h16v128h-16V168.178z"/>
</g>
<path style="fill:#ACC8F9;" d="M240.089,152.178h-176v320h240v-256L240.089,152.178z"/>
<g>
	<path style="fill:#5358A1;" d="M264.089,376.178l-32,16l-8,48l48-8l16-32L264.089,376.178z"/>
	<path style="fill:#5358A1;" d="M240.089,152.178v64h64L240.089,152.178z"/>
</g>
<path style="fill:#17AFDC;" d="M416.089,216.178l-152,160l24,24l152-160L416.089,216.178z"/>
<g>
	<path style="fill:#3F3F3F;" d="M261.745,413.834l-11.312-11.312l-24.08,24.08l-2.264,13.576l13.576-2.264L261.745,413.834z"/>
	<path style="fill:#3F3F3F;" d="M104.089,184.178h96v16h-96V184.178z"/>
	<path style="fill:#3F3F3F;" d="M88.089,224.178h72v16h-72V224.178z"/>
	<path style="fill:#3F3F3F;" d="M176.089,224.178h40v16h-40V224.178z"/>
	<path style="fill:#3F3F3F;" d="M88.089,264.178h88v16h-88V264.178z"/>
	<path style="fill:#3F3F3F;" d="M192.089,264.178h88v16h-88V264.178z"/>
	<path style="fill:#3F3F3F;" d="M88.089,304.178h56v16h-56V304.178z"/>
	<path style="fill:#3F3F3F;" d="M160.089,304.178h120v16h-120V304.178z"/>
	<path style="fill:#3F3F3F;" d="M88.089,344.178h48v16h-48V344.178z"/>
	<path style="fill:#3F3F3F;" d="M152.089,344.178h103v16h-103V344.178z"/>
	<path style="fill:#3F3F3F;" d="M88.089,384.178h44.332v16H88.089V384.178z"/>
	<path style="fill:#3F3F3F;" d="M145.089,384.178h63v16h-63V384.178z"/>
	<path style="fill:#3F3F3F;" d="M88.089,424.178h63v16h-63V424.178z"/>
</g>
<g>
	<path style="fill:#FFD700;" d="M448.089,432.178h16v16h-16V432.178z"/>
	<path style="fill:#FFD700;" d="M448.089,464.178h16v16h-16V464.178z"/>
	<path style="fill:#FFD700;" d="M464.089,448.178h16v16h-16V448.178z"/>
	<path style="fill:#FFD700;" d="M432.089,448.178h16v16h-16V448.178z"/>
	<path style="fill:#FFD700;" d="M448.089,0.178h16v16h-16V0.178z"/>
	<path style="fill:#FFD700;" d="M448.089,32.178h16v16h-16V32.178z"/>
	<path style="fill:#FFD700;" d="M464.089,16.178h16v16h-16V16.178z"/>
	<path style="fill:#FFD700;" d="M432.089,16.178h16v16h-16V16.178z"/>
</g>
<g>
</g>
<g>
</g>
<g>
</g>
<g>
</g>
<g>
</g>
<g>
</g>
<g>
</g>
<g>
</g>
<g>
</g>
<g>
</g>
<g>
</g>
<g>
</g>
<g>
</g>
<g>
</g>
<g>
</g>
</svg>
