<?xml version="1.0" encoding="iso-8859-1"?>
<!-- Generator: Adobe Illustrator 19.0.0, SVG Export Plug-In . SVG Version: 6.00 Build 0)  -->
<svg version="1.1" id="Capa_1" xmlns="http://www.w3.org/2000/svg" xmlns:xlink="http://www.w3.org/1999/xlink" x="0px" y="0px"
	 viewBox="0 0 480 480" style="enable-background:new 0 0 480 480;" xml:space="preserve">
<path style="fill:#62AEF9;" d="M0,198.564C0,88.9,85.961,0,192,0s192,88.9,192,198.564l64,99.367h-72v124.138H208V480H0V198.564z"/>
<path style="fill:#068FFF;" d="M200,0.209C197.344,0.096,194.683,0,192,0C85.961,0,0,88.9,0,198.563V480h16V198.563
	C16,91.675,97.676,4.551,200,0.209z"/>
<circle style="fill:#FCCC38;" cx="208" cy="192" r="144"/>
<path style="fill:#F4393D;" d="M288,160h4c15.464,0,28,12.536,28,28v8c0,15.464-12.536,28-28,28h-40c-15.464,0-28-12.536-28-28v-8
	c0-15.464,12.536-28,28-28h20"/>
<path style="fill:#17AFDC;" d="M128,224h-4c-15.464,0-28-12.536-28-28v-8c0-15.464,12.536-28,28-28h40c15.464,0,28,12.536,28,28v8
	c0,15.464-12.536,28-28,28h-20"/>
<path style="fill:#A09898;" d="M292,152h-4v16h4c11.041,0.012,19.988,8.959,20,20v8c-0.012,11.041-8.959,19.988-20,20h-40
	c-9.5-0.012-17.684-6.695-19.596-16H264v-16h-31.596c1.911-9.305,10.096-15.988,19.596-16h20v-16h-20
	c-18.279,0.057-33.6,13.831-35.596,32h-16.809c-1.996-18.169-17.317-31.943-35.596-32h-40c-19.873,0.022-35.978,16.127-36,36v8
	c0.022,19.873,16.127,35.978,36,36h4v-16h-4c-11.041-0.012-19.988-8.959-20-20v-8c0.012-11.041,8.959-19.988,20-20h40
	c9.5,0.012,17.684,6.695,19.596,16H152v16h31.596c-1.911,9.305-10.096,15.988-19.596,16h-20v16h20
	c18.279-0.057,33.6-13.831,35.596-32h16.809c1.996,18.169,17.317,31.943,35.596,32h40c19.873-0.022,35.978-16.127,36-36v-8
	C327.978,168.127,311.873,152.022,292,152z"/>
<g>
	<path style="fill:#FFD700;" d="M448,0h16v16h-16V0z"/>
	<path style="fill:#FFD700;" d="M448,32h16v16h-16V32z"/>
	<path style="fill:#FFD700;" d="M464,16h16v16h-16V16z"/>
	<path style="fill:#FFD700;" d="M432,16h16v16h-16V16z"/>
</g>
<g>
</g>
<g>
</g>
<g>
</g>
<g>
</g>
<g>
</g>
<g>
</g>
<g>
</g>
<g>
</g>
<g>
</g>
<g>
</g>
<g>
</g>
<g>
</g>
<g>
</g>
<g>
</g>
<g>
</g>
</svg>
