<?xml version="1.0" encoding="iso-8859-1"?>
<!-- Generator: Adobe Illustrator 19.0.0, SVG Export Plug-In . SVG Version: 6.00 Build 0)  -->
<svg version="1.1" id="Capa_1" xmlns="http://www.w3.org/2000/svg" xmlns:xlink="http://www.w3.org/1999/xlink" x="0px" y="0px"
	 viewBox="0 0 480 480" style="enable-background:new 0 0 480 480;" xml:space="preserve">
<path style="fill:#FFD700;" d="M400,0h80v80h-80V0z"/>
<path style="fill:#17AFDC;" d="M432,400l-48,80h96L432,400z"/>
<circle style="fill:#24DB6A;" cx="440" cy="240" r="40"/>
<g>
	<path style="fill:#F4393D;" d="M368,240l-64.216-40L304,224H184v32h120v24L368,240z"/>
	<path style="fill:#F4393D;" d="M288,48l16,24c-31.298,20.866-68.073,32-105.689,32H184v32h26.941
		c39.712,0,78.431-12.408,110.745-35.49L344,120l16-72H288z"/>
	<path style="fill:#F4393D;" d="M288,432l16-24c-31.298-20.866-68.073-32-105.689-32H184v-32h26.941
		c39.712,0,78.431,12.408,110.745,35.49L344,360l16,72H288z"/>
</g>
<g>
	<path style="fill:#7A7A7A;" d="M48,0h40v16H48V0z"/>
	<path style="fill:#7A7A7A;" d="M16,32H0V8c0-4.418,3.582-8,8-8h24v16H16V32z"/>
	<path style="fill:#7A7A7A;" d="M0,48h16v40H0V48z"/>
	<path style="fill:#7A7A7A;" d="M0,392h16v40H0V392z"/>
	<path style="fill:#7A7A7A;" d="M32,480H8c-4.418,0-8-3.582-8-8v-24h16v16h16V480z"/>
	<path style="fill:#7A7A7A;" d="M48,464h40v16H48V464z"/>
</g>
<path style="fill:#7DAFFF;" d="M107.727,152h-6.763c13.353-11.578,14.791-31.789,3.213-45.141s-31.789-14.791-45.141-3.213
	s-14.791,31.789-3.213,45.141c0.994,1.146,2.067,2.22,3.213,3.213h-6.762C27.822,152,16,171.822,16,196.273V272h24v120h80V272h24
	v-75.727C144,171.822,132.178,152,107.727,152z"/>
<g>
	<path style="fill:#6589FC;" d="M112,184h8v88h-8V184z"/>
	<path style="fill:#6589FC;" d="M40,184h8v88h-8V184z"/>
	<path style="fill:#6589FC;" d="M72,264h16v128H72V264z"/>
</g>
<g>
</g>
<g>
</g>
<g>
</g>
<g>
</g>
<g>
</g>
<g>
</g>
<g>
</g>
<g>
</g>
<g>
</g>
<g>
</g>
<g>
</g>
<g>
</g>
<g>
</g>
<g>
</g>
<g>
</g>
</svg>
