<?xml version="1.0" encoding="iso-8859-1"?>
<!-- Generator: Adobe Illustrator 19.0.0, SVG Export Plug-In . SVG Version: 6.00 Build 0)  -->
<svg version="1.1" id="Capa_1" xmlns="http://www.w3.org/2000/svg" xmlns:xlink="http://www.w3.org/1999/xlink" x="0px" y="0px"
	 viewBox="0 0 482.005 482.005" style="enable-background:new 0 0 482.005 482.005;" xml:space="preserve">
<path style="fill:#92B9FF;" d="M376.245,258.005c39.344,0,72.762,29.91,72.762,66.807v39.298l32,43.228h-32v51.088h-64v23.579h-80
	V324.812C306.27,286.71,338.14,256.821,376.245,258.005z"/>
<path style="fill:#FF5767;" d="M72.244,250.005c39.075-0.664,71.461,30.134,72.762,69.193V359.9l32,44.772h-32v52.912h-64v24.421
	h-80V319.198C1.579,280.423,33.469,249.449,72.244,250.005z"/>
<path style="fill:#92B9FF;" d="M481.007,88.005c-0.028-13.579-8.648-25.652-21.482-30.087c9.947-14.543,6.221-34.396-8.322-44.343
	c-11.923-8.155-27.838-7.281-38.797,2.13c-8.869-15.132-28.325-20.21-43.458-11.341c-4.688,2.748-8.593,6.653-11.341,11.341
	c-13.434-11.419-33.582-9.785-45.001,3.649c-9.283,10.922-10.149,26.692-2.118,38.564c-16.617,5.704-25.463,23.798-19.759,40.415
	c3.186,9.282,10.478,16.573,19.759,19.759c-9.947,14.543-6.222,34.396,8.32,44.343c11.923,8.156,27.839,7.282,38.798-2.131
	c8.868,15.132,28.324,20.21,43.457,11.342c4.689-2.748,8.594-6.653,11.342-11.342c13.434,11.419,33.581,9.786,45-3.648
	c9.284-10.922,10.15-26.692,2.118-38.565C472.359,113.657,480.979,101.584,481.007,88.005z"/>
<path style="fill:#FC7077;" d="M193.006,88.005c-0.028-13.579-8.648-25.652-21.482-30.087c9.947-14.543,6.222-34.396-8.321-44.343
	c-11.923-8.155-27.838-7.281-38.797,2.13C115.537,0.573,96.081-4.505,80.948,4.364c-4.688,2.748-8.593,6.653-11.341,11.341
	C56.173,4.286,36.025,5.92,24.606,19.354c-9.283,10.922-10.149,26.692-2.118,38.564C5.872,63.622-2.974,81.716,2.73,98.333
	c3.186,9.282,10.478,16.573,19.759,19.759c-9.948,14.542-6.223,34.395,8.319,44.343c11.924,8.157,27.841,7.282,38.799-2.131
	c8.868,15.132,28.324,20.21,43.456,11.342c4.689-2.748,8.594-6.653,11.342-11.342c13.434,11.419,33.581,9.786,45-3.648
	c9.283-10.922,10.15-26.692,2.118-38.564C184.358,113.657,192.979,101.584,193.006,88.005L193.006,88.005z"/>
<path style="fill:#FF3145;" d="M33.007,136.005c-0.01-6.386,1.9-12.627,5.482-17.913c-16.617-5.704-25.463-23.798-19.759-40.415
	c3.186-9.282,10.478-16.573,19.759-19.759c-9.874-14.585-6.055-34.414,8.531-44.288c3.025-2.048,6.379-3.56,9.916-4.472
	c-2.581-0.729-5.247-1.117-7.93-1.153c-17.674,0.001-32.001,14.329-32,32.003c0,6.383,1.91,12.621,5.482,17.91
	C5.872,63.622-2.974,81.716,2.73,98.333c3.186,9.282,10.478,16.573,19.759,19.759c-9.892,14.646-6.039,34.538,8.607,44.431
	c5.29,3.573,11.527,5.482,17.91,5.482c2.682-0.036,5.348-0.424,7.93-1.153C42.87,163.213,33.035,150.535,33.007,136.005z"/>
<g>
	<path style="fill:#086AF9;" d="M321.007,136.005c-0.01-6.386,1.9-12.627,5.482-17.913c-16.617-5.704-25.463-23.798-19.759-40.415
		c3.186-9.282,10.478-16.573,19.759-19.759c-9.874-14.585-6.055-34.413,8.531-44.287c3.025-2.048,6.379-3.561,9.916-4.473
		c-2.581-0.729-5.247-1.117-7.929-1.153c-17.674,0.001-32.001,14.329-32,32.003c0,6.383,1.91,12.621,5.482,17.91
		c-16.617,5.704-25.463,23.798-19.759,40.415c3.186,9.282,10.478,16.573,19.759,19.759c-9.892,14.646-6.039,34.538,8.607,44.431
		c5.29,3.573,11.527,5.482,17.91,5.482c2.682-0.036,5.348-0.424,7.929-1.153C330.87,163.213,321.035,150.535,321.007,136.005z"/>
	<path style="fill:#086AF9;" d="M384.256,258.451c-2.661-0.288-5.335-0.436-8.011-0.446h-0.001
		c-38.105-1.184-69.975,28.704-71.238,66.807v157.193h16V324.812C322.01,289.768,349.302,261.134,384.256,258.451L384.256,258.451z"
		/>
</g>
<path style="fill:#F4393D;" d="M80.256,250.467c-2.66-0.298-5.334-0.452-8.011-0.462h0c-38.776-0.556-70.665,30.418-71.238,69.193
	v162.807h16.001V319.198C17.465,283.505,44.724,253.883,80.256,250.467z"/>
<path style="fill:#4C4C4A;" d="M89.007,336.005h40v16h-40V336.005z"/>
<path style="fill:#FCCC38;" d="M81.007,264.005c-26.51,0-48,21.49-48,48h96C129.007,285.495,107.517,264.005,81.007,264.005z"/>
<g>
	<path style="fill:#4C4C4A;" d="M137.006,426.98c-11.839-7.922-27.286-7.922-39.125,0l-8.875-13.313
		c17.21-11.516,39.665-11.516,56.875,0L137.006,426.98z"/>
	<path style="fill:#4C4C4A;" d="M393.007,340.005h40v16h-40V340.005z"/>
</g>
<path style="fill:#FCCC38;" d="M385.007,272.005c-26.51,0-48,21.49-48,48h96C433.007,293.495,411.517,272.005,385.007,272.005z"/>
<path style="fill:#4C4C4A;" d="M421.445,436.033c-10.125-0.004-20.021-3.01-28.438-8.637l8.875-13.312
	c11.839,7.922,27.286,7.922,39.125,0l8.875,13.312C441.466,433.023,431.569,436.028,421.445,436.033L421.445,436.033z"/>
<g>
	<path style="fill:#FFD700;" d="M260.483,298.884l-12.289,10.242l15.732,18.879h-78.918v16h78.918l-15.732,18.879l12.289,10.242
		l26.668-32c2.473-2.966,2.473-7.276,0-10.242L260.483,298.884z"/>
	<path style="fill:#FFD700;" d="M250.608,235.204l12.797,9.602l24-32c2.137-2.844,2.137-6.758,0-9.602l-24-32l-12.797,9.602
		l14.399,19.199h-80v16h80L250.608,235.204z"/>
</g>
<path style="fill:#E50728;" d="M57.007,72.005h96v32h-96V72.005z"/>
<path style="fill:#086AF9;" d="M441.007,72.005h-32v-32h-32v32h-32v32h32v32h32v-32h32V72.005z"/>
<g>
	<path style="fill:#FC7077;" d="M129.006,232.005h16v16h-16V232.005z"/>
	<path style="fill:#FC7077;" d="M145.006,200.005h16v16h-16V200.005z"/>
</g>
<g>
	<path style="fill:#92B9FF;" d="M425.007,224.005h16v16h-16V224.005z"/>
	<path style="fill:#92B9FF;" d="M441.007,200.005h16v16h-16V200.005z"/>
</g>
<g>
</g>
<g>
</g>
<g>
</g>
<g>
</g>
<g>
</g>
<g>
</g>
<g>
</g>
<g>
</g>
<g>
</g>
<g>
</g>
<g>
</g>
<g>
</g>
<g>
</g>
<g>
</g>
<g>
</g>
</svg>
