<?xml version="1.0" encoding="iso-8859-1"?>
<!-- Generator: Adobe Illustrator 19.0.0, SVG Export Plug-In . SVG Version: 6.00 Build 0)  -->
<svg version="1.1" id="Capa_1" xmlns="http://www.w3.org/2000/svg" xmlns:xlink="http://www.w3.org/1999/xlink" x="0px" y="0px"
	 viewBox="0 0 480 480" style="enable-background:new 0 0 480 480;" xml:space="preserve">
<g>
	<path style="fill:#FCCC38;" d="M464,180.366h-8.109c6.771-5.063,9.687-13.799,7.315-21.914
		c-1.884-6.685-7.128-11.897-13.823-13.742c-10.763-2.877-21.821,3.515-24.698,14.278c-2.132,7.974,0.809,16.442,7.425,21.378H424
		c-8.881,0.045-16.045,7.281-16,16.162v48.487h16V304h40v-58.985h16v-48.487C480.045,187.647,472.881,180.411,464,180.366
		L464,180.366z"/>
	<path style="fill:#FCCC38;" d="M56,178.548h-8.109c6.699-4.615,9.655-13.027,7.315-20.818c-2.009-6.469-7.25-11.419-13.823-13.055
		c-10.55-3.043-21.569,3.042-24.612,13.592c-0.463,1.604-0.721,3.259-0.77,4.927c0.048,6.132,3.073,11.857,8.109,15.354H16
		c-8.657-0.175-15.818,6.698-16,15.354v46.063h16V304h40v-64.036h16v-46.063C71.818,185.245,64.657,178.373,56,178.548L56,178.548z"
		/>
</g>
<g>
	<path style="fill:#F4393D;" d="M120.236,8.569C111.278-1.784,95.623-2.914,85.271,6.044c-0.901,0.78-1.745,1.624-2.525,2.525L64,24
		L45.255,8.569C36.297-1.784,20.642-2.914,10.29,6.044c-0.901,0.78-1.745,1.624-2.525,2.525c-10.353,11.848-10.353,29.524,0,41.372
		L64,112l56.236-62.059C130.588,38.093,130.588,20.417,120.236,8.569z"/>
	<path style="fill:#F4393D;" d="M475.3,12.595c-6.871-11.991-22.162-16.142-34.153-9.271c-2.41,1.381-4.574,3.154-6.402,5.246
		l-18.092,14.894c-0.379,0.312-0.927,0.312-1.306,0L397.255,8.569c-9.094-10.407-24.903-11.47-35.309-2.376
		c-2.092,1.828-3.864,3.991-5.246,6.402c-7.355,12.513-5.53,28.385,4.474,38.902l54.065,59.664c0.381,0.421,1.031,0.453,1.452,0.071
		c0.025-0.023,0.049-0.046,0.071-0.071l54.065-59.664C480.83,40.98,482.655,25.108,475.3,12.595z"/>
</g>
<g>
	<path style="fill:#848484;" d="M476.797,361.602l-32-24c-2.842-2.133-6.751-2.133-9.594,0l-32,24l9.594,12.797L432,359.999V424h-96
		v16h104c4.417,0.001,7.999-3.579,8-7.996c0-0.001,0-0.003,0-0.004v-72.001l19.203,14.399L476.797,361.602z"/>
	<path style="fill:#848484;" d="M48,424v-64.001l19.203,14.399l9.594-12.797l-32-24c-2.842-2.133-6.751-2.133-9.594,0l-32,24
		l9.594,12.797L32,359.999V432c-0.001,4.417,3.579,7.999,7.996,8c0.001,0,0.003,0,0.004,0h104v-16H48z"/>
	<path style="fill:#848484;" d="M160,424h16v16h-16V424z"/>
	<path style="fill:#848484;" d="M304,424h16v16h-16V424z"/>
</g>
<path style="fill:#7DAFFF;" d="M267.727,240h-6.763c13.353-11.578,14.791-31.789,3.213-45.141
	c-11.578-13.353-31.789-14.791-45.141-3.213c-13.353,11.578-14.791,31.789-3.213,45.141c0.994,1.146,2.067,2.22,3.213,3.213h-6.763
	C187.822,240,176,259.822,176,284.274V360h24v120h80V360h24v-75.727C304,259.822,292.178,240,267.727,240z"/>
<g>
	<path style="fill:#6589FC;" d="M272,272h8v88h-8V272z"/>
	<path style="fill:#6589FC;" d="M200,272h8v88h-8V272z"/>
	<path style="fill:#6589FC;" d="M232,352h16v128h-16V352z"/>
</g>
<g>
	<path style="fill:#F47A7A;" d="M377.79,16.731c3.984-3.593,8.916-5.967,14.21-6.84c-8.528-3.389-18.191-2.244-25.691,3.045
		c-6.475,4.275-8.259,12.99-3.985,19.465c1.045,1.584,2.401,2.939,3.985,3.985L370.985,40
		C368.559,31.58,371.21,22.517,377.79,16.731z"/>
	<path style="fill:#F47A7A;" d="M25.79,16.731c3.984-3.593,8.916-5.967,14.21-6.84c-8.528-3.389-18.191-2.244-25.691,3.045
		C7.834,17.21,6.05,25.925,10.325,32.4c1.045,1.584,2.401,2.939,3.985,3.985L18.985,40C16.559,31.581,19.21,22.517,25.79,16.731z"/>
</g>
<g>
</g>
<g>
</g>
<g>
</g>
<g>
</g>
<g>
</g>
<g>
</g>
<g>
</g>
<g>
</g>
<g>
</g>
<g>
</g>
<g>
</g>
<g>
</g>
<g>
</g>
<g>
</g>
<g>
</g>
</svg>
