<?xml version="1.0" encoding="iso-8859-1"?>
<!-- Generator: Adobe Illustrator 19.0.0, SVG Export Plug-In . SVG Version: 6.00 Build 0)  -->
<svg version="1.1" id="Capa_1" xmlns="http://www.w3.org/2000/svg" xmlns:xlink="http://www.w3.org/1999/xlink" x="0px" y="0px"
	 viewBox="0 0 482.297 482.297" style="enable-background:new 0 0 482.297 482.297;" xml:space="preserve">
<path style="fill:#FFE843;" d="M25.148,256c0-30.928,25.072-56,56-56s56,25.072,56,56"/>
<path style="fill:#F9B800;" d="M57.148,256c0-13.255,10.745-24,24-24s24,10.745,24,24"/>
<g>
	<path style="fill:#B1BAC9;" d="M481.148,256h-192l16,72l40,16l40,56l-24,80h120V256z"/>
	<path style="fill:#B1BAC9;" d="M121.148,480l-16-80l32-56l40-16l16-72h-192v224H121.148z"/>
</g>
<g>
	<path style="fill:#9E9E9E;" d="M199.391,250.992c-1.52-1.891-3.816-2.991-6.242-2.992h-192v16h182.023l-12.914,58.141
		l-32.745,13.096l-28.787-14.393l-7.156,14.312l24.437,12.218l-27.804,48.657c-0.962,1.676-1.281,3.645-0.898,5.539l16,80
		l15.688-3.141l-15.414-77.062l29.133-50.977l37.406-14.961c2.453-0.986,4.265-3.115,4.844-5.695l16-72
		C201.483,255.365,200.906,252.887,199.391,250.992L199.391,250.992z"/>
	<path style="fill:#9E9E9E;" d="M368.812,482.297l-15.328-4.594l22.875-76.242L340,350.555l-37.82-15.125
		c-2.453-0.986-4.265-3.115-4.844-5.695l-16-72c-0.958-4.313,1.761-8.586,6.073-9.544c0.571-0.127,1.154-0.191,1.739-0.19h192v16
		H299.125l12.914,58.141l36.078,14.43c1.422,0.569,2.65,1.534,3.539,2.781l40,56c1.438,2.012,1.865,4.576,1.156,6.945
		L368.812,482.297z"/>
</g>
<path style="fill:#F4393D;" d="M330.245,148.986l-16,0.016l0.027,23.338c-57.134-44.856-138.018-43.028-193.066,4.365l10.453,12.109
	c49.369-42.483,121.924-44.01,173.036-3.642l-23.2,4.666l3.156,15.687l39.219-7.891c3.74-0.749,6.429-4.037,6.422-7.852
	L330.245,148.986z"/>
<g>
	<path style="fill:#9E9E9E;" d="M53.945,326.398l-9.594-12.797l32-24c1.383-1.04,3.067-1.602,4.797-1.602h32v16H83.812
		L53.945,326.398z"/>
	<path style="fill:#9E9E9E;" d="M26.75,480.797l-24-32c-1.04-1.383-1.602-3.067-1.602-4.797v-40h16v37.336l22.398,29.867
		L26.75,480.797z"/>
	<path style="fill:#9E9E9E;" d="M1.148,372h16v16h-16V372z"/>
	<path style="fill:#9E9E9E;" d="M465.148,288h16v16h-16V288z"/>
	<path style="fill:#9E9E9E;" d="M465.148,456.211h16v23.719h-16V456.211z"/>
	<path style="fill:#9E9E9E;" d="M409.992,371.578l-22.641-45.281L350.18,311.43l5.937-14.859l40,16
		c1.82,0.728,3.31,2.098,4.188,3.852l24,48L409.992,371.578z"/>
</g>
<path style="fill:#17AFDC;" d="M473.148,12.8L453.512,0l-42.423,67.405c-0.766-0.468-1.555-0.896-2.365-1.284
	c10.084-8.602,11.285-23.751,2.683-33.835s-23.751-11.285-33.835-2.683s-11.285,23.751-2.683,33.835
	c0.822,0.964,1.719,1.861,2.683,2.683c-0.81,0.387-1.599,0.816-2.365,1.284L332.785,0l-19.636,12.8l48.16,76.521L361.148,248h64
	l-0.16-158.679L473.148,12.8z"/>
<path style="fill:#078EAD;" d="M385.148,160h16v88h-16V160z"/>
<g>
</g>
<g>
</g>
<g>
</g>
<g>
</g>
<g>
</g>
<g>
</g>
<g>
</g>
<g>
</g>
<g>
</g>
<g>
</g>
<g>
</g>
<g>
</g>
<g>
</g>
<g>
</g>
<g>
</g>
</svg>
