<?xml version="1.0" encoding="iso-8859-1"?>
<!-- Generator: Adobe Illustrator 19.0.0, SVG Export Plug-In . SVG Version: 6.00 Build 0)  -->
<svg version="1.1" id="Capa_1" xmlns="http://www.w3.org/2000/svg" xmlns:xlink="http://www.w3.org/1999/xlink" x="0px" y="0px"
	 viewBox="0 0 492.184 492.184" style="enable-background:new 0 0 492.184 492.184;" xml:space="preserve">
<circle style="fill:#FFD700;" cx="62.162" cy="428.805" r="56"/>
<path style="fill:#17AFDC;" d="M374.162,148.805c-8.837,0-16,7.163-16,16v40h-24v-4c0-11.046-8.954-20-20-20s-20,8.954-20,20v4
	h-40.22c17.763-13.133,21.517-38.18,8.383-55.944c-13.133-17.763-38.18-21.517-55.944-8.383s-21.517,38.18-8.383,55.944
	c2.363,3.195,5.188,6.021,8.383,8.383h-40.22v-4c0-11.046-8.954-20-20-20s-20,8.954-20,20v4h-24v-40c0-8.837-7.163-16-16-16
	s-16,7.163-16,16v51.906c0,11.098,8.996,20.094,20.094,20.094h91.906v240h96v-240h89.025c12.689,0,22.975-10.287,22.975-22.976
	v-49.024C390.162,155.968,382.999,148.805,374.162,148.805z"/>
<path style="fill:#0A809B;" d="M222.162,340.805h16v136h-16V340.805z"/>
<path style="fill:#F4393D;" d="M30.162,12.805v64l64-32L30.162,12.805z"/>
<path style="fill:#9B9B9B;" d="M22.162,12.805h16v88h-16V12.805z"/>
<path style="fill:#F4393D;" d="M438.162,12.805l9.44,30.56h30.56l-24.72,18.88l9.44,30.56l-24.72-18.888l-24.72,18.888l9.44-30.56
	l-24.72-18.88h30.56L438.162,12.805z"/>
<g>
	<path style="fill:#FFD700;" d="M478.162,348.805h-24c0.001-4.417-3.579-7.999-7.996-8c-0.001,0-0.003,0-0.004,0h-48
		c-4.417-0.001-7.999,3.579-8,7.996c0,0.001,0,0.003,0,0.004h-24c-4.417-0.001-7.999,3.579-8,7.996c0,0.001,0,0.003,0,0.004v8
		c0.066,20.574,15.758,37.727,36.244,39.62c4.245,7.551,11.376,13.053,19.756,15.244v17.136h-8c-3.67,0.001-6.868,2.498-7.758,6.059
		l-8,32c-1.073,4.285,1.531,8.629,5.817,9.702c0.635,0.159,1.287,0.239,1.941,0.239h48c4.418-0.001,7.998-3.583,7.997-8
		c0-0.654-0.081-1.306-0.239-1.941l-8-32c-0.89-3.56-4.088-6.058-7.758-6.059h-8v-17.136c8.38-2.191,15.511-7.693,19.756-15.244
		c20.486-1.893,36.178-19.046,36.244-39.62v-8c0.001-4.417-3.579-7.999-7.996-8C478.165,348.805,478.163,348.805,478.162,348.805z
		 M374.162,364.805h16v22.629C380.58,384.033,374.174,374.972,374.162,364.805z M454.162,387.434v-22.629h16
		C470.151,374.972,463.744,384.033,454.162,387.434z"/>
	<path style="fill:#FFD700;" d="M372.147,24.012l-14.656-6.414C360.222,11.355,363.667,5.45,367.756,0l12.797,9.609
		C377.205,14.07,374.384,18.903,372.147,24.012L372.147,24.012z"/>
	<path style="fill:#FFD700;" d="M438.162,140.805c-48.578-0.055-87.945-39.422-88-88c0.002-5.907,0.59-11.799,1.758-17.59
		l15.687,3.18c-7.93,38.995,17.252,77.035,56.247,84.965c4.709,0.958,9.502,1.442,14.308,1.445
		c15.586,0.047,30.76-5.009,43.203-14.395l9.609,12.789C475.765,134.678,457.217,140.861,438.162,140.805L438.162,140.805z"/>
</g>
<g>
	<path style="fill:#95BAF9;" d="M38.162,140.805c-12.115,0.024-24.103-2.47-35.203-7.324l6.406-14.664
		c36.479,15.882,78.926-0.815,94.808-37.295c3.945-9.06,5.983-18.835,5.988-28.717c0.001-4.84-0.483-9.667-1.445-14.41l15.687-3.18
		c1.167,5.791,1.756,11.683,1.758,17.59C126.107,101.383,86.74,140.75,38.162,140.805z"/>
	<path style="fill:#95BAF9;" d="M104.178,24.012c-2.238-5.109-5.059-9.941-8.406-14.402L108.569,0
		c4.089,5.45,7.534,11.355,10.265,17.598L104.178,24.012z"/>
</g>
<g>
	<path style="fill:#FFD700;" d="M130.42,489.762l-12.563-9.914c3.533-4.468,6.55-9.322,8.992-14.469l14.453,6.852
		C138.345,478.465,134.695,484.346,130.42,489.762L130.42,489.762z"/>
	<path style="fill:#FFD700;" d="M147.537,454.707l-15.547-3.805c9.988-40.775-14.969-81.926-55.743-91.915
		c-22.727-5.567-46.753-0.357-65.132,14.126l-9.906-12.562c16.192-12.857,36.278-19.821,56.953-19.746
		c50.851,0.041,92.041,41.296,92,92.147C150.156,440.282,149.275,447.586,147.537,454.707L147.537,454.707z"/>
</g>
<g>
	<path style="fill:#95BAF9;" d="M314.045,455.66c-23.652-61.928,7.377-131.304,69.305-154.956
		c35.398-13.519,75.1-9.53,107.101,10.76l-8.578,13.5c-48.563-30.735-112.846-16.282-143.581,32.281
		c-17.536,27.708-20.986,62.061-9.31,92.703L314.045,455.66z"/>
	<path style="fill:#95BAF9;" d="M336.17,492.184c-5.284-5.979-9.958-12.471-13.953-19.379l13.859-8
		c3.459,5.982,7.504,11.605,12.078,16.785L336.17,492.184z"/>
</g>
<g>
	<path style="fill:#FFD700;" d="M326.162,140.805h16v16h-16V140.805z"/>
	<path style="fill:#FFD700;" d="M294.162,140.805h16v16h-16V140.805z"/>
	<path style="fill:#FFD700;" d="M158.162,140.805h16v16h-16V140.805z"/>
	<path style="fill:#FFD700;" d="M126.162,140.805h16v16h-16V140.805z"/>
</g>
<path style="fill:#494949;" d="M63.975,421c-7.609-1.773-9.812-2.719-9.812-4.195c0-1.414,3.039-4,8-4s8,2.586,8,4h16
	c-0.497-9.304-7.237-17.088-16.375-18.91v-8.082h-16v8.272c-8.804,2.05-15.182,9.691-15.625,18.72
	c0,14.594,13.875,17.844,22.172,19.781c7.625,1.781,9.828,2.727,9.828,4.219c0,1.414-3.039,4-8,4s-8-2.586-8-4h-16
	c0.47,9.166,7.029,16.878,16,18.814v9.186h16v-9.186c8.971-1.937,15.53-9.648,16-18.814C86.162,426.188,72.271,422.945,63.975,421
	L63.975,421z"/>
<g>
</g>
<g>
</g>
<g>
</g>
<g>
</g>
<g>
</g>
<g>
</g>
<g>
</g>
<g>
</g>
<g>
</g>
<g>
</g>
<g>
</g>
<g>
</g>
<g>
</g>
<g>
</g>
<g>
</g>
</svg>
