<?xml version="1.0" encoding="iso-8859-1"?>
<!-- Generator: Adobe Illustrator 21.0.0, SVG Export Plug-In . SVG Version: 6.00 Build 0)  -->
<svg version="1.1" id="Capa_1" xmlns="http://www.w3.org/2000/svg" xmlns:xlink="http://www.w3.org/1999/xlink" x="0px" y="0px"
	 viewBox="0 0 512 512" style="enable-background:new 0 0 512 512;" xml:space="preserve">
<path style="fill:#76E2F8;" d="M512,45.5v105l-30,30H30l-30-30v-105c0-8.401,6.599-15,15-15h482C505.401,30.5,512,37.099,512,45.5z"
	/>
<path style="fill:#25D9F8;" d="M512,45.5v105l-30,30H256v-150h241C505.401,30.5,512,37.099,512,45.5z"/>
<path style="fill:#ECECF1;" d="M512,150.5v316c0,8.401-6.599,15-15,15H15c-8.401,0-15-6.599-15-15v-316H512z"/>
<path style="fill:#E2E2E7;" d="M512,150.5v316c0,8.401-6.599,15-15,15H256v-331H512z"/>
<path style="fill:#FF7816;" d="M451,225.5v180c0,8.401-6.599,15-15,15H76c-8.401,0-15-6.599-15-15v-180c0-8.401,6.599-15,15-15h360
	C444.401,210.5,451,217.099,451,225.5z"/>
<g>
	<path style="fill:#FF4B00;" d="M451,225.5v180c0,8.401-6.599,15-15,15H256v-210h180C444.401,210.5,451,217.099,451,225.5z"/>
	<circle style="fill:#FF4B00;" cx="316.74" cy="105.5" r="15"/>
	<circle style="fill:#FF4B00;" cx="376.74" cy="105.5" r="15"/>
	<circle style="fill:#FF4B00;" cx="436.74" cy="105.5" r="15"/>
</g>
<path style="fill:#5A5A5A;" d="M226,120.5H76c-8.291,0-15-6.709-15-15s6.709-15,15-15h150c8.291,0,15,6.709,15,15
	S234.291,120.5,226,120.5z"/>
<g>
	<rect x="91" y="240.5" style="fill:#FF9F00;" width="60" height="150"/>
	<rect x="181" y="240.5" style="fill:#FF9F00;" width="240" height="30"/>
	<rect x="181" y="300.5" style="fill:#FF9F00;" width="60" height="90"/>
</g>
<g>
	<rect x="271" y="300.5" style="fill:#FF7816;" width="60" height="90"/>
	<rect x="361" y="300.5" style="fill:#FF7816;" width="60" height="90"/>
	<rect x="256" y="240.5" style="fill:#FF7816;" width="165" height="30"/>
</g>
<g>
</g>
<g>
</g>
<g>
</g>
<g>
</g>
<g>
</g>
<g>
</g>
<g>
</g>
<g>
</g>
<g>
</g>
<g>
</g>
<g>
</g>
<g>
</g>
<g>
</g>
<g>
</g>
<g>
</g>
</svg>
