<?xml version="1.0" encoding="iso-8859-1"?>
<!-- Generator: Adobe Illustrator 21.0.0, SVG Export Plug-In . SVG Version: 6.00 Build 0)  -->
<svg version="1.1" id="Capa_1" xmlns="http://www.w3.org/2000/svg" xmlns:xlink="http://www.w3.org/1999/xlink" x="0px" y="0px"
	 viewBox="0 0 512 512" style="enable-background:new 0 0 512 512;" xml:space="preserve">
<path style="fill:#ECECF1;" d="M512,391c0,66.299-54.699,121-121,121H121C54.699,512,0,457.299,0,391
	c0-57.001,41.499-105.601,96.4-117.001c9.6-35.7,30.601-67.5,60.601-90H355c30,22.5,51,54.3,60.601,90
	C470.501,285.399,512,333.999,512,391z"/>
<path style="fill:#E2E2E7;" d="M512,391c0,66.299-54.699,121-121,121H256V183.999h99c30,22.5,51,54.3,60.601,90
	C470.501,285.399,512,333.999,512,391z"/>
<polygon style="fill:#5A5A5A;" points="361,151 361,376 151,376 151,151 181,121 331,121 "/>
<polygon style="fill:#444444;" points="361,151 361,376 256,376 256,121 331,121 "/>
<rect x="181" y="151" style="fill:#ECECF1;" width="150" height="225"/>
<rect x="256" y="151" style="fill:#E2E2E7;" width="75" height="225"/>
<path style="fill:#FF7816;" d="M271,316c0,8.399-6.599,15-15,15s-15-6.601-15-15c0-8.401,6.599-15,15-15S271,307.599,271,316z"/>
<g>
	<path style="fill:#76E2F8;" d="M106,61c-8.291,0-15-6.709-15-15V15c0-8.291,6.709-15,15-15s15,6.709,15,15v31
		C121,54.291,114.291,61,106,61z"/>
	<path style="fill:#76E2F8;" d="M46,241c-8.291,0-15-6.709-15-15v-30c0-8.291,6.709-15,15-15s15,6.709,15,15v30
		C61,234.291,54.291,241,46,241z"/>
	<path style="fill:#76E2F8;" d="M106,181c-8.291,0-15-6.709-15-15v-60c0-8.291,6.709-15,15-15s15,6.709,15,15v60
		C121,174.291,114.291,181,106,181z"/>
</g>
<g>
	<path style="fill:#25D9F8;" d="M406,61c-8.291,0-15-6.709-15-15V15c0-8.291,6.709-15,15-15s15,6.709,15,15v31
		C421,54.291,414.291,61,406,61z"/>
	<path style="fill:#25D9F8;" d="M406,181c-8.291,0-15-6.709-15-15v-60c0-8.291,6.709-15,15-15s15,6.709,15,15v60
		C421,174.291,414.291,181,406,181z"/>
</g>
<path style="fill:#76E2F8;" d="M46,151c-8.291,0-15-6.709-15-15V76c0-8.291,6.709-15,15-15s15,6.709,15,15v60
	C61,144.291,54.291,151,46,151z"/>
<g>
	<path style="fill:#25D9F8;" d="M466,241c-8.291,0-15-6.709-15-15v-30c0-8.291,6.709-15,15-15s15,6.709,15,15v30
		C481,234.291,474.291,241,466,241z"/>
	<path style="fill:#25D9F8;" d="M466,151c-8.291,0-15-6.709-15-15V76c0-8.291,6.709-15,15-15s15,6.709,15,15v60
		C481,144.291,474.291,151,466,151z"/>
</g>
<path style="fill:#FF9F00;" d="M256,181c-24.901,0-45,20.099-45,45c0,24.899,20.099,45,45,45s45-20.101,45-45
	C301,201.099,280.901,181,256,181z"/>
<path style="fill:#FF7816;" d="M301,226c0,24.899-20.099,45-45,45v-90C280.901,181,301,201.099,301,226z"/>
<path style="fill:#FF4B00;" d="M256,331v-30c8.401,0,15,6.599,15,15C271,324.399,264.401,331,256,331z"/>
<path style="fill:#6E6E6E;" d="M391,376c0,8.399-6.599,15-15,15H136c-8.401,0-15-6.601-15-15c0-8.401,6.599-15,15-15h240
	C384.401,361,391,367.599,391,376z"/>
<path style="fill:#5A5A5A;" d="M391,376c0,8.399-6.599,15-15,15H256v-30h120C384.401,361,391,367.599,391,376z"/>
<path style="fill:#6E6E6E;" d="M361,106v45H151v-45c0-24.901,20.099-45,45-45h120C340.901,61,361,81.099,361,106z"/>
<path style="fill:#5A5A5A;" d="M361,106v45H256V61h60C340.901,61,361,81.099,361,106z"/>
<g>
</g>
<g>
</g>
<g>
</g>
<g>
</g>
<g>
</g>
<g>
</g>
<g>
</g>
<g>
</g>
<g>
</g>
<g>
</g>
<g>
</g>
<g>
</g>
<g>
</g>
<g>
</g>
<g>
</g>
</svg>
