<?xml version="1.0" encoding="iso-8859-1"?>
<!-- Generator: Adobe Illustrator 21.0.0, SVG Export Plug-In . SVG Version: 6.00 Build 0)  -->
<svg version="1.1" id="Capa_1" xmlns="http://www.w3.org/2000/svg" xmlns:xlink="http://www.w3.org/1999/xlink" x="0px" y="0px"
	 viewBox="0 0 512 512" style="enable-background:new 0 0 512 512;" xml:space="preserve">
<path style="fill:#76E2F8;" d="M407,136H105c-8.401,0-15,6.599-15,15v210c0,8.399,6.599,15,15,15h302c8.401,0,15-6.601,15-15V151
	C422,142.599,415.401,136,407,136z"/>
<path style="fill:#25D9F8;" d="M422,151v210c0,8.399-6.599,15-15,15H256V136h151C415.401,136,422,142.599,422,151z"/>
<path style="fill:#FF7816;" d="M45,196c-8.291,0-15-6.709-15-15v-60c0-8.291,6.709-15,15-15s15,6.709,15,15v60
	C60,189.291,53.291,196,45,196z"/>
<path style="fill:#FF4B00;" d="M467,196c-8.291,0-15-6.709-15-15v-60c0-8.291,6.709-15,15-15s15,6.709,15,15v60
	C482,189.291,475.291,196,467,196z"/>
<path style="fill:#FF7816;" d="M135,436H75c-8.291,0-15-6.709-15-15s6.709-15,15-15h60c8.291,0,15,6.709,15,15S143.291,436,135,436z
	"/>
<g>
	<path style="fill:#FF4B00;" d="M437,436h-60c-8.291,0-15-6.709-15-15s6.709-15,15-15h60c8.291,0,15,6.709,15,15
		S445.291,436,437,436z"/>
	<path style="fill:#FF4B00;" d="M437,106h-60c-8.291,0-15-6.709-15-15s6.709-15,15-15h60c8.291,0,15,6.709,15,15
		S445.291,106,437,106z"/>
</g>
<path style="fill:#FF7816;" d="M226,436h-31c-8.291,0-15-6.709-15-15s6.709-15,15-15h31c8.291,0,15,6.709,15,15S234.291,436,226,436
	z"/>
<path style="fill:#FF4B00;" d="M317,436h-31c-8.291,0-15-6.709-15-15s6.709-15,15-15h31c8.291,0,15,6.709,15,15S325.291,436,317,436
	z"/>
<g>
	<path style="fill:#FF7816;" d="M135,106H75c-8.291,0-15-6.709-15-15s6.709-15,15-15h60c8.291,0,15,6.709,15,15S143.291,106,135,106
		z"/>
	<path style="fill:#FF7816;" d="M226,106h-31c-8.291,0-15-6.709-15-15s6.709-15,15-15h31c8.291,0,15,6.709,15,15
		S234.291,106,226,106z"/>
</g>
<path style="fill:#FF4B00;" d="M317,106h-31c-8.291,0-15-6.709-15-15s6.709-15,15-15h31c8.291,0,15,6.709,15,15S325.291,106,317,106
	z"/>
<g>
	<path style="fill:#FF7816;" d="M45,406c-8.291,0-15-6.709-15-15v-60c0-8.291,6.709-15,15-15s15,6.709,15,15v60
		C60,399.291,53.291,406,45,406z"/>
	<path style="fill:#FF7816;" d="M45,286c-8.291,0-15-6.709-15-15v-30c0-8.291,6.709-15,15-15s15,6.709,15,15v30
		C60,279.291,53.291,286,45,286z"/>
</g>
<g>
	<path style="fill:#FF4B00;" d="M467,406c-8.291,0-15-6.709-15-15v-60c0-8.291,6.709-15,15-15s15,6.709,15,15v60
		C482,399.291,475.291,406,467,406z"/>
	<path style="fill:#FF4B00;" d="M467,286c-8.291,0-15-6.709-15-15v-30c0-8.291,6.709-15,15-15s15,6.709,15,15v30
		C482,279.291,475.291,286,467,286z"/>
</g>
<path style="fill:#FDBF00;" d="M75,136H15c-8.291,0-15-6.709-15-15V61c0-8.291,6.709-15,15-15h60c8.291,0,15,6.709,15,15v60
	C90,129.291,83.291,136,75,136z"/>
<path style="fill:#FF9F00;" d="M497,136h-60c-8.291,0-15-6.709-15-15V61c0-8.291,6.709-15,15-15h60c8.291,0,15,6.709,15,15v60
	C512,129.291,505.291,136,497,136z"/>
<path style="fill:#FDBF00;" d="M75,466H15c-8.291,0-15-6.709-15-15v-60c0-8.291,6.709-15,15-15h60c8.291,0,15,6.709,15,15v60
	C90,459.291,83.291,466,75,466z"/>
<path style="fill:#FF9F00;" d="M497,466h-60c-8.291,0-15-6.709-15-15v-60c0-8.291,6.709-15,15-15h60c8.291,0,15,6.709,15,15v60
	C512,459.291,505.291,466,497,466z"/>
<g>
</g>
<g>
</g>
<g>
</g>
<g>
</g>
<g>
</g>
<g>
</g>
<g>
</g>
<g>
</g>
<g>
</g>
<g>
</g>
<g>
</g>
<g>
</g>
<g>
</g>
<g>
</g>
<g>
</g>
</svg>
