<?xml version="1.0" encoding="iso-8859-1"?>
<!-- Generator: Adobe Illustrator 21.0.0, SVG Export Plug-In . SVG Version: 6.00 Build 0)  -->
<svg version="1.1" id="Capa_1" xmlns="http://www.w3.org/2000/svg" xmlns:xlink="http://www.w3.org/1999/xlink" x="0px" y="0px"
	 viewBox="0 0 511.999 511.999" style="enable-background:new 0 0 511.999 511.999;" xml:space="preserve">
<path style="fill:#FF7816;" d="M103.899,392.198c-2.699-4.499-7.8-6.599-12.9-6.599s-10.201,2.1-12.9,6.599
	c-9.6,15.901-32.1,55.201-32.1,73.801c0,24.899,20.099,46,45,46s45-21.101,45-46C135.999,447.399,113.499,408.099,103.899,392.198z"
	/>
<path style="fill:#FF4B00;" d="M135.999,465.999c0,24.899-20.099,46-45,46v-126.4c5.099,0,10.201,2.1,12.9,6.599
	C113.499,408.099,135.999,447.399,135.999,465.999z"/>
<path style="fill:#ECECF1;" d="M384.859,165.992l-73.822,73.822c-10.182-7.212-42.639,8.698-54.941,5.728
	c-11.456-2.545-22.912-2.97-34.367-1.273c-14.425,1.697-28.425,6.787-40.517,15.062c-16.758,11.242-37.335,13.999-56.427,8.06
	c-2.759-0.636,16.122-23.334,13.575-24.607L300.007,81.14L384.859,165.992z"/>
<path style="fill:#E2E2E7;" d="M384.859,165.992l-73.822,73.822c-10.182-7.212-42.639,8.698-54.941,5.728
	c-11.456-2.545-22.912-2.97-34.367-1.273l120.703-120.703L384.859,165.992z"/>
<path style="fill:#5A5A5A;" d="M406.073,187.206c-11.667,11.667-30.759,11.667-42.426,0l-84.853-84.853
	c-11.667-11.667-11.667-30.759,0-42.426s30.759-11.667,42.426,0l42.426-42.426c23.335-23.335,61.519-23.334,84.853,0
	c23.334,23.334,23.335,61.518,0,84.853l-42.426,42.426C417.74,156.446,417.74,175.539,406.073,187.206z"/>
<path style="fill:#444444;" d="M406.073,187.206c-11.667,11.667-30.759,11.667-42.426,0l-42.427-42.427L448.499,17.5
	c23.334,23.334,23.335,61.518,0,84.853l-42.426,42.426C417.74,156.446,417.74,175.539,406.073,187.206z"/>
<path style="fill:#FF9F00;" d="M311.038,239.814L193.94,356.911c-15.698,15.698-37.76,20.789-57.699,15.273l-27.154,27.154
	c-11.667,11.667-30.759,11.667-42.426,0s-11.667-30.759,0-42.426l27.154-27.154c-5.516-19.939-0.425-42.002,15.273-57.699
	l29.274-29.274c2.547,1.273,4.879,2.758,7.638,3.394c19.091,5.939,39.669,3.182,56.427-8.06
	c12.092-8.275,26.092-13.364,40.517-15.062c11.455-1.697,22.911-1.273,34.367,1.273
	C289.612,227.299,300.855,232.602,311.038,239.814z"/>
<path style="fill:#FF7816;" d="M277.31,224.329c12.303,2.97,23.546,8.273,33.728,15.485L193.94,356.911
	c-15.698,15.698-37.76,20.789-57.699,15.273l-27.154,27.154c-11.667,11.667-30.759,11.667-42.426,0l176.282-176.282
	C254.397,221.359,265.854,221.783,277.31,224.329z"/>
<g>
</g>
<g>
</g>
<g>
</g>
<g>
</g>
<g>
</g>
<g>
</g>
<g>
</g>
<g>
</g>
<g>
</g>
<g>
</g>
<g>
</g>
<g>
</g>
<g>
</g>
<g>
</g>
<g>
</g>
</svg>
