<?xml version="1.0" encoding="iso-8859-1"?>
<!-- Generator: Adobe Illustrator 21.0.0, SVG Export Plug-In . SVG Version: 6.00 Build 0)  -->
<svg version="1.1" id="Capa_1" xmlns="http://www.w3.org/2000/svg" xmlns:xlink="http://www.w3.org/1999/xlink" x="0px" y="0px"
	 viewBox="0 0 512 512" style="enable-background:new 0 0 512 512;" xml:space="preserve">
<path style="fill:#ECECF1;" d="M507.499,305.2C502.099,300.099,376.601,181,256,181S9.901,300.099,4.501,305.2
	C1.8,307.899,0,311.8,0,316s1.8,8.101,4.501,10.8C9.901,331.901,135.399,451,256,451s246.099-119.099,251.499-124.2
	C510.2,324.101,512,320.2,512,316S510.2,307.899,507.499,305.2z"/>
<path style="fill:#E2E2E7;" d="M512,316c0,4.2-1.8,8.101-4.501,10.8C502.099,331.901,376.601,451,256,451V181
	c120.601,0,246.099,119.099,251.499,124.2C510.2,307.899,512,311.8,512,316z"/>
<path style="fill:#76E2F8;" d="M256,181c-74.399,0-135,60.601-135,135s60.601,135,135,135s135-60.601,135-135S330.399,181,256,181z"
	/>
<path style="fill:#25D9F8;" d="M391,316c0,74.399-60.601,135-135,135V181C330.399,181,391,241.601,391,316z"/>
<path style="fill:#5A5A5A;" d="M256,241c-41.4,0-75,33.6-75,75s33.6,75,75,75s75-33.6,75-75S297.4,241,256,241z"/>
<path style="fill:#444444;" d="M331,316c0,41.4-33.6,75-75,75V241C297.4,241,331,274.6,331,316z"/>
<path style="fill:#ECECF1;" d="M271,316c0,8.401-6.599,15-15,15s-15-6.599-15-15s6.599-15,15-15S271,307.599,271,316z"/>
<g>
	<path style="fill:#76E2F8;" d="M271,76v60c0,8.401-6.599,15-15,15s-15-6.599-15-15V76c0-8.401,6.599-15,15-15S271,67.599,271,76z"
		/>
	<path style="fill:#76E2F8;" d="M129.291,179.418l-60-30c-7.412-3.706-10.415-12.715-6.709-20.127
		c3.706-7.427,12.715-10.4,20.127-6.709l60,30c7.412,3.706,10.415,12.715,6.709,20.127
		C145.727,180.07,136.771,183.132,129.291,179.418z"/>
</g>
<g>
	<path style="fill:#25D9F8;" d="M362.582,172.709c-3.706-7.412-0.703-16.421,6.709-20.127l60-30
		c7.427-3.691,16.406-0.718,20.127,6.709c3.706,7.412,0.703,16.421-6.709,20.127l-60,30
		C375.222,183.136,366.27,180.064,362.582,172.709z"/>
	<path style="fill:#25D9F8;" d="M256,151V61c8.401,0,15,6.599,15,15v60C271,144.401,264.401,151,256,151z"/>
</g>
<path style="fill:#E2E2E7;" d="M271,316c0,8.401-6.599,15-15,15v-30C264.401,301,271,307.599,271,316z"/>
<g>
</g>
<g>
</g>
<g>
</g>
<g>
</g>
<g>
</g>
<g>
</g>
<g>
</g>
<g>
</g>
<g>
</g>
<g>
</g>
<g>
</g>
<g>
</g>
<g>
</g>
<g>
</g>
<g>
</g>
</svg>
