<?xml version="1.0" encoding="iso-8859-1"?>
<!-- Generator: Adobe Illustrator 21.0.0, SVG Export Plug-In . SVG Version: 6.00 Build 0)  -->
<svg version="1.1" id="Capa_1" xmlns="http://www.w3.org/2000/svg" xmlns:xlink="http://www.w3.org/1999/xlink" x="0px" y="0px"
	 viewBox="0 0 512 512" style="enable-background:new 0 0 512 512;" xml:space="preserve">
<polygon style="fill:#ECECF1;" points="301,121 301,211 211,211 211,121 241,91 271,91 "/>
<polygon style="fill:#D3D3D8;" points="301,121 301,211 256,211 256,91 271,91 "/>
<g>
	<path style="fill:#FF7816;" d="M106,391H61c-8.284,0-15-6.716-15-15v-30c0-8.284,6.716-15,15-15h30c8.284,0,15,6.716,15,15V391z"/>
	<path style="fill:#FF7816;" d="M106,391h45c8.284,0,15,6.716,15,15v45h-45c-8.284,0-15-6.716-15-15V391z"/>
	<path style="fill:#FF7816;" d="M166,451h60v46c0,8.284-6.716,15-15,15h-30c-8.284,0-15-6.716-15-15V451z"/>
</g>
<path style="fill:#FF4B00;" d="M286,451h60v46c0,8.284-6.716,15-15,15h-30c-8.284,0-15-6.716-15-15V451z"/>
<path style="fill:#FF7816;" d="M286,406v45h-60v-45c0-8.401,6.599-15,15-15h30C279.401,391,286,397.599,286,406z"/>
<g>
	<path style="fill:#FF4B00;" d="M391,451h-45v-45c0-8.284,6.716-15,15-15h45v45C406,444.284,399.284,451,391,451z"/>
	<path style="fill:#FF4B00;" d="M451,391h-45v-45c0-8.284,6.716-15,15-15h30c8.284,0,15,6.716,15,15v30
		C466,384.284,459.284,391,451,391z"/>
	<path style="fill:#FF4B00;" d="M286,406v45h-30v-60h15C279.401,391,286,397.599,286,406z"/>
</g>
<path style="fill:#6E6E6E;" d="M256,181c-41.4,0-75,33.6-75,75c0,36,52.2,113.401,62.701,128.401C246.4,388.599,251.201,391,256,391
	c4.799,0,9.6-2.401,12.299-6.599C278.8,369.401,331,292,331,256C331,214.6,297.4,181,256,181z"/>
<path style="fill:#5A5A5A;" d="M331,256c0,36-52.2,113.401-62.701,128.401C265.6,388.599,260.799,391,256,391V181
	C297.4,181,331,214.6,331,256z"/>
<path style="fill:#FF7816;" d="M301,15v106h-90V15c0-8.401,6.599-15,15-15h60C294.401,0,301,6.599,301,15z"/>
<path style="fill:#FF4B00;" d="M301,121h-45V0h30c8.401,0,15,6.599,15,15V121z"/>
<g>
</g>
<g>
</g>
<g>
</g>
<g>
</g>
<g>
</g>
<g>
</g>
<g>
</g>
<g>
</g>
<g>
</g>
<g>
</g>
<g>
</g>
<g>
</g>
<g>
</g>
<g>
</g>
<g>
</g>
</svg>
