<?xml version="1.0" encoding="iso-8859-1"?>
<!-- Generator: Adobe Illustrator 21.0.0, SVG Export Plug-In . SVG Version: 6.00 Build 0)  -->
<svg version="1.1" id="Capa_1" xmlns="http://www.w3.org/2000/svg" xmlns:xlink="http://www.w3.org/1999/xlink" x="0px" y="0px"
	 viewBox="0 0 512 512" style="enable-background:new 0 0 512 512;" xml:space="preserve">
<path style="fill:#FF7816;" d="M512,376c0,5.7-3.3,10.8-8.401,13.5l-241,121c-2.098,0.899-4.199,1.5-6.599,1.5
	s-4.501-0.601-6.599-1.5l-241-121C3.3,386.8,0,381.7,0,376s3.3-10.8,8.401-13.5L102.4,316h307.2l93.999,46.5
	C508.7,365.2,512,370.3,512,376z"/>
<path style="fill:#FF4B00;" d="M512,376c0,5.7-3.3,10.8-8.401,13.5l-241,121c-2.098,0.899-4.199,1.5-6.599,1.5V316h153.6
	l93.999,46.5C508.7,365.2,512,370.3,512,376z"/>
<path style="fill:#76E2F8;" d="M512,256c0,5.7-3.3,10.8-8.401,13.5L409.6,316l-30.3-0.3l-3.3,17.1l-113.401,56.7
	c-2.098,0.899-4.199,1.5-6.599,1.5s-4.501-0.601-6.599-1.5L136,332.8l-3.3-17.1l-30.3,0.3L8.401,269.5C3.3,266.8,0,261.7,0,256
	s3.3-10.8,8.401-13.5L102.4,196h307.2l93.999,46.5C508.7,245.2,512,250.3,512,256z"/>
<g>
	<path style="fill:#25D9F8;" d="M512,256c0,5.7-3.3,10.8-8.401,13.5L409.6,316l-30.3-0.3l-3.3,17.1l-113.401,56.7
		c-2.098,0.899-4.199,1.5-6.599,1.5V196h153.6l93.999,46.5C508.7,245.2,512,250.3,512,256z"/>
	<path style="fill:#25D9F8;" d="M299.5,277.599c-3.9,7.5-12.599,10.501-20.099,6.901L256,269.799L232.599,284.5
		c-7.2,3.6-16.199,0.599-20.099-6.901c-3.6-7.2-0.599-16.199,6.901-20.099l30-17.999C251.499,238.6,253.6,238,256,238
		s4.501,0.601,6.599,1.501l30,17.999C300.099,261.4,303.1,270.399,299.5,277.599z"/>
</g>
<path style="fill:#00C0F1;" d="M299.5,277.599c-3.9,7.5-12.599,10.501-20.099,6.901L256,269.799v-31.8
	c2.401,0,4.501,0.601,6.599,1.501l30,17.999C300.099,261.4,303.1,270.399,299.5,277.599z"/>
<path style="fill:#FFE470;" d="M512,136c0,5.7-3.3,10.8-8.401,13.5L409.6,196l-30.3-0.3l-3.3,17.1l-113.401,56.7
	c-2.098,0.899-4.199,1.5-6.599,1.5s-4.501-0.601-6.599-1.5L136,212.8l-3.3-17.1l-30.3,0.3L8.401,149.5C3.3,146.8,0,141.7,0,136
	s3.3-10.8,8.401-13.5l241-121C251.499,0.601,253.599,0,256,0s4.501,0.601,6.599,1.5l241,121C508.7,125.2,512,130.3,512,136z"/>
<path style="fill:#FFD400;" d="M262.599,269.5c-2.098,0.899-4.199,1.5-6.599,1.5V0c2.401,0,4.501,0.601,6.599,1.5l241,121
	C508.7,125.2,512,130.3,512,136s-3.3,10.8-8.401,13.5L409.6,196l-30.3-0.3l-3.3,17.1L262.599,269.5z"/>
<path style="fill:#FDBF00;" d="M329.037,172.519c-3.718,7.488-0.645,16.46,6.709,20.127L376,212.772L409.545,196l-60.381-30.19
	C341.737,162.133,332.758,165.106,329.037,172.519z"/>
<path style="fill:#FFD400;" d="M176.254,192.646c7.366-3.673,10.422-12.651,6.709-20.127c-3.721-7.412-12.744-10.386-20.127-6.709
	L102.455,196L136,212.772L176.254,192.646z"/>
<path style="fill:#FDBF00;" d="M299.5,157.599c-2.7,5.4-8.1,8.401-13.5,8.401c-2.401,0-4.501-0.601-6.599-1.5L256,152.8
	l-23.401,11.7c-7.2,3.6-16.199,0.599-20.099-6.901c-3.6-7.2-0.599-16.199,6.901-20.099l30-15c2.098-0.901,4.199-1.5,6.599-1.5
	s4.501,0.599,6.599,1.5l30,15C300.099,141.4,303.1,150.399,299.5,157.599z"/>
<path style="fill:#25D9F8;" d="M176.254,312.646c7.366-3.673,10.422-12.651,6.709-20.127c-3.721-7.427-12.744-10.4-20.127-6.709
	L102.455,316L136,332.772L176.254,312.646z"/>
<path style="fill:#00C0F1;" d="M329.037,292.519c-3.718,7.488-0.645,16.46,6.709,20.127L376,332.772L409.545,316l-60.381-30.19
	C341.737,282.118,332.758,285.092,329.037,292.519z"/>
<path style="fill:#FDBF00;" d="M299.5,157.599c-2.7,5.4-8.1,8.401-13.5,8.401c-2.401,0-4.501-0.601-6.599-1.5L256,152.8V121
	c2.401,0,4.501,0.599,6.599,1.5l30,15C300.099,141.4,303.1,150.399,299.5,157.599z"/>
<g>
</g>
<g>
</g>
<g>
</g>
<g>
</g>
<g>
</g>
<g>
</g>
<g>
</g>
<g>
</g>
<g>
</g>
<g>
</g>
<g>
</g>
<g>
</g>
<g>
</g>
<g>
</g>
<g>
</g>
</svg>
