<?xml version="1.0" encoding="iso-8859-1"?>
<!-- Generator: Adobe Illustrator 21.0.0, SVG Export Plug-In . SVG Version: 6.00 Build 0)  -->
<svg version="1.1" id="Capa_1" xmlns="http://www.w3.org/2000/svg" xmlns:xlink="http://www.w3.org/1999/xlink" x="0px" y="0px"
	 viewBox="0 0 512 512" style="enable-background:new 0 0 512 512;" xml:space="preserve">
<path style="fill:#A8EBFA;" d="M512,256c0,140.7-115.3,256-256,256S0,396.7,0,256S115.3,0,256,0S512,115.3,512,256z"/>
<path style="fill:#76E2F8;" d="M512,256c0,140.7-115.3,256-256,256V0C396.7,0,512,115.3,512,256z"/>
<path style="fill:#25D9F8;" d="M481,256c0,124.2-100.8,226-225,226S31,380.2,31,256S131.8,30,256,30S481,131.8,481,256z"/>
<path style="fill:#00C0F1;" d="M481,256c0,124.2-100.8,226-225,226V30C380.2,30,481,131.8,481,256z"/>
<path style="fill:#A8EBFA;" d="M271,15v482c0,8.399-6.599,15-15,15s-15-6.601-15-15V15c0-8.401,6.599-15,15-15S271,6.599,271,15z"/>
<path style="fill:#76E2F8;" d="M271,15v482c0,8.399-6.599,15-15,15V0C264.401,0,271,6.599,271,15z"/>
<g>
	<path style="fill:#A8EBFA;" d="M434.801,436.7c-2.1,6-7.8,9.901-14.101,9.901c-1.5,0-3.3-0.3-5.099-0.901
		C372.7,430.399,316,422,256,422s-116.7,8.399-159.6,23.699c-7.8,2.701-16.5-1.199-19.2-9c-2.699-7.8,1.201-16.5,9.001-19.2
		C132.4,401,192.7,392,256,392s123.6,9,169.799,25.499C433.599,420.2,437.5,428.899,434.801,436.7z"/>
	<path style="fill:#A8EBFA;" d="M425.799,94.499C379.6,111,319.3,120,256,120s-123.6-9-169.799-25.501
		c-7.8-2.699-11.7-11.4-9.001-19.199c2.701-7.8,11.4-11.7,19.2-9.001C139.3,81.599,196,90,256,90s116.7-8.401,159.6-23.701
		c8.101-2.699,16.5,1.201,19.2,9.001C437.5,83.099,433.599,91.8,425.799,94.499z"/>
	<path style="fill:#A8EBFA;" d="M256,0c-75.601,0-135,112.899-135,256c0,143.099,59.399,256,135,256s135-112.901,135-256
		C391,112.899,331.601,0,256,0z M256,482c-57.001,0-105-103.9-105-226S198.999,30,256,30s105,103.9,105,226S313.001,482,256,482z"/>
</g>
<g>
	<path style="fill:#76E2F8;" d="M391,256c0,143.099-59.399,256-135,256v-30c57.001,0,105-103.9,105-226S313.001,30,256,30V0
		C331.601,0,391,112.899,391,256z"/>
	<path style="fill:#76E2F8;" d="M434.801,436.7c-2.1,6-7.8,9.901-14.101,9.901c-1.5,0-3.3-0.3-5.099-0.901
		C372.7,430.399,316,422,256,422v-30c63.3,0,123.6,9,169.799,25.499C433.599,420.2,437.5,428.899,434.801,436.7z"/>
	<path style="fill:#76E2F8;" d="M425.799,94.499C379.6,111,319.3,120,256,120V90c60,0,116.7-8.401,159.6-23.701
		c8.101-2.699,16.5,1.201,19.2,9.001C437.5,83.099,433.599,91.8,425.799,94.499z"/>
</g>
<path style="fill:#6E6E6E;" d="M496,151H15c-8.401,0-15,6.599-15,15v180c0,8.399,6.599,15,15,15h481c8.401,0,16-6.601,16-15V166
	C512,157.599,504.401,151,496,151z"/>
<path style="fill:#5A5A5A;" d="M512,166v180c0,8.399-7.599,15-16,15H256V151h240C504.401,151,512,157.599,512,166z"/>
<rect x="31" y="181" style="fill:#ECECF1;" width="450" height="150"/>
<rect x="256" y="181" style="fill:#E2E2E7;" width="225" height="150"/>
<path style="fill:#FF7816;" d="M329.5,232.599l-30,60C296.8,297.7,291.7,301,286,301s-10.8-3.3-13.5-8.401L256,259.6l-16.5,32.999
	c-5.099,10.201-21.901,10.201-27.001,0l-30-60c-3.6-7.2-0.599-16.199,6.901-20.099c7.2-3.6,16.199-0.601,20.099,6.899L226,252.4
	l16.5-33.001c2.701-5.099,8.101-7.8,13.5-7.8c5.399,0,10.8,2.701,13.5,7.8L286,252.4l16.5-33.001c3.9-7.5,12.9-10.499,20.099-6.899
	C330.099,216.4,333.1,225.399,329.5,232.599z"/>
<circle style="fill:#FF4B00;" cx="376" cy="256" r="15"/>
<g>
	<circle style="fill:#FF7816;" cx="136" cy="256" r="15"/>
	<circle style="fill:#FF7816;" cx="76" cy="256" r="15"/>
</g>
<g>
	<circle style="fill:#FF4B00;" cx="436" cy="256" r="15"/>
	<path style="fill:#FF4B00;" d="M272.5,292.599L256,259.6v-48.001c5.4,0,10.8,2.701,13.5,7.8L286,252.4l16.5-33.001
		c3.9-7.5,12.9-10.499,20.099-6.899c7.5,3.9,10.501,12.9,6.901,20.099l-30,60C296.8,297.7,291.7,301,286,301
		S275.2,297.7,272.5,292.599z"/>
</g>
<g>
</g>
<g>
</g>
<g>
</g>
<g>
</g>
<g>
</g>
<g>
</g>
<g>
</g>
<g>
</g>
<g>
</g>
<g>
</g>
<g>
</g>
<g>
</g>
<g>
</g>
<g>
</g>
<g>
</g>
</svg>
