<?xml version="1.0" encoding="iso-8859-1"?>
<!-- Generator: Adobe Illustrator 21.0.0, SVG Export Plug-In . SVG Version: 6.00 Build 0)  -->
<svg version="1.1" id="Capa_1" xmlns="http://www.w3.org/2000/svg" xmlns:xlink="http://www.w3.org/1999/xlink" x="0px" y="0px"
	 viewBox="0 0 512 512" style="enable-background:new 0 0 512 512;" xml:space="preserve">
<path style="fill:#ECECF1;" d="M386.499,237.499c-45,45.3-63.9,96.899-86.1,156.601c-5.7,15.298-11.4,30.899-17.699,46.5l-12.9,32.1
	c-2.1,5.7-7.8,9.3-13.801,9.3s-11.7-3.6-13.801-9.3l-12.9-32.1c-6.299-15.601-11.999-31.201-17.699-46.5
	c-22.2-59.702-41.1-111.301-86.1-156.601c-6-5.7-6-15.3,0-21C161.201,180.5,181,132.8,181,82.099V77h150v5.099
	c0,50.7,19.799,98.401,55.499,134.399C392.5,222.199,392.5,231.799,386.499,237.499z"/>
<path style="fill:#E2E2E7;" d="M386.499,237.499c-45,45.3-63.9,96.899-86.1,156.601c-5.7,15.298-11.4,30.899-17.699,46.5l-12.9,32.1
	c-2.1,5.7-7.8,9.3-13.801,9.3V77h75v5.099c0,50.7,19.799,98.401,55.499,134.399C392.5,222.199,392.5,231.799,386.499,237.499z"/>
<path style="fill:#6E6E6E;" d="M271,227v240c0,8.399-6.599,15-15,15s-15-6.601-15-15V227c0-8.401,6.599-15,15-15
	S271,218.599,271,227z"/>
<path style="fill:#5A5A5A;" d="M271,227v240c0,8.399-6.599,15-15,15V212C264.401,212,271,218.599,271,227z"/>
<path style="fill:#25D9F8;" d="M481,257c0,124.2-100.8,225-225,225S31,381.2,31,257c0-8.401,6.599-15,15-15s15,6.599,15,15
	c0,107.399,87.599,195,195,195s195-87.601,195-195c0-8.401,6.599-15,15-15S481,248.599,481,257z"/>
<path style="fill:#00C0F1;" d="M481,257c0,124.2-100.8,225-225,225v-30c107.401,0,195-87.601,195-195c0-8.401,6.599-15,15-15
	S481,248.599,481,257z"/>
<path style="fill:#25D9F8;" d="M451,467c0,8.399-6.599,15-15,15H76c-8.401,0-15-6.601-15-15c0-8.401,6.599-15,15-15h360
	C444.401,452,451,458.599,451,467z"/>
<path style="fill:#00C0F1;" d="M451,467c0,8.399-6.599,15-15,15H256v-30h180C444.401,452,451,458.599,451,467z"/>
<g>
	<path style="fill:#A8EBFA;" d="M76,512H16c-8.291,0-16-6.709-16-15v-60c0-8.291,7.709-15,16-15h60c8.291,0,15,6.709,15,15v60
		C91,505.291,84.291,512,76,512z"/>
	<path style="fill:#A8EBFA;" d="M76,272H16c-8.291,0-16-6.709-16-15v-60c0-8.291,7.709-15,16-15h60c8.291,0,15,6.709,15,15v60
		C91,265.291,84.291,272,76,272z"/>
</g>
<g>
	<path style="fill:#76E2F8;" d="M497,272h-61c-8.291,0-15-6.709-15-15v-60c0-8.291,6.709-15,15-15h61c8.291,0,15,6.709,15,15v60
		C512,265.291,505.291,272,497,272z"/>
	<path style="fill:#76E2F8;" d="M497,512h-61c-8.291,0-15-6.709-15-15v-60c0-8.291,6.709-15,15-15h61c8.291,0,15,6.709,15,15v60
		C512,505.291,505.291,512,497,512z"/>
</g>
<path style="fill:#6E6E6E;" d="M256,152c-24.901,0-45,20.099-45,45c0,24.899,20.099,45,45,45s45-20.101,45-45
	C301,172.099,280.901,152,256,152z"/>
<path style="fill:#FF7816;" d="M331,15v62H181V15c0-8.401,6.599-15,15-15h120C324.401,0,331,6.599,331,15z"/>
<path style="fill:#5A5A5A;" d="M256,242v-90c24.901,0,45,20.099,45,45C301,221.899,280.901,242,256,242z"/>
<path style="fill:#FF4B00;" d="M331,77h-75V0h60c8.401,0,15,6.599,15,15V77z"/>
<path style="fill:#5A5A5A;" d="M361,77c0,8.399-6.599,15-15,15H166c-8.401,0-15-6.601-15-15c0-8.401,6.599-15,15-15h180
	C354.401,62,361,68.599,361,77z"/>
<path style="fill:#444444;" d="M361,77c0,8.399-6.599,15-15,15h-90V62h90C354.401,62,361,68.599,361,77z"/>
<g>
</g>
<g>
</g>
<g>
</g>
<g>
</g>
<g>
</g>
<g>
</g>
<g>
</g>
<g>
</g>
<g>
</g>
<g>
</g>
<g>
</g>
<g>
</g>
<g>
</g>
<g>
</g>
<g>
</g>
</svg>
