<?xml version="1.0" encoding="iso-8859-1"?>
<!-- Generator: Adobe Illustrator 21.0.0, SVG Export Plug-In . SVG Version: 6.00 Build 0)  -->
<svg version="1.1" id="Capa_1" xmlns="http://www.w3.org/2000/svg" xmlns:xlink="http://www.w3.org/1999/xlink" x="0px" y="0px"
	 viewBox="0 0 512 512" style="enable-background:new 0 0 512 512;" xml:space="preserve">
<path style="fill:#5A5A5A;" d="M512,91v30l-256,14.099L242.199,136c-5.099,0-39.899-32.401-42.599-36.601L193.9,46H467
	C491.901,46,512,66.099,512,91z"/>
<path style="fill:#444444;" d="M512,91v30l-256,14.099V46h211C491.901,46,512,66.099,512,91z"/>
<path style="fill:#FFD400;" d="M497,106H242.199c-5.099,0-9.899-2.401-12.599-6.601L193.9,46l-6.599-9.901
	C178.9,23.5,165.099,16,149.801,16H45C20.099,16,0,36.099,0,61v390c0,24.899,20.099,45,45,45h422c24.901,0,45-20.101,45-45V121
	C512,112.599,505.401,106,497,106z"/>
<path style="fill:#FDBF00;" d="M512,121v330c0,24.899-20.099,45-45,45H256V106h241C505.401,106,512,112.599,512,121z"/>
<path style="fill:#ECECF1;" d="M361,256v165c0,8.399-6.599,15-15,15H166c-8.401,0-15-6.601-15-15V181c0-8.401,6.599-15,15-15h105
	L361,256z"/>
<path style="fill:#E2E2E7;" d="M361,256v165c0,8.399-6.599,15-15,15h-90V166h15L361,256z"/>
<path style="fill:#D3D3D8;" d="M356.587,230.376l-59.963-59.963C293.93,167.71,288.714,166,286,166h-15v75c0,8.284,6.716,15,15,15
	h75v-15C361,238.479,359.257,233.039,356.587,230.376z"/>
<g>
	<path style="fill:#76E2F8;" d="M301,361c0,8.399-6.599,15-15,15h-60c-8.401,0-15-6.601-15-15c0-8.401,6.599-15,15-15h60
		C294.401,346,301,352.599,301,361z"/>
	<path style="fill:#76E2F8;" d="M301,301c0,8.399-6.599,15-15,15h-60c-8.401,0-15-6.601-15-15c0-8.401,6.599-15,15-15h60
		C294.401,286,301,292.599,301,301z"/>
</g>
<g>
	<path style="fill:#25D9F8;" d="M301,361c0,8.399-6.599,15-15,15h-30v-30h30C294.401,346,301,352.599,301,361z"/>
	<path style="fill:#25D9F8;" d="M286,316h-30v-30h30c8.401,0,15,6.599,15,15C301,309.399,294.401,316,286,316z"/>
</g>
<g>
</g>
<g>
</g>
<g>
</g>
<g>
</g>
<g>
</g>
<g>
</g>
<g>
</g>
<g>
</g>
<g>
</g>
<g>
</g>
<g>
</g>
<g>
</g>
<g>
</g>
<g>
</g>
<g>
</g>
</svg>
