<?xml version="1.0" encoding="iso-8859-1"?>
<!-- Generator: Adobe Illustrator 21.0.0, SVG Export Plug-In . SVG Version: 6.00 Build 0)  -->
<svg version="1.1" id="Capa_1" xmlns="http://www.w3.org/2000/svg" xmlns:xlink="http://www.w3.org/1999/xlink" x="0px" y="0px"
	 viewBox="0 0 512 512" style="enable-background:new 0 0 512 512;" xml:space="preserve">
<path style="fill:#6E6E6E;" d="M481.399,256c18.6,13.801,30.601,35.4,30.601,60v120c0,41.4-33.6,76-75,76H75c-41.4,0-75-34.6-75-76
	V316c0-24.6,12.001-46.199,30.601-60C12.001,242.199,0,220.6,0,196V76C0,34.6,33.6,0,75,0h362c41.4,0,75,34.6,75,76v120
	C512,220.6,499.999,242.199,481.399,256z"/>
<path style="fill:#5A5A5A;" d="M481.399,256c18.6,13.801,30.601,35.4,30.601,60v120c0,41.4-33.6,76-75,76H256V0h181
	c41.4,0,75,34.6,75,76v120C512,220.6,499.999,242.199,481.399,256z"/>
<path style="fill:#ECECF1;" d="M437,271H75c-24.901,0-45,20.099-45,45v120c0,24.901,20.099,46,45,46h362c24.901,0,45-21.099,45-46
	V316C482,291.099,461.901,271,437,271z"/>
<path style="fill:#E2E2E7;" d="M482,316v120c0,24.901-20.099,46-45,46H256V271h181C461.901,271,482,291.099,482,316z"/>
<path style="fill:#ECECF1;" d="M437,30H75c-24.901,0-45,21.099-45,46v120c0,24.901,20.099,45,45,45h362c24.901,0,45-20.099,45-45V76
	C482,51.099,461.901,30,437,30z"/>
<path style="fill:#E2E2E7;" d="M482,76v120c0,24.901-20.099,45-45,45H256V30h181C461.901,30,482,51.099,482,76z"/>
<path style="fill:#76E2F8;" d="M135,121c-41.4,0-75,33.6-75,75c0,8.401,6.599,15,15,15h120c8.401,0,15-6.599,15-15
	C210,154.6,176.4,121,135,121z"/>
<path style="fill:#FF7816;" d="M286,91c-11.7,0-22.2,4.501-30,11.7c-9.3,8.099-15,20.099-15,33.3s5.7,25.201,15,33.3
	c7.8,7.2,18.3,11.7,30,11.7c24.901,0,45-20.099,45-45S310.901,91,286,91z"/>
<path style="fill:#FF4B00;" d="M407,181c-24.814,0-45-20.186-45-45s20.186-45,45-45s45,20.186,45,45S431.814,181,407,181z"/>
<path style="fill:#A8EBFA;" d="M165,91c0,16.5-13.5,30-30,30s-30-13.5-30-30s13.5-30,30-30S165,74.5,165,91z"/>
<path style="fill:#6E6E6E;" d="M210,346c0,8.401-6.599,15-15,15s-15-6.599-15-15s-6.599-15-15-15s-15,6.599-15,15v15l-14.399,30
	L135,389.801L120,361v-15c0-13.2,5.7-25.201,15-33.3c7.8-7.2,18.3-11.7,30-11.7C189.901,301,210,321.099,210,346z"/>
<path style="fill:#FF4B00;" d="M331,136c0,24.901-20.099,45-45,45c-11.7,0-22.2-4.501-30-11.7v-66.6c7.8-7.2,18.3-11.7,30-11.7
	C310.901,91,331,111.099,331,136z"/>
<g>
	<path style="fill:#FF7816;" d="M75,361c-8.401,0-15,6.599-15,15v60c0,8.401,6.599,15,15,15h60c8.401,0,15-6.599,15-15v-75H75z"/>
	<path style="fill:#FF7816;" d="M286,331c-11.7,0-22.2,4.501-30,11.7c-9.3,8.099-15,20.099-15,33.3s5.7,25.201,15,33.3
		c7.8,7.2,18.3,11.7,30,11.7c24.901,0,45-20.099,45-45S310.901,331,286,331z"/>
</g>
<g>
	<path style="fill:#FF4B00;" d="M407,421c-24.814,0-45-20.186-45-45s20.186-45,45-45s45,20.186,45,45S431.814,421,407,421z"/>
	<path style="fill:#FF4B00;" d="M331,376c0,24.901-20.099,45-45,45c-11.7,0-22.2-4.501-30-11.7v-66.6c7.8-7.2,18.3-11.7,30-11.7
		C310.901,331,331,351.099,331,376z"/>
</g>
<g>
</g>
<g>
</g>
<g>
</g>
<g>
</g>
<g>
</g>
<g>
</g>
<g>
</g>
<g>
</g>
<g>
</g>
<g>
</g>
<g>
</g>
<g>
</g>
<g>
</g>
<g>
</g>
<g>
</g>
</svg>
