<?xml version="1.0" encoding="iso-8859-1"?>
<!-- Generator: Adobe Illustrator 21.0.0, SVG Export Plug-In . SVG Version: 6.00 Build 0)  -->
<svg version="1.1" id="Capa_1" xmlns="http://www.w3.org/2000/svg" xmlns:xlink="http://www.w3.org/1999/xlink" x="0px" y="0px"
	 viewBox="0 0 512 512" style="enable-background:new 0 0 512 512;" xml:space="preserve">
<path style="fill:#25D9F8;" d="M45,151c-8.291,0-15-6.709-15-15V75c0-8.291,6.709-15,15-15s15,6.709,15,15v61
	C60,144.291,53.291,151,45,151z"/>
<path style="fill:#00C0F1;" d="M467,151c-8.291,0-15-6.709-15-15V75c0-8.291,6.709-15,15-15s15,6.709,15,15v61
	C482,144.291,475.291,151,467,151z"/>
<path style="fill:#25D9F8;" d="M135,482H75c-8.291,0-15-6.709-15-15s6.709-15,15-15h60c8.291,0,15,6.709,15,15S143.291,482,135,482z
	"/>
<g>
	<path style="fill:#00C0F1;" d="M437,482h-60c-8.291,0-15-6.709-15-15s6.709-15,15-15h60c8.291,0,15,6.709,15,15
		S445.291,482,437,482z"/>
	<path style="fill:#00C0F1;" d="M437,60h-60c-8.291,0-15-6.709-15-15s6.709-15,15-15h60c8.291,0,15,6.709,15,15S445.291,60,437,60z"
		/>
</g>
<path style="fill:#25D9F8;" d="M226,482h-31c-8.291,0-15-6.709-15-15s6.709-15,15-15h31c8.291,0,15,6.709,15,15S234.291,482,226,482
	z"/>
<path style="fill:#00C0F1;" d="M317,482h-31c-8.291,0-15-6.709-15-15s6.709-15,15-15h31c8.291,0,15,6.709,15,15S325.291,482,317,482
	z"/>
<g>
	<path style="fill:#25D9F8;" d="M135,60H75c-8.291,0-15-6.709-15-15s6.709-15,15-15h60c8.291,0,15,6.709,15,15S143.291,60,135,60z"
		/>
	<path style="fill:#25D9F8;" d="M226,60h-31c-8.291,0-15-6.709-15-15s6.709-15,15-15h31c8.291,0,15,6.709,15,15S234.291,60,226,60z"
		/>
</g>
<path style="fill:#00C0F1;" d="M317,60h-31c-8.291,0-15-6.709-15-15s6.709-15,15-15h31c8.291,0,15,6.709,15,15S325.291,60,317,60z"
	/>
<g>
	<path style="fill:#25D9F8;" d="M45,452c-8.291,0-15-6.709-15-15v-60c0-8.291,6.709-15,15-15s15,6.709,15,15v60
		C60,445.291,53.291,452,45,452z"/>
	<path style="fill:#25D9F8;" d="M45,332c-8.291,0-15-6.709-15-15v-31c0-8.291,6.709-15,15-15s15,6.709,15,15v31
		C60,325.291,53.291,332,45,332z"/>
</g>
<g>
	<path style="fill:#00C0F1;" d="M467,452c-8.291,0-15-6.709-15-15v-60c0-8.291,6.709-15,15-15s15,6.709,15,15v60
		C482,445.291,475.291,452,467,452z"/>
	<path style="fill:#00C0F1;" d="M467,332c-8.291,0-15-6.709-15-15v-31c0-8.291,6.709-15,15-15s15,6.709,15,15v31
		C482,325.291,475.291,332,467,332z"/>
</g>
<path style="fill:#25D9F8;" d="M45,241c-8.291,0-15-6.709-15-15v-30c0-8.291,6.709-15,15-15s15,6.709,15,15v30
	C60,234.291,53.291,241,45,241z"/>
<path style="fill:#00C0F1;" d="M467,241c-8.291,0-15-6.709-15-15v-30c0-8.291,6.709-15,15-15s15,6.709,15,15v30
	C482,234.291,475.291,241,467,241z"/>
<path style="fill:#6E6E6E;" d="M407,90H105c-8.401,0-15,6.599-15,15v121c0,8.399,6.599,15,15,15s15-6.601,15-15
	c0-24.901,20.099-45,45-45h46v166c0,24.899-21.099,45-46,45c-8.401,0-15,6.599-15,15c0,8.399,6.599,15,15,15h182
	c8.401,0,15-6.601,15-15c0-8.401-6.599-15-15-15c-24.901,0-46-20.101-46-45V181h46c24.901,0,45,20.099,45,45c0,8.399,6.599,15,15,15
	s15-6.601,15-15V105C422,96.599,415.401,90,407,90z"/>
<path style="fill:#5A5A5A;" d="M422,105v121c0,8.399-6.599,15-15,15s-15-6.601-15-15c0-24.901-20.099-45-45-45h-46v166
	c0,24.899,21.099,45,46,45c8.401,0,15,6.599,15,15c0,8.399-6.599,15-15,15h-91V90h151C415.401,90,422,96.599,422,105z"/>
<g>
	<path style="fill:#76E2F8;" d="M497,90h-60c-8.291,0-15-6.709-15-15V15c0-8.291,6.709-15,15-15h60c8.291,0,15,6.709,15,15v60
		C512,83.291,505.291,90,497,90z"/>
	<path style="fill:#76E2F8;" d="M497,512h-60c-8.291,0-15-6.709-15-15v-60c0-8.291,6.709-15,15-15h60c8.291,0,15,6.709,15,15v60
		C512,505.291,505.291,512,497,512z"/>
</g>
<g>
	<path style="fill:#A8EBFA;" d="M75,90H15C6.709,90,0,83.291,0,75V15C0,6.709,6.709,0,15,0h60c8.291,0,15,6.709,15,15v60
		C90,83.291,83.291,90,75,90z"/>
	<path style="fill:#A8EBFA;" d="M75,512H15c-8.291,0-15-6.709-15-15v-60c0-8.291,6.709-15,15-15h60c8.291,0,15,6.709,15,15v60
		C90,505.291,83.291,512,75,512z"/>
</g>
<g>
</g>
<g>
</g>
<g>
</g>
<g>
</g>
<g>
</g>
<g>
</g>
<g>
</g>
<g>
</g>
<g>
</g>
<g>
</g>
<g>
</g>
<g>
</g>
<g>
</g>
<g>
</g>
<g>
</g>
</svg>
