<?xml version="1.0" encoding="iso-8859-1"?>
<!-- Generator: Adobe Illustrator 21.0.0, SVG Export Plug-In . SVG Version: 6.00 Build 0)  -->
<svg version="1.1" id="Capa_1" xmlns="http://www.w3.org/2000/svg" xmlns:xlink="http://www.w3.org/1999/xlink" x="0px" y="0px"
	 viewBox="0 0 512 512" style="enable-background:new 0 0 512 512;" xml:space="preserve">
<path style="fill:#ECECF1;" d="M421,0H91C49.6,0,16,33.6,16,75v362c0,41.4,33.6,75,75,75h330c41.4,0,75-33.6,75-75V75
	C496,33.6,462.4,0,421,0z"/>
<path style="fill:#E2E2E7;" d="M496,75v362c0,41.4-33.6,75-75,75H256V0h165C462.4,0,496,33.6,496,75z"/>
<path style="fill:#5A5A5A;" d="M136,75v362c0,8.401-6.599,15-15,15s-15-6.599-15-15V75c0-8.401,6.599-15,15-15S136,66.599,136,75z"
	/>
<path style="fill:#444444;" d="M136,75v362c0,8.401-6.599,15-15,15V60C129.401,60,136,66.599,136,75z"/>
<path style="fill:#5A5A5A;" d="M226,75v362c0,8.401-6.599,15-15,15s-15-6.599-15-15V75c0-8.401,6.599-15,15-15S226,66.599,226,75z"
	/>
<path style="fill:#444444;" d="M226,75v362c0,8.401-6.599,15-15,15V60C219.401,60,226,66.599,226,75z"/>
<path style="fill:#5A5A5A;" d="M316,75v362c0,8.401-6.599,15-15,15s-15-6.599-15-15V75c0-8.401,6.599-15,15-15S316,66.599,316,75z"
	/>
<path style="fill:#444444;" d="M316,75v362c0,8.401-6.599,15-15,15V60C309.401,60,316,66.599,316,75z"/>
<path style="fill:#5A5A5A;" d="M406,75v362c0,8.401-6.599,15-15,15s-15-6.599-15-15V75c0-8.401,6.599-15,15-15S406,66.599,406,75z"
	/>
<path style="fill:#444444;" d="M406,75v362c0,8.401-6.599,15-15,15V60C399.401,60,406,66.599,406,75z"/>
<path style="fill:#FF7816;" d="M121,241c-24.901,0-45,21.099-45,46s20.099,45,45,45s45-20.099,45-45S145.901,241,121,241z"/>
<path style="fill:#FF4B00;" d="M166,287c0,24.901-20.099,45-45,45v-91C145.901,241,166,262.099,166,287z"/>
<path style="fill:#FF7816;" d="M391,90c-24.901,0-45,20.099-45,45s20.099,45,45,45s45-20.099,45-45S415.901,90,391,90z"/>
<path style="fill:#FF4B00;" d="M436,135c0,24.901-20.099,45-45,45V90C415.901,90,436,110.099,436,135z"/>
<path style="fill:#FF7816;" d="M301,332c-24.901,0-45,20.099-45,45s20.099,45,45,45s45-20.099,45-45S325.901,332,301,332z"/>
<path style="fill:#FF4B00;" d="M346,377c0,24.901-20.099,45-45,45v-90C325.901,332,346,352.099,346,377z"/>
<path style="fill:#FF7816;" d="M211,120c-24.901,0-45,20.099-45,45s20.099,45,45,45s45-20.099,45-45S235.901,120,211,120z"/>
<path style="fill:#FF4B00;" d="M256,165c0,24.901-20.099,45-45,45v-90C235.901,120,256,140.099,256,165z"/>
<g>
</g>
<g>
</g>
<g>
</g>
<g>
</g>
<g>
</g>
<g>
</g>
<g>
</g>
<g>
</g>
<g>
</g>
<g>
</g>
<g>
</g>
<g>
</g>
<g>
</g>
<g>
</g>
<g>
</g>
</svg>
