<?xml version="1.0" encoding="iso-8859-1"?>
<!-- Generator: Adobe Illustrator 21.0.0, SVG Export Plug-In . SVG Version: 6.00 Build 0)  -->
<svg version="1.1" id="Capa_1" xmlns="http://www.w3.org/2000/svg" xmlns:xlink="http://www.w3.org/1999/xlink" x="0px" y="0px"
	 viewBox="0 0 512 512" style="enable-background:new 0 0 512 512;" xml:space="preserve">
<path style="fill:#ECECF1;" d="M451,120v377c0,8.399-6.599,15-15,15H76c-8.401,0-15-6.601-15-15V15c0-8.401,6.599-15,15-15h255
	L451,120z"/>
<path style="fill:#E2E2E7;" d="M451,120v377c0,8.399-6.599,15-15,15H256V0h75L451,120z"/>
<path style="fill:#FF7816;" d="M436,151H76c-24.901,0-45,20.099-45,45v180c0,24.899,20.099,45,45,45h360c24.901,0,45-20.101,45-45
	V196C481,171.099,460.901,151,436,151z"/>
<path style="fill:#FF4B00;" d="M481,196v180c0,24.899-20.099,45-45,45H256V151h180C460.901,151,481,171.099,481,196z"/>
<path style="fill:#ECECF1;" d="M166,361c-24.814,0-45-20.186-45-45c0-8.276-6.724-15-15-15c-8.291,0-15-6.709-15-15s6.709-15,15-15
	c8.276,0,15-6.724,15-15c0-24.814,20.186-45,45-45c8.291,0,15,6.709,15,15s-6.709,15-15,15c-8.276,0-15,6.724-15,15
	c0,11.514-4.351,22.031-11.484,30C146.65,293.969,151,304.486,151,316c0,8.276,6.724,15,15,15c8.291,0,15,6.709,15,15
	S174.291,361,166,361z"/>
<path style="fill:#E2E2E7;" d="M346,361c-8.291,0-15-6.709-15-15s6.709-15,15-15c8.276,0,15-6.724,15-15
	c0-11.514,4.351-22.031,11.484-30C365.351,278.031,361,267.514,361,256c0-8.276-6.724-15-15-15c-8.291,0-15-6.709-15-15
	s6.709-15,15-15c24.814,0,45,20.186,45,45c0,8.276,6.724,15,15,15c8.291,0,15,6.709,15,15s-6.709,15-15,15c-8.276,0-15,6.724-15,15
	C391,340.814,370.814,361,346,361z"/>
<circle style="fill:#ECECF1;" cx="196" cy="286" r="15"/>
<circle style="fill:#E2E2E7;" cx="316" cy="286" r="15"/>
<path style="fill:#ECECF1;" d="M271,286c0,8.399-6.599,15-15,15s-15-6.601-15-15c0-8.401,6.599-15,15-15S271,277.599,271,286z"/>
<path style="fill:#D3D3D8;" d="M446.605,94.395l-90-90C353.793,1.582,349.984,0,346,0h-15v105c0,8.284,6.716,15,15,15h105v-15
	C451,101.016,449.418,97.207,446.605,94.395z"/>
<path style="fill:#E2E2E7;" d="M271,286c0,8.399-6.599,15-15,15v-30C264.401,271,271,277.599,271,286z"/>
<g>
</g>
<g>
</g>
<g>
</g>
<g>
</g>
<g>
</g>
<g>
</g>
<g>
</g>
<g>
</g>
<g>
</g>
<g>
</g>
<g>
</g>
<g>
</g>
<g>
</g>
<g>
</g>
<g>
</g>
</svg>
