<?xml version="1.0" encoding="iso-8859-1"?>
<!-- Generator: Adobe Illustrator 21.0.0, SVG Export Plug-In . SVG Version: 6.00 Build 0)  -->
<svg version="1.1" id="Capa_1" xmlns="http://www.w3.org/2000/svg" xmlns:xlink="http://www.w3.org/1999/xlink" x="0px" y="0px"
	 viewBox="0 0 512.001 512.001" style="enable-background:new 0 0 512.001 512.001;" xml:space="preserve">
<path style="fill:#FFD400;" d="M322.592,91.547l-46.495-23.098l23.398-46.795c3.3-6.598,1.199-14.397-4.8-18.898
	c-5.998-4.199-14.097-3.6-19.197,1.8l-89.99,89.99c-3.6,3.301-5.1,8.1-4.2,12.899c0.601,4.8,3.6,9,8.1,11.101l46.495,23.096
	l-23.398,46.795c-3.3,6.6-1.199,14.399,4.8,18.898c5.998,4.2,14.097,3.6,19.197-1.8l19.499-19.497l70.491-70.493
	c3.6-3.3,5.1-8.1,4.2-12.899C330.091,97.847,327.092,93.647,322.592,91.547z"/>
<g>
	<path style="fill:#FF7816;" d="M270.999,256.029c0,8.398-6.598,14.998-14.998,14.998c-8.4,0-14.998-6.6-14.998-14.998
		c0-8.4,6.598-14.998,14.998-14.998C264.4,241.031,270.999,247.629,270.999,256.029z"/>
	<path style="fill:#FF7816;" d="M270.999,316.023c0,8.398-6.598,14.998-14.998,14.998c-8.4,0-14.998-6.6-14.998-14.998
		c0-8.4,6.598-14.998,14.998-14.998C264.4,301.024,270.999,307.623,270.999,316.023z"/>
</g>
<path style="fill:#E2E2E7;" d="M465.977,0.058h-89.99c-8.29,0-14.998,6.708-14.998,14.998v74.992l29.997,29.997h59.993
	l29.997-29.997V15.056C480.975,6.766,474.267,0.058,465.977,0.058z"/>
<path style="fill:#ECECF1;" d="M136.014,0.058h-89.99c-8.29,0-14.998,6.708-14.998,14.998v74.992l29.997,29.997h59.993
	l29.997-29.997V15.056C151.012,6.766,144.304,0.058,136.014,0.058z"/>
<g>
	<path style="fill:#FF4B00;" d="M256,331.021v-29.997c8.4,0,14.998,6.598,14.998,14.998C270.999,324.421,264.4,331.021,256,331.021z
		"/>
	<path style="fill:#FF4B00;" d="M256,271.028v-29.997c8.4,0,14.998,6.598,14.998,14.998C270.999,264.427,264.4,271.028,256,271.028z
		"/>
</g>
<path style="fill:#FDBF00;" d="M326.493,115.544l-70.491,70.493V24.054L275.5,4.555c5.098-5.399,13.199-5.998,19.197-1.8
	c5.999,4.5,8.1,12.3,4.8,18.898l-23.398,46.795l46.495,23.098c4.5,2.1,7.499,6.3,8.1,11.099
	C331.593,107.444,330.091,112.244,326.493,115.544z"/>
<path style="fill:#FF7816;" d="M480.975,90.048v195.978c0,124.186-100.789,225.975-224.975,225.975S31.025,410.212,31.025,286.026
	V90.048h119.987v195.978c0,57.894,47.095,104.988,104.988,104.988s104.988-47.095,104.988-104.988V90.048
	C360.989,90.048,480.975,90.048,480.975,90.048z"/>
<path style="fill:#FF4B00;" d="M480.975,90.048v195.978c0,124.186-100.789,225.975-224.975,225.975V391.014
	c57.894,0,104.988-47.095,104.988-104.988V90.048C360.989,90.048,480.975,90.048,480.975,90.048z"/>
<g>
</g>
<g>
</g>
<g>
</g>
<g>
</g>
<g>
</g>
<g>
</g>
<g>
</g>
<g>
</g>
<g>
</g>
<g>
</g>
<g>
</g>
<g>
</g>
<g>
</g>
<g>
</g>
<g>
</g>
</svg>
