<?xml version="1.0" encoding="iso-8859-1"?>
<!-- Generator: Adobe Illustrator 21.0.0, SVG Export Plug-In . SVG Version: 6.00 Build 0)  -->
<svg version="1.1" id="Capa_1" xmlns="http://www.w3.org/2000/svg" xmlns:xlink="http://www.w3.org/1999/xlink" x="0px" y="0px"
	 viewBox="0 0 512 512" style="enable-background:new 0 0 512 512;" xml:space="preserve">
<path style="fill:#ECECF1;" d="M451,120v377c0,8.399-6.599,15-15,15H76c-8.401,0-15-6.601-15-15V15c0-8.401,6.599-15,15-15h255
	L451,120z"/>
<path style="fill:#E2E2E7;" d="M451,120v377c0,8.399-6.599,15-15,15H256V0h75L451,120z"/>
<path style="fill:#D3D3D8;" d="M446.605,94.395l-90-90C353.793,1.582,349.984,0,346,0h-15v105c0,8.284,6.716,15,15,15h105v-15
	C451,101.016,449.418,97.207,446.605,94.395z"/>
<path style="fill:#5A5A5A;" d="M271,226v60c0,8.399-6.599,15-15,15s-15-6.601-15-15v-60c0-8.401,6.599-15,15-15S271,217.599,271,226
	z"/>
<path style="fill:#444444;" d="M271,226v60c0,8.399-6.599,15-15,15v-90C264.401,211,271,217.599,271,226z"/>
<path style="fill:#5A5A5A;" d="M331,406c0,8.399-6.599,15-15,15H196c-8.401,0-15-6.601-15-15c0-8.401,6.599-15,15-15h120
	C324.401,391,331,397.599,331,406z"/>
<path style="fill:#444444;" d="M346,391c-8.291,0-15-6.709-15-15v-45h-45c-8.291,0-15-6.709-15-15s6.709-15,15-15h60
	c8.291,0,15,6.709,15,15v60C361,384.291,354.291,391,346,391z"/>
<path style="fill:#5A5A5A;" d="M166,391c-8.291,0-15-6.709-15-15V226c0-8.291,6.709-15,15-15s15,6.709,15,15v150
	C181,384.291,174.291,391,166,391z"/>
<path style="fill:#444444;" d="M331,406c0,8.399-6.599,15-15,15h-60v-30h60C324.401,391,331,397.599,331,406z"/>
<path style="fill:#76E2F8;" d="M256,271c-24.901,0-45,20.099-45,45c0,24.899,20.099,45,45,45s45-20.101,45-45
	C301,291.099,280.901,271,256,271z"/>
<path style="fill:#25D9F8;" d="M256,361v-90c24.901,0,45,20.099,45,45C301,340.899,280.901,361,256,361z"/>
<path style="fill:#FF7816;" d="M376,181H136c-8.401,0-15,6.599-15,15v30c0,8.399,6.599,15,15,15h240c8.401,0,15-6.601,15-15v-30
	C391,187.599,384.401,181,376,181z"/>
<path style="fill:#FF4B00;" d="M391,196v30c0,8.399-6.599,15-15,15H256v-60h120C384.401,181,391,187.599,391,196z"/>
<path style="fill:#76E2F8;" d="M166,451c-24.814,0-45-20.186-45-45s20.186-45,45-45s45,20.186,45,45S190.814,451,166,451z"/>
<path style="fill:#25D9F8;" d="M346,451c-24.814,0-45-20.186-45-45s20.186-45,45-45s45,20.186,45,45S370.814,451,346,451z"/>
<g>
</g>
<g>
</g>
<g>
</g>
<g>
</g>
<g>
</g>
<g>
</g>
<g>
</g>
<g>
</g>
<g>
</g>
<g>
</g>
<g>
</g>
<g>
</g>
<g>
</g>
<g>
</g>
<g>
</g>
</svg>
