<?xml version="1.0" encoding="iso-8859-1"?>
<!-- Generator: Adobe Illustrator 21.0.0, SVG Export Plug-In . SVG Version: 6.00 Build 0)  -->
<svg version="1.1" id="Capa_1" xmlns="http://www.w3.org/2000/svg" xmlns:xlink="http://www.w3.org/1999/xlink" x="0px" y="0px"
	 viewBox="0 0 512.001 512.001" style="enable-background:new 0 0 512.001 512.001;" xml:space="preserve">
<path style="fill:#FDBF00;" d="M509.893,504.694c-2.999,4.499-7.8,7.2-12.9,7.2H15.008c-5.099,0-9.901-2.701-12.9-7.2
	c-2.701-4.2-2.701-9.901-0.601-14.399l50.199-99.398l44.999-29.999h318.591l44.999,29.999l50.199,99.398
	C512.594,494.793,512.594,500.494,509.893,504.694z"/>
<g>
	<path style="fill:#FF9F00;" d="M509.893,504.694c-2.999,4.499-7.8,7.2-12.9,7.2H256V360.898h159.295l44.999,29.999l50.199,99.398
		C512.594,494.793,512.594,500.494,509.893,504.694z"/>
	<polygon style="fill:#FF9F00;" points="460.294,390.897 51.707,390.897 111.706,270.9 156.704,240.901 355.298,240.901 
		400.296,270.9 	"/>
</g>
<g>
	<polygon style="fill:#FF7816;" points="460.294,390.897 256.001,390.897 256.001,240.901 355.298,240.901 400.296,270.9 	"/>
	<polygon style="fill:#FF7816;" points="400.296,270.9 111.706,270.9 171.704,150.904 216.703,120.905 295.299,120.905 
		340.298,150.904 	"/>
</g>
<g>
	<polygon style="fill:#FF4B00;" points="400.296,270.9 256.001,270.9 256.001,120.905 295.299,120.905 340.298,150.904 	"/>
	<path style="fill:#FF4B00;" d="M340.298,150.904H171.703L242.501,7.908c2.701-5.101,8.101-7.8,13.5-7.8c5.4,0,10.8,2.699,13.5,7.8
		L340.298,150.904z"/>
</g>
<path style="fill:#D03B00;" d="M340.298,150.904H256V0.107c5.4,0,10.8,2.699,13.5,7.8L340.298,150.904z"/>
<g>
</g>
<g>
</g>
<g>
</g>
<g>
</g>
<g>
</g>
<g>
</g>
<g>
</g>
<g>
</g>
<g>
</g>
<g>
</g>
<g>
</g>
<g>
</g>
<g>
</g>
<g>
</g>
<g>
</g>
</svg>
