<?xml version="1.0" encoding="iso-8859-1"?>
<!-- Generator: Adobe Illustrator 21.0.0, SVG Export Plug-In . SVG Version: 6.00 Build 0)  -->
<svg version="1.1" id="Capa_1" xmlns="http://www.w3.org/2000/svg" xmlns:xlink="http://www.w3.org/1999/xlink" x="0px" y="0px"
	 viewBox="0 0 512.001 512.001" style="enable-background:new 0 0 512.001 512.001;" xml:space="preserve">
<g>
	<path style="fill:#00C0F1;" d="M467,452.001c-8.291,0-15-6.709-15-15v-272c0-8.291,6.709-15,15-15s15,6.709,15,15v272
		C482,445.292,475.291,452.001,467,452.001z"/>
	<path style="fill:#00C0F1;" d="M467,270.001h-90c-8.291,0-15-6.709-15-15s6.709-15,15-15h90c8.291,0,15,6.709,15,15
		S475.291,270.001,467,270.001z"/>
</g>
<path style="fill:#25D9F8;" d="M272,345.001v122c0,8.399-6.599,15-15,15c-8.401,0-15-6.601-15-15v-122c0-8.401,6.599-15,15-15
	C265.401,330.001,272,336.6,272,345.001z"/>
<path style="fill:#00C0F1;" d="M272,345.001v122c0,8.399-6.599,15-15,15v-152C265.401,330.001,272,336.6,272,345.001z"/>
<path style="fill:#25D9F8;" d="M452,467.001c0,8.399-6.599,15-15,15H75c-8.401,0-15-6.601-15-15c0-8.401,6.599-15,15-15h362
	C445.401,452.001,452,458.6,452,467.001z"/>
<path style="fill:#00C0F1;" d="M452,467.001c0,8.399-6.599,15-15,15H257v-30h180C445.401,452.001,452,458.6,452,467.001z"/>
<g>
	<path style="fill:#25D9F8;" d="M45,452.001c-8.291,0-15-6.709-15-15v-362c0-8.291,6.709-15,15-15s15,6.709,15,15v362
		C60,445.292,53.291,452.001,45,452.001z"/>
	<path style="fill:#25D9F8;" d="M167,270.001H45c-8.291,0-15-6.709-15-15s6.709-15,15-15h122c8.291,0,15,6.709,15,15
		S175.291,270.001,167,270.001z"/>
	<path style="fill:#25D9F8;" d="M272,45.001v90c0,8.399-6.599,15-15,15c-8.401,0-15-6.601-15-15v-90c0-8.401,6.599-15,15-15
		C265.401,30.001,272,36.6,272,45.001z"/>
</g>
<path style="fill:#00C0F1;" d="M272,45.001v90c0,8.399-6.599,15-15,15v-120C265.401,30.001,272,36.6,272,45.001z"/>
<path style="fill:#25D9F8;" d="M362,45.001c0,8.399-6.599,15-15,15H75c-8.401,0-15-6.601-15-15c0-8.401,6.599-15,15-15h272
	C355.401,30.001,362,36.6,362,45.001z"/>
<path style="fill:#00C0F1;" d="M347,60.001h-90v-30h90c8.401,0,15,6.599,15,15C362,53.4,355.401,60.001,347,60.001z"/>
<g>
	<path style="fill:#A8EBFA;" d="M45,90.001c-24.814,0-45-20.186-45-45s20.186-45,45-45s45,20.186,45,45S69.814,90.001,45,90.001z"/>
	<path style="fill:#A8EBFA;" d="M45,512.001c-24.814,0-45-20.186-45-45s20.186-45,45-45s45,20.186,45,45S69.814,512.001,45,512.001z
		"/>
</g>
<path style="fill:#76E2F8;" d="M467,512.001c-24.814,0-45-20.186-45-45s20.186-45,45-45s45,20.186,45,45
	S491.814,512.001,467,512.001z"/>
<path style="fill:#FFCEBF;" d="M304.55,271.051l-17.999,17.999c-1.501,1.5-3.6,2.701-5.7,3.6l-63.6,21
	c-5.402,1.8-11.4,0.601-15.3-3.6c-4.2-3.9-5.4-9.901-3.6-15.3l20.999-63.6c0.901-2.1,2.1-4.2,3.602-5.7l17.999-17.999l51.301,8.699
	l3.6,3.6L304.55,271.051z"/>
<path style="fill:#F89580;" d="M295.851,219.75l8.699,51.301l-17.999,17.999c-1.501,1.5-3.6,2.701-5.7,3.6l-63.6,21
	c-5.402,1.8-11.4,0.601-15.3-3.6l92.1-92.1L295.851,219.75z"/>
<path style="fill:#5A5A5A;" d="M222.951,310.05l-14.702,14.7c-5.7,6-15.298,6-20.999,0c-6-5.7-6-15.3,0-21l14.7-14.7
	c5.7-6,15.3-6,21,0C228.95,294.75,228.95,304.35,222.951,310.05z"/>
<path style="fill:#444444;" d="M222.951,289.05c5.999,5.7,5.999,15.3,0,21l-14.702,14.7c-5.7,6-15.298,6-20.999,0L222.951,289.05z"
	/>
<path style="fill:#5A5A5A;" d="M498.95,76.952l-10.8,10.499l-51-8.699l-2.1-1.8l-1.8-1.8l-8.7-51.301l10.499-10.8
	c17.701-17.401,46.201-17.401,63.9,0C516.35,30.75,516.35,59.251,498.95,76.952z"/>
<path style="fill:#444444;" d="M498.95,76.952l-10.8,10.499l-51-8.699l-2.1-1.8l63.9-63.9C516.35,30.75,516.35,59.251,498.95,76.952
	z"/>
<rect x="234.726" y="102.476" transform="matrix(0.7071 -0.7071 0.7071 0.7071 2.5143 300.9617)" style="fill:#FF7816;" width="259.648" height="89.939"/>
<rect x="250.617" y="140.864" transform="matrix(0.7071 -0.7071 0.7071 0.7071 -4.0773 316.8565)" style="fill:#FF4B00;" width="259.647" height="44.972"/>
<g>
</g>
<g>
</g>
<g>
</g>
<g>
</g>
<g>
</g>
<g>
</g>
<g>
</g>
<g>
</g>
<g>
</g>
<g>
</g>
<g>
</g>
<g>
</g>
<g>
</g>
<g>
</g>
<g>
</g>
</svg>
