<?xml version="1.0" encoding="iso-8859-1"?>
<!-- Generator: Adobe Illustrator 21.0.0, SVG Export Plug-In . SVG Version: 6.00 Build 0)  -->
<svg version="1.1" id="Capa_1" xmlns="http://www.w3.org/2000/svg" xmlns:xlink="http://www.w3.org/1999/xlink" x="0px" y="0px"
	 viewBox="0 0 512 512" style="enable-background:new 0 0 512 512;" xml:space="preserve">
<rect x="241" y="62" style="fill:#5A5A5A;" width="30" height="90"/>
<rect x="256" y="62" style="fill:#444444;" width="15" height="90"/>
<g>
	<path style="fill:#5A5A5A;" d="M271,317v120c0,8.399-6.599,15-15,15s-15-6.601-15-15V317c0-8.401,6.599-15,15-15
		S271,308.599,271,317z"/>
	<path style="fill:#5A5A5A;" d="M451,377v60c0,8.399-6.599,15-15,15s-15-6.601-15-15v-45H91v45c0,8.399-6.599,15-15,15
		s-15-6.601-15-15v-60c0-8.401,6.599-15,15-15h360C444.401,362,451,368.599,451,377z"/>
</g>
<g>
	<path style="fill:#444444;" d="M271,317v120c0,8.399-6.599,15-15,15V302C264.401,302,271,308.599,271,317z"/>
	<path style="fill:#444444;" d="M451,377v60c0,8.399-6.599,15-15,15s-15-6.601-15-15v-45H256v-30h180
		C444.401,362,451,368.599,451,377z"/>
</g>
<path style="fill:#FFD400;" d="M346,0H166c-8.401,0-15,6.599-15,15v62c0,8.399,6.599,15,15,15h180c8.401,0,15-6.601,15-15V15
	C361,6.599,354.401,0,346,0z"/>
<g>
	<path style="fill:#76E2F8;" d="M256,422c-24.901,0-45,20.099-45,45c0,24.899,20.099,45,45,45s45-20.101,45-45
		C301,442.099,280.901,422,256,422z"/>
	<path style="fill:#76E2F8;" d="M136,512H15c-8.291,0-15-6.709-15-15v-60c0-8.291,6.709-15,15-15h121c8.291,0,15,6.709,15,15v60
		C151,505.291,144.291,512,136,512z"/>
</g>
<path style="fill:#25D9F8;" d="M497,512H376c-8.291,0-15-6.709-15-15v-60c0-8.291,6.709-15,15-15h121c8.291,0,15,6.709,15,15v60
	C512,505.291,505.291,512,497,512z"/>
<path style="fill:#FF7816;" d="M356.499,216.499l-90-90C263.8,123.5,259.9,122,256,122s-7.8,1.5-10.499,4.499l-90,90
	c-6,5.7-6,15.3,0,21l90,90C248.2,330.5,252.1,332,256,332s7.8-1.5,10.499-4.501l90-90C362.5,231.799,362.5,222.199,356.499,216.499z
	"/>
<path style="fill:#25D9F8;" d="M301,467c0,24.899-20.099,45-45,45v-90C280.901,422,301,442.099,301,467z"/>
<path style="fill:#FF4B00;" d="M266.499,327.499C263.8,330.5,259.9,332,256,332V122c3.9,0,7.8,1.5,10.499,4.499l90,90
	c6,5.7,6,15.3,0,21L266.499,327.499z"/>
<path style="fill:#FDBF00;" d="M346,92h-90V0h90c8.401,0,15,6.599,15,15v62C361,85.399,354.401,92,346,92z"/>
<g>
</g>
<g>
</g>
<g>
</g>
<g>
</g>
<g>
</g>
<g>
</g>
<g>
</g>
<g>
</g>
<g>
</g>
<g>
</g>
<g>
</g>
<g>
</g>
<g>
</g>
<g>
</g>
<g>
</g>
</svg>
