<?xml version="1.0" encoding="iso-8859-1"?>
<!-- Generator: Adobe Illustrator 19.0.0, SVG Export Plug-In . SVG Version: 6.00 Build 0)  -->
<svg version="1.1" id="Layer_1" xmlns="http://www.w3.org/2000/svg" xmlns:xlink="http://www.w3.org/1999/xlink" x="0px" y="0px"
	 viewBox="0 0 512 512" style="enable-background:new 0 0 512 512;" xml:space="preserve">
<circle style="fill:#FF5B62;" cx="256" cy="256" r="256"/>
<path style="fill:#666666;" d="M163.916,73.864H348.08c2.908,0,5.266,2.357,5.266,5.266v353.742c0,2.908-2.357,5.266-5.266,5.266
	H163.916c-2.908,0-5.266-2.357-5.266-5.266V79.128C158.65,76.221,161.008,73.864,163.916,73.864z"/>
<path style="fill:#FFFFFF;" d="M171.989,123.021h168.027c2.258,0,4.088,1.83,4.088,4.088v257.779c0,2.258-1.83,4.088-4.088,4.088
	H171.989c-2.258,0-4.088-1.83-4.088-4.088V127.109C167.902,124.851,169.731,123.021,171.989,123.021z"/>
<g>
	<path style="fill:#C0C1C4;" d="M211.78,96.352h88.435c2.03,0,3.677,1.646,3.677,3.677v0.005c0,2.03-1.646,3.677-3.677,3.677H211.78
		c-2.03,0-3.677-1.646-3.677-3.677v-0.005C208.104,97.999,209.749,96.352,211.78,96.352z"/>
	<circle style="fill:#C0C1C4;" cx="255.271" cy="414.65" r="12.217"/>
	<circle style="fill:#C0C1C4;" cx="182.903" cy="100.334" r="4.171"/>
</g>
<path style="fill:#FAD24D;" d="M281.957,304.714h24.23l-58.621,84.26h-24.23L281.957,304.714z"/>
<path style="fill:#EDB937;" d="M306.183,304.714h-24.23l38.973,56.017h24.23l-38.969-56.017H306.183z"/>
<path style="fill:#FAD24D;" d="M405.242,274.424l-60.086,86.306h-24.23l63.028-90.866l-27.112-7.238l65.836-31.768l2.162,49.684
	l-19.598-6.115L405.242,274.424L405.242,274.424z"/>
<path style="fill:#15BDB2;" d="M313.125,154.263l-19.468,19.094l21.967,19.011c3.667-4.905,5.839-10.998,5.839-17.593
	c0-7.981-3.178-15.214-8.337-20.517v0.005H313.125z"/>
<path style="fill:#FAD24D;" d="M294.512,139.51v29.385l20.978-20.577C310.155,142.882,302.728,139.51,294.512,139.51z"/>
<path style="fill:#FF5B62;" d="M292.036,145.394c-16.23,0-29.385,13.159-29.385,29.385c0,16.23,13.159,29.385,29.385,29.385
	c8.878,0,16.831-3.935,22.221-10.157l-22.221-19.232v-29.385V145.394z"/>
<path style="fill:#15BDB2;" d="M209.046,236.55c0-4.937,1.173-8.725,3.529-11.367c2.351-2.642,5.88-3.963,10.586-3.963
	c4.707,0,8.235,1.321,10.586,3.963s3.529,6.434,3.529,11.367v1.917h-9.062v-2.526c0-2.208-0.42-3.76-1.266-4.66
	c-0.84-0.9-2.018-1.348-3.529-1.348c-1.511,0-2.684,0.448-3.529,1.348c-0.84,0.9-1.261,2.452-1.261,4.66
	c0,2.088,0.466,3.935,1.395,5.533c0.928,1.598,2.092,3.109,3.482,4.531c1.395,1.422,2.891,2.845,4.485,4.268
	c1.598,1.422,3.095,2.974,4.489,4.66c1.395,1.686,2.554,3.598,3.482,5.751c0.928,2.148,1.395,4.674,1.395,7.579
	c0,4.937-1.206,8.725-3.617,11.367s-5.967,3.963-10.669,3.963c-4.707,0-8.263-1.321-10.674-3.963s-3.617-6.429-3.617-11.367v-3.746
	h9.062v4.355c0,2.208,0.448,3.746,1.348,4.619c0.9,0.873,2.106,1.307,3.617,1.307c1.511,0,2.716-0.434,3.617-1.307
	c0.9-0.873,1.348-2.411,1.348-4.619c0-2.092-0.466-3.935-1.395-5.533c-0.928-1.598-2.088-3.109-3.482-4.531
	c-1.395-1.422-2.891-2.845-4.485-4.268c-1.598-1.422-3.095-2.974-4.485-4.66c-1.395-1.686-2.554-3.598-3.487-5.751
	C209.512,241.982,209.046,239.455,209.046,236.55z M252.43,247.617h13.154v8.711H252.43v17.856h16.554v8.711h-26.138v-60.982h26.138
	v8.711H252.43v16.988V247.617z M283.704,268.873c0,2.208,0.448,3.76,1.348,4.66c0.9,0.9,2.106,1.348,3.617,1.348
	c1.51,0,2.716-0.453,3.617-1.348c0.9-0.9,1.348-2.452,1.348-4.66v-32.932c0-2.208-0.448-3.76-1.348-4.66
	c-0.9-0.9-2.106-1.348-3.617-1.348c-1.51,0-2.716,0.448-3.617,1.348c-0.9,0.9-1.348,2.452-1.348,4.66V268.873z M274.12,236.55
	c0-4.937,1.247-8.725,3.746-11.367s6.097-3.963,10.803-3.963c4.707,0,8.305,1.321,10.803,3.963s3.746,6.434,3.746,11.367v31.712
	c0,4.937-1.248,8.725-3.746,11.367s-6.097,3.963-10.803,3.963c-4.707,0-8.305-1.321-10.803-3.963
	c-2.499-2.642-3.746-6.429-3.746-11.367V236.55z"/>
<rect x="189.969" y="185.518" style="fill:#FF5B62;" width="13.228" height="15.852"/>
<rect x="209.96" y="163.501" style="fill:#FAD24D;" width="13.228" height="37.869"/>
<rect x="229.941" y="147.053" style="fill:#15BDB2;" width="13.228" height="54.324"/>
<g>
</g>
<g>
</g>
<g>
</g>
<g>
</g>
<g>
</g>
<g>
</g>
<g>
</g>
<g>
</g>
<g>
</g>
<g>
</g>
<g>
</g>
<g>
</g>
<g>
</g>
<g>
</g>
<g>
</g>
</svg>
