<?xml version="1.0" encoding="iso-8859-1"?>
<!-- Generator: Adobe Illustrator 19.0.0, SVG Export Plug-In . SVG Version: 6.00 Build 0)  -->
<svg version="1.1" id="Layer_1" xmlns="http://www.w3.org/2000/svg" xmlns:xlink="http://www.w3.org/1999/xlink" x="0px" y="0px"
	 viewBox="0 0 512 512" style="enable-background:new 0 0 512 512;" xml:space="preserve">
<circle style="fill:#0F7986;" cx="256" cy="256" r="256"/>
<path style="fill:#4D4D4D;" d="M175.037,73.864h184.164c2.908,0,5.266,2.357,5.266,5.266v353.742c0,2.908-2.357,5.266-5.266,5.266
	H175.037c-2.908,0-5.266-2.357-5.266-5.266V79.128C169.772,76.221,172.13,73.864,175.037,73.864z"/>
<path style="fill:#FAD24D;" d="M183.106,123.021h168.026c2.258,0,4.088,1.83,4.088,4.088v257.779c0,2.258-1.83,4.088-4.088,4.088
	H183.106c-2.258,0-4.088-1.83-4.088-4.088V127.109C179.019,124.851,180.849,123.021,183.106,123.021z"/>
<g>
	<path style="fill:#828282;" d="M222.898,96.352h88.435c2.03,0,3.677,1.646,3.677,3.677v0.005c0,2.03-1.646,3.677-3.677,3.677
		h-88.435c-2.03,0-3.677-1.646-3.677-3.677v-0.005C219.221,97.999,220.867,96.352,222.898,96.352z"/>
	<circle style="fill:#828282;" cx="266.39" cy="414.65" r="12.217"/>
	<circle style="fill:#828282;" cx="194.021" cy="100.334" r="4.171"/>
</g>
<path style="fill:#21D0C3;" d="M98.624,190.39H288.95c6.046,0,10.989,4.942,10.989,10.989v109.239
	c0,6.046-4.942,10.988-10.989,10.988H98.624c-6.046,0-10.989-4.942-10.989-10.988V201.379
	C87.637,195.333,92.578,190.39,98.624,190.39z"/>
<path style="fill:#0F7986;" d="M299.938,206.362v30.355H87.632v-30.355H299.938z"/>
<g>
	<path style="fill:#FFFFFF;" d="M98.496,249.289h144.858v8.706H98.496V249.289z M289.079,249.289h-24.087v8.706h24.087V249.289z"/>
	<path style="fill:#FFFFFF;" d="M100.939,272.06h21.846c1.339,0,2.438,1.099,2.438,2.438v21.431c0,1.344-1.099,2.438-2.438,2.438
		h-21.846c-1.344,0-2.438-1.095-2.438-2.438v-21.431C98.5,273.154,99.599,272.06,100.939,272.06z"/>
	<path style="fill:#FFFFFF;" d="M133.925,277.625h68.21v4.129h-68.21V277.625z M133.925,287.861h68.21v4.129h-68.21V287.861z"/>
</g>
<g>
</g>
<g>
</g>
<g>
</g>
<g>
</g>
<g>
</g>
<g>
</g>
<g>
</g>
<g>
</g>
<g>
</g>
<g>
</g>
<g>
</g>
<g>
</g>
<g>
</g>
<g>
</g>
<g>
</g>
</svg>
