<?xml version="1.0" encoding="iso-8859-1"?>
<!-- Generator: Adobe Illustrator 19.0.0, SVG Export Plug-In . SVG Version: 6.00 Build 0)  -->
<svg version="1.1" id="Layer_1" xmlns="http://www.w3.org/2000/svg" xmlns:xlink="http://www.w3.org/1999/xlink" x="0px" y="0px"
	 viewBox="0 0 512 512" style="enable-background:new 0 0 512 512;" xml:space="preserve">
<circle style="fill:#FAD24D;" cx="256" cy="256" r="256"/>
<path style="fill:#FF5B62;" d="M424.236,286.77l-30.416,17.66l11.607,5.729c-5.28,11.641-20.323,46.91-71.023,46.055
	l-77.198-158.555l0.239-0.095c1.785-0.706,2.67-2.747,1.964-4.535l-1.165-2.948l37.315-14.752c2.418,1.687,5.608,2.167,8.556,1.002
	c4.672-1.849,6.964-7.135,5.115-11.809c-1.849-4.672-7.134-6.961-11.806-5.115c-2.948,1.165-4.947,3.696-5.558,6.581l-37.336,14.76
	c-0.826-1.54-2.704-2.256-4.365-1.6l-1.718,0.68l-10.753-25.463c11.654-9.333,17.073-23.836,10.638-40.116
	c-6.434-16.278-27.389-26.741-45.336-19.648c-17.944,7.095-26.081,29.063-19.647,45.341c6.436,16.279,20.31,23.159,35.198,21.997
	l9.563,25.933l-1.718,0.68c-1.661,0.656-2.542,2.463-2.091,4.15l-37.339,14.76c-2.418-1.687-5.608-2.167-8.556-1.002
	c-4.672,1.849-6.961,7.134-5.115,11.806c1.849,4.675,7.134,6.964,11.806,5.118c2.948-1.162,4.947-3.696,5.558-6.578l37.315-14.752
	l1.165,2.948c0.709,1.788,2.749,2.67,4.535,1.964l0.239-0.095L286,375.352c-36.411,35.292-71.503,19.843-83.315,14.959l4.551-12.115
	l-34.27,7.911l17.283,37.315l5.985-15.935c54.393,21.126,101.982,6.628,101.982,6.628l0.189-0.293l0.063,0.197l32.633,4.635
	l20.643-25.695l-0.089-0.187l0.338,0.087c0,0,44.639-21.965,69.882-74.575l15.263,7.536L424.236,286.77z M223.763,147.129
	c-11.063,4.375-23.584-1.049-27.958-12.115c-4.375-11.063,1.049-23.584,12.115-27.958v-0.003
	c11.063-4.375,23.584,1.052,27.958,12.118C240.253,130.235,234.829,142.754,223.763,147.129z"/>
<g>
	<path style="fill:#FFFFFF;" d="M291.761,166.028l0.105-0.042c0.611-2.882,2.61-5.416,5.558-6.581
		c4.672-1.846,9.957,0.446,11.806,5.118c1.846,4.674-0.443,9.959-5.115,11.809c-2.948,1.165-6.138,0.682-8.556-1.002l-0.116,0.045
		C292.565,173.32,291.014,169.696,291.761,166.028z M190.863,216.717l-0.205,0.081c-0.617,2.882-2.61,5.413-5.558,6.581
		c-4.674,1.846-9.959-0.446-11.806-5.12c-1.849-4.672,0.443-9.959,5.115-11.806c2.948-1.165,6.138-0.685,8.556,1.002l0.095-0.037
		C189.971,209.442,191.561,213.048,190.863,216.717z M302.618,171.172l-0.011,0.005l-0.01,0.008h-0.005l-0.011,0.008l-0.016,0.008
		l-0.01,0.005l-0.016,0.011l-0.016,0.005l-0.01,0.008l0,0l-0.016,0.008l-0.013,0.008l-0.013,0.008l-0.013,0.008l-0.01,0.005
		l-0.01,0.008l-0.008,0.003l-0.013,0.005l-0.016,0.005l-0.011,0.008l-0.016,0.008l-0.016,0.008l-0.011,0.003l-0.003,0.003
		l-0.013,0.005l-0.018,0.008l-0.013,0.008l-0.013,0.005l-0.016,0.005l-0.013,0.008h-0.003l-0.013,0.005l-0.016,0.008l-0.016,0.008
		l-0.01,0.005l-0.018,0.008l-0.013,0.003c-1.946,0.768-4.144-0.184-4.915-2.13c-0.768-1.943,0.184-4.144,2.13-4.913l0.013-0.008
		l0.018-0.005l0.013-0.005l0.013-0.005l0.016-0.005l0.016-0.005l0,0l0.016-0.005l0.016-0.003l0.016-0.005l0.016-0.003l0.016-0.008
		l0.013-0.005l0.003-0.003l0.011-0.005l0.016-0.003l0.013-0.005l0.018-0.003l0.013-0.005l0.013-0.005l0.003-0.003l0.013-0.003
		l0.013-0.003l0.013-0.005l0.016-0.003l0.016-0.005l0.016-0.003l0,0l0.013-0.003l0.016-0.003l0.016-0.005l0.016-0.005l0.016-0.005
		l0.013-0.003h0.005l0.01-0.003l0.013-0.003c1.812-0.451,3.728,0.501,4.427,2.282c0.709,1.786-0.039,3.783-1.671,4.698
		L302.618,171.172z M182.663,218.593l0.013-0.003h0.011l0.003-0.003l0.016-0.003l0.016-0.003l0.011-0.003l0.021-0.005l0.013-0.005
		l0.013-0.003h0.003l0.016-0.003l0.013-0.003l0.016-0.005l0.016-0.005l0.013-0.003l0.011-0.005h0.005l0.013-0.008l0.013-0.003
		l0.016-0.005l0.016-0.005l0.016-0.005l0.013-0.008h0.003l0.013-0.005l0.018-0.008l0.013-0.003l0.013-0.005l0.018-0.005l0.013-0.005
		l0,0l0.013-0.005l0.013-0.003l0.018-0.005l0.011-0.005l0.016-0.008l0.013-0.005c1.946-0.768,2.898-2.966,2.13-4.915
		c-0.768-1.943-2.966-2.895-4.913-2.127l-0.013,0.005l-0.018,0.008l-0.013,0.005l-0.016,0.005l-0.013,0.005l-0.016,0.005l0,0
		l-0.013,0.005l-0.013,0.008l-0.013,0.008l-0.013,0.008l-0.016,0.005l-0.011,0.008h-0.003l-0.013,0.005l-0.013,0.008l-0.013,0.005
		l-0.013,0.008l-0.016,0.005l-0.01,0.008h-0.005l-0.011,0.008l-0.013,0.005l-0.016,0.005l-0.01,0.008l-0.016,0.011l-0.013,0.008
		h-0.003l-0.011,0.005l-0.013,0.008l-0.016,0.008l-0.013,0.005l-0.013,0.005l-0.011,0.011l-0.005,0.003l-0.011,0.005l-0.013,0.005
		c-1.632,0.913-2.373,2.911-1.668,4.695c0.706,1.784,2.613,2.731,4.427,2.285L182.663,218.593z"/>
	<path style="fill:#FFFFFF;" d="M248.445,179.828l1.721-0.68c1.661-0.656,3.541,0.06,4.362,1.6l3.717,9.333l1.165,2.945
		c0.706,1.788-0.179,3.829-1.964,4.535l-0.237,0.095l-23.3,9.212l-0.237,0.095c-1.786,0.706-3.829-0.179-4.535-1.964l-1.165-2.945
		l-3.67-9.351c-0.451-1.687,0.43-3.494,2.091-4.15l1.721-0.68l20.333-8.039L248.445,179.828z"/>
	<path style="fill:#FFFFFF;" d="M206.48,119.688c-78.741-79.532-149.034,14.92-114.975,76.592
		c18.598,33.674,70.176,63.713,160.942,70.559l2.468,7.984c-95.863-6.623-150.314-38.705-170.231-74.769
		c-38.359-69.46,42.193-171.806,127.31-85.841C216.206,118.394,210.724,123.63,206.48,119.688z M292.924,271.022
		c51.296,6.531,77.011,23.66,93.94,38.994c9.813,8.89,16.89,18.728,21.372,29.105c4.514,10.456,6.394,21.422,5.789,32.491
		c-1.102,19.982-10.309,40.271-26.755,58.43c-2.998,1.922-7.446-1.532-5.766-5.204c15.224-16.808,23.741-35.445,24.743-53.667
		c0.543-9.892-1.128-19.672-5.144-28.973c-4.05-9.375-10.486-18.306-19.444-26.421c-24.699-22.371-56.875-32.345-84.852-36.788
		l-3.882-7.968L292.924,271.022z"/>
</g>
<g>
	<path style="fill:#FF5B62;" d="M302.618,171.17l-0.011,0.011l-0.01,0.005l-0.005,0.003l-0.011,0.008l-0.013,0.008l-0.013,0.005
		l-0.016,0.011l-0.013,0.008l-0.011,0.005h-0.003l-0.013,0.008l-0.013,0.008l-0.013,0.008l-0.013,0.008l-0.013,0.005l-0.01,0.005
		l-0.005,0.003l-0.013,0.008l-0.016,0.005l-0.013,0.008l-0.016,0.005l-0.013,0.008l-0.013,0.005h-0.003l-0.013,0.008l-0.016,0.005
		l-0.013,0.008l-0.016,0.005l-0.013,0.005l-0.016,0.005l0,0l-0.013,0.005l-0.013,0.008l-0.016,0.005l-0.013,0.005l-0.018,0.008
		l-0.013,0.005c-1.946,0.769-4.147-0.184-4.915-2.13c-0.768-1.943,0.187-4.142,2.13-4.913l0.013-0.005l0.016-0.008l0.013-0.005
		l0.013-0.005l0.016-0.005l0.013-0.005l0,0l0.016-0.005l0.016-0.003l0.013-0.005l0.016-0.005l0.016-0.005l0.013-0.003h0.003
		l0.011-0.005l0.016-0.003l0.013-0.005l0.016-0.005l0.016-0.005l0.013-0.005h0.005l0.013-0.003l0.013-0.005l0.016-0.005l0.016-0.005
		l0.016-0.003l0.016-0.005h0.003l0.013-0.003l0.013-0.005l0.018-0.003l0.013-0.005l0.016-0.005l0.016-0.003l0.005-0.003l0.01-0.003
		l0.013-0.005c1.815-0.448,3.725,0.501,4.43,2.285s-0.039,3.783-1.671,4.693L302.618,171.17z"/>
	<path style="fill:#FF5B62;" d="M182.663,218.591l0.013-0.003l0.011-0.003l0.005-0.003l0.016-0.003l0.016-0.005l0.013-0.005
		l0.018-0.003l0.013-0.005l0.013-0.003h0.003l0.016-0.003l0.016-0.005l0.016-0.005l0.016-0.003l0.013-0.005l0.011-0.003h0.005
		l0.013-0.005l0.016-0.005l0.016-0.005l0.013-0.005l0.016-0.003l0.011-0.005h0.003l0.013-0.005l0.016-0.005l0.016-0.005l0.013-0.005
		l0.016-0.005l0.013-0.005l0,0l0.016-0.005l0.016-0.003l0.013-0.005l0.013-0.005l0.016-0.005l0.013-0.005
		c1.946-0.769,2.901-2.969,2.13-4.915c-0.769-1.943-2.966-2.898-4.915-2.127l-0.013,0.005l-0.018,0.008l-0.013,0.005l-0.016,0.005
		l-0.013,0.005l-0.016,0.005l0,0l-0.013,0.005l-0.013,0.008l-0.016,0.005l-0.013,0.008l-0.016,0.005l-0.013,0.008h-0.003
		l-0.013,0.005l-0.013,0.008l-0.016,0.005l-0.013,0.008l-0.016,0.005l-0.013,0.005l-0.005,0.003l-0.011,0.008l-0.013,0.005
		l-0.013,0.005l-0.013,0.008l-0.013,0.011l-0.013,0.005h-0.003l-0.011,0.005l-0.013,0.008l-0.016,0.011l-0.013,0.005l-0.013,0.008
		l-0.011,0.008l-0.005,0.003l-0.011,0.005l-0.013,0.008c-1.632,0.91-2.373,2.911-1.668,4.693c0.706,1.784,2.615,2.734,4.427,2.285
		L182.663,218.591z"/>
</g>
<g>
</g>
<g>
</g>
<g>
</g>
<g>
</g>
<g>
</g>
<g>
</g>
<g>
</g>
<g>
</g>
<g>
</g>
<g>
</g>
<g>
</g>
<g>
</g>
<g>
</g>
<g>
</g>
<g>
</g>
</svg>
