<?xml version="1.0" encoding="iso-8859-1"?>
<!-- Generator: Adobe Illustrator 19.0.0, SVG Export Plug-In . SVG Version: 6.00 Build 0)  -->
<svg version="1.1" id="Layer_1" xmlns="http://www.w3.org/2000/svg" xmlns:xlink="http://www.w3.org/1999/xlink" x="0px" y="0px"
	 viewBox="0 0 512 512" style="enable-background:new 0 0 512 512;" xml:space="preserve">
<circle style="fill:#FAD24D;" cx="256" cy="256" r="256"/>
<g>
	<path style="fill:#FFFFFF;" d="M78.319,71.721h304.705v406.587C345.591,499.743,302.228,512,256,512C114.614,512,0,397.386,0,256
		C0,183.628,30.039,118.282,78.319,71.721z"/>
	<circle style="fill:#FFFFFF;" cx="427.156" cy="392.264" r="84.844"/>
</g>
<circle style="fill:#FF5B62;" cx="427.156" cy="392.264" r="80.153"/>
<path style="fill:#21D0C3;" d="M383.766,324.862c11.216-7.233,24.354-11.742,38.478-12.595l4.907,79.996L383.766,324.862
	L383.766,324.862z"/>
<path style="fill:#666666;" d="M427.152,312.113c5.319,0,10.514,0.525,15.545,1.511l-15.545,78.638l-4.907-79.996
	C423.869,312.168,425.504,312.113,427.152,312.113z"/>
<path style="fill:#FAD24D;" d="M507.255,394.846c-1.365,43.07-36.701,77.567-80.104,77.567c-44.266,0-80.149-35.884-80.149-80.149
	c0-28.28,14.647-53.136,36.768-67.402l43.381,67.402L507.255,394.846L507.255,394.846z"/>
<path style="fill:#FF5B62;" d="M86.6,276.359l61.761-1.436l47.485-56.117l0.431-0.512l0.672,0.011l96.524,1.43v-42.101h2.852v43.542
	v1.441l-1.444-0.021l-97.296-1.441l-47.464,56.092l-0.411,0.486l-0.649,0.015L86.654,279.2L86.6,276.359z"/>
<path style="fill:#FAD24D;" d="M93.257,328.864l31.204-95.791l0.371-1.141l1.184,0.172l89.67,12.912l30.757-65.805l2.574,1.204
	l-31.202,66.764l-0.448,0.957l-1.041-0.15l-89.528-12.892l-30.834,94.652L93.257,328.864L93.257,328.864z"/>
<g>
	<path style="fill:#21D0C3;" d="M79.92,226.611l41.364-34.107l0.556-0.46l0.692,0.175l59.34,15.015l38.614-49.341l0.305-0.392
		l0.481-0.115l41.367-9.986l6.261-16.002l2.654,1.037l-6.53,16.69l-0.269,0.689l-0.723,0.176l-41.61,10.043l-38.881,49.682
		l-0.574,0.734l-0.891-0.227l-59.542-15.065l-40.807,33.647L79.92,226.611L79.92,226.611z"/>
	<circle style="fill:#21D0C3;" cx="270.222" cy="131.922" r="3.585"/>
	<circle style="fill:#21D0C3;" cx="263.695" cy="148.61" r="3.585"/>
	<circle style="fill:#21D0C3;" cx="221.607" cy="158.77" r="3.585"/>
	<circle style="fill:#21D0C3;" cx="182.414" cy="208.842" r="3.585"/>
	<circle style="fill:#21D0C3;" cx="122.181" cy="193.602" r="3.585"/>
</g>
<g>
	<circle style="fill:#FAD24D;" cx="125.814" cy="233.514" r="3.585"/>
	<circle style="fill:#FAD24D;" cx="216.527" cy="246.578" r="3.585"/>
	<circle style="fill:#FAD24D;" cx="247.726" cy="179.809" r="3.585"/>
</g>
<g>
	<circle style="fill:#FF5B62;" cx="294.904" cy="177.633" r="3.585"/>
	<circle style="fill:#FF5B62;" cx="294.904" cy="221.178" r="3.585"/>
	<circle style="fill:#FF5B62;" cx="196.935" cy="219.731" r="3.585"/>
	<circle style="fill:#FF5B62;" cx="149.039" cy="276.33" r="3.585"/>
</g>
<path style="fill:#ECF0F1;" d="M59.29,340.003h270.711v2.357H59.29V340.003z"/>
<g>
	<path style="fill:#C8CACC;" d="M187.784,354.676h118.515v2.524H187.784V354.676z M187.784,363.349h67.679v2.522h-67.679V363.349z"
		/>
	<path style="fill:#C8CACC;" d="M187.784,382.2h88.573v2.522h-88.573V382.2z M187.784,390.872h67.679v2.524h-67.679V390.872z"/>
	<path style="fill:#C8CACC;" d="M187.784,409.725h108.534v2.524H187.784V409.725z M187.784,418.398h67.679v2.522h-67.679V418.398z"
		/>
	<path style="fill:#C8CACC;" d="M187.784,437.25h98.553v2.522h-98.553V437.25z M187.784,445.922h67.679v2.524h-67.679V445.922z"/>
</g>
<rect x="165.487" y="353.649" style="fill:#FBB429;" width="13.255" height="13.255"/>
<rect x="165.487" y="381.176" style="fill:#FF5B62;" width="13.255" height="13.255"/>
<rect x="165.487" y="408.692" style="fill:#21D0C3;" width="13.255" height="13.255"/>
<g>
	<rect x="165.487" y="436.218" style="fill:#807D7D;" width="13.255" height="13.255"/>
	<path style="fill:#807D7D;" d="M85.73,309.628l95.526-13.003l23.797-30.242l0.458-0.585l0.745,0.045l58.249,3.484l24.707-23.719
		l1.972,2.05l-25.157,24.152l-0.45,0.431l-0.619-0.035l-58.125-3.477l-23.692,30.107l-0.354,0.45l-0.575,0.079l-96.103,13.081
		L85.73,309.628L85.73,309.628z"/>
	<circle style="fill:#807D7D;" cx="182.244" cy="297.988" r="3.585"/>
	<circle style="fill:#807D7D;" cx="206.317" cy="267.418" r="3.585"/>
	<circle style="fill:#807D7D;" cx="265.432" cy="270.552" r="3.585"/>
	<circle style="fill:#807D7D;" cx="290.113" cy="247.097" r="3.585"/>
</g>
<path style="fill:#ECF0F1;" d="M61.795,342.36V129.582h-2.357V342.36H61.795z"/>
<g>
</g>
<g>
</g>
<g>
</g>
<g>
</g>
<g>
</g>
<g>
</g>
<g>
</g>
<g>
</g>
<g>
</g>
<g>
</g>
<g>
</g>
<g>
</g>
<g>
</g>
<g>
</g>
<g>
</g>
</svg>
