<?xml version="1.0" encoding="iso-8859-1"?>
<!-- Generator: Adobe Illustrator 19.0.0, SVG Export Plug-In . SVG Version: 6.00 Build 0)  -->
<svg version="1.1" id="Layer_1" xmlns="http://www.w3.org/2000/svg" xmlns:xlink="http://www.w3.org/1999/xlink" x="0px" y="0px"
	 viewBox="0 0 511.998 511.998" style="enable-background:new 0 0 511.998 511.998;" xml:space="preserve">
<circle style="fill:#ECF0F1;" cx="255.999" cy="255.999" r="255.999"/>
<circle style="fill:#21D0C3;" cx="255.999" cy="255.999" r="255.999"/>
<path style="fill:#FFFFFF;" d="M89.572,61.491h332.855h49.549c6.004,0,10.917,4.914,10.917,10.917v64.959v237.268
	c-95.571,182.405-358.215,182.405-453.784-0.002V137.37V72.409c0-6.004,4.912-10.917,10.917-10.917h49.549L89.572,61.491z"/>
<g>
	<path style="fill:#ECF0F1;" d="M65.656,390.689h81.948v4.992H65.656V390.689z M65.656,415.016h58.047v4.992H65.656V415.016z
		 M65.656,402.852h81.948v4.992H65.656V402.852z"/>
	<path style="fill:#ECF0F1;" d="M215.025,390.689h81.948v4.992h-81.948L215.025,390.689L215.025,390.689z M215.025,415.016h58.047
		v4.992h-58.047V415.016z M215.025,402.852h81.948v4.992h-81.948L215.025,402.852L215.025,402.852z"/>
</g>
<path style="fill:#FF5B62;" d="M203.036,289.015h105.928v84.207H203.036V289.015z"/>
<path style="fill:#21D0C3;" d="M53.668,289.015h105.928v84.207H53.668V289.015z"/>
<path style="fill:#828282;" d="M40.023,61.491h431.951c6.004,0,10.917,4.912,10.917,10.917v21.83H29.106v-21.83
	C29.106,66.403,34.018,61.491,40.023,61.491z"/>
<path style="fill:#FFFFFF;" d="M231.13,72.798h219.201c1.62,0,2.932,1.312,2.932,2.932v5.441c0,1.62-1.312,2.932-2.932,2.932H231.13
	c-1.62,0-2.932-1.312-2.932-2.932V75.73C228.197,74.11,229.51,72.798,231.13,72.798z"/>
<circle style="fill:#15BDB2;" cx="50.881" cy="77.129" r="6.286"/>
<circle style="fill:#FAD24D;" cx="75.692" cy="77.129" r="6.286"/>
<circle style="fill:#FF5B62;" cx="100.503" cy="77.129" r="6.286"/>
<rect x="53.668" y="106.242" style="fill:#ECF0F1;" width="404.668" height="133.489"/>
<path style="fill:#FAD24D;" d="M422.977,281.373l11.688-15.676l27.483,15.868l-7.741,17.983c5.327,4.405,10.226,9.307,14.633,14.633
	l17.983-7.741l15.868,27.483l-15.676,11.688c2.388,6.405,4.189,13.096,5.347,20.007l19.436,2.287v31.737l-19.436,2.287
	c-1.156,6.909-2.956,13.599-5.347,20.007l15.676,11.688l-15.868,27.483l-17.985-7.741c-4.405,5.327-9.307,10.226-14.633,14.633
	l7.741,17.983l-27.483,15.868l-11.69-15.676c-6.405,2.388-13.096,4.189-20.007,5.347l-2.286,19.436h-31.737l-2.286-19.436
	c-6.909-1.156-13.599-2.956-20.007-5.347l-11.688,15.676l-27.483-15.868l7.741-17.985c-5.327-4.405-10.226-9.307-14.633-14.633
	l-17.983,7.741l-15.868-27.483l15.676-11.69c-2.388-6.405-4.189-13.096-5.347-20.007l-19.436-2.286V367.9l19.436-2.286
	c1.156-6.91,2.956-13.599,5.347-20.007l-15.676-11.688l15.868-27.483l17.985,7.741c4.405-5.327,9.307-10.226,14.633-14.633
	l-7.741-17.983l27.483-15.868l11.69,15.676c6.405-2.388,13.096-4.189,20.007-5.347l2.287-19.436h31.737l2.287,19.436
	c6.907,1.156,13.601,2.956,20.007,5.347L422.977,281.373L422.977,281.373z"/>
<circle style="fill:#ECF0F1;" cx="384.817" cy="383.769" r="94.106"/>
<circle style="fill:#FFFFFF;" cx="384.817" cy="383.769" r="90.044"/>
<path style="fill:#21D0C3;" d="M381.304,303.964h6.063v-10.186c-0.846-0.029-1.535-0.051-2.549-0.051s-2.348,0.031-3.514,0.088
	v10.151L381.304,303.964L381.304,303.964z"/>
<path style="fill:#FAD24D;" d="M381.277,314.503h6.118c1.468,0,2.668-1.2,2.668-2.668v-6.311c0-1.466-1.2-2.668-2.668-2.668h-6.118
	c-1.468,0-2.668,1.202-2.668,2.668v6.311C378.609,313.304,379.811,314.503,381.277,314.503z"/>
<path style="fill:#21D0C3;" d="M359.408,355.648h50.824v-29.454c0-9-7.362-16.362-16.362-16.362h-18.1
	c-8.998,0-16.362,7.362-16.362,16.362L359.408,355.648L359.408,355.648z"/>
<g>
	<path style="fill:#FAD24D;" d="M358.175,358.728h53.289c2.075,0,3.773-1.696,3.773-3.773l0,0c0-2.075-1.698-3.773-3.773-3.773
		h-53.289c-2.075,0-3.773,1.698-3.773,3.773l0,0C354.402,357.032,356.1,358.728,358.175,358.728z"/>
	<path style="fill:#FAD24D;" d="M369.715,366.057h0.948c1.751,0,3.182,1.433,3.182,3.18v26.271c0,1.749-1.431,3.18-3.182,3.18
		h-0.948c-1.749,0-3.182-1.431-3.182-3.18v-26.271C366.534,367.488,367.967,366.057,369.715,366.057z"/>
	<path style="fill:#FAD24D;" d="M397.82,366.057h0.948c1.749,0,3.182,1.433,3.182,3.18v26.271c0,1.749-1.433,3.18-3.182,3.18h-0.948
		c-1.749,0-3.18-1.431-3.18-3.18v-26.271C394.641,367.488,396.072,366.057,397.82,366.057z"/>
</g>
<path style="fill:#21D0C3;" d="M381.304,448.214h6.063v25.559c-0.846,0.029-1.535,0.049-2.549,0.049s-2.348-0.031-3.512-0.084
	v-25.523h-0.002V448.214z"/>
<path style="fill:#FAD24D;" d="M381.277,437.672h6.118c1.468,0,2.668,1.202,2.668,2.67v6.311c0,1.468-1.2,2.668-2.668,2.668h-6.118
	c-1.468,0-2.668-1.2-2.668-2.668v-6.311C378.609,438.874,379.809,437.672,381.277,437.672z"/>
<path style="fill:#21D0C3;" d="M359.408,396.528h50.824v29.454c0,9-7.362,16.362-16.362,16.362h-18.1
	c-8.998,0-16.362-7.362-16.362-16.362L359.408,396.528L359.408,396.528z"/>
<path style="fill:#FAD24D;" d="M358.175,393.448h53.289c2.073,0,3.773,1.698,3.773,3.773l0,0c0,2.075-1.698,3.773-3.773,3.773
	h-53.289c-2.075,0-3.773-1.696-3.773-3.773l0,0C354.402,395.146,356.1,393.448,358.175,393.448z"/>
<g>
</g>
<g>
</g>
<g>
</g>
<g>
</g>
<g>
</g>
<g>
</g>
<g>
</g>
<g>
</g>
<g>
</g>
<g>
</g>
<g>
</g>
<g>
</g>
<g>
</g>
<g>
</g>
<g>
</g>
</svg>
