<?xml version="1.0" encoding="iso-8859-1"?>
<!-- Generator: Adobe Illustrator 19.0.0, SVG Export Plug-In . SVG Version: 6.00 Build 0)  -->
<svg version="1.1" id="Layer_1" xmlns="http://www.w3.org/2000/svg" xmlns:xlink="http://www.w3.org/1999/xlink" x="0px" y="0px"
	 viewBox="0 0 512 512" style="enable-background:new 0 0 512 512;" xml:space="preserve">
<circle style="fill:#FAD24D;" cx="256" cy="256" r="256"/>
<ellipse style="fill:#EDB937;" cx="256" cy="421.646" rx="182.284" ry="14.369"/>
<path style="fill:#666666;" d="M65.979,67.222h380.037c12.485,0,22.702,10.217,22.702,22.702V324.03H43.282V89.922
	c0-12.485,10.217-22.702,22.702-22.702L65.979,67.222L65.979,67.222z"/>
<path style="fill:#DCE3DB;" d="M58.695,308.617h394.609V89.927c0-3.977-3.308-7.289-7.284-7.289H65.984
	c-3.977,0-7.284,3.307-7.284,7.289v218.69H58.695z"/>
<g>
	<path style="fill:#FFFFFF;" d="M468.718,324.03v24.826c0,12.49-11.261,22.702-25.024,22.702H68.307
		c-13.764,0-25.024-10.212-25.024-22.702V324.03H468.718z"/>
	<path style="fill:#FFFFFF;" d="M141.237,115.529h229.525h34.165c4.143,0,7.528,3.39,7.528,7.528v44.793v140.767H99.544V167.851
		v-44.793c0-4.143,3.385-7.528,7.528-7.528L141.237,115.529L141.237,115.529z"/>
</g>
<path style="fill:#828282;" d="M107.072,115.529h297.855c4.143,0,7.528,3.385,7.528,7.528v15.053H99.544v-15.053
	C99.544,118.915,102.929,115.529,107.072,115.529z"/>
<path style="fill:#FFFFFF;" d="M226.385,123.326h163.62c1.113,0,2.023,0.914,2.023,2.023v3.751c0,1.109-0.91,2.023-2.023,2.023
	h-163.62c-1.109,0-2.018-0.91-2.018-2.023v-3.751C224.366,124.235,225.276,123.326,226.385,123.326z"/>
<path style="fill:#21D0C3;" d="M117.335,121.982c2.392,0,4.333,1.94,4.333,4.333s-1.94,4.333-4.333,4.333
	c-2.397,0-4.337-1.94-4.337-4.333C112.998,123.917,114.939,121.982,117.335,121.982z"/>
<path style="fill:#FAD24D;" d="M134.438,121.982c2.397,0,4.333,1.94,4.333,4.333s-1.94,4.333-4.333,4.333s-4.333-1.94-4.333-4.333
	C130.106,123.917,132.046,121.982,134.438,121.982z"/>
<path style="fill:#FF5B62;" d="M151.551,121.982c2.392,0,4.333,1.94,4.333,4.333s-1.94,4.333-4.333,4.333
	c-2.397,0-4.338-1.94-4.338-4.333C147.214,123.917,149.154,121.982,151.551,121.982z"/>
<g>
	<rect x="274.474" y="164.489" style="fill:#ECF0F1;" width="124.587" height="14.323"/>
	<rect x="274.474" y="225.17" style="fill:#ECF0F1;" width="124.587" height="47.976"/>
</g>
<rect x="274.474" y="155.177" style="fill:#21D0C3;" width="39.203" height="3.94"/>
<rect x="274.474" y="193.442" style="fill:#ECF0F1;" width="124.587" height="14.323"/>
<g>
	<rect x="274.474" y="184.13" style="fill:#21D0C3;" width="39.203" height="3.94"/>
	<rect x="274.474" y="215.509" style="fill:#21D0C3;" width="39.203" height="3.94"/>
</g>
<rect x="274.474" y="278.776" style="fill:#FF5B62;" width="38.205" height="12.281"/>
<rect x="115.614" y="155.177" style="fill:#ECF0F1;" width="137.811" height="110.714"/>
<path style="fill:#FFFFFF;" d="M212.15,265.894l-46.931-35.324l-43.971,35.324h-5.63v-4.522l89.946-72.261l-50.373-33.93h12.646
	l43.495,29.297l36.47-29.297h5.63v4.526l-82.542,66.311l52.978,39.878h-11.713L212.15,265.894z"/>
<path style="fill:#FF5B62;" d="M163.684,206.121h-0.735c-4.864-10.055-9.704-20.152-14.701-30.142
	c-2.9-5.797-3.413-11.478,0.009-17.394c2.707-4.674,8.342-8.581,13.963-8.581c4.194,0,7.08,0.402,10.54,2.693
	c2.341,1.552,4.027,3.243,5.533,5.741c3.552,5.893,3.062,11.616,0.097,17.547l-14.701,30.142L163.684,206.121z"/>
<circle style="fill:#FFFFFF;" cx="163.331" cy="166.445" r="11.27"/>
<circle style="fill:#FAD24D;" cx="163.331" cy="166.445" r="5.385"/>
<circle style="fill:#B6B6B8;" cx="256" cy="346.803" r="7.815"/>
<path style="fill:#C2C2C4;" d="M305.065,407.27l36.096,11.565H170.839l29.121-11.565v-35.712h105.105V407.27z"/>
<path style="fill:#B6B6B8;" d="M305.065,407.27L199.96,371.557h105.105V407.27z"/>
<path style="fill:#ECF0F1;" d="M199.96,407.27h105.105l36.096,11.565v4.983H256h-85.166v-4.983l29.121-11.565H199.96z"/>
<g>
</g>
<g>
</g>
<g>
</g>
<g>
</g>
<g>
</g>
<g>
</g>
<g>
</g>
<g>
</g>
<g>
</g>
<g>
</g>
<g>
</g>
<g>
</g>
<g>
</g>
<g>
</g>
<g>
</g>
</svg>
