<?xml version="1.0" encoding="iso-8859-1"?>
<!-- Generator: Adobe Illustrator 19.0.0, SVG Export Plug-In . SVG Version: 6.00 Build 0)  -->
<svg version="1.1" id="Layer_1" xmlns="http://www.w3.org/2000/svg" xmlns:xlink="http://www.w3.org/1999/xlink" x="0px" y="0px"
	 viewBox="0 0 512 512" style="enable-background:new 0 0 512 512;" xml:space="preserve">
<circle style="fill:#FF5B62;" cx="256" cy="256" r="256"/>
<path style="fill:#919191;" d="M233.187,181.448h237.285c7.576,0,13.776,6.2,13.776,13.776v131.145
	c0,7.577-6.2,13.776-13.776,13.776H233.187c-7.577,0-13.776-6.199-13.776-13.776V195.224
	C219.41,187.648,225.609,181.448,233.187,181.448z"/>
<path style="fill:#FFFFFF;" d="M232.359,191.752h238.94V329.84h-238.94V191.752z"/>
<path style="fill:#919191;" d="M279.49,340.146h17.393v5.337H279.49V340.146z M406.777,340.146h17.393v5.337h-17.393V340.146z"/>
<path style="fill:#F0BA7D;" d="M383.159,233.056h-6.99h-21.202h-6.989l-2.851,29.65l-5.06,4.061l-10.676,6.797l23.824,56.278h24.702
	l23.826-56.278l-10.675-6.797l-5.064-4.058L383.159,233.056L383.159,233.056z"/>
<path style="fill:#ECF0F1;" d="M394.765,268.961l29.159,9.306l-37.272,51.575H348.21l-32.294-54.285l20.602-6.53l18.143,12.807
	h21.75L394.765,268.961z"/>
<path style="fill:#FAD24D;" d="M372.076,280.66l-2.493,6.148l3.403,43.034h-14.843l3.403-43.034l-2.493-6.148l6.511-0.26
	L372.076,280.66z"/>
<path style="fill:#21D0C3;" d="M394.265,268.802l51.576,16.463c0,0,6.675,3.47,8.691,14.03c1.75,9.159,2.733,18.506,4.037,30.548
	h-84.812L394.265,268.802L394.265,268.802z M272.563,329.843c1.304-12.044,2.29-21.39,4.039-30.548
	c2.014-10.559,8.691-14.03,8.691-14.03l51.225-16.237l20.737,60.815L272.563,329.843L272.563,329.843z"/>
<path style="fill:#2BE3D7;" d="M394.265,268.802l11.125,3.552l2.138,28.228c0,0-0.59,2.319-2.356,2.111l-10.039,3.775
	c0,0-0.658,0.659-0.07,1.489l8.592,5.887l-8.488,16h-21.409L394.265,268.802L394.265,268.802z M335.968,329.843l-8.489-16
	l8.593-5.887c0.587-0.829-0.07-1.489-0.07-1.489l-10.04-3.775c-1.766,0.209-2.355-2.111-2.355-2.111l2.131-28.137l10.781-3.417
	l20.738,60.815h-21.287V329.843z"/>
<path style="fill:#FED298;" d="M406.539,172.759c0,2.756,1.005,5.453,0.93,8.097c9.427-1.75,4.875,26.253-0.46,30.102
	c-0.422,0.306-1.466-0.376-2.344-0.937c-1.85,10.299-17.641,37.82-27.681,49.405c-2.789,3.216-19.839,3.163-22.601,0.123
	c-10.282-11.321-26.054-39.168-27.914-49.526c-0.88,0.561-1.922,1.244-2.345,0.937c-5.334-3.848-9.888-31.851-0.458-30.102
	c-0.076-2.644,0.93-5.341,0.93-8.097c0.522-21.745,20.225-32.599,40.971-32.693C386.313,140.159,406.017,151.014,406.539,172.759
	L406.539,172.759z"/>
<path style="fill:#828282;" d="M393.905,144.885c2.973-0.346,13.712,2.944,15.001,14.307c1.29,11.363,0.675,21.831,0.675,21.831
	s-6.293,1.588-7.084,8.036c-0.79,6.45-0.227,6.45-0.227,6.45l-2.28-0.513l-1.623-11.055c-9.413-5.898,0.072-14.635-9.344-16.68
	c-25.426,18.123-47.863,15.02-57.979,6.495c0,0,2.362,8.917,0.541,12.096c-1.821,3.179-0.735,8.189-0.735,8.189l-2.364-0.112
	c0,0,0.428-13.132-4.822-13.073C303.717,147.921,366.866,107.009,393.905,144.885L393.905,144.885z"/>
<g>
	<path style="fill:#FFFFFF;" d="M386.251,258.473c-0.738,0.051,8.611,10.596,8.611,10.596l-7.957,27.251l-21.336-15.92
		C377.302,274.642,384.306,267.182,386.251,258.473z"/>
	<path style="fill:#FFFFFF;" d="M344.88,258.473c0.738,0.051-8.608,10.596-8.608,10.596l7.957,27.251l21.336-15.92
		C353.831,274.642,346.825,267.182,344.88,258.473z"/>
</g>
<path style="fill:#FAD24D;" d="M411.544,186.68c4.461-22.266-4.166-37.823-17.711-46.449c-8.39-5.343-18.668-8.066-28.914-8.112
	c-10.236-0.046-20.424,2.579-28.647,7.932c-13.036,8.485-21.139,23.944-16.594,46.629l-3.468,0.691
	c-4.881-24.356,3.96-41.046,18.143-50.277c8.809-5.734,19.683-8.547,30.58-8.497c10.887,0.05,21.831,2.957,30.793,8.664
	c14.704,9.363,24.086,26.163,19.287,50.11L411.544,186.68L411.544,186.68z"/>
<path style="fill:#828282;" d="M317.955,182.891l3.515-0.412c1.19-0.14,2.283,0.84,2.44,2.19l3.41,29.078
	c0.159,1.348-0.678,2.555-1.867,2.695l-3.515,0.412c-1.19,0.14-2.283-0.84-2.44-2.19l-3.41-29.078
	C315.929,184.237,316.765,183.031,317.955,182.891z"/>
<path style="fill:#FAD24D;" d="M312.451,187.579l3.818-0.448l2.994,25.527l-3.845,0.451c-2.085,0.244-3.99-1.262-4.234-3.345
	l-2.102-17.921C308.836,189.743,310.351,187.825,312.451,187.579z"/>
<path style="fill:#828282;" d="M413.177,182.891l-3.515-0.412c-1.19-0.14-2.283,0.84-2.44,2.19l-3.41,29.078
	c-0.158,1.348,0.678,2.555,1.867,2.695l3.515,0.412c1.19,0.14,2.283-0.84,2.44-2.19l3.41-29.078
	C415.202,184.237,414.367,183.031,413.177,182.891z"/>
<path style="fill:#FAD24D;" d="M418.682,187.579l-3.818-0.448l-2.994,25.527l3.845,0.451c2.085,0.244,3.99-1.262,4.234-3.345
	l2.102-17.921C422.297,189.743,420.782,187.825,418.682,187.579z"/>
<g>
	<path style="fill:#828282;" d="M413.432,210.496c-2.509,11.105-9.155,19.441-17.806,24.951c-6.424,4.09-13.956,6.646-21.732,7.639
		v3.548c8.437-1.017,16.634-3.765,23.625-8.217c9.639-6.138,16.992-15.473,19.561-27.921H413.432z"/>
	<path style="fill:#828282;" d="M363.827,239.837h12.007c0.861,0,1.56,0.699,1.56,1.56v6.238c0,0.861-0.699,1.56-1.56,1.56h-12.007
		c-0.861,0-1.56-0.699-1.56-1.56v-6.238C362.268,240.534,362.967,239.837,363.827,239.837z"/>
</g>
<path style="fill:#B6B6B8;" d="M216.32,345.48h288.303v9.747c0,5.361-4.862,9.746-10.806,9.746H227.126
	c-5.944,0-10.806-4.385-10.806-9.746L216.32,345.48L216.32,345.48z"/>
<path style="fill:#919191;" d="M217.251,359.172h286.443c-1.688,3.409-5.487,5.801-9.876,5.801H227.126
	C222.738,364.973,218.938,362.581,217.251,359.172z"/>
<path style="fill:#FED298;" d="M97.14,137.069c0,5.103-1.862,34.617-1.723,39.514c-17.462-3.24-5.522,48.635,4.352,55.754
	c0.772,0.559,2.716-0.698,4.345-1.736c2.595,14.449,16.508,33.137,32.882,50.676l-6.818,57.162l42.877-2.593l42.877,2.593
	l-6.803-57.03c16.483-17.422,30.21-36.353,32.806-50.809c1.632,1.037,3.569,2.294,4.345,1.736
	c9.875-7.118,21.813-58.993,4.352-55.754c0.139-4.896-1.723-34.412-1.723-39.514c-0.966-40.273-37.46-60.379-75.886-60.552
	C134.599,76.69,98.105,96.796,97.14,137.069z"/>
<path style="fill:#CCCCCC;" d="M118.946,324.792L64.94,342.03l108.085,149.563l91.96-154.582l-38.158-12.095l-33.6,23.722h-40.282
	L118.946,324.792L118.946,324.792z"/>
<path style="fill:#0F5F9B;" d="M160.968,346.46l4.617,11.389l-10.261,129.79l10.425,7.979c3.289,1.239,6.608,2.413,9.96,3.52
	l15.024-11.499l-10.261-129.79l4.617-11.389l-12.059-0.481L160.968,346.46L160.968,346.46z"/>
<path style="fill:#FAD24D;" d="M119.872,324.499l-95.525,30.488c0,0-1.418,0.738-3.437,2.47C60.198,448.371,150.663,512,256,512
	c35.187,0,68.715-7.104,99.231-19.948c-7.076-47.26-15.306-99.956-17.43-111.08c-3.654-19.142-16.099-25.984-16.099-25.984
	l-94.876-30.072C190.793,307.644,155.115,306.23,119.872,324.499L119.872,324.499z"/>
<path style="fill:#FFFFFF;" d="M137.037,291.552c-13.008,6.125-11.997,12.41-11.997,12.41l-1.469,18.969
	c30.904-15.358,68.001-15.36,98.907,0l-1.469-18.969c0,0,0.666-5.598-11.994-12.41C191.125,281.927,158.208,281.581,137.037,291.552
	z"/>
<g>
	<path style="fill:#828282;" d="M120.086,88.283c-18.869,13.757-42.202,31.104-33.733,57.99l17.155,54.486
		c7.793,24.752,8.946,69.774,45.456,69.318l24.105-0.301l24.103,0.301c36.512,0.456,37.663-44.564,45.457-69.318l17.156-54.486
		c8.467-26.888-14.868-44.233-33.735-57.99C204.537,72.6,141.602,72.598,120.086,88.283z"/>
	<path style="fill:#828282;" d="M90.356,174.351L90.356,174.351c3.9-0.622,7.634,2.459,8.34,6.883l7.224,45.308
		c0.706,4.422-1.885,8.512-5.786,9.134l0,0c-3.9,0.622-7.634-2.459-8.34-6.883l-7.224-45.308
		C83.864,179.063,86.454,174.973,90.356,174.351z"/>
</g>
<path style="fill:#FAD24D;" d="M77.546,183.776l6.894-1.099l7.35,46.093l-6.94,1.106c-3.765,0.601-7.337-1.988-7.937-5.753
	l-5.16-32.356C71.147,187.977,73.755,184.38,77.546,183.776L77.546,183.776z"/>
<path style="fill:#828282;" d="M257.656,174.351L257.656,174.351c-3.9-0.622-7.634,2.459-8.34,6.883l-7.224,45.308
	c-0.706,4.422,1.885,8.512,5.786,9.134l0,0c3.9,0.622,7.634-2.459,8.34-6.883l7.224-45.308
	C264.147,179.063,261.556,174.973,257.656,174.351z"/>
<g>
	<path style="fill:#FAD24D;" d="M270.466,183.776l-6.894-1.099l-7.35,46.093l6.94,1.106c3.765,0.601,7.337-1.988,7.936-5.753
		l5.159-32.356C276.864,187.977,274.256,184.38,270.466,183.776L270.466,183.776z"/>
	<path style="fill:#FAD24D;" d="M264.13,182.651c8.755-43.689-8.186-74.221-34.785-91.158
		c-16.454-10.477-36.603-15.818-56.688-15.909c-20.071-0.091-40.046,5.059-56.176,15.559c-25.6,16.664-41.517,47.004-32.598,91.508
		l-5.779,1.151c-9.476-47.29,7.668-79.679,35.177-97.585c17.107-11.135,38.224-16.599,59.399-16.502
		c21.156,0.097,42.414,5.747,59.819,16.828c28.527,18.165,46.726,50.767,37.409,97.259L264.13,182.651L264.13,182.651z"/>
</g>
<g>
</g>
<g>
</g>
<g>
</g>
<g>
</g>
<g>
</g>
<g>
</g>
<g>
</g>
<g>
</g>
<g>
</g>
<g>
</g>
<g>
</g>
<g>
</g>
<g>
</g>
<g>
</g>
<g>
</g>
</svg>
