<svg height="512pt" viewBox="-16 0 512 512" width="512pt" xmlns="http://www.w3.org/2000/svg"><g fill="#deecf1"><path d="m0 226h60v30h-60zm0 0"/><path d="m23.320312 153.527344 45.003907 30-16.640625 24.960937-45.003906-30zm0 0"/><path d="m51.667969 273.519531 16.640625 24.964844-45.003906 30-16.640626-24.964844zm0 0"/></g><path d="m420 226h60v30h-60zm0 0" fill="#c5d3dd"/><path d="m456.671875 153.542969 16.640625 24.960937-45.003906 30-16.640625-24.964844zm0 0" fill="#c5d3dd"/><path d="m428.339844 273.53125 45.003906 30-16.640625 24.964844-45-30zm0 0" fill="#c5d3dd"/><path d="m330 196v-196h-240v316h240v-60l30-30.902344zm-60 0-30 29.097656 30 30.902344h-120v-196h120zm0 0" fill="#25d9f8"/><path d="m360 225.097656-30 30.902344v60h-120v-60h60l-30-30.902344 30-29.097656v-136h-60v-60h120v196zm0 0" fill="#00c0f1"/><path d="m390 196v316h-240v-316h120v60h-60v196h120v-256zm0 0" fill="#fdbf00"/><path d="m225 196h45v60h-45zm0 0" fill="#fdbf00"/><path d="m390 196v316h-121v-60h61v-256zm0 0" fill="#ff9100"/></svg>