<svg height="512pt" viewBox="0 0 512.001 512" width="512pt" xmlns="http://www.w3.org/2000/svg"><path d="m451.992188 255.867188c0 107.414062-88.609376 196.023437-196.023438 196.023437-24.902344 0-48.605469-4.796875-70.503906-13.5l-1.203125-59.507813-90.011719-14.101562c-12.898438-18.902344-23.199219-40.804688-28.902344-63.90625l102.414063-219.722656c26.402343-13.503906 56.40625-21.304688 88.207031-21.304688 34.207031 0 66.609375 9 94.511719 24.601563l28.503906 69.707031 72.707031 95.710938c0 2.101562.300782 3.902343.300782 6zm0 0" fill="#25d9f8"/><path d="m451.992188 255.867188c0 107.414062-88.609376 196.023437-196.023438 196.023437v-392.042969c34.207031 0 66.609375 9 94.511719 24.601563l28.503906 69.707031 72.707031 95.710938c0 2.101562.300782 3.902343.300782 6zm0 0" fill="#00c0f1"/><path d="m273.972656 511.296875c-5.699218.300781-11.402344.601563-17.402344.601563-.296874 0-.296874 0-.601562 0-4.5 0-9.300781 0-13.5-.300782l1.5-30c3.902344.296875 8.402344.597656 12.003906.296875h.601563c5.097656 0 10.199219-.296875 15.597656-.597656zm0 0" fill="#537983"/><path d="m210.6875 507.882812c-10.417969-1.859374-20.832031-4.410156-30.957031-7.574218l8.96875-28.625c8.863281 2.769531 17.960937 5.011718 27.261719 6.667968zm0 0" fill="#537983"/><path d="m305.707031 507.050781-5.800781-29.445312c9.257812-1.816407 18.3125-4.222657 27.148438-7.164063l9.464843 28.480469c-10.066406 3.335937-20.4375 6.078125-30.8125 8.128906zm0 0" fill="#3e5959"/><path d="m149.976562 488.898438c-9.625-4.410157-19.089843-9.464844-28.097656-15.0625l15.820313-25.488282c7.941406 4.921875 16.203125 9.359375 24.757812 13.269532zm0 0" fill="#537983"/><path d="m366.066406 486.980469-12.980468-27.046875c8.480468-4.070313 16.671874-8.644532 24.523437-13.695313l16.230469 25.226563c-8.902344 5.726562-18.175782 10.914062-27.773438 15.515625zm0 0" fill="#3e5959"/><path d="m95.890625 455.421875c-8.277344-6.679687-17.117187-13.859375-24.5-21.507813l22.59375-21.832031c6.503906 6.738281 13.433594 14.097657 20.746094 19.988281zm0 0" fill="#537983"/><path d="m420.511719 452.582031-20.28125-23.003906c7.207031-6.035156 15.035156-13.496094 21.421875-20.351563l21.945312 21.453126c-7.234375 7.761718-14.941406 15.074218-23.085937 21.902343zm0 0" fill="#3e5959"/><path d="m50.777344 408.683594c-6.34375-8.480469-12.175782-17.359375-17.464844-26.589844l26.050781-14.914062c4.671875 8.175781 9.828125 16.027343 15.4375 23.515624zm0 0" fill="#537983"/><path d="m463.800781 405.09375-24.289062-17.609375c5.464843-7.558594 10.476562-15.496094 15-23.746094l26.3125 14.414063c-5.113281 9.332031-10.839844 18.402344-17.023438 26.941406zm0 0" fill="#3e5959"/><path d="m19.292969 353.484375c-4.070313-9.800781-7.542969-19.953125-10.328125-30.152344l28.949218-7.910156c2.476563 9.097656 5.523438 17.960937 9.097657 26.574219zm0 0" fill="#537983"/><path d="m494.347656 349.265625-27.925781-10.988281c3.398437-8.660156 6.300781-17.597656 8.644531-26.75l29.066406 7.410156c-2.636718 10.386719-5.917968 20.496094-9.785156 30.328125zm0 0" fill="#3e5959"/><path d="m2.503906 292.144531c-1.480468-10.386719-2.328125-20.964843-2.503906-31.734375l30.003906-.46875c.144532 9.480469.90625 18.824219 2.210938 27.980469zm0 0" fill="#537983"/><path d="m510.039062 287.628906-29.769531-3.691406c1.140625-9.183594 1.726563-18.558594 1.726563-28.066406l-.128906-8.015625 29.972656-1.082031c.117187 3.015624.160156 6.0625.160156 9.097656 0 10.765625-.671875 21.371094-1.960938 31.757812zm0 0" fill="#3e5959"/><path d="m31.203125 231.800781-29.824219-3.164062c1.125-10.683594 2.929688-21.171875 5.332032-31.410157l29.210937 6.882813c-2.140625 9.039063-3.707031 18.269531-4.71875 27.691406zm0 0" fill="#537983"/><path d="m479.125 219.875c-1.507812-9.347656-3.589844-18.503906-6.195312-27.410156l28.800781-8.441406c2.960937 10.109374 5.304687 20.46875 7.019531 31.042968zm0 0" fill="#3e5959"/><path d="m44.066406 177.199219-28.097656-10.492188c3.707031-9.945312 8.085938-19.746093 12.996094-29.109375l26.574218 13.949219c-4.335937 8.261719-8.175781 16.832031-11.472656 25.652344zm0 0" fill="#537983"/><path d="m463.375 166.050781c-3.765625-8.613281-8.054688-16.964843-12.816406-24.992187l25.785156-15.324219c5.402344 9.082031 10.253906 18.546875 14.515625 28.304687zm0 0" fill="#3e5959"/><path d="m70.128906 127.503906-24.640625-17.140625c6.078125-8.730469 12.6875-18.066406 19.792969-25.964843l23.296875 21.070312c-6.253906 6.960938-13.101563 14.328125-18.449219 22.035156zm0 0" fill="#537983"/><path d="m434.734375 117.863281c-5.769531-7.425781-12.980469-15.457031-19.605469-22.078125l22.214844-21.214844c7.5 7.5 14.53125 15.46875 21.066406 23.863282zm0 0" fill="#3e5959"/><path d="m108.621094 84.765625-19.632813-22.679687c8.015625-6.941407 16.453125-13.402344 25.300781-19.308594l16.671876 24.9375c-7.792969 5.230468-15.265626 10.925781-22.339844 17.050781zm0 0" fill="#537983"/><path d="m394.078125 77.191406c-7.398437-5.742187-15.164063-11.058594-23.25-15.863281l15.351563-25.785156c9.144531 5.449219 17.902343 11.441406 26.300781 17.945312zm0 0" fill="#3e5959"/><path d="m155.25 53.589844-13.449219-26.839844c9.464844-4.730469 19.25-8.890625 29.332031-12.449219l9.960938 28.300781c-8.878906 3.121094-17.519531 6.8125-25.84375 10.988282zm0 0" fill="#537983"/><path d="m345.820312 48.492188c-8.542968-3.71875-17.347656-6.929688-26.398437-9.582032l8.40625-28.800781c10.125 2.960937 20.21875 6.621094 29.976563 10.871094zm0 0" fill="#3e5959"/><path d="m208.136719 34.941406-6.355469-29.328125c10.269531-2.226562 20.789062-3.824219 31.46875-4.777343l2.664062 29.886718c-9.449218.835938-18.707031 2.253906-27.777343 4.21875zm0 0" fill="#537983"/><path d="m291.980469 32.699219c-9.125-1.464844-18.472657-2.386719-27.953125-2.722657l1.054687-29.976562c10.738281.367188 21.316407 1.40625 31.675781 3.078125zm0 0" fill="#3e5959"/><g fill="#c3ea21"><path d="m145.230469 240.867188h35.730469v-105.011719l-13.214844-54.679688c-63.273438 32.277344-107.796875 98.929688-107.796875 174.691407 0 15.511718 2.011719 30.53125 5.449219 45.007812h49.828124zm0 0"/><path d="m367.285156 225.867188 25.800782 25.800781-36.304688 109.214843h-44.402344l-56.40625-28.203124-20.101562-10.203126 30.003906-60.007812-9.902344-4.800781-45.007812-22.5v-54.308594h68.707031l30.003906-30.003906h24.605469l16.199219-66.40625c58.207031 32.40625 99.113281 94.910156 101.210937 165.417969l-72.707031-35.703126zm0 0"/><path d="m200.082031 290.546875-43.015625 42.996094-62.707031 31.363281c22.105469 32.660156 53.925781 59.117188 91.179687 73.617188l58.683594-59.679688zm0 0"/></g><path d="m272.171875 481.296875 1.800781 30c-5.699218.300781-11.402344.601563-17.402344.601563-.296874 0-.296874 0-.601562 0v-30.003907h.601562c5.101563 0 10.203126-.300781 15.601563-.597656zm0 0" fill="#3e5959"/><path d="m367.285156 225.867188 25.800782 25.800781-36.304688 109.214843h-44.402344l-56.40625-28.203124v-50.40625l9.902344-19.804688-9.902344-4.800781v-76.808594h23.699219l30.003906-30.003906h24.605469l16.199219-66.40625c58.207031 32.40625 99.113281 94.910156 101.210937 165.417969l-72.707031-35.703126zm0 0" fill="#9cdd05"/></svg>