<svg height="512pt" viewBox="-16 0 512 512" width="512pt" xmlns="http://www.w3.org/2000/svg"><path d="m480 127.5v384.5h-120l-30-30h-210l-30 30h-90v-482h343.800781zm0 0" fill="#537983"/><path d="m480 127.5v384.5h-120l-30-30h-90v-452h103.800781zm0 0" fill="#3e5959"/><path d="m300 0-30 30-60 150 30 31h120v-211zm0 0" fill="#c5d3dd"/><path d="m240 0-30 30v120l30 31h60v-181zm0 0" fill="#3e5959"/><path d="m90 0h150v211h-150zm0 0" fill="#deecf1"/><path d="m360 331v181h-270v-181l30-30h210zm0 0" fill="#deecf1"/><path d="m360 331v181h-120v-211h90zm0 0" fill="#c5d3dd"/><path d="m270 391h30v60h-30zm0 0" fill="#3e5959"/><path d="m210 391h30v60h-30zm0 0" fill="#537983"/><path d="m150 391h30v60h-30zm0 0" fill="#537983"/><path d="m90 271h270v60h-270zm0 0" fill="#25d9f8"/><path d="m240 271h120v60h-120zm0 0" fill="#00c0f1"/></svg>