<svg height="512pt" viewBox="0 0 512 512" width="512pt" xmlns="http://www.w3.org/2000/svg"><path d="m0 0v332l186.625-91 1.375-87-33.5-107zm0 0" fill="#fdbf00"/><path d="m324 154 45.4375 132 142.5625 46v-332l-133.855469 30zm0 0" fill="#ff9100"/><path d="m512 332h-512l187.898438-178.101562h136.203124zm0 0" fill="#ffda2d"/><path d="m512 332h-256v-178.101562h68.101562zm0 0" fill="#fdbf00"/><g fill="#25d9f8"><path d="m241 482h30v30h-30zm0 0"/><path d="m241 362h30v90h-30zm0 0"/><path d="m181 452h30v30h-30zm0 0"/><path d="m181 362h30v60h-30zm0 0"/></g><path d="m301 452h30v30h-30zm0 0" fill="#00c0f1"/><path d="m301 362h30v60h-30zm0 0" fill="#00c0f1"/><path d="m361 422h30v30h-30zm0 0" fill="#00c0f1"/><path d="m361 362h30v30h-30zm0 0" fill="#00c0f1"/><path d="m121 422h30v30h-30zm0 0" fill="#25d9f8"/><path d="m121 362h30v30h-30zm0 0" fill="#25d9f8"/><path d="m512 0-256 210-256-210zm0 0" fill="#537983"/><path d="m256 362h15v90h-15zm0 0" fill="#00c0f1"/><path d="m256 482h15v30h-15zm0 0" fill="#00c0f1"/><path d="m512 0-256 210v-210zm0 0" fill="#3e5959"/></svg>