<svg height="512pt" viewBox="0 0 512 512" width="512pt" xmlns="http://www.w3.org/2000/svg"><path d="m30 0h452v331h-452zm0 0" fill="#3e5959"/><path d="m256 0h226v331h-226zm0 0" fill="#293939"/><path d="m60 30h392v241h-392zm0 0" fill="#deecf1"/><path d="m256 30h196v241h-196zm0 0" fill="#c5d3dd"/><path d="m452 301v15c0 41.398438-34.601562 75-76 75h-15l-15-30-15 30h-30l-15-30-15 30h-90l-15-30-15 30h-30l-15-30-15 30h-15c-41.398438 0-76-33.601562-76-75v-15zm0 0" fill="#deecf1"/><g fill="#c5d3dd"><path d="m452 301v15c0 41.398438-34.601562 75-76 75h-15l-15-30-15 30h-30l-15-30-15 30h-15v-90zm0 0"/><path d="m91 331h30v60h-30zm0 0"/><path d="m151 331h30v60h-30zm0 0"/></g><path d="m271 331h30v60h-30zm0 0" fill="#9facba"/><path d="m331 331h30v60h-30zm0 0" fill="#9facba"/><path d="m181 151h-90v-91h90zm0 0" fill="#25d9f8"/><path d="m211 60v91h90v-91zm0 0" fill="#25d9f8"/><path d="m421 151h-90v-91h90zm0 0" fill="#00c0f1"/><path d="m91 181h90v30h-90zm0 0" fill="#c5d3dd"/><path d="m331 181h90v30h-90zm0 0" fill="#9facba"/><path d="m376 241c-74.398438 0-135 60.601562-135 135s60.601562 136 135 136 136-61.601562 136-136-61.601562-135-136-135zm0 0" fill="#9cdd05"/><path d="m512 376c0 74.398438-61.601562 136-136 136v-271c74.398438 0 136 60.601562 136 135zm0 0" fill="#6b0"/><path d="m447.5 356.5-71.5 70.800781-15 15-55.5-55.800781 21-21 34.5 34.199219 15-15 49.5-49.199219zm0 0" fill="#deecf1"/><path d="m447.5 356.5-71.5 70.800781v-42.601562l49.5-49.199219zm0 0" fill="#c5d3dd"/><path d="m256 60h45v91h-45zm0 0" fill="#00c0f1"/><path d="m211 181h90v30h-90zm0 0" fill="#c5d3dd"/><path d="m256 181h45v30h-45zm0 0" fill="#9facba"/></svg>