<svg height="512pt" viewBox="0 0 512 512" width="512pt" xmlns="http://www.w3.org/2000/svg"><path d="m512 0v512h-512v-362l256-26.101562 37.5-3.898438 142.5-120zm0 0" fill="#deecf1"/><path d="m512 0v512h-256v-388.101562l37.5-3.898438 142.5-120zm0 0" fill="#c5d3dd"/><path d="m436 0-112.5 150h-323.5v-150zm0 0" fill="#537983"/><path d="m323.5 150h-67.5v-150h180zm0 0" fill="#3e5959"/><g fill="#25d9f8"><path d="m121 60h30v30h-30zm0 0"/><path d="m181 60h30v30h-30zm0 0"/><path d="m61 60h30v30h-30zm0 0"/></g><path d="m61 180v271h390v-271zm0 0" fill="#ff641a"/><path d="m256 180h195v271h-195zm0 0" fill="#f03800"/><path d="m256 258.101562-45-30v175.796876l45-30 87-57.898438zm0 0" fill="#deecf1"/><path d="m343 316-87 57.898438v-115.796876zm0 0" fill="#c5d3dd"/></svg>