<svg height="512pt" viewBox="-27 0 512 512" width="512pt" xmlns="http://www.w3.org/2000/svg"><path d="m390.191406 190.308594c-1.503906-57.332032-27.617187-110.761719-72.042968-147.082032-35.121094-28.519531-78.347657-43.226562-123.074219-43.226562-13.808594 0-27.914063 1.199219-41.722657 4.203125-74.140624 15.308594-134.175781 75.644531-149.1875 149.785156-13.808593 67.542969 7.207032 134.78125 55.832032 181.609375v176.402344h210.125v-62.035156h90.050781v-68.742188l30.019531-30.019531v-27.011719l67.9375-33.621094zm0 0" fill="#ffcebf"/><path d="m458.128906 290.570312-67.9375 33.621094v27.011719l-30.019531 30.019531v68.742188h-90.050781v62.035156h-75.046875v-512c44.726562 0 87.953125 14.707031 123.074219 43.226562 44.425781 36.320313 70.539062 89.75 72.042968 147.082032zm0 0" fill="#ffb99c"/><path d="m300.136719 194.8125c0-2.699219 0-5.703125-.300781-8.402344l34.824218-20.113281-45.027344-78.042969-35.121093 20.410156c-4.804688-3.300781-9.304688-6.003906-14.410157-8.40625v-40.523437h-90.050781v40.523437c-5.101562 2.402344-9.605469 5.105469-14.40625 8.40625l-35.125-20.414062-45.027343 78.046875 34.824218 20.109375c-.300781 2.703125-.300781 5.703125-.300781 8.40625s0 5.703125.300781 8.40625l-34.824218 20.113281 45.027343 78.042969 35.121094-20.410156c4.800781 3.300781 9.304687 6.003906 14.40625 8.402344v40.527343h90.054687v-40.527343c5.101563-2.398438 9.605469-5.101563 14.40625-8.402344l35.121094 20.410156 45.027344-78.042969-34.820312-20.113281c.300781-2.703125.300781-5.703125.300781-8.40625zm-105.0625 45.027344c-24.914063 0-45.023438-20.113282-45.023438-45.027344s20.109375-45.023438 45.023438-45.023438c24.917969 0 45.027343 20.109376 45.027343 45.023438s-20.109374 45.027344-45.027343 45.027344zm0 0" fill="#537983"/><path d="m299.835938 203.21875 34.824218 20.113281-45.027344 78.042969-35.121093-20.410156c-4.804688 3.300781-9.304688 6.003906-14.410157 8.402344v40.527343h-45.023437v-90.054687c24.914063 0 45.023437-20.113282 45.023437-45.027344s-20.109374-45.023438-45.023437-45.023438v-90.054687h45.023437v40.523437c5.105469 2.402344 9.605469 5.105469 14.410157 8.40625l35.121093-20.414062 45.027344 78.046875-34.824218 20.109375c.300781 2.703125.300781 5.703125.300781 8.40625s0 5.703125-.300781 8.40625zm0 0" fill="#3e5959"/></svg>