<svg height="512pt" viewBox="0 -16 512 512" width="512pt" xmlns="http://www.w3.org/2000/svg"><path d="m420.839844 168.136719-120 113.722656-44.839844 171.253906c25.910156 16.941407 56.796875 26.886719 90 26.886719 90.980469 0 166-74.019531 166-165 0-64.027344-37.730469-119.519531-91.160156-146.863281zm0 0" fill="#ff641a"/><path d="m241.160156 281.863281-150-113.722656c-53.429687 27.339844-91.160156 82.832031-91.160156 146.859375 0 90.980469 75.019531 165 166 165 33.203125 0 64.089844-9.945312 90-26.886719zm0 0" fill="#25d9f8"/><path d="m421 165c0 1.199219 0 2.101562-.300781 3l-164.699219 69-164.699219-69c-.300781-.898438-.300781-1.800781-.300781-3 0-90.902344 74.097656-165 165-165s165 74.097656 165 165zm0 0" fill="#ffda2d"/><path d="m421 165c0 1.199219 0 2.101562-.300781 3l-164.699219 69v-237c90.902344 0 165 74.097656 165 165zm0 0" fill="#fdbf00"/><path d="m331 315c0 57.898438-30 108.601562-75 138-45-29.398438-75-80.101562-75-138 0-1.199219 0-2.101562.300781-3h149.398438c.300781.898438.300781 1.800781.300781 3zm0 0" fill="#da90f8"/><path d="m166 150c-26.953125 0-52.347656 6.628906-74.839844 18.136719 1.1875 62.691406 37.453125 116.835937 90 143.722656l74.839844-134.972656c-25.910156-16.941407-56.796875-26.886719-90-26.886719zm0 0" fill="#9cdd05"/><path d="m346 150c-33.203125 0-64.089844 9.945312-90 26.886719l74.839844 134.972656c52.546875-26.886719 88.8125-81.03125 90-143.722656-22.492188-11.507813-47.886719-18.136719-74.839844-18.136719zm0 0" fill="#ff9100"/><path d="m330.699219 312c.300781.898438.300781 1.800781.300781 3 0 57.898438-30 108.601562-75 138v-141zm0 0" fill="#b760ea"/><path d="m330.699219 312c-22.5 11.398438-47.699219 18-74.699219 18s-52.199219-6.601562-74.699219-18c.898438-56.699219 30.300781-106.199219 74.699219-135 44.398438 28.800781 73.800781 78.300781 74.699219 135zm0 0" fill="#deecf1"/><path d="m330.699219 312c-22.5 11.398438-47.699219 18-74.699219 18v-153c44.398438 28.800781 73.800781 78.300781 74.699219 135zm0 0" fill="#c5d3dd"/></svg>