<svg height="512pt" viewBox="0 -30 512 512" width="512pt" xmlns="http://www.w3.org/2000/svg"><path d="m0 121h90v150h-90zm0 0" fill="#537983"/><path d="m0 196h90v75h-90zm0 0" fill="#3e5959"/><path d="m210 271v60h-56.996094v30h86.996094v-60zm0 0" fill="#293939"/><path d="m146.703125 271h-56.703125l-30 30v150h87.289062l30.007813-150zm0 0" fill="#3e5959"/><path d="m482 10.300781v371.398438l-263-111.898438v-147.601562zm0 0" fill="#deecf1"/><path d="m482 196v185.699219l-263-111.898438v-73.800781zm0 0" fill="#c5d3dd"/><path d="m60 91v210h180v-210zm0 0" fill="#ff9100"/><path d="m60 196h180v105h-180zm0 0" fill="#ff641a"/><path d="m120 151h60v30h-60zm0 0" fill="#ff641a"/><path d="m120 211h60v30h-60zm0 0" fill="#f03800"/><path d="m512 0v391h-60v-390zm0 0" fill="#ff9100"/><path d="m452 196h60v195h-60zm0 0" fill="#ff641a"/></svg>