<svg height="512pt" viewBox="0 0 512 512" width="512pt" xmlns="http://www.w3.org/2000/svg"><path d="m240 60v211l-30 30h-180l-30-30v-211l30-30h180zm0 0" fill="#537983"/><path d="m240 60v211l-30 30h-90v-271h90zm0 0" fill="#3e5959"/><path d="m0 0h240v60h-240zm0 0" fill="#deecf1"/><path d="m0 271h240v61h-240zm0 0" fill="#deecf1"/><path d="m30 90h180v151h-180zm0 0" fill="#25d9f8"/><path d="m120 90h90v151h-90zm0 0" fill="#00c0f1"/><path d="m120 0h120v60h-120zm0 0" fill="#c5d3dd"/><path d="m120 271h120v61h-120zm0 0" fill="#c5d3dd"/><path d="m512 241v211l-30 30h-182l-30-30v-211l30-30h182zm0 0" fill="#537983"/><path d="m512 241v211l-30 30h-91v-271h91zm0 0" fill="#3e5959"/><path d="m270 180h242v61h-242zm0 0" fill="#deecf1"/><path d="m270 452h242v60h-242zm0 0" fill="#deecf1"/><path d="m300 271h182v151h-182zm0 0" fill="#25d9f8"/><path d="m391 271h91v151h-91zm0 0" fill="#00c0f1"/><path d="m391 180h121v61h-121zm0 0" fill="#c5d3dd"/><path d="m391 452h121v60h-121zm0 0" fill="#c5d3dd"/><path d="m391 30h-15v-30l-116.800781 75 116.800781 75v-30h17.699219c22.800781 0 46.300781 9.300781 62.800781 25.5l25.5 25.800781v-36.300781c0-62.699219-37.300781-105-91-105zm0 0" fill="#25d9f8"/><path d="m250.800781 437-115.800781-75v30h-17.699219c-22.800781 0-45.300781-9.300781-61.800781-25.5l-25.5-25.800781v36.300781c0 62.699219 36.300781 105 90 105h15v30zm0 0" fill="#25d9f8"/><g fill="#00c0f1"><path d="m482 135v36.300781l-25.5-25.800781c-16.5-16.199219-40-25.5-62.800781-25.5h-2.699219v-90c53.699219 0 91 42.300781 91 105zm0 0"/><path d="m135 512v-30h-15v-90h15v-30l115.800781 75zm0 0"/></g></svg>