<svg height="512pt" viewBox="0 0 512 512" width="512pt" xmlns="http://www.w3.org/2000/svg"><path d="m512 0v512h-512v-362l256-26.101562 37.5-3.898438 142.5-120zm0 0" fill="#deecf1"/><path d="m512 0v512h-256v-388.101562l37.5-3.898438 142.5-120zm0 0" fill="#c5d3dd"/><path d="m436 0-112.5 150h-323.5v-150zm0 0" fill="#537983"/><path d="m323.5 150h-67.5v-150h180zm0 0" fill="#3e5959"/><g fill="#25d9f8"><path d="m121 60h30v30h-30zm0 0"/><path d="m181 60h30v30h-30zm0 0"/><path d="m61 60h30v30h-30zm0 0"/></g><path d="m424.601562 361h-63.601562v90h-60l-30-30h-30l-30 30h-60v-90h-63.601562l168.601562-188.5zm0 0" fill="#ff9100"/><path d="m424.601562 361h-63.601562v90h-60l-30-30h-15v-248.5zm0 0" fill="#ff641a"/><path d="m241 271h30v30h-30zm0 0" fill="#deecf1"/><path d="m211 331h90v120h-90zm0 0" fill="#537983"/><path d="m256 271h15v30h-15zm0 0" fill="#c5d3dd"/><path d="m256 331h45v120h-45zm0 0" fill="#3e5959"/></svg>