<svg height="512pt" viewBox="0 0 512 512" width="512pt" xmlns="http://www.w3.org/2000/svg"><path d="m512 0v331l-30 30h-452l-30-30v-331zm0 0" fill="#3e5959"/><path d="m512 0v331l-30 30h-226v-361zm0 0" fill="#293939"/><path d="m330.097656 492.199219h-148.195312l30-91h88.195312zm0 0" fill="#c5d3dd"/><path d="m300.097656 401.199219 30 91h-74.097656v-91zm0 0" fill="#9facba"/><path d="m121 482h270v30h-270zm0 0" fill="#deecf1"/><path d="m0 331h512v90h-512zm0 0" fill="#deecf1"/><path d="m256 482h135v30h-135zm0 0" fill="#c5d3dd"/><path d="m256 331h256v90h-256zm0 0" fill="#c5d3dd"/><path d="m30 30v271h152.519531l38.480469-30h72.5l35.980469 30h152.519531v-271zm0 0" fill="#deecf1"/><path d="m256 271h37.5l35.980469 30h152.519531v-271h-226zm0 0" fill="#c5d3dd"/><path d="m241 181h30v75h-30zm0 0" fill="#537983"/><path d="m256 181h15v75h-15zm0 0" fill="#3e5959"/><path d="m329.5 301h-147c6.902344-34.199219 37.199219-60 73.5-60s66.597656 25.800781 73.5 60zm0 0" fill="#ff9100"/><path d="m329.5 301h-73.5v-60c36.300781 0 66.597656 25.800781 73.5 60zm0 0" fill="#ff641a"/><path d="m361 256v15h90v-15c0-53.761719-21.871094-102.511719-57.179688-137.820312l-62.820312 2.820312-.789062 60.789062c19.011718 19.015626 30.789062 45.265626 30.789062 74.210938zm0 0" fill="#f03800"/><path d="m256 151c28.945312 0 55.195312 11.777344 74.210938 30.789062l63.609374-63.609374c-35.308593-35.308594-84.058593-58.179688-137.820312-58.179688l-30 45.0625zm0 0" fill="#ff9100"/><path d="m256 60c-53.761719 0-102.511719 22.871094-137.820312 58.179688l2.820312 62.820312 60.789062.789062c19.015626-19.011718 45.265626-30.789062 74.210938-30.789062zm0 0" fill="#ffda2d"/><path d="m61 256v15h90v-15c0-28.945312 11.777344-55.195312 30.789062-74.210938l-63.609374-63.609374c-35.308594 35.308593-57.179688 84.058593-57.179688 137.820312zm0 0" fill="#9cdd05"/></svg>