<svg height="512pt" viewBox="0 0 512 512" width="512pt" xmlns="http://www.w3.org/2000/svg"><path d="m241 196h30v60h-30zm0 0" fill="#537983"/><path d="m256 196h15v60h-15zm0 0" fill="#3e5959"/><path d="m421 241v75h-30v-45h-270v45h-30v-75zm0 0" fill="#537983"/><path d="m421 241v75h-30v-45h-135v-30zm0 0" fill="#3e5959"/><path d="m211 376v60l-30 30h-151l-30-30v-60l30-30h151zm0 0" fill="#c5d3dd"/><path d="m211 376v60l-30 30h-75v-120h75zm0 0" fill="#9facba"/><path d="m0 301h211v75h-211zm0 0" fill="#deecf1"/><path d="m0 436h211v76h-211zm0 0" fill="#deecf1"/><g fill="#c5d3dd"><path d="m106 301h105v75h-105zm0 0"/><path d="m106 436h105v76h-105zm0 0"/><path d="m512 376v60l-30 30h-151l-30-30v-60l30-30h151zm0 0"/></g><path d="m512 376v60l-30 30h-76v-120h76zm0 0" fill="#9facba"/><path d="m301 301h211v75h-211zm0 0" fill="#deecf1"/><path d="m301 436h211v76h-211zm0 0" fill="#deecf1"/><path d="m406 301h106v75h-106zm0 0" fill="#c5d3dd"/><path d="m406 436h106v76h-106zm0 0" fill="#c5d3dd"/><path d="m361 76v60l-30 30h-150l-30-30v-60l30-31h150zm0 0" fill="#c5d3dd"/><path d="m361 76v60l-30 30h-75v-121h75zm0 0" fill="#9facba"/><path d="m151 0h210v76h-210zm0 0" fill="#deecf1"/><path d="m151 136h210v75h-210zm0 0" fill="#deecf1"/><path d="m256 0h105v76h-105zm0 0" fill="#c5d3dd"/><path d="m256 136h105v75h-105zm0 0" fill="#c5d3dd"/></svg>