<svg height="512pt" viewBox="-91 0 512 512" width="512pt" xmlns="http://www.w3.org/2000/svg"><path d="m330 61v360l-30 30h-270l-30-30v-360l30-31h270zm0 0" fill="#537983"/><path d="m330 61v360l-30 30h-135v-421h135zm0 0" fill="#3e5959"/><path d="m0 0h330v61h-330zm0 0" fill="#deecf1"/><path d="m30 91h270v300h-270zm0 0" fill="#25d9f8"/><path d="m165 91h135v300h-135zm0 0" fill="#00c0f1"/><path d="m165 0h165v61h-165zm0 0" fill="#c5d3dd"/><path d="m150 361h-90v-240h90zm0 0" fill="#deecf1"/><g fill="#c5d3dd"><path d="m270 241h-90v-120h90zm0 0"/><path d="m180 271h90v30h-90zm0 0"/><path d="m180 331h90v30h-90zm0 0"/></g><path d="m330 421v91h-330v-91h150l15 15 15-15zm0 0" fill="#deecf1"/><path d="m330 421v91h-165v-76l15-15zm0 0" fill="#c5d3dd"/><path d="m150 421h30v30h-30zm0 0" fill="#25d9f8"/><path d="m165 421h15v30h-15zm0 0" fill="#00c0f1"/></svg>