<svg height="512pt" viewBox="0 0 512 512" width="512pt" xmlns="http://www.w3.org/2000/svg"><path d="m241 377h30v60h-30zm0 0" fill="#537983"/><path d="m256 377h15v60h-15zm0 0" fill="#3e5959"/><path d="m482 60v90l-31 31h-390l-31-31v-150h205.300781l30 60zm0 0" fill="#fdbf00"/><path d="m482 60v90l-31 31h-195v-139.601562l9.300781 18.601562zm0 0" fill="#ff9100"/><path d="m30 150h452v242h-452zm0 0" fill="#ffda2d"/><path d="m256 150h226v242h-226zm0 0" fill="#fdbf00"/><path d="m0 452h76v30h-76zm0 0" fill="#537983"/><path d="m136 452h90v30h-90zm0 0" fill="#537983"/><path d="m436 452h76v30h-76zm0 0" fill="#3e5959"/><path d="m286 452h90v30h-90zm0 0" fill="#3e5959"/><path d="m301 242h120v30h-120zm0 0" fill="#ff9100"/><path d="m301 302h120v30h-120zm0 0" fill="#ff9100"/><path d="m106 512c-24.8125 0-45-20.1875-45-45s20.1875-45 45-45 45 20.1875 45 45-20.1875 45-45 45zm0 0" fill="#25d9f8"/><path d="m406 512c-24.8125 0-45-20.1875-45-45s20.1875-45 45-45 45 20.1875 45 45-20.1875 45-45 45zm0 0" fill="#00c0f1"/><path d="m256 422c-24.902344 0-45 20.097656-45 45 0 24.898438 20.097656 45 45 45s45-20.101562 45-45c0-24.902344-20.097656-45-45-45zm0 0" fill="#25d9f8"/><path d="m301 467c0 24.898438-20.097656 45-45 45v-90c24.902344 0 45 20.097656 45 45zm0 0" fill="#00c0f1"/></svg>