<svg height="512pt" viewBox="0 0 512 512" width="512pt" xmlns="http://www.w3.org/2000/svg"><path d="m241 436h30v76h-30zm0 0" fill="#deecf1"/><path d="m301 436h30v76h-30zm0 0" fill="#c5d3dd"/><path d="m181 436h30v76h-30zm0 0" fill="#deecf1"/><path d="m256 436h15v76h-15zm0 0" fill="#c5d3dd"/><path d="m151 361h210v90h-210zm0 0" fill="#537983"/><path d="m256 361h105v90h-105zm0 0" fill="#3e5959"/><g fill="#deecf1"><path d="m0 241h76v30h-76zm0 0"/><path d="m0 301h76v30h-76zm0 0"/><path d="m0 181h76v30h-76zm0 0"/></g><path d="m436 241h76v30h-76zm0 0" fill="#c5d3dd"/><path d="m436 181h76v30h-76zm0 0" fill="#c5d3dd"/><path d="m436 301h76v30h-76zm0 0" fill="#c5d3dd"/><path d="m361 151h90v210h-90zm0 0" fill="#3e5959"/><path d="m61 151h90v210h-90zm0 0" fill="#537983"/><path d="m241 0h30v76h-30zm0 0" fill="#deecf1"/><path d="m181 0h30v76h-30zm0 0" fill="#deecf1"/><path d="m301 0h30v76h-30zm0 0" fill="#c5d3dd"/><path d="m256 0h15v76h-15zm0 0" fill="#c5d3dd"/><path d="m151 61h210v90h-210zm0 0" fill="#537983"/><path d="m256 61h105v90h-105zm0 0" fill="#3e5959"/><path d="m121 121v270h270v-270zm0 0" fill="#c3ea21"/><path d="m256 121h135v270h-135zm0 0" fill="#9cdd05"/><path d="m181 181v150h150v-150zm0 0" fill="#537983"/><path d="m256 181h75v150h-75zm0 0" fill="#3e5959"/><path d="m241 241h30v30h-30zm0 0" fill="#ffda2d"/><path d="m256 241h15v30h-15zm0 0" fill="#fdbf00"/></svg>