<svg height="512pt" viewBox="0 0 512 512" width="512pt" xmlns="http://www.w3.org/2000/svg"><path d="m181 0v151h150v-151zm0 0" fill="#25d9f8"/><path d="m151 151h-151v-151h151zm0 0" fill="#25d9f8"/><path d="m512 151h-151v-151h151zm0 0" fill="#00c0f1"/><path d="m181 181v150h150v-150zm0 0" fill="#25d9f8"/><path d="m151 331h-151v-150h151zm0 0" fill="#25d9f8"/><path d="m512 331h-151v-150h151zm0 0" fill="#00c0f1"/><path d="m181 361v151h150v-151zm0 0" fill="#25d9f8"/><path d="m151 512h-151v-151h151zm0 0" fill="#25d9f8"/><g fill="#00c0f1"><path d="m512 512h-151v-151h151zm0 0"/><path d="m256 0h75v151h-75zm0 0"/><path d="m256 181h75v150h-75zm0 0"/><path d="m256 361h75v151h-75zm0 0"/></g></svg>