<svg height="512pt" viewBox="0 0 512 512" width="512pt" xmlns="http://www.w3.org/2000/svg"><path d="m512 0v512h-512v-362l256-26.101562 37.5-3.898438 142.5-120zm0 0" fill="#deecf1"/><path d="m512 0v512h-256v-388.101562l37.5-3.898438 142.5-120zm0 0" fill="#c5d3dd"/><path d="m436 0-112.5 150h-323.5v-150zm0 0" fill="#537983"/><path d="m323.5 150h-67.5v-150h180zm0 0" fill="#3e5959"/><g fill="#25d9f8"><path d="m121 60h30v30h-30zm0 0"/><path d="m181 60h30v30h-30zm0 0"/><path d="m61 60h30v30h-30zm0 0"/></g><path d="m361 316c0-2.699219 0-5.699219-.300781-8.402344l34.800781-20.097656-45-78-35.101562 20.402344c-4.796876-3.300782-9.296876-6-14.398438-8.402344v-41.5h-90v41.5c-5.097656 2.398438-9.597656 5.101562-14.398438 8.398438l-35.101562-20.398438-45 78 34.800781 20.097656c-.296875 2.703125-.296875 5.699219-.296875 8.402344 0 2.699219 0 5.699219.296875 8.398438l-34.800781 20.101562 45 78 35.101562-20.402344c4.796876 3.300782 9.296876 6 14.398438 8.398438v40.503906h90v-40.5c5.097656-2.398438 9.597656-5.101562 14.398438-8.398438l35.101562 20.398438 45-78-34.800781-20.101562c.300781-2.699219.300781-5.699219.300781-8.398438zm-105 45c-24.902344 0-45-20.101562-45-45 0-24.902344 20.097656-45 45-45s45 20.097656 45 45c0 24.898438-20.097656 45-45 45zm0 0" fill="#537983"/><path d="m360.699219 324.398438 34.800781 20.101562-45 78-35.101562-20.402344c-4.796876 3.300782-9.296876 6-14.398438 8.398438v40.503906h-45v-90c24.902344 0 45-20.101562 45-45 0-24.902344-20.097656-45-45-45v-91h45v41.5c5.101562 2.398438 9.601562 5.101562 14.398438 8.398438l35.101562-20.398438 45 78-34.800781 20.097656c.300781 2.703125.300781 5.703125.300781 8.402344s0 5.699219-.300781 8.398438zm0 0" fill="#3e5959"/></svg>