<svg height="512pt" viewBox="0 0 512 512" width="512pt" xmlns="http://www.w3.org/2000/svg"><path d="m512 60v60l-45 30-45-30v-60zm0 0" fill="#537983"/><path d="m512 60v60l-45 30v-90zm0 0" fill="#3e5959"/><path d="m512 120v60l-45 30-45-30v-60zm0 0" fill="#deecf1"/><path d="m512 120v60l-45 30v-90zm0 0" fill="#c5d3dd"/><path d="m392 120v392h-391l-1-512h272l30 90zm0 0" fill="#deecf1"/><path d="m392 120v392h-196v-512h76l30 90zm0 0" fill="#c5d3dd"/><path d="m293.210938 0h-21.210938v120h120v-21.210938zm0 0" fill="#9facba"/><path d="m151 210h-91v-90h91zm0 0" fill="#25d9f8"/><path d="m151 330h-91v-90h91zm0 0" fill="#25d9f8"/><path d="m151 450h-91v-90h91zm0 0" fill="#25d9f8"/><g fill="#c5d3dd"><path d="m181 120h61v30h-61zm0 0"/><path d="m181 180h151v30h-151zm0 0"/><path d="m181 240h91v30h-91zm0 0"/><path d="m181 300h151v30h-151zm0 0"/><path d="m181 360h91v30h-91zm0 0"/><path d="m181 420h151v30h-151zm0 0"/></g><path d="m196 120h46v30h-46zm0 0" fill="#9facba"/><path d="m196 240h76v30h-76zm0 0" fill="#9facba"/><path d="m196 360h76v30h-76zm0 0" fill="#9facba"/><path d="m196 180h136v30h-136zm0 0" fill="#9facba"/><path d="m196 300h136v30h-136zm0 0" fill="#9facba"/><path d="m196 420h136v30h-136zm0 0" fill="#9facba"/><path d="m512 180v210l-45 30-45-30v-210zm0 0" fill="#25d9f8"/><path d="m467 180h45v210l-45 30zm0 0" fill="#00c0f1"/><path d="m512 390v18.601562l-45 91-45-91v-18.601562zm0 0" fill="#ffcebf"/><path d="m467 390h45v18.601562l-45 91zm0 0" fill="#ffb99c"/><path d="m452 450h30v62h-30zm0 0" fill="#ffcebf"/><path d="m467 450h15v62h-15zm0 0" fill="#ffb99c"/></svg>