<svg height="512pt" viewBox="0 0 512.00039 512" width="512pt" xmlns="http://www.w3.org/2000/svg"><path d="m481.371094 179.117188c-28.796875 28.800781-71.691406 38.101562-109.492188 24.902343l-167.890625 167.589844c13.5 37.796875 4.199219 80.695313-24.597656 109.492187-31.199219 31.199219-79.195313 39.296876-119.394531 20.398438l-19.199219-9.296875 49.199219-48.898437v-21.296876h-21.300782l-48.894531 49.195313-9.300781-19.199219c-18.898438-40.199218-10.800781-88.195312 20.398438-119.394531 28.796874-28.796875 71.695312-38.097656 109.492187-24.597656l167.59375-167.890625c-13.199219-37.796875-3.902344-80.695313 24.898437-109.496094 31.195313-31.195312 79.195313-39.59375 119.390626-20.398438l19.199218 9-49.496094 49.5v21.296876h21.300782l49.496094-49.496094 9 19.199218c19.195312 40.195313 10.796874 88.195313-20.402344 119.390626zm0 0" fill="#c5d3dd"/><path d="m481.371094 179.117188c-28.796875 28.800781-71.691406 38.101562-109.492188 24.902343l-167.890625 167.589844c13.5 37.796875 4.199219 80.695313-24.597656 109.492187-31.199219 31.199219-79.195313 39.296876-119.394531 20.398438l-19.199219-9.296875 49.199219-48.898437v-21.296876l331.980468-331.984374h21.300782l49.496094-49.496094 9 19.199218c19.195312 40.195313 10.796874 88.195313-20.402344 119.390626zm0 0" fill="#9facba"/><path d="m383.699219 277.667969h-42.421875l-63.636719 63.636719v42.421874l128.269531 128.273438 53.03125-53.03125 53.03125-53.027344zm0 0" fill="#ff641a"/><path d="m383.699219 277.667969h-42.421875l-31.820313 31.820312 149.484375 149.480469 53.03125-53.027344zm0 0" fill="#f03800"/><path d="m191.792969 128.183594-30.402344-74.976563-126.195313-53.1796872-17.597656 17.6015622-17.597656 17.59375 53.179688 126.199219 74.976562 30.398437h42.421875l10.609375-10.605468 10.605469-10.605469zm0 0" fill="#deecf1"/><path d="m191.792969 128.183594-30.402344-74.976563-126.195313-53.1796872-17.597656 17.6015622 163.589844 163.585938 10.605469-10.605469zm0 0" fill="#c5d3dd"/><path d="m191.792969 128.183594-63.636719 63.636718 149.484375 149.484376 63.636719-63.636719zm0 0" fill="#deecf1"/><path d="m159.972656 160.003906 31.816406-31.816406 149.484376 149.480469-31.820313 31.816406zm0 0" fill="#c5d3dd"/><path d="m320.0625 214.03125-53.03125 53.03125-53.027344 53.03125 63.636719 63.632812 106.058594-106.058593zm0 0" fill="#537983"/><path d="m267.03125 267.0625 53.027344-53.027344 63.636718 63.632813-53.03125 53.03125zm0 0" fill="#3e5959"/></svg>