<svg height="512pt" viewBox="-31 0 512 512" width="512pt" xmlns="http://www.w3.org/2000/svg"><path d="m210 316h30v60h-30zm0 0" fill="#537983"/><path d="m225 316h15v60h-15zm0 0" fill="#3e5959"/><path d="m90 181h270v150h-270zm0 0" fill="#25d9f8"/><path d="m225 181h135v150h-135zm0 0" fill="#00c0f1"/><path d="m225 0c-57.898438 0-105 48.101562-105 106 0 20.398438 6 40.199219 16.800781 57.300781l88.199219 135.296875 88.199219-135.296875c10.800781-17.101562 16.800781-36.902343 16.800781-57.300781 0-57.898438-47.101562-106-105-106zm0 151c-24.902344 0-45-20.101562-45-45 0-24.902344 20.097656-45 45-45s45 20.097656 45 45c0 24.898438-20.097656 45-45 45zm0 0" fill="#ff9100"/><path d="m330 106c0 20.398438-6 40.199219-16.800781 57.300781l-88.199219 135.296875v-147.597656c24.902344 0 45-20.101562 45-45 0-24.902344-20.097656-45-45-45v-61c57.898438 0 105 48.101562 105 106zm0 0" fill="#ff641a"/><path d="m420 361v75h-30v-45h-330v45h-30v-75zm0 0" fill="#537983"/><path d="m150 376h30v60h-30zm0 0" fill="#537983"/><path d="m270 376h30v60h-30zm0 0" fill="#3e5959"/><path d="m420 361v75h-30v-45h-165v-30zm0 0" fill="#3e5959"/><path d="m90 512h-90v-91h90zm0 0" fill="#25d9f8"/><path d="m210 512h-90v-91h90zm0 0" fill="#25d9f8"/><g fill="#00c0f1"><path d="m330 512h-90v-91h90zm0 0"/><path d="m450 512h-90v-91h90zm0 0"/></g></svg>