<svg height="512pt" viewBox="0 0 512 512" width="512pt" xmlns="http://www.w3.org/2000/svg"><path d="m331 346v75h-150v-75c0-41.398438 33.601562-75 75-75 20.699219 0 39.601562 8.398438 53.101562 21.898438 13.496094 13.5 21.898438 32.402343 21.898438 53.101562zm0 0" fill="#537983"/><path d="m331 346v75h-75v-150c20.699219 0 39.601562 8.398438 53.101562 21.898438 13.496094 13.5 21.898438 32.402343 21.898438 53.101562zm0 0" fill="#3e5959"/><path d="m256 181c-24.902344 0-45 20.097656-45 45 0 24.898438 20.097656 45 45 45s45-20.101562 45-45c0-24.902344-20.097656-45-45-45zm0 0" fill="#537983"/><path d="m512 297.699219v-83.398438l-70.300781-17.402343c-3.300781-10.5-7.5-20.699219-12.597657-30.597657l36.597657-61.203125-58.796875-58.796875-61.203125 36.597657c-9.898438-5.097657-20.097657-9.300782-30.601563-12.597657l-17.398437-70.300781h-83.398438l-17.398437 70.300781c-10.503906 3.300781-20.703125 7.5-30.601563 12.597657l-61.203125-36.597657-58.796875 58.796875 36.597657 61.203125c-5.097657 9.898438-9.300782 20.097657-12.597657 30.597657l-70.300781 17.402343v83.398438l70.300781 17.398437c3.300781 10.503906 7.5 20.703125 12.597657 30.601563l-36.597657 61.199219 58.796875 58.800781 61.203125-36.601563c9.898438 5.101563 20.097657 9.300782 30.601563 12.601563l17.398437 70.300781h83.398438l17.398437-70.300781c10.503906-3.300781 20.703125-7.5 30.601563-12.601563l61.203125 36.601563 58.796875-58.800781-36.597657-61.199219c5.097657-9.898438 9.300782-20.097657 12.597657-30.601563zm-256 93.300781c-74.398438 0-135-60.601562-135-135 0-74.402344 60.601562-135 135-135s135 60.597656 135 135c0 74.398438-60.601562 135-135 135zm0 0" fill="#deecf1"/><path d="m256 271v-90c24.902344 0 45 20.097656 45 45 0 24.898438-20.097656 45-45 45zm0 0" fill="#3e5959"/><path d="m441.699219 315.097656c-3.300781 10.503906-7.5 20.703125-12.597657 30.601563l36.597657 61.199219-58.796875 58.800781-61.203125-36.601563c-9.898438 5.101563-20.097657 9.300782-30.601563 12.601563l-17.398437 70.300781h-41.699219v-121c74.398438 0 135-60.601562 135-135 0-74.402344-60.601562-135-135-135v-121h41.699219l17.398437 70.300781c10.503906 3.300781 20.703125 7.5 30.601563 12.597657l61.203125-36.597657 58.796875 58.796875-36.597657 61.203125c5.097657 9.898438 9.300782 20.097657 12.597657 30.597657l70.300781 17.402343v83.398438zm0 0" fill="#c5d3dd"/></svg>