<svg height="512pt" viewBox="0 0 512 512" width="512pt" xmlns="http://www.w3.org/2000/svg"><path d="m31 75h30v362h-30zm0 0" fill="#537983"/><path d="m76 30h360v30h-360zm0 0" fill="#537983"/><path d="m76 452h360v30h-360zm0 0" fill="#537983"/><path d="m256 452h180v30h-180zm0 0" fill="#3e5959"/><path d="m91 90v332h330v-332zm0 0" fill="#deecf1"/><path d="m256 90h165v332h-165zm0 0" fill="#c5d3dd"/><path d="m391 120v70.601562l-39 177.398438-96-16-135-21v-211zm0 0" fill="#537983"/><path d="m391 120v70.601562l-39 177.398438-96-16v-232zm0 0" fill="#3e5959"/><path d="m451 75h30v362h-30zm0 0" fill="#3e5959"/><path d="m196 241c-24.8125 0-45-20.1875-45-45s20.1875-45 45-45 45 20.1875 45 45-20.1875 45-45 45zm0 0" fill="#ffda2d"/><path d="m321.996094 276.988281-10.78125 24.023438 53.988281 59.988281 25.796875-30v-140.273438zm0 0" fill="#6b0"/><path d="m256 30h180v30h-180zm0 0" fill="#3e5959"/><path d="m391 331v61h-270v-61h85.800781l49.199219-61.5 30-37.5 79.199219 99zm0 0" fill="#c3ea21"/><path d="m391 331v61h-135v-122.5l30-37.5 79.199219 99zm0 0" fill="#9cdd05"/><g fill="#00c0f1"><path d="m512 90h-91v-90h91zm0 0"/><path d="m512 512h-91v-90h91zm0 0"/><path d="m91 512h-91v-90h91zm0 0"/><path d="m91 90h-91v-90h91zm0 0"/></g></svg>