<svg height="512pt" viewBox="0 0 512 512" width="512pt" xmlns="http://www.w3.org/2000/svg"><path d="m512 391v121h-512v-121h61l15 30 15-30h30l15 30 15-30h30l15 30 15-30h30l15 30 15-30h30l15 30 15-30h30l15 30 15-30h30l15 30 15-30zm0 0" fill="#ffda2d"/><path d="m512 391v121h-256v-91l15-30h30l15 30 15-30h30l15 30 15-30h30l15 30 15-30zm0 0" fill="#fdbf00"/><path d="m512 316c0 24.898438-21.097656 45-46 45h-420c-24.902344 0-46-20.101562-46-45 0-24.902344 21.097656-75 46-75v-181h420v181c24.902344 0 46 50.097656 46 75zm0 0" fill="#deecf1"/><path d="m512 316c0 24.898438-21.097656 45-46 45h-210v-301h210v181c24.902344 0 46 50.097656 46 75zm0 0" fill="#c5d3dd"/><path d="m151 271h30v30h-30zm0 0" fill="#c5d3dd"/><path d="m211 271h30v30h-30zm0 0" fill="#c5d3dd"/><path d="m271 271h30v30h-30zm0 0" fill="#9facba"/><path d="m331 271h30v30h-30zm0 0" fill="#9facba"/><g fill="#fdbf00"><path d="m121 391h30v60h-30zm0 0"/><path d="m61 391h30v60h-30zm0 0"/><path d="m181 391h30v60h-30zm0 0"/><path d="m241 391h30v60h-30zm0 0"/></g><path d="m361 391h30v60h-30zm0 0" fill="#ff9100"/><path d="m421 391h30v60h-30zm0 0" fill="#ff9100"/><path d="m301 391h30v60h-30zm0 0" fill="#ff9100"/><path d="m61 0c33.136719 0 60 26.863281 60 60v256h-30c0-24.902344-20.097656-45-45-45s-46 20.097656-46 45v-256c0-33.136719 27.863281-60 61-60zm0 0" fill="#c5d3dd"/><path d="m451 0c-33.136719 0-60 26.863281-60 60v256h30c0-24.902344 20.097656-45 45-45s46 20.097656 46 45v-256c0-33.136719-27.863281-60-61-60zm0 0" fill="#9facba"/><path d="m151 120v121h210v-121zm0 0" fill="#25d9f8"/><path d="m256 120h105v121h-105zm0 0" fill="#00c0f1"/><path d="m256 391h15v60h-15zm0 0" fill="#ff9100"/></svg>