<svg height="512pt" viewBox="0 0 512 512" width="512pt" xmlns="http://www.w3.org/2000/svg"><path d="m30 151h452v301h-452zm0 0" fill="#3e5959"/><path d="m256 151h226v301h-226zm0 0" fill="#293939"/><path d="m452 181v211h-31l-30-30h-271l-30 30h-30v-211zm0 0" fill="#25d9f8"/><path d="m452 181v211h-31l-30-30h-135v-181zm0 0" fill="#00c0f1"/><path d="m90 0h331v392h-331zm0 0" fill="#deecf1"/><path d="m256 0h165v392h-165zm0 0" fill="#c5d3dd"/><path d="m512 422v15c0 41.398438-34.601562 75-76 75h-15l-15-30-15 30h-30l-15-30-15 30h-151l-15-30-15 30h-30l-15-30-15 30h-15c-41.398438 0-75-33.601562-75-75v-15zm0 0" fill="#deecf1"/><g fill="#c5d3dd"><path d="m512 422v15c0 41.398438-34.601562 75-76 75h-15l-15-30-15 30h-30l-15-30-15 30h-75v-90zm0 0"/><path d="m90 452h30v60h-30zm0 0"/><path d="m150 452h30v60h-30zm0 0"/></g><path d="m331 452h30v60h-30zm0 0" fill="#9facba"/><path d="m391 452h30v60h-30zm0 0" fill="#9facba"/><path d="m256 61c-24.902344 0-45 20.097656-45 45 0 24.898438 20.097656 45 45 45s45-20.101562 45-45c0-24.902344-20.097656-45-45-45zm0 0" fill="#537983"/><path d="m256 151c-41.398438 0-76 33.601562-76 75v15h151v-15c0-41.398438-33.601562-75-75-75zm0 0" fill="#537983"/><path d="m150 271v91h211v-91zm0 0" fill="#c5d3dd"/><path d="m256 151v-90c24.902344 0 45 20.097656 45 45 0 24.898438-20.097656 45-45 45zm0 0" fill="#3e5959"/><path d="m331 241h-75v-90c41.398438 0 75 33.601562 75 75zm0 0" fill="#3e5959"/><path d="m256 271h105v91h-105zm0 0" fill="#9facba"/></svg>