<svg height="512pt" viewBox="0 0 512 512" width="512pt" xmlns="http://www.w3.org/2000/svg"><path d="m346.675781 94.703125-8.234375-28.859375 95.585938-27.027344 8.230468 28.859375zm0 0" fill="#3e5959"/><path d="m402.792969 169.730469-66.140625-22.042969 9.492187-28.449219 66.140625 22.046875zm0 0" fill="#3e5959"/><path d="m165.324219 94.703125-95.582031-27.027344 8.230468-28.859375 95.585938 27.027344zm0 0" fill="#537983"/><path d="m109.207031 169.730469-9.492187-28.445313 66.140625-22.046875 9.492187 28.449219zm0 0" fill="#537983"/><path d="m361 105c0 57.898438-47.101562 105-105 105s-105-47.101562-105-105 47.101562-105 105-105 105 47.101562 105 105zm0 0" fill="#25d9f8"/><g fill="#00c0f1"><path d="m361 105c0 57.898438-47.101562 105-105 105v-210c57.898438 0 105 47.101562 105 105zm0 0"/><path d="m467 90c-24.8125 0-45-20.1875-45-45s20.1875-45 45-45 45 20.1875 45 45-20.1875 45-45 45zm0 0"/><path d="m436 210c-24.8125 0-45-20.1875-45-45s20.1875-45 45-45 45 20.1875 45 45-20.1875 45-45 45zm0 0"/></g><path d="m76 210c-24.8125 0-45-20.1875-45-45s20.1875-45 45-45 45 20.1875 45 45-20.1875 45-45 45zm0 0" fill="#25d9f8"/><path d="m45 90c-24.8125 0-45-20.1875-45-45s20.1875-45 45-45 45 20.1875 45 45-20.1875 45-45 45zm0 0" fill="#25d9f8"/><path d="m481 303.601562v64.199219c0 46.199219-10.800781 94.699219-31.5 135.796875l-4.199219 8.402344h-225.601562l-21.898438-21.902344c-30.300781-30.296875-46.800781-72.5-46.800781-115.097656 0-36.300781 25.800781-66.601562 60-73.5v-177.898438c0-18.601562 15-33.601562 33.601562-33.601562 4.199219 0 7.796876.597656 11.398438 2.101562 13.199219 4.496094 23 16.796876 23 31.5v150c0-18.601562 14.5-33.601562 33.398438-33.601562 18.601562 0 33.601562 15 33.601562 33.601562 0-18.601562 15-33.601562 33.601562-33.601562 18.898438 0 34.398438 15 34.398438 33.601562v26.398438h.902344c1.796875-16.800781 15.097656-30 32.496094-30 18.601562 0 33.601562 15 33.601562 33.601562zm0 0" fill="#ffcebf"/><path d="m481 303.601562v64.199219c0 46.199219-10.800781 94.699219-31.5 135.796875l-4.199219 8.402344h-189.300781v-419.898438c13.199219 4.496094 23 16.796876 23 31.5v150c0-18.601562 14.5-33.601562 33.398438-33.601562 18.601562 0 33.601562 15 33.601562 33.601562 0-18.601562 15-33.601562 33.601562-33.601562 18.898438 0 34.398438 15 34.398438 33.601562v26.398438h.902344c1.796875-16.800781 15.097656-30 32.496094-30 18.601562 0 33.601562 15 33.601562 33.601562zm0 0" fill="#ffb99c"/></svg>