<svg height="512pt" viewBox="0 -31 512.00052 512" width="512pt" xmlns="http://www.w3.org/2000/svg"><path d="m0 0h392.175781v390.175781h-392.175781zm0 0" fill="#ff9100"/><g fill="#ff641a"><path d="m196.089844 0h196.085937v390.175781h-196.085937zm0 0"/><path d="m30.011719 30.015625h61.027343v60.023437h-61.027343zm0 0"/><path d="m121.054688 30.015625h151.066406v60.023437h-151.066406zm0 0"/></g><path d="m302.136719 30.015625h60.027343v60.023437h-60.027343zm0 0" fill="#f03800"/><path d="m30.011719 120.054688h151.070312v60.027343h-151.070312zm0 0" fill="#ff641a"/><path d="m211.09375 120.054688h151.070312v60.027343h-151.070312zm0 0" fill="#f03800"/><path d="m30.011719 210.09375h61.027343v60.027344h-61.027343zm0 0" fill="#ff641a"/><path d="m121.054688 210.09375h241.109374v60.027344h-241.109374zm0 0" fill="#ff641a"/><path d="m30.011719 300.136719h151.070312v60.023437h-151.070312zm0 0" fill="#ff641a"/><path d="m211.09375 300.136719h91.042969v60.023437h-91.042969zm0 0" fill="#f03800"/><path d="m196.089844 30.015625h76.03125v60.023437h-76.03125zm0 0" fill="#f03800"/><path d="m196.089844 210.09375h166.074218v60.027344h-166.074218zm0 0" fill="#f03800"/><path d="m447.699219 184.582031-22.210938-22.511719-9.601562 94.242188c-33.617188-48.621094-26.113281-67.527344 5.101562-145.5625l21.308594-53.125-44.417969 35.714844c-7.203125 5.703125-14.109375 11.40625-20.710937 17.109375-106.246094 91.839843-154.570313 187.882812-128.753907 261.117187 17.40625 49.222656 65.429688 78.636719 128.753907 78.636719 54.324219 0 104.449219-33.316406 124.855469-82.539063 24.015624-57.925781 4.203124-124.855468-54.324219-183.082031zm0 0" fill="#ffda2d"/><path d="m502.023438 367.664062c-20.40625 49.222657-70.53125 82.539063-124.855469 82.539063v-339.753906c6.601562-5.703125 13.507812-11.40625 20.710937-17.105469l44.417969-35.71875-21.308594 53.125c-31.214843 78.035156-38.71875 96.945312-5.101562 145.566406l9.601562-94.242187 22.210938 22.507812c58.527343 58.226563 78.339843 125.15625 54.324219 183.082031zm0 0" fill="#fdbf00"/></svg>