<svg height="512pt" viewBox="0 -31 512 512" width="512pt" xmlns="http://www.w3.org/2000/svg"><path d="m512 336-153.101562 114h-129.296876l-169.601562-30-30-30v-90l30-30c39.601562-19.800781 56.800781-29.402344 86.800781-30 23.398438-.601562 47.398438 5.699219 68.101563 19.5l15.597656 10.5h61.800781c36.300781 0 66.597657 25.800781 73.5 60h-169.800781v30h183l58.300781-42.898438c20.097657-15.300781 50.097657-13.5 65.398438 6.597657l.300781.300781zm0 0" fill="#ffcebf"/><path d="m181 0h30v90h-30zm0 0" fill="#25d9f8"/><path d="m241 0v90h90v-90zm0 0" fill="#25d9f8"/><path d="m361 0h30v90h-30zm0 0" fill="#00c0f1"/><path d="m512 90h-91v-90h91zm0 0" fill="#00c0f1"/><path d="m181 120h30v90h-30zm0 0" fill="#25d9f8"/><path d="m241 120v90h90v-90zm0 0" fill="#25d9f8"/><path d="m361 120h30v90h-30zm0 0" fill="#00c0f1"/><path d="m512 210h-91v-90h91zm0 0" fill="#00c0f1"/><path d="m0 270h60v150h-60zm0 0" fill="#ff9100"/><path d="m286 0h45v90h-45zm0 0" fill="#00c0f1"/><path d="m286 120h45v90h-45zm0 0" fill="#00c0f1"/><g fill="#ffb99c"><path d="m365.800781 330h-79.800781v-60h6.300781c36.296875 0 66.597657 25.800781 73.5 60zm0 0"/><path d="m512 336-153.101562 114h-72.898438v-90h93l58.300781-42.898438c20.097657-15.300781 50.097657-13.5 65.398438 6.597657l.300781.300781zm0 0"/></g></svg>