<svg height="512pt" viewBox="0 0 512 512" width="512pt" xmlns="http://www.w3.org/2000/svg"><path d="m512 0v512h-512v-362l256-26.101562 37.5-3.898438 142.5-120zm0 0" fill="#deecf1"/><path d="m512 0v512h-256v-388.101562l37.5-3.898438 142.5-120zm0 0" fill="#c5d3dd"/><path d="m436 0-112.5 150h-323.5v-150zm0 0" fill="#537983"/><path d="m323.5 150h-67.5v-150h180zm0 0" fill="#3e5959"/><path d="m121 60h30v30h-30zm0 0" fill="#25d9f8"/><path d="m181 60h30v30h-30zm0 0" fill="#25d9f8"/><path d="m61 60h30v30h-30zm0 0" fill="#25d9f8"/><g fill="#c5d3dd"><path d="m61 180h30v30h-30zm0 0"/><path d="m121 180h90v30h-90zm0 0"/><path d="m61 240h30v30h-30zm0 0"/><path d="m121 240h90v30h-90zm0 0"/></g><path d="m331 240h90v196h-90zm0 0" fill="#ff641a"/><path d="m376 240h45v196h-45zm0 0" fill="#f03800"/><path d="m211 300h90v136h-90zm0 0" fill="#fdbf00"/><path d="m256 300h45v136h-45zm0 0" fill="#ff9100"/><path d="m91 360h90v76h-90zm0 0" fill="#25d9f8"/><path d="m136 360h45v76h-45zm0 0" fill="#00c0f1"/><path d="m61 421h390v30h-390zm0 0" fill="#537983"/><path d="m256 421h195v30h-195zm0 0" fill="#3e5959"/></svg>