<svg height="512pt" viewBox="0 0 512 512" width="512pt" xmlns="http://www.w3.org/2000/svg"><path d="m241 377h30v60h-30zm0 0" fill="#3e5959"/><path d="m256 377h15v60h-15zm0 0" fill="#293939"/><path d="m30 151h452v90h-452zm0 0" fill="#3e5959"/><path d="m256 151h226v90h-226zm0 0" fill="#293939"/><path d="m512 211v181h-512v-181h61l30 30h210l30-30zm0 0" fill="#537983"/><path d="m512 211v181h-256v-151h45l30-30zm0 0" fill="#3e5959"/><path d="m331 211v120h-270v-120h30l15 30 15-30h30l15 30 15-30h30l15 30 15-30h30l15 30 15-30zm0 0" fill="#3e5959"/><path d="m331 211v120h-75v-120h15l15 30 15-30zm0 0" fill="#293939"/><path d="m0 452h76v30h-76zm0 0" fill="#3e5959"/><path d="m136 452h90v30h-90zm0 0" fill="#3e5959"/><path d="m436 452h76v30h-76zm0 0" fill="#293939"/><path d="m286 452h90v30h-90zm0 0" fill="#293939"/><path d="m106 512c-24.8125 0-45-20.1875-45-45s20.1875-45 45-45 45 20.1875 45 45-20.1875 45-45 45zm0 0" fill="#25d9f8"/><path d="m406 512c-24.8125 0-45-20.1875-45-45s20.1875-45 45-45 45 20.1875 45 45-20.1875 45-45 45zm0 0" fill="#00c0f1"/><path d="m256 422c-24.902344 0-45 20.097656-45 45 0 24.898438 20.097656 45 45 45s45-20.101562 45-45c0-24.902344-20.097656-45-45-45zm0 0" fill="#25d9f8"/><path d="m301 467c0 24.898438-20.097656 45-45 45v-90c24.902344 0 45 20.097656 45 45zm0 0" fill="#00c0f1"/><path d="m421 271h30v30h-30zm0 0" fill="#00c0f1"/><path d="m361 271h30v30h-30zm0 0" fill="#00c0f1"/><g fill="#25d9f8"><path d="m91 211h30v90h-30zm0 0"/><path d="m151 211h30v90h-30zm0 0"/><path d="m211 211h30v90h-30zm0 0"/></g><path d="m271 211h30v90h-30zm0 0" fill="#00c0f1"/><path d="m512 0v181h-512v-181h61l30 30h210l30-30zm0 0" fill="#537983"/><path d="m512 0v181h-256v-151h45l30-30zm0 0" fill="#3e5959"/><path d="m331 0v121h-270v-121h30l15 30 15-30h30l15 30 15-30h30l15 30 15-30h30l15 30 15-30zm0 0" fill="#3e5959"/><path d="m331 0v121h-75v-121h15l15 30 15-30zm0 0" fill="#293939"/><path d="m421 61h30v30h-30zm0 0" fill="#00c0f1"/><path d="m361 61h30v30h-30zm0 0" fill="#00c0f1"/><path d="m91 0h30v91h-30zm0 0" fill="#25d9f8"/><path d="m151 0h30v91h-30zm0 0" fill="#25d9f8"/><path d="m211 0h30v91h-30zm0 0" fill="#25d9f8"/><path d="m271 0h30v91h-30zm0 0" fill="#00c0f1"/></svg>