<svg height="512pt" viewBox="0 -46 512 512" width="512pt" xmlns="http://www.w3.org/2000/svg"><path d="m241 285h30v60h-30zm0 0" fill="#537983"/><path d="m256 285h15v60h-15zm0 0" fill="#3e5959"/><path d="m0 360h76v30h-76zm0 0" fill="#537983"/><path d="m136 360h90v30h-90zm0 0" fill="#537983"/><path d="m436 360h76v30h-76zm0 0" fill="#3e5959"/><path d="m286 360h90v30h-90zm0 0" fill="#3e5959"/><path d="m106 420c-24.8125 0-45-20.1875-45-45s20.1875-45 45-45 45 20.1875 45 45-20.1875 45-45 45zm0 0" fill="#25d9f8"/><path d="m406 420c-24.8125 0-45-20.1875-45-45s20.1875-45 45-45 45 20.1875 45 45-20.1875 45-45 45zm0 0" fill="#00c0f1"/><path d="m256 330c-24.902344 0-45 20.097656-45 45 0 24.898438 20.097656 45 45 45s45-20.101562 45-45c0-24.902344-20.097656-45-45-45zm0 0" fill="#25d9f8"/><path d="m301 375c0 24.898438-20.097656 45-45 45v-90c24.902344 0 45 20.097656 45 45zm0 0" fill="#00c0f1"/><path d="m450.398438 124.800781c-5.699219-41.101562-45.300782-72.300781-88.796876-63.300781-25.203124-34.5-63.300781-56.402344-105.601562-60.601562-4.800781-.597657-9.902344-.898438-15-.898438-59.398438 0-113.101562 35.699219-136.800781 90-57 .898438-104.199219 47.699219-104.199219 105 0 57.898438 48.101562 105 106 105h315c49.5 0 91-40.5 91-90 0-38.699219-25.902344-72.898438-61.601562-85.199219zm0 0" fill="#deecf1"/><path d="m512 210c0 49.5-41.5 90-91 90h-165v-299.101562c42.300781 4.199218 80.398438 26.101562 105.601562 60.601562 43.5-9 83.097657 22.199219 88.796876 63.300781 35.699218 12.300781 61.601562 46.5 61.601562 85.199219zm0 0" fill="#c5d3dd"/></svg>