<svg height="512pt" viewBox="0 0 512 512" width="512pt" xmlns="http://www.w3.org/2000/svg"><g fill="#537983"><path d="m482 361v75h-30v-45h-392v45h-30v-75zm0 0"/><path d="m241 346h30v90h-30zm0 0"/><path d="m482 76v75h-452v-75h30v45h392v-45zm0 0"/><path d="m241 76h30v90h-30zm0 0"/><path d="m75 241h96.140625v30h-96.140625zm0 0"/></g><path d="m340.859375 241h96.140625v30h-96.140625zm0 0" fill="#3e5959"/><path d="m482 76v75h-226v-30h196v-45zm0 0" fill="#3e5959"/><path d="m256 361h226v75h-30v-45h-196zm0 0" fill="#3e5959"/><path d="m256 76h15v90h-15zm0 0" fill="#3e5959"/><path d="m256 346h15v90h-15zm0 0" fill="#3e5959"/><path d="m256 149.800781-106.199219 106.199219 106.199219 106.199219 106.199219-106.199219zm0 0" fill="#ff9100"/><path d="m362.199219 256-106.199219 106.199219v-212.398438zm0 0" fill="#ff641a"/><path d="m90 91h-90v-91h90zm0 0" fill="#25d9f8"/><path d="m211 0v91h90v-91zm0 0" fill="#25d9f8"/><path d="m512 91h-90v-91h90zm0 0" fill="#00c0f1"/><path d="m512 512h-90v-91h90zm0 0" fill="#00c0f1"/><path d="m211 421v91h90v-91zm0 0" fill="#25d9f8"/><path d="m90 512h-90v-91h90zm0 0" fill="#25d9f8"/><path d="m90 301h-90v-90h90zm0 0" fill="#25d9f8"/><path d="m512 301h-90v-90h90zm0 0" fill="#00c0f1"/><path d="m256 0h45v91h-45zm0 0" fill="#00c0f1"/><path d="m256 421h45v91h-45zm0 0" fill="#00c0f1"/></svg>