<svg height="512pt" viewBox="0 0 512 512" width="512pt" xmlns="http://www.w3.org/2000/svg"><path d="m512 0v360l-30 31h-452l-30-31v-360zm0 0" fill="#3e5959"/><path d="m512 0v360l-30 31h-226v-391zm0 0" fill="#293939"/><path d="m330.097656 492.199219h-148.195312l30-90h88.195312zm0 0" fill="#c5d3dd"/><path d="m300.097656 402.199219 30 90h-74.097656v-90zm0 0" fill="#9facba"/><path d="m121 482h270v30h-270zm0 0" fill="#deecf1"/><path d="m0 360h512v62h-512zm0 0" fill="#deecf1"/><path d="m256 482h135v30h-135zm0 0" fill="#c5d3dd"/><path d="m256 360h256v62h-256zm0 0" fill="#c5d3dd"/><path d="m30 30h452v300h-452zm0 0" fill="#deecf1"/><path d="m256 30h226v300h-226zm0 0" fill="#c5d3dd"/><path d="m136 90h90v30h-90zm0 0" fill="#537983"/><path d="m286 90h90v30h-90zm0 0" fill="#3e5959"/><path d="m391 225h-30c0-47.945312-32.371094-89.765625-78.734375-101.6875l7.46875-29.066406c59.621094 15.355468 101.265625 69.113281 101.265625 130.753906zm0 0" fill="#3e5959"/><path d="m151 225h-30c0-61.640625 41.644531-115.398438 101.265625-130.753906l7.46875 29.066406c-46.363281 11.921875-78.734375 53.742188-78.734375 101.6875zm0 0" fill="#537983"/><path d="m211 60v90h90v-90zm0 0" fill="#25d9f8"/><path d="m106 150c-24.8125 0-45-20.1875-45-45s20.1875-45 45-45 45 20.1875 45 45-20.1875 45-45 45zm0 0" fill="#25d9f8"/><path d="m406 150c-24.8125 0-45-20.1875-45-45s20.1875-45 45-45 46 20.1875 46 45-21.1875 45-46 45zm0 0" fill="#00c0f1"/><path d="m181 300h-90v-90h90zm0 0" fill="#25d9f8"/><g fill="#00c0f1"><path d="m421 300h-90v-90h90zm0 0"/><path d="m256 60h45v90h-45zm0 0"/></g></svg>