<svg height="512pt" viewBox="0 -55 512 512" width="512pt" xmlns="http://www.w3.org/2000/svg"><path d="m257.800781 55.800781v291l-55.5 55.800781-202.300781-201.300781 202.300781-201.300781zm0 0" fill="#25d9f8"/><path d="m257.800781 201.300781v145.5l-55.5 55.800781-202.300781-201.300781zm0 0" fill="#00c0f1"/><path d="m347.800781 55.800781v291l-55.5 55.800781-201.300781-201.300781 201.300781-201.300781zm0 0" fill="#c3ea21"/><path d="m91 201.300781h256.800781v145.5l-55.5 55.800781zm0 0" fill="#9cdd05"/><path d="m452 201.300781 60 66.300781-129.699219 135-201.300781-201.300781 201.300781-201.300781 129.699219 135zm0 0" fill="#ffda2d"/><path d="m512 267.601562-129.699219 135-201.300781-201.300781h271zm0 0" fill="#fdbf00"/><path d="m512 135v132.601562l-90-66.300781zm0 0" fill="#fdbf00"/><path d="m512 201.300781v66.300781l-90-66.300781zm0 0" fill="#ff9100"/></svg>