<svg height="512pt" viewBox="-31 0 512 512" width="512pt" xmlns="http://www.w3.org/2000/svg"><path d="m210 75h30v60h-30zm0 0" fill="#537983"/><path d="m225 75h15v60h-15zm0 0" fill="#3e5959"/><path d="m150 135h-30v-75h-45v-30h75zm0 0" fill="#537983"/><path d="m330 135h-30v-105h75v30h-45zm0 0" fill="#3e5959"/><g fill="#25d9f8"><path d="m390 120v85.300781l-120 60v55.796875h-90v-55.796875l-120-60v-85.300781zm0 0"/><path d="m45 90c-24.8125 0-45-20.1875-45-45s20.1875-45 45-45 45 20.1875 45 45-20.1875 45-45 45zm0 0"/><path d="m225 0c-24.902344 0-45 20.097656-45 45 0 24.898438 20.097656 45 45 45s45-20.101562 45-45c0-24.902344-20.097656-45-45-45zm0 0"/></g><path d="m405 90c-24.8125 0-45-20.1875-45-45s20.1875-45 45-45 45 20.1875 45 45-20.1875 45-45 45zm0 0" fill="#00c0f1"/><path d="m225 90v-90c24.902344 0 45 20.097656 45 45 0 24.898438-20.097656 45-45 45zm0 0" fill="#00c0f1"/><path d="m390 120v85.300781l-120 60v55.796875h-45v-201.097656zm0 0" fill="#00c0f1"/><path d="m225 301c-57.898438 0-105 47.101562-105 105s47.101562 106 105 106 105-48.101562 105-106-47.101562-105-105-105zm0 0" fill="#ffda2d"/><path d="m330 406c0 57.898438-47.101562 106-105 106v-211c57.898438 0 105 47.101562 105 105zm0 0" fill="#fdbf00"/><path d="m210 361h30v90h-30zm0 0" fill="#fdbf00"/><path d="m225 361h15v90h-15zm0 0" fill="#ff9100"/></svg>