<svg height="512pt" viewBox="0 0 512 512" width="512pt" xmlns="http://www.w3.org/2000/svg"><g fill="#537983"><path d="m60 241h392v30h-392zm0 0"/><path d="m241 196h30v60h-30zm0 0"/><path d="m105 256h30v60h-30zm0 0"/></g><path d="m377 256h30v60h-30zm0 0" fill="#3e5959"/><path d="m256 241h196v30h-196zm0 0" fill="#3e5959"/><path d="m256 196h15v60h-15zm0 0" fill="#3e5959"/><path d="m75 437h90v60h-90zm0 0" fill="#c5d3dd"/><path d="m120 437h45v60h-45zm0 0" fill="#9facba"/><path d="m0 301v151h241v-151zm0 0" fill="#deecf1"/><path d="m45 482h150v30h-150zm0 0" fill="#deecf1"/><path d="m120 482h75v30h-75zm0 0" fill="#c5d3dd"/><path d="m120 301h121v151h-121zm0 0" fill="#c5d3dd"/><path d="m30 331h181v91h-181zm0 0" fill="#25d9f8"/><path d="m120 331h91v91h-91zm0 0" fill="#00c0f1"/><path d="m347 437h90v60h-90zm0 0" fill="#c5d3dd"/><path d="m392 437h45v60h-45zm0 0" fill="#9facba"/><path d="m271 301v151h241v-151zm0 0" fill="#deecf1"/><path d="m317 482h150v30h-150zm0 0" fill="#deecf1"/><path d="m392 482h75v30h-75zm0 0" fill="#c5d3dd"/><path d="m392 301h120v151h-120zm0 0" fill="#c5d3dd"/><path d="m302 331h180v91h-180zm0 0" fill="#25d9f8"/><path d="m392 331h90v91h-90zm0 0" fill="#00c0f1"/><path d="m211 136h91v60h-91zm0 0" fill="#c5d3dd"/><path d="m256 136h46v60h-46zm0 0" fill="#9facba"/><path d="m135 0v151h242v-151zm0 0" fill="#deecf1"/><path d="m180 181h152v30h-152zm0 0" fill="#deecf1"/><path d="m256 181h76v30h-76zm0 0" fill="#c5d3dd"/><path d="m256 0h121v151h-121zm0 0" fill="#c5d3dd"/><path d="m165 30h182v91h-182zm0 0" fill="#25d9f8"/><path d="m256 30h91v91h-91zm0 0" fill="#00c0f1"/></svg>