<svg height="511pt" viewBox="0 1 511 511.99973" width="511pt" xmlns="http://www.w3.org/2000/svg"><path d="m480.5 180v120s-48.601562 0-51.597656 0c-9.601563 30.300781-27.300782 57.300781-49.203125 79.199219-23.097657 23.101562-51 40.199219-79.199219 49.199219v51.601562s-116.699219 0-120 0c0 0 0-48.601562 0-51.601562-10.5-3.300782-21-7.5-30.898438-12.597657-3.898437 3.898438-33.601562 33.597657-36.300781 36.300781 0 0-81.898437-81.601562-84.902343-84.902343l36.300781-36.300781c-5.101563-9.898438-9.300781-20.398438-12.601563-30.898438 0 0-48.597656 0-51.597656 0 0 0 0-116.699219 0-120h51.597656c3.300782-10.5 7.5-21 12.601563-30.902344-3.898438-3.898437-33.597657-33.597656-36.300781-36.296875l42.300781-42.601562 42.601562-42.300781c3.898438 3.902343 33.597657 33.601562 36.296875 36.300781 9.902344-5.101563 20.402344-9.300781 30.902344-12.601563 0 0 0-48.597656 0-51.597656h120v51.597656c10.5 3.300782 21 7.5 30.902344 12.601563 3.898437-3.898438 33.597656-33.601563 36.296875-36.300781 0 0 81.898437 81.597656 84.902343 84.902343-3.902343 3.898438-33.601562 33.597657-36.300781 36.296875 5.101563 9.902344 9.300781 20.402344 12.601563 30.902344zm0 0" fill="#deecf1"/><path d="m480.5 180v120s-48.601562 0-51.597656 0c-9.601563 30.300781-27.300782 57.300781-49.203125 79.199219l-309-309 42.601562-42.300781c3.898438 3.902343 33.597657 33.601562 36.296875 36.300781 9.902344-5.101563 20.402344-9.300781 30.902344-12.601563 0 0 0-48.597656 0-51.597656h120v51.597656c10.5 3.300782 21 7.5 30.902344 12.601563 3.898437-3.898438 33.597656-33.601563 36.296875-36.300781 0 0 81.898437 81.597656 84.902343 84.902343-3.902343 3.898438-33.601562 33.597657-36.300781 36.296875 5.101563 9.902344 9.300781 20.402344 12.601563 30.902344zm0 0" fill="#c5d3dd"/><path d="m481.902344 449-16.203125 16.199219-15.898438 15.902343-45.902343-14.101562-20.996094-21-89.902344-89.898438 63.601562-63.601562 110.898438 110.898438zm0 0" fill="#25d9f8"/><path d="m481.902344 449-16.203125 16.199219-140.898438-140.898438 31.800781-31.800781 110.898438 110.898438zm0 0" fill="#00c0f1"/><path d="m240.5 102c-38.101562 0-72.597656 15.601562-97.5 40.5s-40.5 59.398438-40.5 97.5c0 76.199219 61.800781 138 138 138 38.101562 0 72.597656-15.601562 97.5-40.5 24.902344-24.902344 40.5-59.402344 40.5-97.5 0-76.199219-61.800781-138-138-138zm0 0" fill="#3e5959"/><path d="m378.5 240c0 38.097656-15.601562 72.597656-40.5 97.5l-195-195c24.902344-24.902344 59.398438-40.5 97.5-40.5 76.199219 0 138 61.800781 138 138zm0 0" fill="#3e5959"/><path d="m403.894531 467 63.597657-63.597656 45 44.996094-63.597657 63.601562zm0 0" fill="#537983"/><path d="m435.695312 435.199219 31.796876-31.796875 45 44.996094-31.796876 31.800781zm0 0" fill="#3e5959"/><path d="m240.5 132c-29.699219 0-56.699219 12-76.199219 31.800781-19.800781 19.5-31.800781 46.5-31.800781 76.199219 0 59.398438 48.601562 108 108 108 29.699219 0 56.699219-12 76.199219-31.800781 19.800781-19.5 31.800781-46.5 31.800781-76.199219 0-59.402344-48.601562-108-108-108zm0 0" fill="#deecf1"/><path d="m348.5 240c0 29.699219-12 56.699219-31.800781 76.199219l-152.398438-152.398438c19.5-19.800781 46.5-31.800781 76.199219-31.800781 59.398438 0 108 48.597656 108 108zm0 0" fill="#c5d3dd"/><path d="m318.503906 240h-30c0-26.46875-21.535156-48.003906-48.003906-48.003906v-30c43.007812 0 78.003906 34.996094 78.003906 78.003906zm0 0" fill="#9facba"/></svg>