<svg height="512pt" viewBox="0 0 512 512" width="512pt" xmlns="http://www.w3.org/2000/svg"><path d="m482 120v182h-240v-302h120l30 90zm0 0" fill="#deecf1"/><path d="m482 302h-120v-302l30 90 90 30zm0 0" fill="#c5d3dd"/><path d="m302 150h60v30h-60zm0 0" fill="#c5d3dd"/><path d="m392 150h30v30h-30zm0 0" fill="#9facba"/><path d="m302 210h60v30h-60zm0 0" fill="#c5d3dd"/><path d="m392 210h30v30h-30zm0 0" fill="#9facba"/><path d="m512 398-150 112.5-2.101562 1.5h-129.296876l-170.601562-30-30-30v-90l30-30c39.601562-19.800781 57.800781-29.402344 87.800781-30 23.398438-.601562 47.398438 5.699219 68.101563 19.5l15.597656 10.5h61.800781c30.898438 0 57.300781 18.601562 68.699219 45.300781 2.101562 4.796875 3.601562 9.597657 4.800781 14.699219h-169.800781v30h183l57.300781-42.898438c20.097657-15.300781 50.097657-13.5 65.398438 6.597657l.300781.300781zm0 0" fill="#ffcebf"/><path d="m0 332h60v150h-60zm0 0" fill="#ff9100"/><path d="m383.210938 0h-21.210938v120h120v-21.210938zm0 0" fill="#9facba"/><path d="m512 398-150 112.5v-88.5h18l57.300781-42.898438c20.097657-15.300781 50.097657-13.5 65.398438 6.597657l.300781.300781zm0 0" fill="#ffb99c"/></svg>