<svg height="512pt" viewBox="0 0 512 512" width="512pt" xmlns="http://www.w3.org/2000/svg"><path d="m151 121-60 30-60-30 60-121zm0 0" fill="#ffcebf"/><path d="m151 121-60 30v-151zm0 0" fill="#ffb99c"/><path d="m151 121v180l-60 30-60-30v-180zm0 0" fill="#25d9f8"/><path d="m151 121v180l-60 30v-210zm0 0" fill="#00c0f1"/><path d="m31 301h120v120h-120zm0 0" fill="#537983"/><path d="m91 301h60v120h-60zm0 0" fill="#3e5959"/><path d="m319.898438 274.601562c.300781 16.796876-1.5 33.597657-5.699219 50.097657l-13.800781 54.902343h-88.796876l-13.800781-54.902343c-3.902343-15-5.699219-30.300781-5.699219-45.601563 0-23.097656 11.097657-46.199218 18.898438-68.097656l45-30 45 30c7.5 20.699219 18.300781 42 18.898438 63.601562zm0 0" fill="#ff9100"/><path d="m319.898438 274.601562c.300781 16.796876-1.5 33.597657-5.699219 50.097657l-13.800781 54.902343h-44.398438v-198.601562l45 30c7.5 20.699219 18.300781 42 18.898438 63.601562zm0 0" fill="#ff641a"/><path d="m481 241v30l-60 30-60-30v-30c0-33 27-60 60-60s60 27 60 60zm0 0" fill="#deecf1"/><path d="m481 241v30l-60 30v-120c33 0 60 27 60 60zm0 0" fill="#c5d3dd"/><path d="m361 271h120v120h-120zm0 0" fill="#25d9f8"/><path d="m421 271h60v120h-60zm0 0" fill="#00c0f1"/><path d="m512 361v151h-512v-151h61l15 30 15-30h30l15 30 15-30h30l15 30 15-30h30l15 30 15-30h30l15 30 15-30h30l15 30 15-30h30l15 30 15-30zm0 0" fill="#ffda2d"/><g fill="#fdbf00"><path d="m512 361v151h-256v-121l15-30h30l15 30 15-30h30l15 30 15-30h30l15 30 15-30zm0 0"/><path d="m121 361h30v60h-30zm0 0"/><path d="m61 361h30v90h-30zm0 0"/><path d="m181 361h30v90h-30zm0 0"/><path d="m241 361h30v60h-30zm0 0"/></g><path d="m361 361h30v60h-30zm0 0" fill="#ff9100"/><path d="m421 361h30v90h-30zm0 0" fill="#ff9100"/><path d="m301 361h30v90h-30zm0 0" fill="#ff9100"/><path d="m256 361h15v60h-15zm0 0" fill="#ff9100"/><path d="m477.101562 128.199219-56.101562-128.199219-56.101562 128.199219-.597657.898437c-2.101562 6.601563-3.300781 13.203125-3.300781 20.101563 0 33 27 60 60 60 32.996094 0 60-27 60-60 0-6.898438-1.199219-13.5-3.898438-21zm0 0" fill="#537983"/><path d="m421 209.199219v-209.199219l56.101562 128.199219c2.699219 7.5 3.898438 14.101562 3.898438 21 0 33-27 60-60 60zm0 0" fill="#3e5959"/><path d="m333.101562 135.398438-32.101562 75.601562h-90l-32.101562-75.601562 62.101562-109.898438h30zm0 0" fill="#deecf1"/><path d="m333.101562 135.398438-32.101562 75.601562h-45v-185.5h15zm0 0" fill="#c5d3dd"/><path d="m271 25.5v125.5h-30v-125.5l15-25.5zm0 0" fill="#c5d3dd"/><path d="m271 25.5v125.5h-15v-151zm0 0" fill="#9facba"/></svg>