<svg height="512pt" viewBox="0 0 512 512" width="512pt" xmlns="http://www.w3.org/2000/svg"><path d="m512 0v330l-30 31h-452l-30-31v-330zm0 0" fill="#3e5959"/><path d="m512 0v330l-30 31h-226v-361zm0 0" fill="#293939"/><path d="m330.097656 492.199219h-148.195312l30-90h88.195312zm0 0" fill="#c5d3dd"/><path d="m300.097656 402.199219 30 90h-74.097656v-90zm0 0" fill="#9facba"/><path d="m121 482h270v30h-270zm0 0" fill="#deecf1"/><path d="m0 330h512v92h-512zm0 0" fill="#deecf1"/><path d="m256 482h135v30h-135zm0 0" fill="#c5d3dd"/><path d="m256 330h256v92h-256zm0 0" fill="#c5d3dd"/><path d="m30 30h452v270h-452zm0 0" fill="#25d9f8"/><path d="m256 30h226v270h-226zm0 0" fill="#00c0f1"/><g fill="#deecf1"><path d="m121 60h30v210h-30zm0 0"/><path d="m61 60h30v30h-30zm0 0"/><path d="m61 120h30v30h-30zm0 0"/><path d="m61 180h30v30h-30zm0 0"/><path d="m61 240h30v30h-30zm0 0"/><path d="m181 60h60v30h-60zm0 0"/></g><path d="m271 60h30v30h-30zm0 0" fill="#c5d3dd"/><path d="m181 120h60v30h-60zm0 0" fill="#deecf1"/><path d="m271 120h121v30h-121zm0 0" fill="#c5d3dd"/><path d="m422 120h30v30h-30zm0 0" fill="#c5d3dd"/><path d="m181 180h120v30h-120zm0 0" fill="#deecf1"/><path d="m331 180h121v30h-121zm0 0" fill="#c5d3dd"/><path d="m181 240h120v30h-120zm0 0" fill="#deecf1"/><path d="m331 240h61v30h-61zm0 0" fill="#c5d3dd"/><path d="m256 180h45v30h-45zm0 0" fill="#c5d3dd"/><path d="m256 240h45v30h-45zm0 0" fill="#c5d3dd"/></svg>