<?xml version="1.0"?>
<svg xmlns="http://www.w3.org/2000/svg" viewBox="0 0 64 64" width="512" height="512"><g id="Flat"><path d="M44,50l9.757,9.757a4.243,4.243,0,0,0,3,1.243h0A4.242,4.242,0,0,0,61,56.757h0a4.243,4.243,0,0,0-1.243-3L50,44Z" style="fill:#6cbbc7"/><rect x="42.172" y="42.172" width="5.657" height="5.657" transform="translate(-18.64 45) rotate(-45)" style="fill:#fdb62f"/><circle cx="27" cy="27" r="24" style="fill:#f5cf68"/><circle cx="27" cy="27" r="20" style="fill:#e6e6e6"/><path d="M17,16H37a2,2,0,0,1,2,2V32a0,0,0,0,1,0,0H15a0,0,0,0,1,0,0V18A2,2,0,0,1,17,16Z" style="fill:#a7d6dd"/><path d="M13,32H41v2a2,2,0,0,1-2,2H15a2,2,0,0,1-2-2Z" style="fill:#6cbbc7"/><polygon points="30 19 30 21 32.586 21 28 25.586 24 21.586 18.293 27.293 19.707 28.707 24 24.414 28 28.414 34 22.414 34 25 36 25 36 19 30 19" style="fill:#02998a"/></g></svg>
