<?xml version="1.0"?>
<svg xmlns="http://www.w3.org/2000/svg" viewBox="0 0 64 64" width="512" height="512"><g id="Flat"><rect x="3" y="15" width="58" height="38" style="fill:#e6e6e6"/><polygon points="25 61 28 53 36 53 39 61 25 61" style="fill:#e6e6e6"/><rect x="3" y="49" width="58" height="4" style="fill:#b3b3b3"/><path d="M38,28H26a1,1,0,0,1,0-2H38a1,1,0,0,1,0,2Z" style="fill:#6cbbc7"/><path d="M32,15,17,45h0a4.472,4.472,0,0,1-2-6L29,11Z" style="fill:#02998a"/><path d="M32,15,47,45h0a4.472,4.472,0,0,0,2-6L35,11Z" style="fill:#02998a"/><rect x="30" y="2" width="4" height="9" style="fill:#02998a"/><path d="M28,8v6a4,4,0,0,0,4,4h0a4,4,0,0,0,4-4V8Z" style="fill:#6cbbc7"/><path d="M32,14a.99.99,0,1,1,.71-.29A1.052,1.052,0,0,1,32,14Z" style="fill:#a7d6dd"/></g></svg>
