<?xml version="1.0"?>
<svg xmlns="http://www.w3.org/2000/svg" viewBox="0 0 64 64" width="512" height="512"><g id="Flat"><rect x="29" y="44" width="6" height="13" style="fill:#b3b3b3"/><rect x="3" y="8" width="58" height="40" style="fill:#e6e6e6"/><rect x="22" y="55" width="20" height="4" rx="2" ry="2" style="fill:#e6e6e6"/><rect x="45.672" y="37.308" width="5.657" height="18.385" transform="translate(-18.675 47.914) rotate(-45)" style="fill:#02998a"/><rect x="32.757" y="32.172" width="8.485" height="5.657" transform="translate(-13.912 36.414) rotate(-45)" style="fill:#6cbbc7"/><rect x="37.672" y="36.379" width="5.657" height="4.243" transform="translate(-15.361 39.914) rotate(-45)" style="fill:#83beb9"/><circle cx="24" cy="22" r="17" style="fill:#a7d6dd"/><polygon points="18.757 23.97 15.04 23.041 12.316 23.948 11.684 22.052 14.96 20.959 19.243 22.03 18.757 23.97" style="fill:#ff6536"/><polygon points="12.555 28.832 11.445 27.168 14.697 25 19 25 19 27 15.303 27 12.555 28.832" style="fill:#ff6536"/><polygon points="29.243 23.97 28.757 22.03 33.04 20.959 36.316 22.052 35.684 23.948 32.96 23.041 29.243 23.97" style="fill:#ff6536"/><polygon points="35.445 28.832 32.697 27 29 27 29 25 33.303 25 36.555 27.168 35.445 28.832" style="fill:#ff6536"/><polygon points="32.004 14.684 31.178 17.163 27.831 18 20.122 18 16.775 17.163 15.949 14.684 14.051 15.316 15.225 18.837 19.757 19.97 19.808 19.766 28.145 19.766 28.196 19.97 32.728 18.837 33.902 15.316 32.004 14.684" style="fill:#ff6536"/><path d="M27,17.944V16a3,3,0,0,0-6,0v1.944A7.267,7.267,0,0,0,18,24c0,3.866,2.686,7,6,7s6-3.134,6-7A7.267,7.267,0,0,0,27,17.944Z" style="fill:#fdb62f"/></g></svg>
