<?xml version="1.0"?>
<svg xmlns="http://www.w3.org/2000/svg" viewBox="0 0 64 64" width="512" height="512"><g id="Flat"><rect x="31" y="26" width="2" height="15.387" style="fill:#f5cf68"/><rect x="2" y="48" width="13" height="2" style="fill:#f5cf68"/><rect x="44" y="48" width="18" height="2" style="fill:#f5cf68"/><path d="M57,8a3.965,3.965,0,0,0-1.334.245A4.991,4.991,0,0,0,46,10a3,3,0,0,0,0,6H57a4,4,0,0,0,0-8Z" style="fill:#83beb9"/><path d="M27,7a6.983,6.983,0,0,0-1.924.274A7.992,7.992,0,0,0,10.23,9.127,6,6,0,1,0,9,21H27A7,7,0,0,0,27,7Z" style="fill:#6cbbc7"/><path d="M47,15a6.955,6.955,0,0,0-3.035.7c.013-.233.035-.464.035-.7a11.993,11.993,0,0,0-23.821-1.991c-.06,0-.119-.009-.179-.009a8,8,0,0,0,0,16H47a7,7,0,0,0,0-14Z" style="fill:#a7d6dd"/><path d="M39,51V47H35.769a8.943,8.943,0,0,0-1.156-2.785L36.9,41.929,34.071,39.1l-2.286,2.287A8.943,8.943,0,0,0,29,40.231V37H25v3.231a8.943,8.943,0,0,0-2.785,1.156L19.929,39.1,17.1,41.929l2.286,2.286A8.943,8.943,0,0,0,18.231,47H15v4h3.231a8.943,8.943,0,0,0,1.156,2.785L17.1,56.071,19.929,58.9l2.286-2.286A8.943,8.943,0,0,0,25,57.769V61h4V57.769a8.943,8.943,0,0,0,2.785-1.156L34.071,58.9,36.9,56.071l-2.286-2.286A8.943,8.943,0,0,0,35.769,51ZM27,53a4,4,0,1,1,4-4A4,4,0,0,1,27,53Z" style="fill:#b3b3b3"/><path d="M47.072,51a5.976,5.976,0,0,0-.105-1.094L49,48.732l-2-3.464-2.033,1.174a5.987,5.987,0,0,0-1.895-1.093V43h-4v2.349a5.981,5.981,0,0,0-1.9,1.093l-2.032-1.174-2,3.464,2.032,1.174a5.806,5.806,0,0,0,0,2.188l-2.032,1.174,2,3.464,2.033-1.174a5.965,5.965,0,0,0,1.9,1.093V59h4V56.651a5.987,5.987,0,0,0,1.895-1.093L47,56.732l2-3.464-2.033-1.174A5.976,5.976,0,0,0,47.072,51Zm-6,2a2,2,0,1,1,2-2A2,2,0,0,1,41.072,53Z" style="fill:#e6e6e6"/></g></svg>
