<?xml version="1.0"?>
<svg xmlns="http://www.w3.org/2000/svg" viewBox="0 0 64 64" width="512" height="512"><g id="Flat"><rect x="20" y="8" width="24" height="20" style="fill:#e6e6e6"/><rect x="20" y="3" width="24" height="5" style="fill:#b3b3b3"/><rect x="3" y="41" width="24" height="20" style="fill:#e6e6e6"/><rect x="3" y="36" width="24" height="5" style="fill:#b3b3b3"/><rect x="37" y="41" width="24" height="20" style="fill:#e6e6e6"/><rect x="37" y="36" width="24" height="5" style="fill:#b3b3b3"/><polygon points="32 47 27 47 27 45 30 45 30 33 15 33 15 22 20 22 20 24 17 24 17 31 32 31 32 47" style="fill:#f5cf68"/><polygon points="37 57 32 57 32 52 27 52 27 50 34 50 34 55 37 55 37 57" style="fill:#f5cf68"/><rect x="24" y="22" width="16" height="2" style="fill:#6cbbc7"/><rect x="41" y="55" width="16" height="2" style="fill:#6cbbc7"/><rect x="41" y="50" width="16" height="2" style="fill:#6cbbc7"/><rect x="41" y="45" width="16" height="2" style="fill:#6cbbc7"/><rect x="24" y="17" width="16" height="2" style="fill:#6cbbc7"/><rect x="24" y="17" width="16" height="2" style="fill:#6cbbc7"/><rect x="24" y="12" width="16" height="2" style="fill:#6cbbc7"/><rect x="7" y="55" width="16" height="2" style="fill:#6cbbc7"/><rect x="7" y="50" width="16" height="2" style="fill:#6cbbc7"/><rect x="7" y="45" width="16" height="2" style="fill:#6cbbc7"/></g></svg>
