<?xml version="1.0"?>
<svg xmlns="http://www.w3.org/2000/svg" viewBox="0 0 64 64" width="512" height="512"><g id="Flat"><path d="M7,19H57a2,2,0,0,1,2,2V57a0,0,0,0,1,0,0H5a0,0,0,0,1,0,0V21A2,2,0,0,1,7,19Z" style="fill:#a7d6dd"/><path d="M3,57H61v2a2,2,0,0,1-2,2H5a2,2,0,0,1-2-2Z" style="fill:#6cbbc7"/><path d="M32,25l-4,8V51a2,2,0,0,0,2,2h4a2,2,0,0,0,2-2V33Z" style="fill:#ffdaaa"/><polygon points="36 36 34 38 32 36 30 38 28 36 28 48 36 48 36 36" style="fill:#ff6536"/><path d="M30,29h0a2.828,2.828,0,0,0,4,0h0l-2-4Z" style="fill:#784a42"/><path d="M32,4,13,23H51Zm0,8,5,5H27Z" style="fill:#fdb62f"/><rect x="23" y="19" width="2" height="4" style="fill:#f5cf68"/><rect x="19" y="20" width="2" height="3" style="fill:#f5cf68"/><rect x="31" y="19" width="2" height="4" style="fill:#f5cf68"/><rect x="27" y="20" width="2" height="3" style="fill:#f5cf68"/><rect x="39" y="19" width="2" height="4" style="fill:#f5cf68"/><rect x="35" y="20" width="2" height="3" style="fill:#f5cf68"/><rect x="43" y="20" width="2" height="3" style="fill:#f5cf68"/></g></svg>
