<?xml version="1.0"?>
<svg xmlns="http://www.w3.org/2000/svg" viewBox="0 0 64 64" width="512" height="512"><g id="Flat"><rect x="3" y="47" width="14" height="14" style="fill:#a7d6dd"/><circle cx="52" cy="12" r="9" style="fill:#f5cf68"/><path d="M16,27h0a19.315,19.315,0,0,0,13.657-5.657L32,19l2.343,2.343A19.315,19.315,0,0,0,48,27h0A31.512,31.512,0,0,1,36.358,51.459L32,55l-4.358-3.541A31.512,31.512,0,0,1,16,27Z" style="fill:#02998a"/><path d="M36,33a4,4,0,1,0-6,3.445V41a2,2,0,0,0,2,2h0a2,2,0,0,0,2-2V36.445A3.982,3.982,0,0,0,36,33Z" style="fill:#fdb62f"/><polygon points="3 3 3 17 10 10 3 3" style="fill:#a7d6dd"/><path d="M3,3l7,7,2.172,2.172a4,4,0,0,0,5.656,0L20,10l7-7Z" style="fill:#02998a"/><polygon points="20 10 27 17 27 3 20 10" style="fill:#a7d6dd"/><path d="M17.828,12.172a4,4,0,0,1-5.656,0L10,10,3,17H27l-7-7Z" style="fill:#6cbbc7"/><circle cx="54" cy="42" r="4" style="fill:#ffdaaa"/><path d="M47,61H61V55a6,6,0,0,0-6-6H53a6,6,0,0,0-6,6Z" style="fill:#a7d6dd"/><path d="M57,10a3,3,0,0,0-2-2.816V6H53V7H52V6H50V7H48V9h1v2H48v2h1v2H48v2h2v1h2V17h1v1h2V16.816A2.972,2.972,0,0,0,56.22,12,2.981,2.981,0,0,0,57,10ZM51,9h3a1,1,0,0,1,0,2H51Zm3,6H51V13h3a1,1,0,0,1,0,2Z" style="fill:#ff6536"/><polygon points="3 55 3 61 17 61 7 51 3 55" style="fill:#02998a"/><circle cx="13" cy="51" r="2" style="fill:#ff6536"/></g></svg>
