<?xml version="1.0"?>
<svg xmlns="http://www.w3.org/2000/svg" viewBox="0 0 64 64" width="512" height="512"><g id="Flat"><rect x="3" y="3" width="58" height="58" style="fill:#e6e6e6"/><rect x="3" y="3" width="58" height="6" style="fill:#b3b3b3"/><path d="M57,39V31H51.507A16.853,16.853,0,0,0,49.5,26.158l3.886-3.886-5.657-5.657L43.842,20.5A16.853,16.853,0,0,0,39,18.493V13H31v5.493A16.853,16.853,0,0,0,26.158,20.5l-3.886-3.886-5.657,5.657L20.5,26.158A16.853,16.853,0,0,0,18.493,31H14v8h4.493A16.853,16.853,0,0,0,20.5,43.842l-3.886,3.886,5.657,5.657L26.158,49.5A16.853,16.853,0,0,0,31,51.507V57h8V51.507A16.853,16.853,0,0,0,43.842,49.5l3.886,3.886,5.657-5.657L49.5,43.842A16.853,16.853,0,0,0,51.507,39ZM35,46A11,11,0,1,1,46,35,11,11,0,0,1,35,46Z" style="fill:#6cbbc7"/><path d="M26,14.362V13H20v1.362a12.612,12.612,0,0,1,6,0Z" style="fill:#ff6536"/><path d="M26,23V14.362a12.612,12.612,0,0,0-6,0V23Z" style="fill:#ff6536"/><path d="M10,27H36A13,13,0,0,0,23,14h0A13,13,0,0,0,10,27Z" style="fill:#fdb62f"/><rect x="20" y="13" width="6" height="10" style="fill:#ff6536"/><path d="M6,7a1,1,0,0,1-.38-.08,1.155,1.155,0,0,1-.33-.21,1.169,1.169,0,0,1-.21-.33.942.942,0,0,1,0-.76,1.032,1.032,0,0,1,.21-.33,1.155,1.155,0,0,1,.33-.21.991.991,0,0,1,.76,0,1.155,1.155,0,0,1,.33.21,1.155,1.155,0,0,1,.21.33.943.943,0,0,1,0,.76,1.169,1.169,0,0,1-.21.33A.994.994,0,0,1,6,7Z" style="fill:#ff6536"/><path d="M9,7a.994.994,0,0,1-.71-.29,1.169,1.169,0,0,1-.21-.33.942.942,0,0,1,0-.76.9.9,0,0,1,.54-.54.952.952,0,0,1,.76,0,1.155,1.155,0,0,1,.33.21,1.032,1.032,0,0,1,.21.33.943.943,0,0,1,0,.76,1.169,1.169,0,0,1-.21.33,1.155,1.155,0,0,1-.33.21A1,1,0,0,1,9,7Z" style="fill:#fdb62f"/><path d="M12,7a1,1,0,0,1-.38-.08,1.155,1.155,0,0,1-.33-.21,1.169,1.169,0,0,1-.21-.33.942.942,0,0,1,0-.76,1.032,1.032,0,0,1,.21-.33,1.155,1.155,0,0,1,.33-.21.991.991,0,0,1,.76,0,1.032,1.032,0,0,1,.33.21,1.155,1.155,0,0,1,.21.33.943.943,0,0,1,0,.76,1.169,1.169,0,0,1-.21.33A.994.994,0,0,1,12,7Z" style="fill:#02998a"/><path d="M39,53v4H7V53a6,6,0,0,1,6-6H33A6,6,0,0,1,39,53Z" style="fill:#83beb9"/><rect x="19" y="43" width="8" height="8" style="fill:#ffdaaa"/><path d="M13,31H10a2,2,0,0,0-2,2H8a2,2,0,0,0,2,2h3Z" style="fill:#ffdaaa"/><path d="M33,31h3a2,2,0,0,1,2,2h0a2,2,0,0,1-2,2H33Z" style="fill:#ffdaaa"/><path d="M34,34V27H12v7A11,11,0,0,0,23,45h0A11,11,0,0,0,34,34Z" style="fill:#ffe9cc"/><path d="M21,34H19V33a1,1,0,0,0-2,0v1H15V33a3,3,0,0,1,6,0Z" style="fill:#784a42"/><path d="M31,34H29V33a1,1,0,0,0-2,0v1H25V33a3,3,0,0,1,6,0Z" style="fill:#784a42"/><path d="M23,42a4,4,0,0,1-4-4V37h2v1a2,2,0,0,0,4,0V37h2v1A4,4,0,0,1,23,42Z" style="fill:#784a42"/><polygon points="23 51 27 47 33 47 27 55 23 51" style="fill:#02998a"/><polygon points="23 51 19 47 13 47 19 55 23 51" style="fill:#02998a"/><path d="M23,55a1,1,0,0,1-.38-.08,1.155,1.155,0,0,1-.33-.21A.99.99,0,0,1,22,54a1.05,1.05,0,0,1,.29-.71,1.576,1.576,0,0,1,.15-.12.757.757,0,0,1,.18-.09.636.636,0,0,1,.18-.06.9.9,0,0,1,.4,0,.636.636,0,0,1,.18.06.757.757,0,0,1,.18.09,1.576,1.576,0,0,1,.15.12A1.05,1.05,0,0,1,24,54a.99.99,0,0,1-.29.71,1.155,1.155,0,0,1-.33.21A1,1,0,0,1,23,55Z" style="fill:#02998a"/><path d="M16,21V16.057A13.015,13.015,0,0,0,10.634,23H14A2,2,0,0,0,16,21Z" style="fill:#f5cf68"/><path d="M32,23h3.366A13.015,13.015,0,0,0,30,16.057V21A2,2,0,0,0,32,23Z" style="fill:#f5cf68"/></g></svg>
