<?xml version="1.0"?>
<svg xmlns="http://www.w3.org/2000/svg" viewBox="0 0 64 64" width="512" height="512"><g id="Flat"><path d="M3,15V47H61V15a2,2,0,0,0-2-2H5A2,2,0,0,0,3,15Z" style="fill:#e6e6e6"/><polygon points="16 3 40 3 48 11 48 43 16 43 16 3" style="fill:#a7d6dd"/><path d="M37,55.584V51H27v4.584a6.007,6.007,0,0,1-.633,2.683L25,61H39l-1.367-2.733A6.007,6.007,0,0,1,37,55.584Z" style="fill:#e6e6e6"/><path d="M3,47v4a2,2,0,0,0,2,2H59a2,2,0,0,0,2-2V47Z" style="fill:#b3b3b3"/><polygon points="48 11 40 3 40 11 48 11" style="fill:#6cbbc7"/><rect x="35" y="14" width="10" height="2" style="fill:#6cbbc7"/><rect x="35" y="18" width="10" height="2" style="fill:#6cbbc7"/><rect x="27" y="6" width="10" height="2" style="fill:#6cbbc7"/><path d="M26,15a2,2,0,0,1,2,2h4a6,6,0,0,0-10.243-4.243l2.829,2.829A1.994,1.994,0,0,1,26,15Z" style="fill:#f5cf68"/><path d="M28,17a2,2,0,1,1-3.414-1.414l-2.829-2.829A6,6,0,1,0,32,17Z" style="fill:#02998a"/><path d="M26,15a1.994,1.994,0,0,0-1.414.586L25,16l-.414-.414A2,2,0,1,0,26,15Z" style="fill:#ff6536"/><rect x="19" y="26" width="10" height="2" style="fill:#6cbbc7"/><rect x="19" y="30" width="10" height="2" style="fill:#6cbbc7"/><rect x="19" y="34" width="10" height="2" style="fill:#6cbbc7"/><polygon points="32.707 36.707 31.293 35.293 36 30.586 38 32.586 43.293 27.293 44.707 28.707 38 35.414 36 33.414 32.707 36.707" style="fill:#02998a"/><rect x="19" y="38" width="10" height="2" style="fill:#6cbbc7"/><polygon points="45 40 31 40 31 26 33 26 33 38 45 38 45 40" style="fill:#ff6536"/></g></svg>
