<?xml version="1.0"?>
<svg xmlns="http://www.w3.org/2000/svg" viewBox="0 0 64 64" width="512" height="512"><g id="Flat"><polygon points="52 48 35 31 31 31 31 35 48 52 52 48" style="fill:#e6e6e6"/><path d="M13,3C7.477,3,3,4.343,3,6V24c0,1.657,4.477,3,10,3s10-1.343,10-3V6C23,4.343,18.523,3,13,3Z" style="fill:#f5cf68"/><ellipse cx="13" cy="6" rx="10" ry="3" style="fill:#f5cf68"/><path d="M3,24c0,1.657,4.477,3,10,3s10-1.343,10-3V18c0,1.657-4.477,3-10,3S3,19.657,3,18Z" style="fill:#fdb62f"/><path d="M23,6c0,1.657-4.477,3-10,3S3,7.657,3,6v6c0,1.657,4.477,3,10,3s10-1.343,10-3Z" style="fill:#fdb62f"/><path d="M15,13h.343A13.658,13.658,0,0,0,25,9h0a13.658,13.658,0,0,0,9.657,4H35v.793A23.445,23.445,0,0,1,25,33h0A23.445,23.445,0,0,1,15,13.793Z" style="fill:#02998a"/><rect x="28.5" y="23.136" width="2" height="12.728" transform="translate(-12.219 29.5) rotate(-45)" style="fill:#b3b3b3"/><polygon points="35 31 31 31 31 35 43 47 47 43 35 31" style="fill:#6cbbc7"/><polygon points="48 52 52 48 55 51 59 57 57 59 51 55 48 52" style="fill:#e6e6e6"/><rect x="44.343" y="49" width="11.314" height="2" transform="translate(-20.711 50) rotate(-45)" style="fill:#b3b3b3"/><rect x="53.757" y="57" width="8.485" height="2" transform="translate(-24.024 58) rotate(-45)" style="fill:#b3b3b3"/></g></svg>
