<?xml version="1.0"?>
<svg xmlns="http://www.w3.org/2000/svg" viewBox="0 0 64 64" width="512" height="512"><g id="Flat"><path d="M55,19H9a4,4,0,0,0-4,4V57H59V23A4,4,0,0,0,55,19Z" style="fill:#a7d6dd"/><path d="M3,57H61v2a2,2,0,0,1-2,2H5a2,2,0,0,1-2-2Z" style="fill:#6cbbc7"/><rect x="31" y="2" width="2" height="4" style="fill:#fdb62f"/><path d="M46,23a14,14,0,1,0-24.822,8.867A20.226,20.226,0,0,1,26,44.68V45H38v-.574a19.488,19.488,0,0,1,4.748-12.47A13.9,13.9,0,0,0,46,23Z" style="fill:#f5cf68"/><rect x="26" y="45" width="12" height="4" style="fill:#02998a"/><path d="M26,49h0a4,4,0,0,0,4,4h4a4,4,0,0,0,4-4H26Z" style="fill:#83beb9"/><rect x="21.5" y="4.546" width="2" height="4" transform="translate(-0.258 12.128) rotate(-30.002)" style="fill:#fdb62f"/><rect x="14.545" y="11.5" width="2" height="4" transform="translate(-3.919 20.212) rotate(-59.998)" style="fill:#fdb62f"/><rect x="47.454" y="30.5" width="2" height="4" transform="translate(-3.919 58.211) rotate(-59.998)" style="fill:#fdb62f"/><rect x="11" y="22" width="4" height="2" style="fill:#fdb62f"/><rect x="49" y="22" width="4" height="2" style="fill:#fdb62f"/><rect x="13.546" y="31.5" width="4" height="2" transform="translate(-14.165 12.124) rotate(-29.995)" style="fill:#fdb62f"/><rect x="46.455" y="12.5" width="4" height="2" transform="translate(-0.259 26.031) rotate(-29.995)" style="fill:#fdb62f"/><rect x="39.5" y="5.545" width="4" height="2" transform="translate(15.085 39.215) rotate(-60.005)" style="fill:#fdb62f"/></g></svg>
