<?xml version="1.0"?>
<svg xmlns="http://www.w3.org/2000/svg" viewBox="0 0 64 64" width="512" height="512"><g id="Flat"><rect x="29" y="22.458" width="6" height="8.75" style="fill:#ff6536"/><rect x="20" y="22.458" width="4" height="8.75" style="fill:#ff6536"/><rect x="40" y="22.458" width="4" height="8.75" style="fill:#ff6536"/><path d="M52,43a8.991,8.991,0,0,0-7.462,3.967,6.981,6.981,0,0,0-10.124,3.68,4.922,4.922,0,0,0-5.908.783,6.975,6.975,0,0,0-8.788-4.042A9,9,0,1,0,12,61H52a9,9,0,0,0,0-18Z" style="fill:#6cbbc7"/><path d="M32,36a3,3,0,0,0-3,3,9.656,9.656,0,0,0,2.828,6.828L32,46l.172-.172A9.656,9.656,0,0,0,35,39,3,3,0,0,0,32,36Z" style="fill:#fdb62f"/><path d="M39,13.616V28H25V13.616A11.55,11.55,0,0,1,32,3h0A11.55,11.55,0,0,1,39,13.616Z" style="fill:#02998a"/><path d="M25,18h0a8.775,8.775,0,0,0-6,8.325V28h6Z" style="fill:#fdb62f"/><path d="M39,18h0a8.775,8.775,0,0,1,6,8.325V28H39Z" style="fill:#fdb62f"/><path d="M22,36a2,2,0,0,0-2,2,4.828,4.828,0,0,0,1.414,3.414L22,42l.586-.586A4.828,4.828,0,0,0,24,38,2,2,0,0,0,22,36Z" style="fill:#fdb62f"/><path d="M42,36a2,2,0,0,0-2,2,4.828,4.828,0,0,0,1.414,3.414L42,42l.586-.586A4.828,4.828,0,0,0,44,38,2,2,0,0,0,42,36Z" style="fill:#fdb62f"/><circle cx="32" cy="14" r="3" style="fill:#83beb9"/></g></svg>
