<?xml version="1.0"?>
<svg xmlns="http://www.w3.org/2000/svg" viewBox="0 0 64 64" width="512" height="512"><g id="Flat"><ellipse cx="17" cy="8" rx="14" ry="5" style="fill:#f5cf68"/><path d="M31,8v8c0,2.761-6.268,5-14,5S3,18.761,3,16V8c0,2.761,6.268,5,14,5S31,10.761,31,8Z" style="fill:#fdb62f"/><path d="M31,16v8c0,2.761-6.268,5-14,5S3,26.761,3,24V16c0,2.761,6.268,5,14,5S31,18.761,31,16Z" style="fill:#f5cf68"/><path d="M31,24v8c0,2.761-6.268,5-14,5S3,34.761,3,32V24c0,2.761,6.268,5,14,5S31,26.761,31,24Z" style="fill:#fdb62f"/><path d="M25,22H41V18H29a4,4,0,0,0-4,4Z" style="fill:#e6e6e6"/><polygon points="41 22 42 26 48 26 49 22 49 18 41 18 41 22" style="fill:#b3b3b3"/><rect x="43" y="14" width="4" height="4" style="fill:#e6e6e6"/><path d="M43,26V59a2,2,0,0,0,2,2h0a2,2,0,0,0,2-2V26Z" style="fill:#784a42"/><polygon points="49 18 61 18 61 23 49 22 49 18" style="fill:#e6e6e6"/><rect x="43" y="26" width="4" height="8" style="fill:#fdb62f"/></g></svg>
