<?xml version="1.0"?>
<svg xmlns="http://www.w3.org/2000/svg" viewBox="0 0 64 64" width="512" height="512"><g id="Flat"><rect x="25" y="3" width="14" height="9" style="fill:#e6e6e6"/><rect x="30" y="12" width="4" height="4" style="fill:#b3b3b3"/><rect x="27" y="15" width="10" height="2" style="fill:#e6e6e6"/><path d="M18,34h0a19.315,19.315,0,0,0,13.657-5.657L32,28l.343.343A19.315,19.315,0,0,0,46,34h0v1.357A30.485,30.485,0,0,1,32,61h0A30.485,30.485,0,0,1,18,35.357Z" style="fill:#02998a"/><rect x="47" y="3" width="14" height="9" style="fill:#e6e6e6"/><rect x="52" y="12" width="4" height="4" style="fill:#b3b3b3"/><rect x="49" y="15" width="10" height="2" style="fill:#e6e6e6"/><rect x="3" y="3" width="14" height="9" style="fill:#e6e6e6"/><rect x="8" y="12" width="4" height="4" style="fill:#b3b3b3"/><rect x="5" y="15" width="10" height="2" style="fill:#e6e6e6"/><polygon points="55 19 53 19 53 21 33 21 33 19 31 19 31 21 11 21 11 19 9 19 9 23 31 23 31 25 33 25 33 23 55 23 55 19" style="fill:#b3b3b3"/><rect x="26" y="41" width="12" height="9" style="fill:#fdb62f"/><path d="M37,41H35V38a3,3,0,0,0-6,0v3H27V38a5,5,0,0,1,10,0Z" style="fill:#f5cf68"/><path d="M32,47a1,1,0,0,1-1-1V45a1,1,0,0,1,2,0v1A1,1,0,0,1,32,47Z" style="fill:#f5cf68"/></g></svg>
