<?xml version="1.0"?>
<svg xmlns="http://www.w3.org/2000/svg" viewBox="0 0 64 64" width="512" height="512"><g id="Flat"><path d="M5,61H59a2,2,0,0,0,2-2V11H3V59A2,2,0,0,0,5,61Z" style="fill:#a7d6dd"/><path d="M3,11H61V5a2,2,0,0,0-2-2H5A2,2,0,0,0,3,5Z" style="fill:#b3b3b3"/><path d="M7,8a1,1,0,0,1-.38-.08,1.155,1.155,0,0,1-.33-.21,1.032,1.032,0,0,1-.21-.33.942.942,0,0,1,0-.76.9.9,0,0,1,.54-.54,1.017,1.017,0,0,1,1.09.21,1.014,1.014,0,0,1,0,1.42,1.576,1.576,0,0,1-.15.12.757.757,0,0,1-.18.09.6.6,0,0,1-.19.06A1.225,1.225,0,0,1,7,8Z" style="fill:#ff6536"/><path d="M11,8a1,1,0,0,1-.38-.08,1.155,1.155,0,0,1-.33-.21,1.032,1.032,0,0,1-.21-.33.942.942,0,0,1,0-.76.9.9,0,0,1,.54-.54.916.916,0,0,1,.76,0,1.032,1.032,0,0,1,.33.21,1.014,1.014,0,0,1,0,1.42,1.032,1.032,0,0,1-.33.21A1,1,0,0,1,11,8Z" style="fill:#fdb62f"/><path d="M15,8a1,1,0,0,1-.38-.08,1.155,1.155,0,0,1-.33-.21,1.032,1.032,0,0,1-.21-.33.942.942,0,0,1,0-.76,1.032,1.032,0,0,1,.21-.33,1.155,1.155,0,0,1,.33-.21,1,1,0,0,1,1.09.21,1.032,1.032,0,0,1,.21.33.943.943,0,0,1,0,.76,1.032,1.032,0,0,1-.21.33A1.052,1.052,0,0,1,15,8Z" style="fill:#02998a"/><path d="M25,15H55a2,2,0,0,1,2,2V55a2,2,0,0,1-2,2H23V17A2,2,0,0,1,25,15Z" style="fill:#999"/><circle cx="40" cy="54" r="2" style="fill:#ccc"/><rect x="23" y="21" width="34" height="30" style="fill:#ccc"/><rect x="7" y="29" width="18" height="28" rx="2" ry="2" style="fill:#b3b3b3"/><rect x="7" y="33" width="18" height="20" style="fill:#e6e6e6"/><path d="M40,19a1.052,1.052,0,0,1-.71-.29A1.033,1.033,0,0,1,39,18a1,1,0,0,1,.08-.38.933.933,0,0,1,.21-.33,1.047,1.047,0,0,1,1.42,0,.933.933,0,0,1,.21.33A1,1,0,0,1,41,18a1.033,1.033,0,0,1-.29.71A1.052,1.052,0,0,1,40,19Z" style="fill:#ccc"/></g></svg>
