<?xml version="1.0"?>
<svg xmlns="http://www.w3.org/2000/svg" viewBox="0 0 64 64" width="512" height="512"><g id="Flat"><rect x="3" y="3" width="58" height="58" style="fill:#e6e6e6"/><rect x="3" y="3" width="58" height="6" style="fill:#b3b3b3"/><path d="M6,7a.991.991,0,0,1-.71-.29,1.169,1.169,0,0,1-.21-.33A.838.838,0,0,1,5,6a1,1,0,0,1,1.71-.71A1.05,1.05,0,0,1,7,6a1,1,0,0,1-.08.38,1.169,1.169,0,0,1-.21.33,1.169,1.169,0,0,1-.33.21A1,1,0,0,1,6,7Z" style="fill:#ff6536"/><path d="M9,7a.991.991,0,0,1-.71-.29,1.169,1.169,0,0,1-.21-.33.942.942,0,0,1,0-.76,1.155,1.155,0,0,1,.21-.33,1.047,1.047,0,0,1,1.42,0,1.155,1.155,0,0,1,.21.33.943.943,0,0,1,0,.76,1.169,1.169,0,0,1-.21.33,1.169,1.169,0,0,1-.33.21A1,1,0,0,1,9,7Z" style="fill:#fdb62f"/><path d="M12,7a.99.99,0,0,1-.92-1.38,1.032,1.032,0,0,1,.21-.33,1.7,1.7,0,0,1,.149-.12.782.782,0,0,1,.181-.09.636.636,0,0,1,.18-.06.949.949,0,0,1,.58.06,1.169,1.169,0,0,1,.33.21,1.155,1.155,0,0,1,.21.33.943.943,0,0,1,0,.76,1.169,1.169,0,0,1-.21.33A.994.994,0,0,1,12,7Z" style="fill:#02998a"/><path d="M19,13h0a8,8,0,0,1-8,8h0l.134,1.605A45.11,45.11,0,0,0,32,57h0A45.11,45.11,0,0,0,52.866,22.605L53,21H52a8,8,0,0,1-8-8H19Z" style="fill:#02998a"/><path d="M18.827,35.827l6.345,6.345a4,4,0,0,0,5.656,0L45.172,27.828a2.828,2.828,0,0,0,.828-2h0A2.828,2.828,0,0,0,43.172,23h0a2.828,2.828,0,0,0-2,.828L29.414,35.586a2,2,0,0,1-2.828,0l-3.8-3.8A2.7,2.7,0,0,0,20.884,31h-.108A2.774,2.774,0,0,0,18,33.776v.056A2.823,2.823,0,0,0,18.827,35.827Z" style="fill:#fdb62f"/></g></svg>
