<?xml version="1.0"?>
<svg xmlns="http://www.w3.org/2000/svg" viewBox="0 0 64 64" width="512" height="512"><g id="Flat"><rect x="37.257" y="37.964" width="8.485" height="7.071" transform="translate(-17.19 41.5) rotate(-45)" style="fill:#b3b3b3"/><circle cx="25" cy="25" r="22" style="fill:#e6e6e6"/><path d="M61,58.172h0A2.828,2.828,0,0,1,58.172,61h0a2.828,2.828,0,0,1-2-.828L42,46l4-4L60.172,56.172A2.828,2.828,0,0,1,61,58.172Z" style="fill:#6cbbc7"/><path d="M31,37H19V18.211A13.475,13.475,0,0,1,25,7h0a13.475,13.475,0,0,1,6,11.211Z" style="fill:#02998a"/><path d="M23,16v2h4V16a2,2,0,0,0-2-2h0A2,2,0,0,0,23,16Z" style="fill:#a7d6dd"/><path d="M19,22l-1.35,3.375a11.064,11.064,0,0,1-1.77,2.97l-1.319,1.582A11.047,11.047,0,0,0,12,37h7Z" style="fill:#fdb62f"/><rect x="19" y="37" width="4" height="4" style="fill:#ff6536"/><rect x="27" y="37" width="4" height="4" style="fill:#ff6536"/><path d="M31,22l1.35,3.375a11.064,11.064,0,0,0,1.77,2.97l1.319,1.582A11.047,11.047,0,0,1,38,37H31Z" style="fill:#fdb62f"/></g></svg>
