<?xml version="1.0"?>
<svg xmlns="http://www.w3.org/2000/svg" viewBox="0 0 64 64" width="512" height="512"><g id="Flat"><rect x="41" y="3" width="20" height="28" style="fill:#e6e6e6"/><rect x="41" y="23" width="20" height="8" style="fill:#b3b3b3"/><rect x="8" y="41" width="20" height="14" style="fill:#e6e6e6"/><rect x="16" y="55" width="4" height="4" style="fill:#b3b3b3"/><rect x="13" y="58" width="10" height="2" style="fill:#e6e6e6"/><circle cx="8" cy="50" r="3" style="fill:#ffe9cc"/><path d="M3,61V58a5,5,0,0,1,5-5H8a5,5,0,0,1,5,5v3Z" style="fill:#83beb9"/><path d="M57,8a1,1,0,0,1-.38-.08,1.155,1.155,0,0,1-.33-.21,1.169,1.169,0,0,1-.21-.33.943.943,0,0,1,0-.76,1.032,1.032,0,0,1,.21-.33,1.047,1.047,0,0,1,1.42,0,1.032,1.032,0,0,1,.21.33.942.942,0,0,1,0,.76,1.169,1.169,0,0,1-.21.33,1.155,1.155,0,0,1-.33.21A1,1,0,0,1,57,8Z" style="fill:#6cbbc7"/><rect x="44" y="6" width="4" height="2" style="fill:#6cbbc7"/><path d="M57,12a1,1,0,0,1-.38-.08,1.155,1.155,0,0,1-.33-.21.99.99,0,0,1-.21-1.09.9.9,0,0,1,.54-.54,1,1,0,0,1,1.09.21A1.05,1.05,0,0,1,58,11a.99.99,0,0,1-1,1Z" style="fill:#6cbbc7"/><rect x="44" y="10" width="4" height="2" style="fill:#6cbbc7"/><path d="M57,16a1,1,0,0,1-.38-.07,1.461,1.461,0,0,1-.33-.22.99.99,0,0,1-.21-1.09.9.9,0,0,1,.54-.54,1,1,0,0,1,1.09.21A1.05,1.05,0,0,1,58,15a.838.838,0,0,1-.08.38,1.169,1.169,0,0,1-.21.33,1.461,1.461,0,0,1-.33.22A1,1,0,0,1,57,16Z" style="fill:#6cbbc7"/><rect x="44" y="14" width="4" height="2" style="fill:#6cbbc7"/><path d="M45,28a.99.99,0,0,1-.92-1.38,1.032,1.032,0,0,1,.21-.33A1,1,0,0,1,46,27a.99.99,0,0,1-1,1Z" style="fill:#e6e6e6"/><rect x="48" y="26" width="10" height="2" style="fill:#e6e6e6"/><rect x="50" y="6" width="4" height="2" style="fill:#6cbbc7"/><rect x="50" y="10" width="4" height="2" style="fill:#6cbbc7"/><rect x="50" y="14" width="4" height="2" style="fill:#6cbbc7"/><rect x="50" y="34" width="2" height="4" style="fill:#b3b3b3"/><rect x="50" y="40" width="2" height="4" style="fill:#b3b3b3"/><polygon points="52 49 49 49 49 47 50 47 50 46 52 46 52 49" style="fill:#b3b3b3"/><rect x="43" y="47" width="4" height="2" style="fill:#b3b3b3"/><rect x="37" y="47" width="4" height="2" style="fill:#b3b3b3"/><rect x="31" y="47" width="4" height="2" style="fill:#b3b3b3"/><rect x="17" y="22" width="2" height="4" style="fill:#b3b3b3"/><rect x="17" y="28" width="2" height="4" style="fill:#b3b3b3"/><rect x="17" y="34" width="2" height="4" style="fill:#b3b3b3"/><polygon points="19 14 17 14 17 11 20 11 20 13 19 13 19 14" style="fill:#b3b3b3"/><rect x="17" y="16" width="2" height="4" style="fill:#b3b3b3"/><rect x="22" y="11" width="4" height="2" style="fill:#b3b3b3"/><rect x="28" y="11" width="4" height="2" style="fill:#b3b3b3"/><rect x="34" y="11" width="4" height="2" style="fill:#b3b3b3"/><path d="M57,20a1,1,0,0,1-.38-.07,1.461,1.461,0,0,1-.33-.22A.99.99,0,0,1,56,19a1.05,1.05,0,0,1,.29-.71,1.034,1.034,0,0,1,1.42,0A1.05,1.05,0,0,1,58,19a.99.99,0,0,1-.29.71,1.461,1.461,0,0,1-.33.22A1,1,0,0,1,57,20Z" style="fill:#6cbbc7"/><rect x="44" y="18" width="4" height="2" style="fill:#6cbbc7"/><rect x="50" y="18" width="4" height="2" style="fill:#6cbbc7"/></g></svg>
