<?xml version="1.0"?>
<svg xmlns="http://www.w3.org/2000/svg" viewBox="0 0 64 64" width="512" height="512"><g id="Flat"><polygon points="56 52 54 52 54 36 10 36 10 49 8 49 8 34 56 34 56 52" style="fill:#b3b3b3"/><rect x="31" y="25" width="2" height="11" style="fill:#b3b3b3"/><rect x="45" y="25" width="2" height="11" style="fill:#b3b3b3"/><rect x="17" y="25" width="2" height="11" style="fill:#b3b3b3"/><path d="M52.379,46.515A2,2,0,0,0,50.438,45H45.562a2,2,0,0,0-1.941,1.515L43,49v2H53V49Z" style="fill:#fdb62f"/><polygon points="3 45 3 61 15 61 15 51 9 45 3 45" style="fill:#a7d6dd"/><path d="M32,38a3,3,0,1,1,3-3A3,3,0,0,1,32,38Zm0-4a1,1,0,1,0,1,1A1,1,0,0,0,32,34Z" style="fill:#ff6536"/><path d="M18,38a3,3,0,1,1,3-3A3,3,0,0,1,18,38Zm0-4a1,1,0,1,0,1,1A1,1,0,0,0,18,34Z" style="fill:#ff6536"/><path d="M46,38a3,3,0,1,1,3-3A3,3,0,0,1,46,38Zm0-4a1,1,0,1,0,1,1A1,1,0,0,0,46,34Z" style="fill:#ff6536"/><polygon points="15 51 9 45 9 51 15 51" style="fill:#6cbbc7"/><path d="M59,49H43V61H61V51A2,2,0,0,0,59,49Z" style="fill:#f5cf68"/><rect x="13" y="3" width="10" height="23" style="fill:#83beb9"/><rect x="27" y="3" width="10" height="23" style="fill:#83beb9"/><rect x="41" y="3" width="10" height="23" style="fill:#83beb9"/><path d="M18,23a.994.994,0,0,1-.71-.29,1.169,1.169,0,0,1-.21-.33.943.943,0,0,1,0-.76.9.9,0,0,1,.54-.54,1,1,0,0,1,1.09.21,1.155,1.155,0,0,1,.21.33.942.942,0,0,1,0,.76,1.169,1.169,0,0,1-.21.33A.994.994,0,0,1,18,23Z" style="fill:#02998a"/><path d="M32,23a.994.994,0,0,1-.71-.29,1.169,1.169,0,0,1-.21-.33.943.943,0,0,1,0-.76,1.155,1.155,0,0,1,.21-.33,1.032,1.032,0,0,1,.33-.21.991.991,0,0,1,.76,0,1.032,1.032,0,0,1,.33.21,1.155,1.155,0,0,1,.21.33.942.942,0,0,1,0,.76,1.169,1.169,0,0,1-.21.33A.994.994,0,0,1,32,23Z" style="fill:#02998a"/><path d="M46,23a.994.994,0,0,1-.71-.29,1.169,1.169,0,0,1-.21-.33.943.943,0,0,1,0-.76,1.155,1.155,0,0,1,.21-.33,1,1,0,0,1,1.09-.21.9.9,0,0,1,.54.54.942.942,0,0,1,0,.76,1.169,1.169,0,0,1-.21.33A.994.994,0,0,1,46,23Z" style="fill:#02998a"/><rect x="16" y="6" width="4" height="2" style="fill:#02998a"/><rect x="16" y="10" width="4" height="2" style="fill:#02998a"/><rect x="16" y="14" width="4" height="2" style="fill:#02998a"/><rect x="30" y="6" width="4" height="2" style="fill:#02998a"/><rect x="30" y="10" width="4" height="2" style="fill:#02998a"/><rect x="30" y="14" width="4" height="2" style="fill:#02998a"/><rect x="44" y="6" width="4" height="2" style="fill:#02998a"/><rect x="44" y="10" width="4" height="2" style="fill:#02998a"/><rect x="44" y="14" width="4" height="2" style="fill:#02998a"/><path d="M18,20a1,1,0,0,1-.38-.08,1.155,1.155,0,0,1-.33-.21,1.169,1.169,0,0,1-.21-.33.943.943,0,0,1,0-.76.9.9,0,0,1,.54-.54.916.916,0,0,1,.76,0,.9.9,0,0,1,.54.54.942.942,0,0,1,0,.76,1.169,1.169,0,0,1-.21.33,1.155,1.155,0,0,1-.33.21A1,1,0,0,1,18,20Z" style="fill:#02998a"/><path d="M32,20a1,1,0,0,1-.38-.08,1.155,1.155,0,0,1-.33-.21,1.169,1.169,0,0,1-.21-.33.943.943,0,0,1,0-.76,1.032,1.032,0,0,1,.21-.33,1.009,1.009,0,0,1,.91-.27.636.636,0,0,1,.18.06.757.757,0,0,1,.18.09,1.576,1.576,0,0,1,.15.12,1.155,1.155,0,0,1,.21.33.99.99,0,0,1-.21,1.09,1.155,1.155,0,0,1-.33.21A1,1,0,0,1,32,20Z" style="fill:#02998a"/><path d="M46,20a.99.99,0,0,1-.92-1.38,1.155,1.155,0,0,1,.21-.33,1.576,1.576,0,0,1,.15-.12.757.757,0,0,1,.18-.09.636.636,0,0,1,.18-.06,1.009,1.009,0,0,1,.91.27,1.155,1.155,0,0,1,.21.33A.838.838,0,0,1,47,19a.99.99,0,0,1-.29.71,1.155,1.155,0,0,1-.33.21A1,1,0,0,1,46,20Z" style="fill:#02998a"/></g></svg>
