<?xml version="1.0"?>
<svg xmlns="http://www.w3.org/2000/svg" viewBox="0 0 64 64" width="512" height="512"><g id="Flat"><rect x="14" y="58" width="16" height="2" style="fill:#b3b3b3"/><rect x="34" y="58" width="16" height="2" style="fill:#b3b3b3"/><rect x="31" y="51" width="2" height="6" style="fill:#b3b3b3"/><path d="M54,19a6.978,6.978,0,0,0-2.035.3,9.981,9.981,0,0,0-14.022-8.438,12.993,12.993,0,0,0-24.586,2.153c-.119,0-.236-.018-.357-.018a10,10,0,0,0,0,20H54a7,7,0,0,0,0-14Z" style="fill:#6cbbc7"/><path d="M32,62a3,3,0,1,1,3-3A3,3,0,0,1,32,62Zm0-4a1,1,0,1,0,1,1A1,1,0,0,0,32,58Z" style="fill:#ff6536"/><rect x="17" y="41" width="30" height="10" style="fill:#f5cf68"/><path d="M21,47a1,1,0,0,1-.38-.08,1.155,1.155,0,0,1-.33-.21,1.169,1.169,0,0,1-.21-.33A.838.838,0,0,1,20,46a1,1,0,0,1,.08-.38,1.032,1.032,0,0,1,.21-.33,1.047,1.047,0,0,1,1.42,0,1.032,1.032,0,0,1,.21.33.942.942,0,0,1,0,.76,1.169,1.169,0,0,1-.21.33A.994.994,0,0,1,21,47Z" style="fill:#fdb62f"/><rect x="42" y="44" width="2" height="4" style="fill:#fdb62f"/><rect x="38" y="44" width="2" height="4" style="fill:#fdb62f"/><rect x="34" y="44" width="2" height="4" style="fill:#fdb62f"/><rect x="17" y="31" width="30" height="10" style="fill:#83beb9"/><path d="M21,37a1,1,0,0,1-.38-.08,1.155,1.155,0,0,1-.33-.21A.99.99,0,0,1,20,36a1.025,1.025,0,0,1,.29-.71,1,1,0,0,1,.9-.27.609.609,0,0,1,.191.06.568.568,0,0,1,.17.09c.059.04.11.08.16.12A1.05,1.05,0,0,1,22,36a.994.994,0,0,1-.29.71,1.169,1.169,0,0,1-.33.21A1,1,0,0,1,21,37Z" style="fill:#02998a"/><rect x="42" y="34" width="2" height="4" style="fill:#02998a"/><rect x="38" y="34" width="2" height="4" style="fill:#02998a"/><rect x="34" y="34" width="2" height="4" style="fill:#02998a"/><rect x="17" y="21" width="30" height="10" style="fill:#ffdaaa"/><path d="M21,27a1,1,0,0,1-.38-.08,1.155,1.155,0,0,1-.33-.21,1.169,1.169,0,0,1-.21-.33A.838.838,0,0,1,20,26a1,1,0,1,1,2,0,1,1,0,0,1-.08.38.9.9,0,0,1-.54.54A1,1,0,0,1,21,27Z" style="fill:#ff6536"/><rect x="42" y="24" width="2" height="4" style="fill:#ff6536"/><rect x="38" y="24" width="2" height="4" style="fill:#ff6536"/><rect x="34" y="24" width="2" height="4" style="fill:#ff6536"/><path d="M25,27a1,1,0,0,1-.38-.08,1.155,1.155,0,0,1-.33-.21A.99.99,0,0,1,24,26a.838.838,0,0,1,.08-.38,1.032,1.032,0,0,1,.21-.33,1.047,1.047,0,0,1,1.42,0,1.032,1.032,0,0,1,.21.33.99.99,0,0,1-.21,1.09,1.169,1.169,0,0,1-.33.21A1,1,0,0,1,25,27Z" style="fill:#ff6536"/><path d="M25,37a1,1,0,0,1-.38-.08,1.155,1.155,0,0,1-.33-.21A.99.99,0,0,1,24,36a1,1,0,1,1,2,0,.99.99,0,0,1-1,1Z" style="fill:#02998a"/><path d="M25,47a1,1,0,0,1-.38-.08,1.155,1.155,0,0,1-.33-.21A.99.99,0,0,1,24,46a.838.838,0,0,1,.08-.38,1.032,1.032,0,0,1,.21-.33,1.047,1.047,0,0,1,1.42,0,1.032,1.032,0,0,1,.21.33.99.99,0,0,1-.21,1.09,1.169,1.169,0,0,1-.33.21A1,1,0,0,1,25,47Z" style="fill:#fdb62f"/></g></svg>
