<?xml version="1.0"?>
<svg xmlns="http://www.w3.org/2000/svg" viewBox="0 0 64 64" width="512" height="512"><g id="Flat"><rect x="3" y="11" width="58" height="46" style="fill:#e6e6e6"/><rect x="3" y="3" width="58" height="8" style="fill:#b3b3b3"/><path d="M7,8a1,1,0,0,1-.38-.08,1.032,1.032,0,0,1-.33-.21,1.014,1.014,0,0,1,0-1.42,1.032,1.032,0,0,1,.33-.21,1,1,0,0,1,1.09.21A1,1,0,0,1,7,8Z" style="fill:#ff6536"/><path d="M11,8a1.05,1.05,0,0,1-.71-.29,1.576,1.576,0,0,1-.12-.15.757.757,0,0,1-.09-.18.636.636,0,0,1-.06-.18A1.5,1.5,0,0,1,10,7a1,1,0,0,1,.08-.38,1.155,1.155,0,0,1,.21-.33,1.047,1.047,0,0,1,1.42,0,1.155,1.155,0,0,1,.21.33A1,1,0,0,1,12,7a.99.99,0,0,1-1,1Z" style="fill:#fdb62f"/><path d="M15,8a1.355,1.355,0,0,1-.2-.02.636.636,0,0,1-.18-.06.782.782,0,0,1-.181-.09l-.149-.12A1.047,1.047,0,0,1,14,7a.838.838,0,0,1,.08-.38,1.032,1.032,0,0,1,.21-.33l.149-.12a.782.782,0,0,1,.181-.09.636.636,0,0,1,.18-.06,1.046,1.046,0,0,1,.91.27,1.032,1.032,0,0,1,.21.33A.852.852,0,0,1,16,7a.99.99,0,0,1-1,1Z" style="fill:#02998a"/><path d="M7,61V45a6,6,0,0,1,6-6h8a6,6,0,0,1,6,6V61Z" style="fill:#a7d6dd"/><path d="M31,25l-3,3,3,3v2a4,4,0,0,0,4,4H53a4,4,0,0,0,4-4V19a4,4,0,0,0-4-4H35a4,4,0,0,0-4,4Z" style="fill:#a7d6dd"/><path d="M17,51a1,1,0,0,1-.71-1.71,1.032,1.032,0,0,1,.33-.21.916.916,0,0,1,.76,0,1.169,1.169,0,0,1,.33.21A1,1,0,0,1,17,51Z" style="fill:#6cbbc7"/><path d="M17,56a.99.99,0,1,1,.71-.29A1.05,1.05,0,0,1,17,56Z" style="fill:#6cbbc7"/><polyline points="13 39 17 45 21 39" style="fill:#ffdaaa"/><path d="M43,21v2H38v8H49a4,4,0,0,0,4-4V25a2,2,0,0,0-2-2H47V21a2,2,0,0,0-2-2h0A2,2,0,0,0,43,21Z" style="fill:#ffdaaa"/><rect x="35" y="21" width="4" height="12" style="fill:#6cbbc7"/><path d="M17,24h6v6a6,6,0,0,1-6,6h0a6,6,0,0,1-6-6h0A6,6,0,0,1,17,24Z" style="fill:#ffdaaa"/><path d="M17,24a6,6,0,0,0-5.751,7.7A9.99,9.99,0,0,1,19,28h4V24Z" style="fill:#784a42"/></g></svg>
