<?xml version="1.0"?>
<svg xmlns="http://www.w3.org/2000/svg" viewBox="0 0 64 64" width="512" height="512"><g id="Flat"><rect x="35" y="3" width="26" height="26" rx="4" ry="4" style="fill:#ffdaaa"/><polygon points="40 6 40 10 42 10 42 8 47 8 47 24 45 24 45 26 51 26 51 24 49 24 49 8 54 8 54 10 56 10 56 6 40 6" style="fill:#ff6536"/><rect x="7" y="41" width="50" height="20" style="fill:#e6e6e6"/><rect x="7" y="35" width="50" height="6" style="fill:#b3b3b3"/><path d="M10,39a1.052,1.052,0,0,1-.71-.29A1.033,1.033,0,0,1,9,38a1,1,0,0,1,1.71-.71A1.052,1.052,0,0,1,11,38a1.033,1.033,0,0,1-.29.71c-.05.04-.1.08-.16.12a.556.556,0,0,1-.17.09.636.636,0,0,1-.18.06A1.355,1.355,0,0,1,10,39Z" style="fill:#ff6536"/><path d="M13,39a.838.838,0,0,1-.38-.08,1.155,1.155,0,0,1-.33-.21A1.033,1.033,0,0,1,12,38a1.052,1.052,0,0,1,.29-.71,1.155,1.155,0,0,1,.33-.21,1,1,0,0,1,1.09.21A1.052,1.052,0,0,1,14,38a1.033,1.033,0,0,1-.29.71A1.052,1.052,0,0,1,13,39Z" style="fill:#fdb62f"/><path d="M16,39a1.052,1.052,0,0,1-.71-.29A1.033,1.033,0,0,1,15,38a1,1,0,1,1,2,0,1.355,1.355,0,0,1-.02.2.636.636,0,0,1-.06.18.757.757,0,0,1-.09.18,1.576,1.576,0,0,1-.12.15A1.052,1.052,0,0,1,16,39Z" style="fill:#02998a"/><path d="M21,30H19.114V28H21Zm-4.92,0H13.045V28H16.08Zm-6.069,0H7l-.023-2,.085,0,2.949,0Zm-6.47-1.39a4.976,4.976,0,0,1-1.535-3.369l2-.095a2.982,2.982,0,0,0,.921,2.02ZM28,24V22h2v1.965ZM4,22.16H2V19.125H4Zm26-3.194H28V15.932h2ZM4,16.091H2V13.057H4ZM30,12.9H28V9.864h2ZM4,10.022H2V7l2-.012Zm24-3.15a2.99,2.99,0,0,0-.91-2.026L28.48,3.41A4.978,4.978,0,0,1,30,6.788ZM4.828,4.93,3.38,3.551A4.972,4.972,0,0,1,6.744,2.007l.1,2A2.985,2.985,0,0,0,4.828,4.93ZM25.046,4h-3.08V2H25ZM18.932,4H15.9V2h3.035ZM12.863,4H9.829V2h3.034Z" style="fill:#fdb62f"/><rect x="21" y="24" width="26" height="26" rx="4" ry="4" style="fill:#a7d6dd"/><path d="M26,37l-5,5v4a4,4,0,0,0,4,4H39l-8-8Z" style="fill:#83beb9"/><path d="M31,42l8,8h4a4,4,0,0,0,4-4V38l-6-6Z" style="fill:#02998a"/><circle cx="27" cy="30" r="2" style="fill:#ff6536"/><path d="M28,53h1v2a2,2,0,0,0,2,2h6a2,2,0,0,0,2-2V49a4,4,0,0,0-4-4H33a4,4,0,0,0-4,4H28a2,2,0,0,0-2,2h0A2,2,0,0,0,28,53Z" style="fill:#ffdaaa"/></g></svg>
