<?xml version="1.0"?>
<svg xmlns="http://www.w3.org/2000/svg" viewBox="0 0 64 64" width="512" height="512"><g id="Flat"><path d="M5,61H49a2.019,2.019,0,0,0,2-2.038V6H3V58.962A2.019,2.019,0,0,0,5,61Z" style="fill:#e6e6e6"/><polygon points="11 14 33 14 43 24 43 56 11 56 11 14" style="fill:#a7d6dd"/><path d="M3,9H51V5a2,2,0,0,0-2-2H5A2,2,0,0,0,3,5Z" style="fill:#b3b3b3"/><path d="M6,7a1.052,1.052,0,0,1-.71-.29.933.933,0,0,1-.21-.33.942.942,0,0,1,0-.76,1.032,1.032,0,0,1,.21-.33A1,1,0,0,1,7,6,.99.99,0,0,1,6,7Z" style="fill:#ff6536"/><path d="M9,7A.99.99,0,0,1,8,6a1.052,1.052,0,0,1,.29-.71.933.933,0,0,1,.33-.21,1.017,1.017,0,0,1,1.09.21,1.014,1.014,0,0,1,0,1.42A1.052,1.052,0,0,1,9,7Z" style="fill:#fdb62f"/><polygon points="43 24 33 14 33 24 43 24" style="fill:#6cbbc7"/><path d="M12,7a1,1,0,0,1-.38-.08,1.155,1.155,0,0,1-.33-.21,1.014,1.014,0,0,1,0-1.42,1.034,1.034,0,0,1,1.42,0,1.014,1.014,0,0,1,0,1.42A1.052,1.052,0,0,1,12,7Z" style="fill:#02998a"/><rect x="15" y="19" width="14" height="2" style="fill:#6cbbc7"/><rect x="15" y="25" width="14" height="2" style="fill:#6cbbc7"/><rect x="15" y="31" width="19" height="2" style="fill:#6cbbc7"/><rect x="15" y="37" width="13" height="2" style="fill:#6cbbc7"/><rect x="15" y="43" width="8" height="2" style="fill:#6cbbc7"/><rect x="15" y="49" width="6" height="2" style="fill:#6cbbc7"/><path d="M31,49,60.172,19.828a2.828,2.828,0,0,0,.828-2h0A2.828,2.828,0,0,0,58.172,15h0a2.828,2.828,0,0,0-2,.828L27,45l-2,6Z" style="fill:#ff6536"/><polygon points="27 45 25 51 31 49 33 47 29 43 27 45" style="fill:#f5cf68"/><path d="M54,18l2.172-2.172a2.828,2.828,0,0,1,2-.828h0A2.828,2.828,0,0,1,61,17.828h0a2.828,2.828,0,0,1-.828,2L58,22Z" style="fill:#f5cf68"/></g></svg>
